<svg width="995" height="547" viewBox="0 0 995 547" fill="none" xmlns="http://www.w3.org/2000/svg">
<path d="M394.866 545.916L354.526 366.722H608.307L649.211 531.027H845.225V545.916H652.918H394.866Z" fill="black"/>
<path d="M652.918 545.916H394.866L354.526 366.722H608.307L652.918 545.916ZM652.918 545.916H845.225V531.027H649.211" stroke="black" stroke-width="2" stroke-linecap="round" stroke-linejoin="round"/>
<path d="M518.406 448.264C523.827 462.066 519.013 476.479 508.197 480.727C497.382 484.975 484.045 477.692 478.624 463.89C473.202 450.088 478.017 435.676 488.833 431.427C499.648 427.179 512.985 434.462 518.406 448.264Z" fill="white" stroke="black" stroke-width="2"/>
<path d="M789.53 126.98C798.772 123.236 796.778 107.069 782.776 107.444C780.364 107.567 775.255 109.374 774.119 115.61C772.983 121.847 783.919 125.788 789.53 126.98Z" fill="black"/>
<path d="M724.84 123.983C734.083 120.24 732.089 104.072 718.086 104.447C715.674 104.571 710.565 106.377 709.429 112.614C708.293 118.85 719.23 122.792 724.84 123.983Z" fill="black"/>
<path d="M766.885 95.9957V89.8085M787.004 171.28C780.835 173.45 765.727 176.88 754.643 173.239M727.136 96.4126C727.525 98.8971 727.795 101.011 727.974 102.852M845.41 158.826C865.586 172.478 906.918 114.828 863.245 113.187M845.41 158.826C845.223 160.526 844.981 162.146 844.685 163.693M845.41 158.826C845.065 159.534 844.829 161.256 844.685 163.693M863.245 113.187C860.027 113.565 856.157 114.434 851.55 115.883C840.485 107.452 821.033 90.1944 831.748 88.6188C845.141 86.6492 846.062 52.889 829.376 50.574C812.69 48.2591 769.642 62.6058 763.758 54.899C757.874 47.1923 752.779 38.0313 743.197 52.3652C736.718 62.0585 730.259 69.8623 727.701 79.9334M863.245 113.187C865.523 101.487 868.851 75.3494 863.944 64.4016L868.915 43.2936L857.15 47.5324L859.548 30.7618L843.968 40.2192C843.59 33.1048 839.074 18.2574 824.028 15.7827C805.222 12.6892 763.949 22.3417 760.653 14.1782C758.016 7.64729 754.234 16.1454 752.673 21.2107C748.619 17.6944 740.466 12.1558 740.281 18.132C740.05 25.6023 719.688 55.1567 727.701 79.9334M727.701 79.9334C727.037 82.5467 726.636 85.3126 726.566 88.3038M762.031 107.953C755.278 118.757 743.2 141.317 748.905 145.123C754.61 148.929 759.393 148.309 766.885 147.939M847.59 143.58C853.768 140.721 864.509 134.184 858.055 130.906C849.988 126.809 866.048 117.928 872.195 125.667M844.685 163.693C843.92 167.689 842.79 171.199 841.285 174.349C834.628 188.286 820.638 195.2 798.486 206.052C785.458 212.435 772.631 214.281 762.031 212.838M844.685 163.693C843.921 176.642 845.756 209.785 847.59 218.403M762.031 212.838C759.423 212.483 756.95 211.929 754.643 211.194C752.119 210.391 749.793 209.373 747.703 208.163C742.119 204.929 738.222 200.329 736.766 194.825C732.237 177.718 728.161 155.495 727.577 134.22C727.252 130.018 727.152 126.757 727.179 124.089M762.031 212.838C762.881 220.58 764.625 233.581 766.645 242.515M770.128 252.015L762.031 274.694M770.128 252.015C771.283 252.901 777.985 251.476 787.004 248.738M770.128 252.015C768.952 251.113 767.757 247.429 766.645 242.515M847.59 218.403C848.009 220.373 845.554 222.947 841.285 225.796M847.59 218.403L868.915 220.361M847.397 211.881C853.603 214.245 860.95 217.129 868.915 220.361M968.616 543.485C1018.33 543.485 978.846 287.801 968.616 272.416C960.38 260.032 910.277 237.282 872.195 221.698M764.004 227.266C760.442 228.435 756.386 229.816 751.982 231.375M624.358 429.753C629.161 385.717 643.974 296.63 658.816 278.436C671.827 262.486 720.674 242.457 751.982 231.375M878.558 328.77C884.382 373.308 891.167 464.522 871.714 473.084C852.368 479.205 757.601 477.624 684.958 475.106M726.566 88.3038C733.417 88.3323 741.489 89.9062 741.489 91.6911C741.489 94.8684 718.614 97.0423 717.173 91.6911C716.621 89.1997 721.222 88.2817 726.566 88.3038ZM634.776 473.084C641.26 473.386 648.407 473.7 656.057 474.014M695.55 306.644C691.209 350.307 683.013 445.129 684.958 475.106M684.958 475.106C674.803 474.754 665.081 474.384 656.057 474.014M751.982 231.375C751.392 235.937 750.978 242.284 751.252 248.738M762.031 274.694C766.043 276.139 775.374 274.927 787.004 271.863M762.031 274.694C754.383 271.942 751.738 260.173 751.252 248.738M872.195 221.698C870.763 227.745 865.154 234.027 857.15 240.071M872.195 221.698C871.091 221.246 869.997 220.8 868.915 220.361M787.004 248.738V271.863M787.004 248.738C792.485 247.074 798.821 244.925 805.288 242.515M787.004 271.863C795.321 269.671 804.815 266.531 814.379 262.737M805.288 242.515L814.379 262.737M805.288 242.515C811.638 240.149 818.113 237.532 824.028 234.875M814.379 262.737C822.378 259.564 830.426 255.933 837.879 252.015M824.028 234.875L837.879 252.015M824.028 234.875C830.892 231.792 837.001 228.655 841.285 225.796M837.879 252.015C845.046 248.248 851.661 244.215 857.15 240.071M841.285 225.796L857.15 240.071M766.645 242.515L751.252 248.738M656.057 474.014C656.627 476.002 657.149 477.913 657.621 479.76M657.621 529.768C657.621 529.768 659.102 520.575 659.916 515.613M660.98 502.854H642.59M660.98 502.854C660.967 498.825 660.61 494.795 659.916 490.526M660.98 502.854C660.995 507.021 660.642 511.187 659.916 515.613M659.916 490.526H639.638M659.916 490.526C659.364 487.128 658.598 483.579 657.621 479.76M657.621 479.76H636.513M659.916 515.613H646.41M814.379 119.366C812.466 134.118 773.648 127.478 774.917 114.957C776.186 102.435 816.27 104.776 814.379 119.366ZM748.817 116.022C746.904 130.774 708.085 124.134 709.354 111.612C710.623 99.0905 750.708 101.432 748.817 116.022ZM818.759 98.3369C817.318 103.688 794.443 101.514 794.443 98.3369C794.443 95.1597 820.02 92.6514 818.759 98.3369Z" stroke="black" stroke-width="2" stroke-linecap="round" stroke-linejoin="round"/>
<path d="M326.355 236.842C326.355 236.289 325.907 235.842 325.355 235.842C324.802 235.842 324.355 236.289 324.355 236.842H326.355ZM324.355 253.959C324.355 254.512 324.802 254.959 325.355 254.959C325.907 254.959 326.355 254.512 326.355 253.959H324.355ZM326.355 269.384C326.355 268.832 325.907 268.384 325.355 268.384C324.802 268.384 324.355 268.832 324.355 269.384H326.355ZM324.355 286.502C324.355 287.054 324.802 287.502 325.355 287.502C325.907 287.502 326.355 287.054 326.355 286.502H324.355ZM341.677 262.484C342.229 262.484 342.677 262.036 342.677 261.484C342.677 260.931 342.229 260.484 341.677 260.484V262.484ZM331.464 260.484C330.911 260.484 330.464 260.931 330.464 261.484C330.464 262.036 330.911 262.484 331.464 262.484V260.484ZM319.246 262.484C319.798 262.484 320.246 262.036 320.246 261.484C320.246 260.931 319.798 260.484 319.246 260.484V262.484ZM309.033 260.484C308.48 260.484 308.033 260.931 308.033 261.484C308.033 262.036 308.48 262.484 309.033 262.484V260.484ZM324.355 236.842V253.959H326.355V236.842H324.355ZM324.355 269.384V286.502H326.355V269.384H324.355ZM341.677 260.484H331.464V262.484H341.677V260.484ZM319.246 260.484H309.033V262.484H319.246V260.484Z" fill="black"/>
<path d="M266.45 183.361C266.45 182.809 266.002 182.361 265.45 182.361C264.897 182.361 264.45 182.809 264.45 183.361H266.45ZM264.45 208.02C264.45 208.573 264.897 209.02 265.45 209.02C266.002 209.02 266.45 208.573 266.45 208.02H264.45ZM266.45 230.241C266.45 229.688 266.002 229.241 265.45 229.241C264.897 229.241 264.45 229.688 264.45 230.241H266.45ZM264.45 254.9C264.45 255.452 264.897 255.9 265.45 255.9C266.002 255.9 266.45 255.452 266.45 254.9H264.45ZM288.891 219.859C289.443 219.859 289.891 219.412 289.891 218.859C289.891 218.307 289.443 217.859 288.891 217.859V219.859ZM274.223 217.859C273.671 217.859 273.223 218.307 273.223 218.859C273.223 219.412 273.671 219.859 274.223 219.859V217.859ZM256.676 219.859C257.228 219.859 257.676 219.412 257.676 218.859C257.676 218.307 257.228 217.859 256.676 217.859V219.859ZM242.009 217.859C241.456 217.859 241.009 218.307 241.009 218.859C241.009 219.412 241.456 219.859 242.009 219.859V217.859ZM264.45 183.361V208.02H266.45V183.361H264.45ZM264.45 230.241V254.9H266.45V230.241H264.45ZM288.891 217.859H274.223V219.859H288.891V217.859ZM256.676 217.859H242.009V219.859H256.676V217.859Z" fill="black"/>
<path d="M242.05 369.787C244.319 371.784 246.796 373.007 249.395 373.72M249.395 373.72C260.367 376.729 273.514 370.639 282.325 375.237C293.223 380.924 316.914 379.502 305.779 354.149C299.994 340.975 285.663 337.557 272.376 332.304M249.395 373.72C244.499 385.046 234.754 416.229 234.943 450.349C235.133 484.469 235.022 527.119 234.943 544.18H213.858M213.858 544.18C214.253 535.334 214.379 512.855 211.726 493.71C210.072 481.779 205.18 466.668 200.66 453.192M213.858 544.18H202.723C202.723 515.177 194.731 471.292 190.735 452.974M191.825 422.389C191.944 427.736 196.114 439.637 200.66 453.192M200.66 453.192C198.309 453.228 194.954 453.171 190.735 452.974M121.226 443.714C150.958 449.897 176.069 452.288 190.735 452.974M121.226 443.714C124.827 438.786 127.781 427.286 128.807 422.152M121.226 443.714C115.54 450.349 105.59 461.012 91.1387 474.991C79.5774 486.175 83.0047 525.461 86.1635 543.706M121.226 443.714C121.779 448.137 120.468 458.784 110.802 465.987C98.7199 474.991 90.665 498.212 94.6924 543.706H86.1635M86.1635 543.706H68.8695C61.7622 527.83 48.8742 492.573 54.181 478.546C59.8415 463.583 65.8463 462.769 63.953 453.429M222.869 312.683C225.193 319.172 229.105 326.43 231.863 330.928C249.489 355.76 237.154 358.651 228.784 356.992C228.073 381.635 213.385 374.052 205.804 372.157C198.223 370.261 183.771 380.213 168.846 380.687C166.544 380.76 163.105 380.681 158.896 380.498M222.869 312.683C220.869 307.097 220.045 302.081 222.15 299.888C225.184 296.728 231.454 304.224 237.076 311.906M222.869 312.683C211.981 309.126 200.66 317.659 209.594 328.322C194.816 328.016 192.585 332.771 193.958 345.619C180.801 343.896 177.206 346.873 179.27 361.02C161.603 360.801 158.154 365.891 158.896 380.498M158.896 380.498C135.804 379.497 89.5314 375.383 80.7153 376.185C78.2593 376.408 75.4876 377.316 72.6604 378.78M260.057 328.154C253.453 326.289 248.613 325.479 247.736 325.479C246.41 325.479 241.991 318.622 237.076 311.906M260.057 328.154C263.742 329.195 267.976 330.564 272.376 332.304M260.057 328.154L264.423 319.792M272.376 332.304L287.064 276.431L264.423 319.792M264.423 319.792C254.316 311.611 248.674 306.846 237.076 311.906M72.6604 378.78C63.4889 383.53 53.7341 394.142 52.2846 406.277C50.3882 422.152 56.549 432.578 62.2348 447.743C63.0688 449.967 63.6275 451.824 63.953 453.429M72.6604 378.78C60.3407 361.02 36.4489 357.679 36.8869 378.78C16.4182 381.966 7.60319 385.12 18.4075 404.381C-6.70527 402.012 -5.04615 448.927 25.9887 443.714C27.0091 462.95 42.5724 461.959 47.7844 447.743C50.6273 455.562 56.6652 456.343 63.953 453.429" stroke="black" stroke-width="2" stroke-linecap="round" stroke-linejoin="round"/>
<circle cx="260.241" cy="341.198" r="3.99366" fill="black"/>
<ellipse cx="297.052" cy="358.04" rx="2.25729" ry="2.43092" fill="black"/>
<circle cx="580.844" cy="126.998" r="2.07349" transform="rotate(20.7275 580.844 126.998)" fill="black"/>
<circle cx="620.781" cy="46.0826" r="2.07349" transform="rotate(20.7275 620.781 46.0826)" fill="black"/>
<circle cx="540.213" cy="2.67314" r="2.07349" transform="rotate(20.7275 540.213 2.67314)" fill="black"/>
<circle cx="483.615" cy="44.3543" r="2.07349" transform="rotate(7.74477 483.615 44.3543)" fill="black"/>
<path d="M553.915 68.024L555.246 60.0603C556.423 53.0136 563.09 48.2557 570.137 49.433C577.183 50.6104 583.85 45.8524 585.028 38.8058L586.186 31.8696C587.814 22.1273 581.236 12.9099 571.494 11.2821C561.751 9.65431 552.534 16.2325 550.906 25.9748L550.591 27.8587M551.254 83.9515L550.081 90.9733" stroke="black" stroke-width="2" stroke-linecap="round" stroke-linejoin="round"/>
<path d="M507.546 104.51L505.042 101.373C502.827 98.5981 503.28 94.5525 506.056 92.3372C508.831 90.1219 509.285 86.0763 507.069 83.3011L504.889 80.5694C501.826 76.7326 496.233 76.1051 492.396 79.1679C488.559 82.2307 487.932 87.824 490.994 91.6608L491.587 92.4028M512.553 110.782L514.76 113.548" stroke="black" stroke-width="2" stroke-linecap="round" stroke-linejoin="round"/>
<path d="M518.226 9.23071C518.182 8.68025 517.699 8.27039 517.149 8.31526C516.598 8.36014 516.188 8.84275 516.233 9.39321L518.226 9.23071ZM517.255 21.9308C517.3 22.4813 517.783 22.8911 518.333 22.8463C518.883 22.8014 519.293 22.3188 519.248 21.7683L517.255 21.9308ZM520.169 33.066C520.125 32.5155 519.642 32.1056 519.091 32.1505C518.541 32.1954 518.131 32.678 518.176 33.2284L520.169 33.066ZM519.198 45.766C519.243 46.3165 519.726 46.7264 520.276 46.6815C520.826 46.6366 521.236 46.154 521.191 45.6035L519.198 45.766ZM530.769 27.3802C531.319 27.3353 531.729 26.8527 531.684 26.3022C531.639 25.7518 531.157 25.3419 530.606 25.3868L530.769 27.3802ZM523.106 25.9982C522.556 26.0431 522.146 26.5257 522.191 27.0761C522.236 27.6266 522.718 28.0364 523.269 27.9916L523.106 25.9982ZM514.296 28.723C514.846 28.6781 515.256 28.1955 515.211 27.6451C515.167 27.0946 514.684 26.6847 514.133 26.7296L514.296 28.723ZM506.633 27.341C506.083 27.3859 505.673 27.8685 505.718 28.4189C505.763 28.9694 506.245 29.3793 506.796 29.3344L506.633 27.341ZM516.233 9.39321L517.255 21.9308L519.248 21.7683L518.226 9.23071L516.233 9.39321ZM518.176 33.2284L519.198 45.766L521.191 45.6035L520.169 33.066L518.176 33.2284ZM530.606 25.3868L523.106 25.9982L523.269 27.9916L530.769 27.3802L530.606 25.3868ZM514.133 26.7296L506.633 27.341L506.796 29.3344L514.296 28.723L514.133 26.7296Z" fill="black"/>
<path d="M594.573 76.7909C594.814 76.2936 594.605 75.6957 594.108 75.4554C593.611 75.2152 593.013 75.4236 592.773 75.9209L594.573 76.7909ZM587.301 87.2476C587.06 87.7449 587.269 88.3428 587.766 88.583C588.263 88.8233 588.861 88.6149 589.102 88.1176L587.301 87.2476ZM584.171 98.3241C584.411 97.8268 584.203 97.2289 583.705 96.9887C583.208 96.7484 582.61 96.9568 582.37 97.4541L584.171 98.3241ZM576.898 108.781C576.658 109.278 576.866 109.876 577.364 110.116C577.861 110.356 578.459 110.148 578.699 109.651L576.898 108.781ZM596.19 98.7932C596.687 99.0334 597.285 98.825 597.525 98.3277C597.765 97.8304 597.557 97.2325 597.06 96.9923L596.19 98.7932ZM590.284 93.7189C589.787 93.4787 589.189 93.6871 588.949 94.1844C588.708 94.6817 588.917 95.2796 589.414 95.5198L590.284 93.7189ZM581.308 91.6038C581.805 91.844 582.403 91.6357 582.643 91.1384C582.884 90.6411 582.675 90.0432 582.178 89.8029L581.308 91.6038ZM575.402 86.5296C574.905 86.2893 574.307 86.4977 574.067 86.995C573.826 87.4923 574.035 88.0902 574.532 88.3304L575.402 86.5296ZM592.773 75.9209L587.301 87.2476L589.102 88.1176L594.573 76.7909L592.773 75.9209ZM582.37 97.4541L576.898 108.781L578.699 109.651L584.171 98.3241L582.37 97.4541ZM597.06 96.9923L590.284 93.7189L589.414 95.5198L596.19 98.7932L597.06 96.9923ZM582.178 89.8029L575.402 86.5296L574.532 88.3304L581.308 91.6038L582.178 89.8029Z" fill="black"/>
<path d="M559.765 143.598C582.049 162.293 639.708 199.683 692.077 199.683" stroke="black" stroke-width="2" stroke-linecap="round" stroke-linejoin="round"/>
<path d="M738.959 22.7462C738.091 32.2963 725.762 57.4737 726.631 76.5738C733.402 65.924 747.884 44.6245 751.634 44.6245C756.322 44.6245 758.753 50.7018 766.741 56.4318C774.728 62.1619 808.761 50.7018 817.095 50.7018C825.43 50.7018 835.327 50.3545 839.495 56.4318C843.662 62.5091 839.321 76.5738 839.495 81.4356C839.668 86.2974 829.945 88.5547 827.34 90.812C825.256 92.6179 842.794 108.002 851.823 115.469L864.325 112.169C866.686 100.779 865.309 75.2425 864.325 63.8982L867.45 44.6245L856.858 47.4027L859.463 30.5598L844.009 38.8944C844.009 31.9489 837.932 22.7462 829.945 17.3635C821.957 11.9807 776.985 17.3635 769.692 17.3635C762.4 17.3635 761.879 12.8489 758.753 11.8071C756.253 10.9736 752.965 18.7526 751.634 22.7462L746.946 17.3635C744.573 15.9744 739.653 15.1062 738.959 22.7462Z" fill="black"/>
<path d="M717.081 88.7285C717.254 94.9794 738.959 100.536 738.959 92.7222C738.959 86.4712 724.373 87.4552 717.081 88.7285Z" fill="black"/>
<path d="M796.259 97.7577C795.912 106.787 819.006 100.536 818.311 97.7577C817.756 95.5352 803.378 96.8316 796.259 97.7577Z" fill="black"/>
</svg>
