<svg width="430" height="513" viewBox="0 0 430 513" fill="none" xmlns="http://www.w3.org/2000/svg">
<g opacity="0.2">
<path d="M66.5115 168.189L9.49367 114.983L39.5122 95.4688L66.5115 168.189Z" stroke="white" stroke-miterlimit="10" stroke-linecap="round" stroke-linejoin="round"/>
<path d="M15.3939 109.899L45.3967 90.3126L72.3391 163.121" stroke="white" stroke-miterlimit="10" stroke-linecap="round" stroke-linejoin="round"/>
<path d="M66.5115 168.188L72.3392 163.121" stroke="white" stroke-miterlimit="10" stroke-linecap="round" stroke-linejoin="round"/>
<path d="M9.49365 114.983L15.3941 109.9" stroke="white" stroke-miterlimit="10" stroke-linecap="round" stroke-linejoin="round"/>
<path d="M39.5122 95.4688L45.3969 90.3128" stroke="white" stroke-miterlimit="10" stroke-linecap="round" stroke-linejoin="round"/>
</g>
<path d="M123.4 298.2L39.5999 454.5L0.399902 430L84.0999 273.6L123.4 298.2Z" stroke="white" stroke-width="0.75" stroke-miterlimit="10" stroke-linecap="round" stroke-linejoin="round"/>
<path d="M123.4 309.2L47.6001 450.5" stroke="white" stroke-width="0.75" stroke-miterlimit="10" stroke-linecap="round" stroke-linejoin="round"/>
<path d="M92.2002 269.6L123.3 289.1" stroke="white" stroke-width="0.75" stroke-miterlimit="10" stroke-linecap="round" stroke-linejoin="round"/>
<path d="M39.6001 454.5L47.6001 450.5" stroke="white" stroke-width="0.75" stroke-miterlimit="10" stroke-linecap="round" stroke-linejoin="round"/>
<path d="M84.1001 273.6L92.2001 269.6" stroke="white" stroke-width="0.75" stroke-miterlimit="10" stroke-linecap="round" stroke-linejoin="round"/>
<path d="M319.4 220.9C269.4 220.9 219.3 220.9 169.3 220.9" stroke="white" stroke-width="0.75" stroke-miterlimit="10" stroke-linecap="round" stroke-linejoin="round"/>
<path d="M355.2 200.9C355.1 207.6 355.1 214.2 355 220.9C351.7 220.9 348.5 220.9 345.2 220.9" stroke="white" stroke-width="0.75" stroke-miterlimit="10" stroke-linecap="round" stroke-linejoin="round"/>
<path d="M355 151.9C354.9 156.7 354.9 161.4 354.8 166.2" stroke="white" stroke-width="0.75" stroke-miterlimit="10" stroke-linecap="round" stroke-linejoin="round"/>
<path d="M166.5 216.7L169.2 220.9" stroke="white" stroke-width="0.75" stroke-miterlimit="10" stroke-linecap="round" stroke-linejoin="round"/>
<path d="M352.3 216.7L355 220.9" stroke="white" stroke-width="0.75" stroke-miterlimit="10" stroke-linecap="round" stroke-linejoin="round"/>
<path d="M352.3 147.7C353.2 149.1 354.1 150.6 355 152L352.3 147.7Z" fill="white"/>
<path d="M352.3 147.7C353.2 149.1 354.1 150.6 355 152" stroke="white" stroke-width="0.75" stroke-miterlimit="10" stroke-linecap="round" stroke-linejoin="round"/>
<path d="M331.9 216.7C276.8 216.7 221.6 216.7 166.5 216.7V147.7H352.3C352.3 158.8 352.3 170 352.3 181.1C352.3 182.9 352.3 184.7 352.3 186.5" stroke="white" stroke-width="0.75" stroke-miterlimit="10" stroke-linecap="round" stroke-linejoin="round"/>
<path d="M352.3 193.4V216.7H338.1" stroke="white" stroke-width="0.75" stroke-miterlimit="10" stroke-linecap="round" stroke-linejoin="round"/>
<path d="M410.731 449.928C411.931 448.828 413.731 447.328 416.131 445.828C419.531 443.628 421.231 442.528 422.531 443.328C423.931 444.128 423.231 446.528 424.931 449.728C426.031 451.728 427.531 453.028 428.431 453.728C428.731 454.728 429.031 456.128 428.731 457.728C427.931 462.228 423.731 463.028 419.331 467.628C415.331 471.828 415.531 474.628 413.331 478.228C412.131 480.228 411.431 480.928 410.931 481.328C409.631 482.428 408.331 482.828 407.531 483.028C404.631 483.828 402.031 483.228 400.531 482.728C399.831 481.728 399.131 480.528 399.431 479.328C399.731 478.128 401.031 477.728 401.831 477.328C404.231 476.028 405.131 473.128 406.631 467.828C407.631 464.528 408.731 459.428 408.831 453.028" stroke="white" stroke-width="0.75" stroke-miterlimit="10" stroke-linecap="round" stroke-linejoin="round"/>
<path d="M415.131 441.728C411.931 441.828 409.231 439.928 409.131 440.228C409.031 440.428 409.631 440.628 410.131 441.428C410.631 442.228 410.331 443.028 410.531 444.428C410.831 446.528 410.731 448.228 410.731 449.928C410.731 451.028 410.631 451.928 410.531 452.628C410.831 452.828 411.231 453.228 411.831 453.428C412.231 453.628 413.431 454.028 415.931 452.928C417.731 452.128 420.731 450.928 421.331 448.128C421.431 447.728 421.331 447.828 421.331 445.828C421.331 441.328 421.631 440.828 421.131 440.328C420.231 439.428 418.531 441.728 415.131 441.728Z" fill="#3848D8"/>
<path d="M408.831 452.828C408.931 452.428 409.031 451.828 408.831 451.428C408.631 451.128 408.331 451.028 407.931 450.828C407.031 450.328 406.331 449.228 406.531 448.728C406.731 448.028 409.731 448.028 410.531 449.428C411.131 450.528 410.031 451.628 410.531 452.528C411.431 454.128 416.031 453.528 418.931 451.128C419.631 450.528 421.731 448.828 421.631 446.728C421.631 446.728 421.631 446.628 421.631 446.428C421.231 443.628 421.031 443.028 420.931 441.928C420.831 440.428 420.731 439.428 421.331 439.028C422.131 438.528 423.731 439.428 423.831 440.128C423.831 440.628 423.231 440.728 422.231 441.828C421.731 442.328 421.431 442.828 421.231 443.228" stroke="white" stroke-width="0.75" stroke-miterlimit="10" stroke-linecap="round" stroke-linejoin="round"/>
<path d="M410.431 451.928C410.231 455.628 410.231 458.628 410.331 460.628C410.431 463.928 410.731 466.128 409.531 467.128C408.731 467.728 407.631 467.528 406.831 467.328" stroke="white" stroke-width="0.75" stroke-miterlimit="10" stroke-linecap="round" stroke-linejoin="round"/>
<path d="M399.431 480.528C399.331 481.128 399.231 482.628 400.131 483.728C401.031 484.728 402.331 484.728 404.231 484.628C405.931 484.528 407.631 484.528 409.631 483.428C412.031 482.028 413.331 480.028 414.231 478.528C415.031 477.128 415.531 476.128 416.031 474.728C416.731 472.928 416.631 472.128 417.831 470.428C419.631 467.828 426.131 465.728 428.231 462.428C429.131 461.028 429.831 458.528 428.431 453.828" stroke="white" stroke-width="0.75" stroke-miterlimit="10" stroke-linecap="round" stroke-linejoin="round"/>
<path d="M386.531 447.327C387.531 446.227 389.031 444.627 391.131 443.027C394.031 440.627 395.531 439.427 396.731 440.027C398.131 440.627 397.731 442.827 399.531 445.527C400.731 447.227 402.131 448.227 403.131 448.727C403.431 449.527 403.831 450.827 403.731 452.327C403.431 456.527 399.631 457.727 396.131 462.427C392.931 466.627 393.331 469.327 391.631 472.727C390.731 474.627 390.131 475.427 389.731 475.827C388.631 476.927 387.431 477.427 386.731 477.727C384.131 478.827 381.731 478.527 380.331 478.227C379.631 477.427 378.831 476.327 379.031 475.227C379.231 474.127 380.331 473.527 381.031 473.127C383.131 471.727 383.631 468.927 384.531 463.927C385.131 460.827 385.631 456.027 385.131 450.127" stroke="white" stroke-width="0.75" stroke-miterlimit="10" stroke-linecap="round" stroke-linejoin="round"/>
<path d="M394.031 436.027C393.931 436.027 394.031 436.727 394.131 437.427C393.831 437.727 393.231 438.227 392.531 438.627C391.931 438.927 390.331 439.727 388.231 439.227C386.431 438.827 385.231 437.727 384.831 437.227C385.931 438.927 386.331 440.527 386.531 441.527C386.731 443.127 386.531 444.127 386.531 447.327C386.531 448.327 386.631 449.227 386.631 449.727C386.931 449.927 387.331 450.127 387.831 450.327C388.231 450.427 389.331 450.627 391.531 449.427C393.131 448.527 395.731 447.027 396.031 444.427C396.131 443.827 396.031 443.327 395.831 442.327C395.431 440.227 395.431 438.927 394.731 437.627C394.631 437.427 394.131 436.027 394.031 436.027Z" fill="#3848D8"/>
<path d="M385.131 450.127C385.231 449.727 385.231 449.227 384.931 448.927C384.731 448.627 384.431 448.627 384.031 448.527C383.131 448.227 382.431 447.227 382.531 446.727C382.731 446.127 385.331 445.727 386.231 446.927C386.931 447.827 385.931 448.927 386.531 449.727C387.531 451.027 391.631 450.027 394.031 447.527C394.631 446.927 396.431 445.027 396.031 443.227C396.031 443.227 396.031 443.127 395.931 442.927C395.231 440.427 395.031 439.927 394.831 438.927C394.631 437.627 394.431 436.627 394.931 436.227C395.631 435.627 397.231 436.327 397.231 437.027C397.331 437.427 396.731 437.627 395.931 438.827C395.531 439.327 395.331 439.827 395.131 440.227" stroke="white" stroke-width="0.75" stroke-miterlimit="10" stroke-linecap="round" stroke-linejoin="round"/>
<path d="M386.431 449.127C386.531 452.527 386.831 455.227 387.131 457.127C387.531 460.127 388.031 462.127 387.031 463.127C386.331 463.727 385.331 463.727 384.631 463.527" stroke="white" stroke-width="0.75" stroke-miterlimit="10" stroke-linecap="round" stroke-linejoin="round"/>
<path d="M379.131 476.427C379.131 477.027 379.231 478.427 380.131 479.227C381.031 480.027 382.231 479.927 383.931 479.627C385.431 479.427 387.031 479.127 388.731 477.927C390.831 476.427 391.731 474.427 392.431 472.927C393.031 471.627 393.431 470.627 393.731 469.227C394.131 467.527 394.031 466.727 394.931 465.127C396.331 462.627 402.031 459.927 403.631 456.627C404.331 455.227 404.731 452.927 403.031 448.827" stroke="white" stroke-width="0.75" stroke-miterlimit="10" stroke-linecap="round" stroke-linejoin="round"/>
<path d="M166.5 151.9H143.8V230.4H325.7V222.6" stroke="white" stroke-width="0.75" stroke-miterlimit="10" stroke-linecap="round" stroke-linejoin="round" stroke-dasharray="12 12"/>
<path d="M380.2 324C379.2 337.9 378.7 353.6 379.4 370.7C380.3 392.4 382.8 411.7 385.9 428.2C384.4 428.9 382.8 429.6 381.3 430.3C382.7 431 384 431.6 385.4 432.3C384.6 433.4 383.8 434.5 383.1 435.7C383.8 436.5 384.6 437.3 385.3 438C385.7 438.4 387.3 439.8 389.9 439.8C392.3 439.7 393.9 438.3 394.3 437.9C394.4 436.9 394.4 435.9 394.5 434.9C395.8 434.9 397.2 434.9 398.5 434.9C397.5 433.3 396.5 431.6 395.6 430C394.9 416.3 394.8 401.7 395.5 386.2C395.8 380 396.1 374 396.6 368.1" stroke="white" stroke-width="0.75" stroke-miterlimit="10" stroke-linecap="round" stroke-linejoin="round"/>
<path d="M390.5 322.6C391.9 338 394 354.7 397.2 372.4C401.1 394.5 406 414.6 411.2 432.4C409.7 433.4 408.1 434.4 406.6 435.4C408.1 435.9 409.7 436.4 411.2 436.9C410.5 438.2 409.9 439.5 409.2 440.8C410.3 441.4 412.5 442.3 415.2 442.3C418 442.3 420.1 441.5 421.3 440.9C420.9 439.8 420.4 438.6 420 437.5C421.6 435.8 423.2 434.1 424.8 432.4C423.3 432 421.8 431.7 420.3 431.3C416.3 406 413.6 377.6 413.4 346.6C413.3 336.7 413.5 327.2 413.9 317.9C406.1 319.5 398.3 321.1 390.5 322.6Z" stroke="white" stroke-width="0.75" stroke-miterlimit="10" stroke-linecap="round" stroke-linejoin="round"/>
<path d="M404.4 327.2C404.5 329.2 404.7 331.9 405.6 334.9C406.2 337 407 338.8 407.7 340.2C407.7 340.6 407.5 341.2 407.1 341.4C405.8 342.1 402.5 339.2 400.8 336.8C398.2 333.2 398 329 398.2 325.9" stroke="white" stroke-width="0.75" stroke-miterlimit="10" stroke-linecap="round" stroke-linejoin="round"/>
<path d="M208.7 459.9H155.4C137.7 459.9 123.3 445.5 123.3 427.8V33.3998C123.3 15.6998 137.7 1.2998 155.4 1.2998H316.9C334.6 1.2998 349 15.6998 349 33.3998V147.6" stroke="white" stroke-width="0.75"/>
<path d="M348.9 221.4V427.8C348.9 445.5 334.5 459.9 316.8 459.9H275.3" stroke="white" stroke-width="0.75"/>
<path d="M209.3 454.4H157C141 454.4 127.9 441.4 127.9 425.3V35.3998C127.9 19.3998 140.9 6.2998 157 6.2998H314.5C330.5 6.2998 343.6 19.2998 343.6 35.3998V147.7" stroke="white" stroke-width="0.75"/>
<path d="M343.5 232.5V425.3C343.5 441.3 330.5 454.4 314.4 454.4H275.7" stroke="white" stroke-width="0.75"/>
<path d="M210.1 446.7H156.5C145.5 446.7 136.5 437.7 136.5 426.7V34.2998C136.5 23.2998 145.5 14.2998 156.5 14.2998H176.8C178.6 14.2998 180 15.7998 180.2 17.4998C180.7 22.0998 183 29.9998 192.7 30.1998C206.5 30.4998 267.9 30.1998 280 30.1998C288.7 30.1998 290.8 21.9998 291.3 17.3998C291.5 15.6998 292.9 14.2998 294.6 14.2998H315.4C326.4 14.2998 335.4 23.2998 335.4 34.2998V147.7" stroke="white" stroke-width="0.75"/>
<path d="M335.4 225.1V426.7C335.4 437.7 326.4 446.7 315.4 446.7H276.3" stroke="white" stroke-width="0.75"/>
<path d="M121.6 138.8C121.6 138.1 122.1 137.6 122.8 137.6H123V171.2H122.8C122.1 171.2 121.6 170.7 121.6 170V138.8Z" fill="white"/>
<path d="M121.6 96.7C121.6 96 122.1 95.5 122.8 95.5H123V129.1H122.8C122.1 129.1 121.6 128.6 121.6 127.9V96.7Z" fill="white"/>
<path d="M121.6 63.8001C121.6 63.1001 122.1 62.6001 122.8 62.6001H123V80.3001H122.8C122.1 80.3001 121.6 79.8001 121.6 79.1001V63.8001Z" fill="white"/>
<path d="M349.1 147.7V106.7H349.3C350 106.7 350.5 107.2 350.5 107.9V147.7" fill="white"/>
<path d="M224.1 17.8999H246.5C247.4 17.8999 248.1 18.5999 248.1 19.4999C248.1 20.3999 247.4 21.0999 246.5 21.0999H224.1C223.2 21.0999 222.5 20.3999 222.5 19.4999C222.5 18.5999 223.3 17.8999 224.1 17.8999Z" stroke="white" stroke-width="0.75"/>
<path d="M260.3 23.0999C262.3 23.0999 263.9 21.4999 263.9 19.4999C263.9 17.4999 262.3 15.8999 260.3 15.8999C258.3 15.8999 256.7 17.4999 256.7 19.4999C256.7 21.4999 258.3 23.0999 260.3 23.0999Z" stroke="white" stroke-width="0.75"/>
<path opacity="0.35" d="M316.2 23.2998H325.2C325.9 23.2998 326.5 23.8998 326.5 24.5998V27.6998C326.5 28.3998 325.9 28.9998 325.2 28.9998H316.2C315.5 28.9998 314.9 28.3998 314.9 27.6998V24.5998C314.9 23.8998 315.5 23.2998 316.2 23.2998Z" stroke="white"/>
<path fill-rule="evenodd" clip-rule="evenodd" d="M316.5 24.1001C316.1 24.1001 315.7 24.5001 315.7 24.9001V27.4001C315.7 27.8001 316.1 28.2001 316.5 28.2001H324.9C325.3 28.2001 325.7 27.8001 325.7 27.4001V24.9001C325.7 24.5001 325.3 24.1001 324.9 24.1001H316.5ZM327.4 27.2001V25.0001C327.8 25.2001 328.1 25.6001 328.1 26.1001C328.1 26.6001 327.8 27.1001 327.4 27.2001Z" fill="white"/>
<path fill-rule="evenodd" clip-rule="evenodd" d="M308.2 24.1999C309.4 24.1999 310.5 24.5999 311.3 25.3999C311.4 25.4999 311.5 25.4999 311.5 25.3999L312.1 24.7999V24.6999C312.1 24.6999 312.1 24.5999 312 24.5999C309.8 22.4999 306.3 22.4999 304.1 24.5999C304.1 24.5999 304.1 24.6999 304 24.6999V24.7999L304.6 25.3999C304.7 25.4999 304.8 25.4999 304.8 25.3999C305.9 24.5999 307 24.1999 308.2 24.1999ZM308.2 26.1999C308.8 26.1999 309.5 26.3999 309.9 26.8999C310 26.9999 310.1 26.9999 310.1 26.8999L310.7 26.2999C310.7 26.2999 310.8 26.1999 310.7 26.1999C310.6 26.1999 310.7 26.0999 310.6 26.0999C309.2 24.7999 306.9 24.7999 305.5 26.0999L305.4 26.1999V26.2999L306 26.8999C306.1 26.9999 306.2 26.9999 306.2 26.8999C306.9 26.3999 307.6 26.1999 308.2 26.1999ZM309.4 27.4999V27.5999L308.4 28.6999H308.3H308.2L307.2 27.5999C307.2 27.5999 307.1 27.4999 307.2 27.4999C307.2 27.4999 307.2 27.3999 307.3 27.3999C308 26.7999 308.9 26.7999 309.6 27.3999C309.4 27.3999 309.4 27.4999 309.4 27.4999Z" fill="white"/>
<path fill-rule="evenodd" clip-rule="evenodd" d="M301.2 23.2002H300.7C300.4 23.2002 300.2 23.4002 300.2 23.7002V28.3002C300.2 28.6002 300.4 28.8002 300.7 28.8002H301.2C301.5 28.8002 301.7 28.6002 301.7 28.3002V23.7002C301.8 23.5002 301.5 23.2002 301.2 23.2002ZM298.2 24.5002H298.7C299 24.5002 299.2 24.7002 299.2 25.0002V28.4002C299.2 28.7002 299 28.9002 298.7 28.9002H298.2C297.9 28.9002 297.7 28.7002 297.7 28.4002V25.0002C297.7 24.7002 297.9 24.5002 298.2 24.5002ZM296.3 25.7002H295.8C295.5 25.7002 295.3 25.9002 295.3 26.2002V28.3002C295.3 28.6002 295.5 28.8002 295.8 28.8002H296.3C296.6 28.8002 296.8 28.6002 296.8 28.3002V26.2002C296.8 25.9002 296.6 25.7002 296.3 25.7002ZM293.8 26.8002H293.3C293 26.8002 292.8 27.0002 292.8 27.3002V28.4002C292.8 28.7002 293 28.9002 293.3 28.9002H293.8C294.1 28.9002 294.3 28.7002 294.3 28.4002V27.3002C294.3 27.0002 294.1 26.8002 293.8 26.8002Z" fill="white"/>
<path d="M216.8 385.4L204.5 498.1L267.9 504.2L276.8 385.4H216.8Z" stroke="white" stroke-width="0.75" stroke-miterlimit="10" stroke-linecap="round" stroke-linejoin="round"/>
<path d="M208 505.8L271.4 511.9L280.3 393.1" stroke="white" stroke-width="0.75" stroke-miterlimit="10" stroke-linecap="round" stroke-linejoin="round"/>
<path d="M204.5 498.1L208 505.8" stroke="white" stroke-width="0.75" stroke-miterlimit="10" stroke-linecap="round" stroke-linejoin="round"/>
<path d="M267.9 504.2L271.4 511.9" stroke="white" stroke-width="0.75" stroke-miterlimit="10" stroke-linecap="round" stroke-linejoin="round"/>
<path d="M276.8 385.4L280.3 393.1" stroke="white" stroke-width="0.75" stroke-miterlimit="10" stroke-linecap="round" stroke-linejoin="round"/>
<path d="M185.6 178.4L179.2 183.2L185.6 186.7" stroke="white" stroke-width="0.75" stroke-miterlimit="10" stroke-linecap="round" stroke-linejoin="round"/>
<path d="M206 178.4L212.4 183.2L206 186.7" stroke="white" stroke-width="0.75" stroke-miterlimit="10" stroke-linecap="round" stroke-linejoin="round"/>
<path d="M226.7 190.5C228.6 185.4 230.6 180.3 232.5 175.2" stroke="white" stroke-width="0.75" stroke-miterlimit="10" stroke-linecap="round" stroke-linejoin="round"/>
<path d="M224 178.4L217.6 183.2L224 186.7" stroke="white" stroke-width="0.75" stroke-miterlimit="10" stroke-linecap="round" stroke-linejoin="round"/>
<path d="M248.5 178.4L254.8 183.2L248.5 186.7" stroke="white" stroke-width="0.75" stroke-miterlimit="10" stroke-linecap="round" stroke-linejoin="round"/>
</svg>
