<svg width="255" height="279" viewBox="0 0 255 279" fill="none" xmlns="http://www.w3.org/2000/svg">
<path d="M9.65055 94.6831C9.9949 90.8433 13.4 88.0169 17.2555 88.3701L23.0228 88.8986L58.8405 92.1813L62.7864 92.5428C66.6423 92.896 69.4887 96.2955 69.1443 100.135L60.522 196.265C60.1777 200.105 56.7726 202.931 52.9171 202.578L7.38612 198.405C3.5303 198.052 0.683875 194.652 1.02822 190.812L9.65055 94.6831Z" fill="white"/>
<path d="M2.28532 139.268L1.47189 148.337M23.0228 88.8986L17.2555 88.3701C13.4 88.0169 9.9949 90.8433 9.65055 94.6831L1.02822 190.812C0.683875 194.652 3.5303 198.052 7.38612 198.405L52.9171 202.578C56.7726 202.931 60.1777 200.105 60.522 196.265L69.1443 100.135C69.4887 96.2955 66.6423 92.896 62.7864 92.5428L58.8405 92.1813L23.0228 88.8986ZM23.0228 88.8986L22.7518 91.9218C22.4071 95.7617 25.2539 99.1608 29.1094 99.5144L50.9642 101.517C54.82 101.87 58.2248 99.0441 58.5694 95.2042L58.8405 92.1813L23.0228 88.8986ZM23.0228 88.8986L58.8405 92.1813L23.0228 88.8986ZM14.021 189.26L49.8386 192.543L14.021 189.26ZM72.3638 103.478L69.8694 131.289L72.3638 103.478Z" stroke="black" stroke-width="2" stroke-linecap="round" stroke-linejoin="round"/>
<path d="M170.629 19.9625C174.299 18.7758 178.235 20.7887 179.422 24.4583L181.197 29.9472L192.221 64.0357L193.436 67.7913C194.622 71.4609 192.609 75.3977 188.94 76.5842L97.074 106.292C93.4044 107.479 89.4676 105.466 88.2808 101.796L74.2677 58.4637C73.081 54.7941 75.0936 50.8573 78.7632 49.6705L170.629 19.9625Z" fill="white"/>
<path d="M126.702 30.6577L118.035 33.4604M181.197 29.9472L179.422 24.4583C178.235 20.7887 174.299 18.7758 170.629 19.9625L78.7632 49.6705C75.0936 50.8573 73.081 54.7941 74.2677 58.4637L88.2808 101.796C89.4676 105.466 93.4044 107.479 97.074 106.292L188.94 76.5842C192.609 75.3977 194.622 71.4609 193.436 67.7913L192.221 64.0357L181.197 29.9472ZM181.197 29.9472L178.308 30.8812C174.639 32.0679 172.626 36.0048 173.813 39.6744L180.539 60.4742C181.726 64.1439 185.662 66.1564 189.332 64.97L192.221 64.0357L181.197 29.9472ZM181.197 29.9472L192.221 64.0357L181.197 29.9472ZM85.2869 60.9628L96.3108 95.0516L85.2869 60.9628ZM187.125 80.8408L160.548 89.4353L187.125 80.8408Z" stroke="black" stroke-width="2" stroke-linecap="round" stroke-linejoin="round"/>
<path d="M70.2779 139.962C68.0558 143.114 63.6992 143.868 60.5469 141.646L55.8318 138.323L26.5494 117.681L23.3235 115.407C20.1711 113.184 19.4171 108.828 21.6392 105.676L77.2675 26.7616C79.4896 23.6096 83.8462 22.8552 86.9985 25.0774L124.222 51.3171C127.374 53.5393 128.128 57.8961 125.906 61.0481L70.2779 139.962Z" fill="white"/>
<path d="M98.9851 105.035L104.233 97.5903M55.8318 138.323L60.5469 141.646C63.6992 143.868 68.0558 143.114 70.2779 139.962L125.906 61.0481C128.128 57.8961 127.374 53.5393 124.222 51.3171L86.9985 25.0774C83.8462 22.8552 79.4896 23.6096 77.2675 26.7616L21.6392 105.676C19.4171 108.828 20.1711 113.184 23.3235 115.407L26.5494 117.681L55.8318 138.323ZM55.8318 138.323L57.5813 135.841C59.8032 132.689 59.0492 128.332 55.8971 126.11L38.0297 113.515C34.8776 111.293 30.5208 112.047 28.2986 115.199L26.5494 117.681L55.8318 138.323ZM55.8318 138.323L26.5494 117.681L55.8318 138.323ZM113.909 55.9346L84.6268 35.2926L113.909 55.9346ZM20.5347 101.182L36.6283 78.3519L20.5347 101.182Z" stroke="black" stroke-width="2" stroke-linecap="round" stroke-linejoin="round"/>
<path d="M34.4571 112.861C31.0725 112.144 28.2541 115.578 27.2681 117.385L56.3465 137.585L58.0972 126.997C51.6276 122.584 37.8418 113.578 34.4571 112.861Z" fill="black"/>
<path d="M197.015 232.269C194.793 235.421 190.437 236.175 187.284 233.953L182.569 230.629L153.287 209.987L150.061 207.714C146.908 205.491 146.154 201.135 148.377 197.982L204.005 119.069C206.227 115.916 210.584 115.162 213.736 117.384L250.96 143.624C254.11 145.846 254.867 150.203 252.644 153.355L197.015 232.269Z" fill="white"/>
<path d="M225.722 197.342L230.97 189.897M182.569 230.629L187.284 233.953C190.437 236.175 194.793 235.421 197.015 232.269L252.644 153.355C254.867 150.203 254.11 145.846 250.96 143.624L213.736 117.384C210.584 115.162 206.227 115.916 204.005 119.069L148.377 197.982C146.154 201.135 146.908 205.491 150.061 207.714L153.287 209.987L182.569 230.629ZM182.569 230.629L184.319 228.148C186.541 224.996 185.787 220.639 182.634 218.417L164.767 205.822C161.615 203.6 157.258 204.354 155.036 207.506L153.287 209.987L182.569 230.629ZM182.569 230.629L153.287 209.987L182.569 230.629ZM240.647 148.241L211.364 127.599L240.647 148.241ZM147.272 193.489L163.366 170.659L147.272 193.489Z" stroke="black" stroke-width="2" stroke-linecap="round" stroke-linejoin="round"/>
<path d="M119.959 169.427C120.309 165.579 123.708 162.742 127.552 163.09L133.302 163.611L169.01 166.841L172.945 167.197C176.789 167.544 179.621 170.945 179.272 174.793L170.519 271.107C170.169 274.953 166.77 277.79 162.926 277.445L117.534 273.336C113.69 272.99 110.857 269.588 111.207 265.741L119.959 169.427Z" fill="white"/>
<path d="M127.555 203.478L163.67 206.986L160.755 240.749L124.72 236.984M133.302 163.611L127.552 163.09C123.708 162.742 120.309 165.579 119.959 169.427L111.207 265.741C110.857 269.588 113.69 272.99 117.534 273.336L162.926 277.445C166.77 277.79 170.169 274.953 170.519 271.107L179.272 174.793C179.621 170.945 176.789 167.544 172.945 167.197L169.01 166.841L133.302 163.611ZM133.302 163.611L133.027 166.639C132.677 170.487 135.51 173.887 139.354 174.235L161.142 176.206C164.986 176.554 168.385 173.717 168.735 169.87L169.01 166.841L133.302 163.611ZM133.302 163.611L169.01 166.841L133.302 163.611ZM124.164 264.165L159.873 267.395L124.164 264.165ZM182.476 178.136L179.944 206.001L182.476 178.136ZM112.543 214.103L111.717 223.189L112.543 214.103ZM125.617 247.411L161.325 250.642L125.617 247.411ZM129.834 187.708L165.542 190.939L129.834 187.708Z" stroke="black" stroke-width="2" stroke-linecap="round" stroke-linejoin="round"/>
<path d="M250.017 139.634C251.636 143.135 250.111 147.285 246.609 148.904L241.374 151.325L208.856 166.364L205.274 168.02C201.773 169.639 197.623 168.114 196.004 164.613L155.477 76.9809C153.858 73.4806 155.383 69.3304 158.884 67.7115L200.22 48.5949C203.72 46.9761 207.87 48.5012 209.489 52.0018L250.017 139.634Z" fill="white"/>
<path d="M234.123 97.3096L230.299 89.0425M241.374 151.325L246.609 148.904C250.111 147.285 251.636 143.135 250.017 139.634L209.489 52.0018C207.87 48.5012 203.72 46.9761 200.22 48.5949L158.884 67.7115C155.383 69.3304 153.858 73.4806 155.477 76.9809L196.004 164.613C197.623 168.114 201.773 169.639 205.274 168.02L208.856 166.364L241.374 151.325ZM241.374 151.325L240.1 148.569C238.48 145.069 234.33 143.544 230.831 145.162L210.988 154.339C207.488 155.957 205.963 160.107 207.582 163.608L208.856 166.364L241.374 151.325ZM241.374 151.325L208.856 166.364L241.374 151.325ZM199.062 59.8346L166.544 74.8731L199.062 59.8346ZM191.561 163.323L179.836 137.971L191.561 163.323Z" stroke="black" stroke-width="2" stroke-linecap="round" stroke-linejoin="round"/>
<path d="M145.711 206.577C148.863 208.799 149.618 213.156 147.395 216.308L144.072 221.023L123.43 250.305L121.156 253.531C118.933 256.683 114.577 257.437 111.425 255.216L32.5107 199.587C29.3584 197.365 28.6043 193.008 30.8265 189.856L57.0662 152.633C59.2884 149.48 63.6449 148.726 66.7973 150.948L145.711 206.577Z" fill="white"/>
<path d="M144.072 221.023L147.395 216.308C149.618 213.156 148.863 208.799 145.711 206.577L66.7973 150.948C63.6449 148.726 59.2884 149.48 57.0662 152.633L30.8265 189.856C28.6043 193.008 29.3584 197.365 32.5107 199.587L111.425 255.216C114.577 257.437 118.933 256.683 121.156 253.531L123.43 250.305L144.072 221.023ZM144.072 221.023L141.59 219.273C138.438 217.051 134.081 217.805 131.859 220.958L119.264 238.825C117.042 241.977 117.796 246.334 120.948 248.556L123.43 250.305L144.072 221.023ZM144.072 221.023L123.43 250.305L144.072 221.023ZM106.931 256.32L84.1007 240.226L106.931 256.32ZM110.784 177.87L103.339 172.622L110.784 177.87ZM63.0443 162.985L42.4023 192.268L81.8594 220.082L102.501 190.8L63.0443 162.985Z" stroke="black" stroke-width="2" stroke-linecap="round" stroke-linejoin="round"/>
<path d="M119.536 240.841C118.685 244.195 122.004 247.148 123.77 248.205L145.112 219.954L134.602 217.783C129.935 224.072 120.387 237.488 119.536 240.841Z" fill="black"/>
<path d="M164.203 175.441C167.497 174.382 168.731 168.126 168.69 166.068L133.419 162.971C133.419 162.971 133.436 170.847 137.157 173.031C140.877 175.215 160.909 176.498 164.203 175.441Z" fill="black"/>
<path d="M207.988 156.113C205.673 158.684 207.752 164.713 208.822 166.471L240.869 151.413C240.869 151.413 236.893 144.613 232.578 144.596C228.264 144.579 210.303 153.543 207.988 156.113Z" fill="black"/>
<path d="M175.941 214.194L175.058 225.617L181.048 229.457C181.918 229.682 183.978 229.102 185.259 224.992C186.541 220.881 179.581 216.08 175.941 214.194Z" fill="black"/>
<path d="M181.613 29.6387L188.676 53.5457L180.163 57.7976C177.757 53.0071 173.1 42.2064 173.72 37.3255C174.34 32.4449 179.24 30.1675 181.613 29.6387Z" fill="black"/>
<path d="M187.849 75.5995L187.849 75.5995C176.92 80.4669 172.005 93.2726 176.873 104.202L176.873 104.202C181.74 115.131 194.546 120.046 205.475 115.178L205.475 115.178C216.405 110.311 221.319 97.5052 216.451 86.5759L216.451 86.5758C211.584 75.6464 198.778 70.7322 187.849 75.5995Z" fill="white" stroke="black" stroke-width="2" stroke-linejoin="round"/>
<path d="M44.3405 102.846C42.1919 101.361 41.6543 98.4153 43.1396 96.2667L59.4103 72.7292L75.6807 49.1916C77.166 47.0431 80.1117 46.5054 82.2603 47.9904L104.283 63.2136C106.431 64.6989 106.969 67.6446 105.484 69.7932L89.2129 93.3307L72.9422 116.868C71.4572 119.017 68.5115 119.555 66.3629 118.069L44.3405 102.846Z" fill="white"/>
<path d="M59.4103 72.7292L89.2129 93.3307M59.4103 72.7292L43.1396 96.2667C41.6543 98.4153 42.1919 101.361 44.3405 102.846L66.3629 118.069C68.5115 119.555 71.4572 119.017 72.9422 116.868L89.2129 93.3307L59.4103 72.7292ZM59.4103 72.7292L75.6807 49.1916C77.166 47.0431 80.1117 46.5054 82.2603 47.9904L104.283 63.2136C106.431 64.6989 106.969 67.6446 105.484 69.7932L89.2129 93.3307L59.4103 72.7292Z" stroke="black" stroke-width="2" stroke-linejoin="round"/>
<path d="M32.8892 18.2235C33.267 17.0111 32.5907 15.722 31.3785 15.344C30.1661 14.9662 28.877 15.6425 28.499 16.8547L32.8892 18.2235ZM25.7578 25.647C25.38 26.8591 26.0563 28.1485 27.2685 28.5262C28.481 28.9043 29.77 28.228 30.148 27.0155L25.7578 25.647ZM27.6779 34.9382C28.0559 33.726 27.3793 32.4367 26.1672 32.059C24.955 31.6809 23.6657 32.3572 23.2879 33.5697L27.6779 34.9382ZM20.5467 42.3617C20.1687 43.5738 20.845 44.8631 22.0574 45.2409C23.2696 45.6189 24.5586 44.9427 24.9367 43.7305L20.5467 42.3617ZM34.4694 35.0115C35.6816 35.3895 36.9709 34.7133 37.3486 33.5011C37.7267 32.2886 37.0504 30.9996 35.8379 30.6216L34.4694 35.0115ZM30.5784 28.9817C29.3662 28.6039 28.0769 29.2802 27.6992 30.4924C27.3211 31.7049 27.9974 32.9939 29.2099 33.3719L30.5784 28.9817ZM22.9176 31.4102C24.1297 31.7879 25.4191 31.1116 25.7968 29.8995C26.1749 28.6873 25.4986 27.398 24.2864 27.0199L22.9176 31.4102ZM19.0266 25.3804C17.8144 25.0023 16.5254 25.6786 16.1473 26.8908C15.7693 28.1032 16.4456 29.3923 17.658 29.7703L19.0266 25.3804ZM28.499 16.8547L25.7578 25.647L30.148 27.0155L32.8892 18.2235L28.499 16.8547ZM23.2879 33.5697L20.5467 42.3617L24.9367 43.7305L27.6779 34.9382L23.2879 33.5697ZM35.8379 30.6216L30.5784 28.9817L29.2099 33.3719L34.4694 35.0115L35.8379 30.6216ZM24.2864 27.0199L19.0266 25.3804L17.658 29.7703L22.9176 31.4102L24.2864 27.0199Z" fill="black"/>
<path d="M45.1515 23.5359C45.9519 23.7854 46.8031 23.3389 47.0526 22.5385C47.3022 21.7381 46.8556 20.8869 46.0552 20.6374C45.2548 20.3878 44.4037 20.8344 44.1541 21.6348C43.9046 22.4352 44.3511 23.2864 45.1515 23.5359Z" fill="black"/>
<path d="M54.5463 3.35035C55.3467 3.5999 56.1979 3.15334 56.4474 2.35294C56.6969 1.55254 56.2504 0.701389 55.45 0.451843C54.6496 0.202297 53.7984 0.648853 53.5489 1.44926C53.2993 2.24966 53.7459 3.10081 54.5463 3.35035Z" fill="black"/>
<path d="M82.9196 13.6057C83.72 13.8553 84.5711 13.4087 84.8207 12.6083C85.0702 11.8079 84.6237 10.9568 83.8233 10.7072C83.0229 10.4577 82.1717 10.9042 81.9222 11.7046C81.6726 12.505 82.1192 13.3562 82.9196 13.6057Z" fill="black"/>
</svg>
