<svg width="892" height="488" viewBox="0 0 892 488" fill="none" xmlns="http://www.w3.org/2000/svg">
<g filter="url(#filter0_d)">
<path d="M755.856 150.812L765.005 128.92L762.718 123.529L755.856 130.554L737.722 117.811L724.979 121.568L713.543 116.34H709.949L708.642 111.766L697.206 119.118L693.448 103.597L679.725 121.568L667.636 97.716L652.442 109.479L651.135 100.983L645.417 106.211L636.268 82.1957L631.04 97.716L612.906 79.7451L609.312 82.1957L599.836 134.965C595.099 135.618 585.198 137.677 583.499 140.683C581.8 143.689 590.742 150.104 595.425 152.936C595.425 157.074 594.968 168.227 593.138 179.728C590.851 194.105 594.282 208.155 599.836 225.309C604.28 239.032 618.025 249.107 624.342 252.429L638.065 308.465L651.788 311.079C677.111 312.55 706.028 296.212 716.32 285.266C724.554 276.51 726.504 267.132 726.449 263.538C716.124 236.092 725.85 212.566 732.004 204.234C739.715 201.228 751.118 178.04 755.856 166.822L777.258 174.501L782.322 172.867L783.629 166.822L755.856 150.812Z" fill="white"/>
<path d="M63.9774 208.645C66.1992 201.065 82.874 198.19 90.9337 197.699C87.9386 195.848 80.9354 191.785 76.8838 190.348C72.8322 188.91 75.1957 181.362 76.8838 177.768C70.349 177.507 71.2202 166.55 72.4727 161.104C71.9282 159.471 69.9896 155.582 66.5914 153.099C62.3438 149.995 69.042 140.029 72.4727 134.311C75.9034 128.593 84.2355 129.737 90.9337 129.737C96.2922 129.737 94.6912 140.846 93.221 146.401C98.0568 146.793 97.8498 158.109 97.1419 163.718C100.899 162.248 109.493 161.66 113.806 171.07C118.119 180.48 112.009 184.793 108.415 185.773L111.519 201.784L126.385 195.249L111.519 156.203V143.133C115.875 141.5 126.026 138.232 131.777 138.232C138.965 138.232 157.589 149.341 158.896 159.307C159.942 167.28 173.709 202.383 180.461 218.938L143.213 244.424L139.782 240.503C137.005 221.225 121.484 212.24 116.42 211.749C112.368 211.357 85.4335 216.378 72.4727 218.938C68.7151 218.665 61.7555 216.226 63.9774 208.645Z" fill="white"/>
<path d="M129.653 260.107L150.238 288.207L213.953 248.344L191.734 217.794C187.977 218.284 176.279 221.453 159.55 230.21C142.821 238.967 132.648 253.79 129.653 260.107Z" fill="#DEDEDE"/>
<path d="M143.266 296.725L236.452 478.128L885.078 475.327C879.722 442.123 879.316 424.635 874.923 392.596C849.165 324.119 817.46 304.262 763.208 266.379C759.895 263.828 752.573 261.411 749.78 272.153C746.289 285.58 738.904 296.859 714.466 314.18C690.028 331.501 660.085 333.65 643.704 332.71C627.323 331.77 618.998 317.268 616.849 298.47C615.131 283.432 621.415 262.306 624.772 253.623C622.534 252.101 612.606 249.971 590.8 253.623C563.543 258.188 529.974 287.191 518.158 298.47C506.342 309.749 450.887 381.317 435.446 407.903C423.093 429.172 411.948 442.456 407.92 446.44C383.258 421.107 330.793 367.433 318.225 355.402C305.657 343.371 248.358 276.27 221.279 244.224C210.403 244.761 195.902 254.16 173.209 266.647C155.056 276.637 145.683 290.861 143.266 296.725Z" fill="#141414"/>
<path d="M603.538 136.026C602.607 136.609 600.129 138.947 598.693 143.443C597.413 147.481 599.282 151.389 599.668 152.5C601.154 152.962 603.461 153.372 607.844 151.655C609.68 150.943 613.618 150.547 614.555 149.72C614.986 146.077 620.795 146.343 619.863 142.619C618.931 138.894 606.787 136.747 603.538 136.026Z" fill="black" stroke="black" stroke-width="2" stroke-miterlimit="10" stroke-linecap="round" stroke-linejoin="round"/>
<path d="M665.226 144.92C664.164 145.585 660.37 148.156 658.733 153.284C657.273 157.89 658.438 161.769 658.878 163.036C660.572 163.563 667.575 165.278 672.573 163.319C674.668 162.507 676.237 161.368 677.305 160.425C677.797 156.27 684.423 156.574 683.359 152.326C682.296 148.077 668.932 145.743 665.226 144.92Z" fill="black" stroke="black" stroke-width="2" stroke-miterlimit="10" stroke-linecap="round" stroke-linejoin="round"/>
<path d="M601.796 180.382L624.831 141.826L627.282 142.806L631.366 171.396C632.728 174.01 634.372 180.382 630.059 184.956C624.668 190.674 610.455 187.734 605.554 186.753C601.633 185.969 601.415 182.179 601.796 180.382Z" fill="#DEDEDE"/>
<path d="M728.736 159.47C720.632 167.051 720.458 191.6 721.384 202.927C723.834 203.417 730.108 204.397 735.597 204.397C742.459 204.397 756.835 171.396 757.979 161.757C759.123 152.119 757.162 151.138 752.588 147.871C748.013 144.603 738.865 149.995 728.736 159.47Z" fill="#DEDEDE"/>
<path d="M636.783 256.11L636.566 257.086L636.783 256.11ZM722.5 202.818L723.103 202.021C722.855 201.833 722.534 201.772 722.234 201.854C721.934 201.937 721.69 202.155 721.573 202.443L722.5 202.818ZM601.964 179.392L601.054 178.977L601.964 179.392ZM728.587 157.759C728.219 158.171 728.253 158.803 728.665 159.172C729.076 159.54 729.708 159.506 730.077 159.094L728.587 157.759ZM751.854 147.785L752.128 146.823L751.854 147.785ZM726.487 183.828C725.952 183.963 725.628 184.507 725.763 185.042C725.898 185.578 726.442 185.902 726.978 185.767L726.487 183.828ZM729.121 174.627L728.257 174.124C728.058 174.465 728.079 174.892 728.31 175.212C728.542 175.533 728.94 175.687 729.327 175.606L729.121 174.627ZM751.445 179.038L752.294 179.566L751.445 179.038ZM732.707 204.445L733.149 205.341L732.707 204.445ZM755.544 149.559L754.942 150.357L755.544 149.559ZM764.447 128.026C764.519 127.479 764.133 126.977 763.585 126.905C763.037 126.834 762.536 127.22 762.464 127.767L764.447 128.026ZM732.389 205.428C732.661 204.947 732.491 204.337 732.01 204.065C731.529 203.794 730.919 203.964 730.647 204.445L732.389 205.428ZM725.565 259.72L724.628 260.068L725.565 259.72ZM615.743 247.031L615.11 247.805L615.743 247.031ZM628.051 265.921L627.066 266.093C627.071 266.117 627.076 266.141 627.082 266.165L628.051 265.921ZM638.218 306.377L637.248 306.62C637.25 306.626 637.251 306.631 637.252 306.636L638.218 306.377ZM727.399 263.936L728.383 264.11C728.421 263.897 728.389 263.678 728.291 263.485L727.399 263.936ZM745.66 169.953C745.391 170.435 745.563 171.044 746.045 171.314C746.527 171.583 747.137 171.411 747.406 170.928L745.66 169.953ZM597.949 135.079C597.868 135.625 598.246 136.134 598.792 136.215C599.339 136.295 599.847 135.918 599.928 135.372L597.949 135.079ZM608.613 85.1781C608.981 85.5895 609.613 85.6243 610.025 85.2558C610.436 84.8874 610.471 84.2551 610.103 83.8438L608.613 85.1781ZM597.268 152.855C597.37 152.312 597.012 151.789 596.469 151.688C595.926 151.586 595.404 151.944 595.302 152.487L597.268 152.855ZM724.707 307.517L725.291 308.329L724.707 307.517ZM612.876 206.321C612.426 205.999 611.802 206.103 611.481 206.553C611.16 207.002 611.263 207.627 611.713 207.948L612.876 206.321ZM643.673 203.686C644.08 203.313 644.107 202.68 643.733 202.273C643.359 201.867 642.726 201.84 642.32 202.214L643.673 203.686ZM592.883 135.701L592.956 136.698L592.957 136.698L592.883 135.701ZM584.729 140.086L585.674 140.413L585.675 140.41L584.729 140.086ZM589.842 148.978L590.363 148.125L590.354 148.119L589.842 148.978ZM652.586 144.435L652.659 145.432L652.659 145.432L652.586 144.435ZM643.285 149.438L644.23 149.764L644.231 149.761L643.285 149.438ZM649.117 159.579L649.638 158.726L649.63 158.72L649.117 159.579ZM718.275 37.8656L718.151 38.8579L718.275 37.8656ZM760.753 64.0941L759.91 64.6326L760.753 64.0941ZM743.494 56.9207L742.528 57.1802V57.1802L743.494 56.9207ZM748.36 75.028L747.394 75.2875V75.2875L748.36 75.028ZM747.075 75.8633L747.704 75.086V75.086L747.075 75.8633ZM730.079 62.1081L730.708 61.3307L730.079 62.1081ZM728.885 62.3141L728.031 61.7926V61.7926L728.885 62.3141ZM720.568 75.9213L719.714 75.3998L720.568 75.9213ZM719.145 75.8309L718.233 76.2401V76.2401L719.145 75.8309ZM709.8 54.9929L710.712 54.5837V54.5837L709.8 54.9929ZM708.776 54.5703L708.418 53.6366L708.776 54.5703ZM670.689 69.1724L671.047 70.1062L670.689 69.1724ZM669.669 68.0837L670.577 68.5014V68.5014L669.669 68.0837ZM676.803 52.5615L675.895 52.1439V52.1439L676.803 52.5615ZM676.198 51.4295L676.356 50.4421L676.198 51.4295ZM659.534 48.7636L659.376 49.751L659.534 48.7636ZM659.356 47.2226L659.735 48.1479V48.1479L659.356 47.2226ZM688.625 35.2329L688.246 34.3075V34.3075L688.625 35.2329ZM671.857 25.8809L671.721 24.8903L671.857 25.8809ZM717.773 37.6006L717.033 38.2731V38.2732L717.773 37.6006ZM688.605 33.7338L688.958 32.7985V32.7985L688.605 33.7338ZM671.719 27.3477L671.365 28.2831L671.719 27.3477ZM622.891 46.1455L623.386 47.0146L622.891 46.1455ZM642.351 50.2306L642.993 50.9974V50.9974L642.351 50.2306ZM624.467 72.1902L625.412 72.5162V72.5162L624.467 72.1902ZM625.486 73.0919L625.876 74.0123L625.876 74.0123L625.486 73.0919ZM658.028 59.2708L657.637 58.3504L658.028 59.2708ZM730.647 94.354L731.349 93.6416L730.647 94.354ZM745.199 108.69L744.497 109.403L745.199 108.69ZM746.518 108.402L745.582 108.048V108.048L746.518 108.402ZM752.429 92.7771L751.494 92.4232V92.4232L752.429 92.7771ZM759.714 65.13L759.196 65.9851V65.9851L759.714 65.13ZM755.339 62.478L755.858 61.6228L755.339 62.478ZM744.69 56.0227L744.172 56.8778L744.69 56.0227ZM776.352 111.303L775.392 111.583V111.583L776.352 111.303ZM753.729 92.4696L753.051 93.2051V93.2051L753.729 92.4696ZM775.042 112.103L775.719 111.368V111.368L775.042 112.103ZM773.684 138.716L774.684 138.682V138.682L773.684 138.716ZM772.217 139.204L771.396 139.774L772.217 139.204ZM760.928 122.959L761.749 122.389V122.389L760.928 122.959ZM759.544 123.063L760.441 123.505L759.544 123.063ZM756.144 129.963L757.041 130.405L757.041 130.405L756.144 129.963ZM754.963 130.269L755.532 129.447V129.447L754.963 130.269ZM737.537 118.233L736.969 119.056V119.056L737.537 118.233ZM736.756 118.158L736.356 117.242V117.242L736.756 118.158ZM724.989 123.301L724.589 122.384V122.384L724.989 123.301ZM711.16 116.688L710.387 116.053V116.053L711.16 116.688ZM729.46 94.4164L730.232 95.0513V95.0512L729.46 94.4164ZM724.203 123.221L724.779 122.404H724.779L724.203 123.221ZM695.917 75.4931L696.864 75.1725V75.1725L695.917 75.4931ZM709.774 116.434L710.722 116.114L709.774 116.434ZM699.489 119.877L700.207 120.573V120.573L699.489 119.877ZM698.126 119.498L699.1 119.272V119.272L698.126 119.498ZM694.671 104.582L695.645 104.357V104.357L694.671 104.582ZM693.216 104.316L692.385 103.76L693.216 104.316ZM681.966 121.118L681.135 120.562V120.562L681.966 121.118ZM650.332 106.046L651.306 106.275L650.332 106.046ZM694.625 75.1417L693.97 74.3868L694.625 75.1417ZM680.576 121.03L679.682 121.478V121.478L680.576 121.03ZM659.135 60.154L658.151 59.9761L659.135 60.154ZM644.887 104.18L644.014 103.691V103.691L644.887 104.18ZM643.413 104.02L644.37 103.73L643.413 104.02ZM637.113 83.2084L638.07 82.9186L637.113 83.2084ZM635.592 83.147L634.661 82.781V82.781L635.592 83.147ZM629.944 97.5086L629.014 97.1426L629.944 97.5086ZM628.558 97.7068L627.767 98.3188V98.3188L628.558 97.7068ZM614.251 79.221L615.042 78.6089L614.251 79.221ZM613.016 79.174L612.274 78.5038L613.016 79.174ZM596.12 97.882L595.377 97.2117L596.12 97.882ZM594.782 97.0219L593.865 96.6246L594.782 97.0219ZM608.043 66.392L608.96 66.7893V66.7893L608.043 66.392ZM607.267 65.2671L607.312 66.2661L607.267 65.2671ZM591.93 65.9654L591.975 66.9643L591.93 65.9654ZM623.247 47.5084L623.314 46.5107L623.247 47.5084ZM641.883 48.7697L641.95 47.7719L641.883 48.7697ZM591.625 64.4008L591.293 63.4578L591.625 64.4008ZM650.356 131.276C649.839 131.472 649.579 132.049 649.774 132.565C649.969 133.082 650.546 133.343 651.062 133.148L650.356 131.276ZM684.587 137.788C685.106 137.977 685.68 137.71 685.869 137.192C686.058 136.673 685.791 136.099 685.273 135.909L684.587 137.788ZM618.729 129.692C619.105 130.096 619.738 130.12 620.142 129.744C620.547 129.368 620.57 128.735 620.195 128.331L618.729 129.692ZM586.866 116.936C586.317 116.874 585.823 117.27 585.761 117.818C585.7 118.367 586.095 118.862 586.644 118.923L586.866 116.936ZM224.517 246.935L223.718 247.536H223.718L224.517 246.935ZM143.74 298.996L144.627 298.534L144.621 298.523L143.74 298.996ZM236.008 476.084L235.122 476.546C235.294 476.877 235.636 477.084 236.008 477.084V476.084ZM886.328 476.084V477.084H887.462L887.32 475.959L886.328 476.084ZM149.553 286.431L150.299 287.097L149.553 286.431ZM131.854 262.689L130.957 263.129L130.997 263.212L131.052 263.286L131.854 262.689ZM194.259 219.553L193.383 220.035L193.397 220.062L193.413 220.087L194.259 219.553ZM754.683 262.686L754.066 263.473L754.152 263.54L754.25 263.587L754.683 262.686ZM135.245 252.727L134.452 252.117H134.452L135.245 252.727ZM154.96 280.942L155.644 281.672H155.644L154.96 280.942ZM205.53 247.91L205.899 248.839L205.53 247.91ZM196.254 252.168L196.71 253.058L196.254 252.168ZM144.118 243.501L143.453 242.754L144.118 243.501ZM735.554 251.346L735.977 250.44L735.554 251.346ZM741.725 254.418L742.195 253.536L741.725 254.418ZM729.954 195.754C729.461 195.506 728.86 195.704 728.611 196.198C728.363 196.691 728.561 197.292 729.055 197.54L729.954 195.754ZM753.898 208.933L754.348 208.039L753.898 208.933ZM755.784 215.318L754.921 214.812L755.784 215.318ZM753.726 218.831L754.589 219.336L753.726 218.831ZM747.744 220.606L748.191 219.711L747.744 220.606ZM735.528 214.495L735.081 215.389L735.528 214.495ZM738.621 208.293L738.175 209.189L738.621 208.293ZM749.795 214.964C750.289 215.21 750.889 215.008 751.135 214.514C751.381 214.019 751.179 213.419 750.685 213.173L749.795 214.964ZM725.358 227.114C725.377 227.666 725.84 228.098 726.392 228.079C726.944 228.06 727.376 227.597 727.356 227.045L725.358 227.114ZM726.578 204.518C726.559 203.966 726.096 203.534 725.544 203.553C724.992 203.572 724.56 204.035 724.58 204.587L726.578 204.518ZM734.306 209.318L735.106 209.918L734.306 209.318ZM782.007 173.059L782.44 173.96L782.814 173.781L782.951 173.389L782.007 173.059ZM778.65 174.67L778.244 175.584L778.666 175.771L779.083 175.571L778.65 174.67ZM782.812 164.734L783.752 164.392L783.609 163.999L783.229 163.824L782.812 164.734ZM783.887 167.688L784.831 168.018L784.948 167.681L784.827 167.346L783.887 167.688ZM706.411 142.579L705.685 143.266L705.822 143.411L706.005 143.492L706.411 142.579ZM711.245 131.971L711.661 131.062L711.519 130.997L711.364 130.978L711.245 131.971ZM694.461 129.957L694.58 128.964L691.831 128.634L693.734 130.644L694.461 129.957ZM699.966 135.771L699.24 136.459L699.966 135.771ZM712.856 135.771L713.804 136.09L713.925 135.73L713.777 135.381L712.856 135.771ZM711.245 140.564L711.629 141.488L712.048 141.313L712.193 140.883L711.245 140.564ZM801.134 191.051C801.134 190.499 800.686 190.051 800.134 190.051C799.581 190.051 799.134 190.499 799.134 191.051H801.134ZM799.134 203.27C799.134 203.822 799.581 204.27 800.134 204.27C800.686 204.27 801.134 203.822 801.134 203.27H799.134ZM801.134 214.281C801.134 213.728 800.686 213.281 800.134 213.281C799.581 213.281 799.134 213.728 799.134 214.281H801.134ZM799.134 226.5C799.134 227.052 799.581 227.5 800.134 227.5C800.686 227.5 801.134 227.052 801.134 226.5H799.134ZM811.816 209.641C812.368 209.641 812.816 209.193 812.816 208.641C812.816 208.089 812.368 207.641 811.816 207.641V209.641ZM804.506 207.641C803.954 207.641 803.506 208.089 803.506 208.641C803.506 209.193 803.954 209.641 804.506 209.641V207.641ZM795.762 209.641C796.314 209.641 796.762 209.193 796.762 208.641C796.762 208.089 796.314 207.641 795.762 207.641V209.641ZM788.452 207.641C787.9 207.641 787.452 208.089 787.452 208.641C787.452 209.193 787.9 209.641 788.452 209.641V207.641ZM527.753 18.644C527.753 18.0918 527.305 17.644 526.753 17.644C526.2 17.644 525.753 18.0918 525.753 18.644H527.753ZM525.753 30.8629C525.753 31.4152 526.2 31.8629 526.753 31.8629C527.305 31.8629 527.753 31.4152 527.753 30.8629H525.753ZM527.753 41.8734C527.753 41.3211 527.305 40.8734 526.753 40.8734C526.2 40.8734 525.753 41.3211 525.753 41.8734H527.753ZM525.753 54.0923C525.753 54.6446 526.2 55.0923 526.753 55.0923C527.305 55.0923 527.753 54.6446 527.753 54.0923H525.753ZM538.435 37.2339C538.987 37.2339 539.435 36.7862 539.435 36.2339C539.435 35.6816 538.987 35.2339 538.435 35.2339V37.2339ZM531.125 35.2339C530.573 35.2339 530.125 35.6816 530.125 36.2339C530.125 36.7862 530.573 37.2339 531.125 37.2339V35.2339ZM522.38 37.2339C522.933 37.2339 523.38 36.7862 523.38 36.2339C523.38 35.6816 522.933 35.2339 522.38 35.2339V37.2339ZM515.071 35.2339C514.519 35.2339 514.071 35.6816 514.071 36.2339C514.071 36.7862 514.519 37.2339 515.071 37.2339V35.2339ZM819.664 246.61C819.664 246.058 819.216 245.61 818.664 245.61C818.111 245.61 817.664 246.058 817.664 246.61H819.664ZM817.664 253.488C817.664 254.041 818.111 254.488 818.664 254.488C819.216 254.488 819.664 254.041 819.664 253.488H817.664ZM819.664 264.499C819.664 263.947 819.216 263.499 818.664 263.499C818.111 263.499 817.664 263.947 817.664 264.499H819.664ZM817.664 271.378C817.664 271.93 818.111 272.378 818.664 272.378C819.216 272.378 819.664 271.93 819.664 271.378H817.664ZM827.675 259.859C828.228 259.859 828.675 259.412 828.675 258.859C828.675 258.307 828.228 257.859 827.675 257.859V259.859ZM823.036 257.859C822.483 257.859 822.036 258.307 822.036 258.859C822.036 259.412 822.483 259.859 823.036 259.859V257.859ZM814.291 259.859C814.844 259.859 815.291 259.412 815.291 258.859C815.291 258.307 814.844 257.859 814.291 257.859V259.859ZM809.652 257.859C809.1 257.859 808.652 258.307 808.652 258.859C808.652 259.412 809.1 259.859 809.652 259.859V257.859ZM546.283 63.4914C546.283 62.9391 545.835 62.4914 545.283 62.4914C544.73 62.4914 544.283 62.9391 544.283 63.4914H546.283ZM544.283 81.0812C544.283 81.6335 544.73 82.0812 545.283 82.0812C545.835 82.0812 546.283 81.6335 546.283 81.0812H544.283ZM546.283 92.0917C546.283 91.5394 545.835 91.0917 545.283 91.0917C544.73 91.0917 544.283 91.5394 544.283 92.0917H546.283ZM544.283 109.682C544.283 110.234 544.73 110.682 545.283 110.682C545.835 110.682 546.283 110.234 546.283 109.682H544.283ZM559.65 87.4522C560.202 87.4522 560.65 87.0045 560.65 86.4522C560.65 85.8999 560.202 85.4522 559.65 85.4522V87.4522ZM549.655 85.4522C549.103 85.4522 548.655 85.8999 548.655 86.4522C548.655 87.0045 549.103 87.4522 549.655 87.4522V85.4522ZM540.91 87.4522C541.463 87.4522 541.91 87.0045 541.91 86.4522C541.91 85.8999 541.463 85.4522 540.91 85.4522V87.4522ZM530.915 85.4522C530.363 85.4522 529.915 85.8999 529.915 86.4522C529.915 87.0045 530.363 87.4522 530.915 87.4522V85.4522ZM636.566 257.086C660.144 262.311 679.377 255.047 693.939 243.374C708.474 231.724 718.38 215.673 723.427 203.193L721.573 202.443C716.623 214.682 706.898 230.424 692.688 241.814C678.506 253.181 659.879 260.203 636.999 255.134L636.566 257.086ZM622.455 143.622C619.354 149.787 614.458 157.648 610.103 164.463C607.934 167.857 605.89 171.007 604.295 173.519C602.716 176.008 601.513 177.971 601.054 178.977L602.873 179.807C603.261 178.956 604.372 177.13 605.984 174.591C607.581 172.075 609.604 168.958 611.788 165.54C616.138 158.733 621.088 150.79 624.242 144.521L622.455 143.622ZM601.054 178.977C599.73 181.88 601.048 185.623 604.765 187.929C608.496 190.243 614.668 191.198 623.545 188.97L623.058 187.031C614.478 189.183 608.922 188.154 605.819 186.229C602.703 184.296 602.08 181.546 602.873 179.807L601.054 178.977ZM623.545 188.97C627.975 187.859 630.883 186.47 632.678 184.822C634.525 183.126 635.136 181.207 635.074 179.256C635.013 177.382 634.329 175.497 633.69 173.821C633.022 172.068 632.417 170.566 632.276 169.214L630.287 169.421C630.461 171.099 631.198 172.898 631.821 174.533C632.473 176.243 633.027 177.829 633.075 179.321C633.12 180.736 632.71 182.078 631.325 183.349C629.888 184.668 627.356 185.952 623.058 187.031L623.545 188.97ZM632.276 169.214C631.973 166.303 631.537 156.731 630.412 149.604C630.128 147.807 629.797 146.133 629.405 144.729C629.02 143.353 628.549 142.129 627.937 141.317C627.627 140.905 627.221 140.519 626.694 140.326C626.128 140.118 625.545 140.177 625.013 140.443C624.514 140.692 624.073 141.112 623.674 141.624C623.268 142.142 622.864 142.809 622.455 143.622L624.242 144.521C624.615 143.779 624.952 143.236 625.25 142.855C625.554 142.466 625.777 142.297 625.906 142.232C625.964 142.203 625.992 142.201 625.995 142.201C625.995 142.201 625.996 142.2 626.005 142.204C626.037 142.215 626.157 142.277 626.34 142.52C626.716 143.019 627.107 143.938 627.478 145.267C627.842 146.567 628.159 148.158 628.437 149.916C629.556 157.006 629.959 166.274 630.287 169.421L632.276 169.214ZM730.077 159.094C732.051 156.891 735.534 153.714 739.515 151.388C743.53 149.042 747.841 147.683 751.58 148.746L752.128 146.823C747.59 145.532 742.669 147.229 738.506 149.661C734.311 152.112 730.671 155.434 728.587 157.759L730.077 159.094ZM726.978 185.767C732.766 184.303 735.984 181.118 736.282 178.083C736.437 176.514 735.773 175.081 734.389 174.224C733.048 173.394 731.159 173.177 728.916 173.648L729.327 175.606C731.268 175.198 732.58 175.457 733.336 175.924C734.048 176.365 734.374 177.05 734.292 177.888C734.117 179.666 731.957 182.445 726.487 183.828L726.978 185.767ZM750.596 178.51C747.168 184.021 744.198 189.448 741.173 194.046C738.153 198.637 735.282 202.06 732.265 203.548L733.149 205.341C736.699 203.591 739.824 199.735 742.844 195.145C745.859 190.561 748.975 184.904 752.294 179.566L750.596 178.51ZM732.265 203.548C730.887 204.227 729.491 204.495 728.023 204.292C726.543 204.086 724.915 203.391 723.103 202.021L721.897 203.616C723.905 205.134 725.846 206.009 727.748 206.273C729.66 206.538 731.458 206.175 733.149 205.341L732.265 203.548ZM751.58 148.746C752.926 149.129 754.039 149.676 754.942 150.357L756.147 148.76C755.02 147.911 753.677 147.264 752.128 146.823L751.58 148.746ZM754.942 150.357C757.659 152.405 758.75 155.911 758.038 160.784C757.325 165.663 754.817 171.722 750.596 178.51L752.294 179.566C756.588 172.661 759.249 166.334 760.017 161.073C760.786 155.805 759.67 151.417 756.147 148.76L754.942 150.357ZM756.421 150.04C759.795 143.896 761.799 138.412 762.96 134.456C763.541 132.478 763.911 130.881 764.137 129.774C764.25 129.22 764.327 128.789 764.376 128.493C764.4 128.345 764.418 128.231 764.429 128.153C764.435 128.114 764.439 128.083 764.442 128.062C764.444 128.052 764.445 128.043 764.446 128.037C764.446 128.034 764.446 128.032 764.447 128.03C764.447 128.029 764.447 128.028 764.447 128.028C764.447 128.027 764.447 128.027 764.447 128.027C764.447 128.027 764.447 128.026 763.456 127.897C762.464 127.767 762.464 127.767 762.464 127.767C762.464 127.767 762.464 127.767 762.464 127.767C762.464 127.767 762.464 127.767 762.464 127.767C762.464 127.767 762.464 127.769 762.464 127.77C762.463 127.773 762.462 127.779 762.461 127.787C762.459 127.802 762.456 127.827 762.451 127.861C762.441 127.928 762.425 128.03 762.403 128.166C762.357 128.439 762.285 128.846 762.177 129.374C761.962 130.431 761.605 131.973 761.041 133.893C759.914 137.733 757.962 143.08 754.668 149.077L756.421 150.04ZM722.88 228.594C723.656 224.101 726.01 218.334 728.212 213.628C729.307 211.289 730.353 209.236 731.125 207.768C731.51 207.035 731.827 206.448 732.048 206.045C732.158 205.844 732.244 205.689 732.302 205.584C732.331 205.532 732.353 205.492 732.368 205.466C732.375 205.453 732.38 205.443 732.384 205.437C732.386 205.434 732.387 205.431 732.388 205.43C732.388 205.429 732.389 205.428 732.389 205.428C732.389 205.428 732.389 205.428 732.389 205.428C732.389 205.428 732.389 205.428 731.518 204.936C730.647 204.445 730.647 204.445 730.647 204.445C730.647 204.445 730.647 204.445 730.647 204.446C730.646 204.446 730.646 204.447 730.645 204.448C730.644 204.45 730.643 204.453 730.641 204.456C730.637 204.464 730.631 204.475 730.623 204.489C730.607 204.517 730.584 204.558 730.554 204.612C730.493 204.721 730.405 204.88 730.293 205.085C730.068 205.497 729.746 206.093 729.354 206.837C728.572 208.325 727.512 210.406 726.401 212.78C724.191 217.501 721.734 223.477 720.909 228.253L722.88 228.594ZM720.909 228.253C719.277 237.712 719.866 247.241 724.628 260.068L726.503 259.372C721.853 246.845 721.313 237.674 722.88 228.594L720.909 228.253ZM615.11 247.805C617.801 250.007 621.47 251.964 625.356 253.562L626.117 251.712C622.326 250.154 618.855 248.285 616.376 246.257L615.11 247.805ZM625.356 253.562C629.056 255.083 632.998 256.296 636.566 257.086L636.999 255.134C633.54 254.367 629.708 253.188 626.117 251.712L625.356 253.562ZM624.751 252.809L627.066 266.093L629.037 265.749L626.722 252.465L624.751 252.809ZM627.082 266.165L637.248 306.62L639.188 306.133L629.021 265.677L627.082 266.165ZM724.628 260.068C725.175 261.543 725.798 262.988 726.506 264.387L728.291 263.485C727.62 262.157 727.026 260.782 726.503 259.372L724.628 260.068ZM637.252 306.636C637.846 308.85 639.846 310.362 642.458 311.33C645.099 312.309 648.592 312.823 652.613 312.901C660.668 313.056 671.075 311.461 681.585 308.034C702.53 301.205 724.364 286.92 728.383 264.11L726.414 263.763C722.594 285.44 701.713 299.368 680.965 306.133C670.628 309.503 660.445 311.051 652.651 310.901C648.749 310.826 645.503 310.326 643.153 309.455C640.773 308.573 639.528 307.399 639.184 306.118L637.252 306.636ZM729.985 175.13C731.801 172.011 734.857 167.387 738.109 163.66C739.738 161.794 741.384 160.189 742.921 159.109C744.493 158.003 745.773 157.572 746.728 157.718L747.03 155.741C745.289 155.474 743.461 156.285 741.771 157.472C740.047 158.684 738.28 160.422 736.602 162.345C733.242 166.196 730.114 170.933 728.257 174.124L729.985 175.13ZM746.728 157.718C747.743 157.873 748.239 158.348 748.505 159.002C748.807 159.744 748.848 160.818 748.627 162.145C748.189 164.779 746.815 167.885 745.66 169.953L747.406 170.928C748.613 168.769 750.108 165.432 750.6 162.473C750.844 161.004 750.865 159.494 750.358 158.248C749.815 156.914 748.711 155.998 747.03 155.741L746.728 157.718ZM599.928 135.372C602.218 119.887 604.369 106.726 606.171 97.6936C607.074 93.1698 607.882 89.7161 608.568 87.5303C608.918 86.4169 609.21 85.7199 609.427 85.3755C609.553 85.1762 609.555 85.2553 609.393 85.3258C609.278 85.3761 609.104 85.4079 608.914 85.355C608.74 85.3064 608.643 85.2119 608.613 85.1781L610.103 83.8438C609.96 83.6843 609.746 83.5106 609.451 83.4283C609.139 83.3416 608.84 83.3852 608.595 83.4919C608.174 83.6753 607.901 84.0457 607.735 84.3091C607.369 84.8903 607.014 85.8045 606.66 86.9313C605.94 89.2258 605.115 92.7683 604.21 97.3023C602.398 106.385 600.24 119.587 597.949 135.079L599.928 135.372ZM595.302 152.487C592.608 166.878 590.819 185.15 593.053 202.581C595.287 220.006 601.56 236.718 615.11 247.805L616.376 246.257C603.377 235.62 597.237 219.486 595.037 202.327C592.838 185.176 594.595 167.129 597.268 152.855L595.302 152.487ZM625.127 254.062C624.198 253.691 624.198 253.692 624.197 253.692C624.197 253.693 624.197 253.694 624.197 253.695C624.196 253.696 624.195 253.699 624.194 253.702C624.191 253.709 624.187 253.718 624.182 253.731C624.173 253.755 624.158 253.792 624.14 253.84C624.102 253.935 624.048 254.076 623.979 254.259C623.839 254.627 623.639 255.166 623.392 255.859C622.897 257.244 622.217 259.243 621.468 261.707C619.97 266.633 618.196 273.429 617.093 280.899C614.903 295.743 615.306 313.659 626.367 324.606L627.773 323.185C617.459 312.975 616.89 295.975 619.072 281.191C620.156 273.847 621.903 267.152 623.381 262.289C624.12 259.859 624.79 257.89 625.275 256.531C625.518 255.851 625.714 255.324 625.849 254.968C625.916 254.79 625.968 254.655 626.003 254.565C626.021 254.52 626.034 254.486 626.043 254.464C626.047 254.453 626.05 254.445 626.053 254.44C626.054 254.437 626.054 254.435 626.055 254.434C626.055 254.434 626.055 254.433 626.055 254.433C626.055 254.433 626.055 254.433 625.127 254.062ZM626.367 324.606C631.92 330.103 639.41 332.884 647.812 333.729C656.209 334.574 665.577 333.492 674.989 331.204C693.806 326.63 712.989 317.19 725.291 308.329L724.122 306.706C712.021 315.423 693.073 324.75 674.516 329.261C665.241 331.515 656.112 332.554 648.012 331.739C639.915 330.925 632.908 328.267 627.773 323.185L626.367 324.606ZM725.291 308.329C745.11 294.053 752.782 270.47 754.538 261.804L752.578 261.406C750.866 269.856 743.35 292.856 724.122 306.706L725.291 308.329ZM611.713 207.948C617.495 212.081 622.702 213.68 627.943 212.825C633.132 211.978 638.162 208.751 643.673 203.686L642.32 202.214C636.898 207.197 632.225 210.099 627.621 210.851C623.069 211.594 618.39 210.262 612.876 206.321L611.713 207.948ZM615.954 138.033C608.586 135.268 600.647 134.126 592.81 134.703L592.957 136.698C600.505 136.142 608.154 137.242 615.251 139.906L615.954 138.033ZM592.81 134.703C591.121 134.827 589.221 135.156 587.575 135.899C585.92 136.645 584.436 137.853 583.783 139.762L585.675 140.41C586.092 139.192 587.057 138.326 588.397 137.722C589.746 137.113 591.387 136.813 592.956 136.698L592.81 134.703ZM583.783 139.76C583.04 141.915 583.695 144.248 584.859 145.952L586.511 144.823C585.585 143.469 585.197 141.796 585.674 140.413L583.783 139.76ZM584.859 145.952C586.028 147.662 587.71 148.87 589.329 149.837L590.354 148.119C588.814 147.2 587.432 146.172 586.511 144.823L584.859 145.952ZM589.32 149.831C593.129 152.158 597.394 153.761 601.813 154.368L602.085 152.387C597.962 151.821 593.957 150.32 590.363 148.125L589.32 149.831ZM601.813 154.368C603.963 154.663 605.754 154.838 607.756 154.499C609.755 154.162 611.888 153.328 614.787 151.735L613.824 149.982C611.017 151.524 609.108 152.243 607.423 152.527C605.741 152.811 604.207 152.678 602.085 152.387L601.813 154.368ZM615.251 139.906C616.935 140.538 617.91 141.319 618.421 142.086C618.916 142.83 619.034 143.651 618.831 144.533C618.407 146.38 616.555 148.482 613.824 149.982L614.787 151.735C617.763 150.101 620.175 147.616 620.781 144.981C621.093 143.622 620.917 142.228 620.086 140.978C619.27 139.751 617.886 138.759 615.954 138.033L615.251 139.906ZM678.851 147.227C670.467 144.08 661.431 142.781 652.513 143.438L652.659 145.432C661.289 144.797 670.035 146.054 678.148 149.1L678.851 147.227ZM652.513 143.438C650.595 143.579 648.446 143.952 646.589 144.789C644.724 145.631 643.068 146.984 642.339 149.114L644.231 149.761C644.724 148.323 645.861 147.312 647.412 146.612C648.971 145.909 650.861 145.565 652.659 145.432L652.513 143.438ZM642.34 149.111C641.51 151.515 642.239 154.129 643.55 156.048L645.202 154.92C644.129 153.35 643.667 151.395 644.23 149.764L642.34 149.111ZM643.55 156.048C644.866 157.974 646.763 159.339 648.604 160.438L649.63 158.72C647.867 157.669 646.27 156.484 645.202 154.92L643.55 156.048ZM648.596 160.432C652.925 163.077 657.771 164.899 662.791 165.588L663.063 163.606C658.339 162.958 653.753 161.24 649.638 158.726L648.596 160.432ZM662.791 165.588C665.24 165.924 667.266 166.12 669.527 165.738C671.784 165.357 674.202 164.414 677.502 162.601L676.539 160.848C673.331 162.61 671.138 163.438 669.193 163.766C667.253 164.094 665.485 163.939 663.063 163.606L662.791 165.588ZM678.148 149.1C680.087 149.828 681.228 150.733 681.831 151.64C682.419 152.524 682.558 153.501 682.32 154.541C681.823 156.703 679.671 159.128 676.539 160.848L677.502 162.601C680.879 160.746 683.591 157.939 684.269 154.989C684.617 153.472 684.421 151.922 683.496 150.532C682.587 149.165 681.037 148.048 678.851 147.227L678.148 149.1ZM718.151 38.8579C727.765 40.0613 748.541 46.8437 759.91 64.6326L761.596 63.5556C749.786 45.0772 728.338 38.1175 718.399 36.8734L718.151 38.8579ZM742.528 57.1802L747.394 75.2875L749.326 74.7685L744.46 56.6612L742.528 57.1802ZM747.704 75.086L730.708 61.3307L729.45 62.8854L746.446 76.6406L747.704 75.086ZM728.031 61.7926L719.714 75.3998L721.421 76.4429L729.738 62.8357L728.031 61.7926ZM720.057 75.4217L710.712 54.5837L708.887 55.4021L718.233 76.2401L720.057 75.4217ZM708.418 53.6366L670.331 68.2387L671.047 70.1062L709.134 55.504L708.418 53.6366ZM670.577 68.5014L677.712 52.9791L675.895 52.1439L668.76 67.6661L670.577 68.5014ZM676.356 50.4421L659.692 47.7762L659.376 49.751L676.04 52.417L676.356 50.4421ZM659.735 48.1479L689.004 36.1583L688.246 34.3075L658.977 46.2972L659.735 48.1479ZM671.994 26.8715C677.906 26.0547 686.339 25.7568 694.726 27.2551C703.123 28.755 711.363 32.0341 717.033 38.2731L718.513 36.9281C712.431 30.236 703.705 26.8273 695.078 25.2862C686.441 23.7435 677.792 24.0514 671.721 24.8903L671.994 26.8715ZM688.958 32.7985L686.154 31.7379L685.446 33.6085L688.251 34.6692L688.958 32.7985ZM686.154 31.7379L672.073 26.4124L671.365 28.2831L685.446 33.6085L686.154 31.7379ZM685.721 31.6763C677.843 32.3024 665.524 33.7144 653.442 35.9538C641.401 38.1856 629.446 41.2641 622.396 45.2764L623.386 47.0146C630.112 43.1866 641.762 40.1528 653.807 37.9203C665.81 35.6956 678.058 34.2916 685.879 33.6701L685.721 31.6763ZM641.709 49.4637C638.787 51.909 634.956 55.4662 631.506 59.414C628.072 63.3437 624.943 67.7413 623.521 71.8641L625.412 72.5162C626.706 68.7642 629.629 64.6016 633.012 60.73C636.38 56.8766 640.132 53.3913 642.993 50.9974L641.709 49.4637ZM625.876 74.0123L658.419 60.1912L657.637 58.3504L625.095 72.1715L625.876 74.0123ZM729.946 95.0663L744.497 109.403L745.901 107.978L731.349 93.6416L729.946 95.0663ZM747.453 108.755L753.365 93.1309L751.494 92.4232L745.582 108.048L747.453 108.755ZM760.233 64.2748L755.858 61.6228L754.821 63.3331L759.196 65.9851L760.233 64.2748ZM755.858 61.6228L745.208 55.1675L744.172 56.8778L754.821 63.3331L755.858 61.6228ZM777.312 111.023C774.949 102.926 771.342 91.6914 767.491 81.9681C765.566 77.1085 763.571 72.6034 761.631 69.0491C760.661 67.2722 759.695 65.7145 758.748 64.4623C757.81 63.2231 756.844 62.2206 755.858 61.6228L754.821 63.3331C755.49 63.739 756.276 64.51 757.153 65.6693C758.02 66.8155 758.934 68.2811 759.876 70.0073C761.76 73.4592 763.72 77.8795 765.632 82.7046C769.452 92.3503 773.04 103.521 775.392 111.583L777.312 111.023ZM753.051 93.2051L772.023 110.682L773.378 109.211L754.406 91.7341L753.051 93.2051ZM772.023 110.682L774.364 112.839L775.719 111.368L773.378 109.211L772.023 110.682ZM771.701 109.981L772.685 138.75L774.684 138.682L773.7 109.912L771.701 109.981ZM773.039 138.633L761.749 122.389L760.107 123.53L771.396 139.774L773.039 138.633ZM758.647 122.621L755.247 129.521L757.041 130.405L760.441 123.505L758.647 122.621ZM755.532 129.447L738.105 117.411L736.969 119.056L754.395 131.092L755.532 129.447ZM736.356 117.242L724.589 122.384L725.39 124.217L737.157 119.074L736.356 117.242ZM711.933 117.322L713.308 115.649L711.763 114.379L710.387 116.053L711.933 117.322ZM713.308 115.649L730.232 95.0513L728.687 93.7816L711.763 114.379L713.308 115.649ZM724.779 122.404L713.111 114.196L711.96 115.832L723.628 124.039L724.779 122.404ZM694.97 75.8137L707.029 111.443L708.924 110.802L696.864 75.1725L694.97 75.8137ZM707.029 111.443L708.827 116.755L710.722 116.114L708.924 110.802L707.029 111.443ZM707.259 110.427L698.771 119.181L700.207 120.573L708.695 111.819L707.259 110.427ZM699.1 119.272L695.645 104.357L693.696 104.808L697.152 119.724L699.1 119.272ZM692.385 103.76L681.135 120.562L682.797 121.675L694.047 104.872L692.385 103.76ZM649.359 105.818C649.22 106.411 649.164 107.141 649.569 107.735C650.019 108.397 650.76 108.512 651.321 108.478C651.894 108.443 652.543 108.249 653.216 107.977C653.904 107.699 654.683 107.312 655.535 106.838C658.928 104.951 663.742 101.534 669.017 97.4958L667.802 95.9077C662.531 99.942 657.817 103.281 654.563 105.09C653.753 105.541 653.051 105.886 652.467 106.123C651.867 106.365 651.453 106.466 651.2 106.482C650.937 106.498 651.091 106.417 651.222 106.61C651.307 106.735 651.201 106.724 651.306 106.275L649.359 105.818ZM669.017 97.4958C677.798 90.7744 687.978 82.2405 695.281 75.8967L693.97 74.3868C686.682 80.7164 676.537 89.2209 667.802 95.9077L669.017 97.4958ZM681.471 120.583L669.304 96.2545L667.515 97.1491L679.682 121.478L681.471 120.583ZM658.151 59.9761C656.847 67.1871 654.838 78.1272 653.005 87.7425L654.969 88.1172C656.805 78.4935 658.814 67.5467 660.119 60.332L658.151 59.9761ZM653.005 87.7425C651.513 95.5651 650.141 102.486 649.359 105.818L651.306 106.275C652.1 102.894 653.479 95.9292 654.969 88.1172L653.005 87.7425ZM653.114 87.4412L644.014 103.691L645.759 104.668L654.859 88.4185L653.114 87.4412ZM644.37 103.73L638.07 82.9186L636.156 83.4981L642.456 104.309L644.37 103.73ZM634.661 82.781L629.014 97.1426L630.875 97.8745L636.522 83.5129L634.661 82.781ZM629.348 97.0948L615.042 78.6089L613.461 79.833L627.767 98.3188L629.348 97.0948ZM612.274 78.5038L595.377 97.2117L596.862 98.5523L613.759 79.8443L612.274 78.5038ZM595.7 97.4192L608.96 66.7893L607.125 65.9947L593.865 96.6246L595.7 97.4192ZM607.221 64.2682L591.885 64.9664L591.975 66.9643L607.312 66.2661L607.221 64.2682ZM623.179 48.5061L636.828 49.4298L636.963 47.4344L623.314 46.5107L623.179 48.5061ZM636.828 49.4298L641.815 49.7674L641.95 47.7719L636.963 47.4344L636.828 49.4298ZM591.958 65.3438L637.228 49.3751L636.562 47.489L591.293 63.4578L591.958 65.3438ZM591.885 64.9664C591.888 64.9662 591.908 64.9663 591.939 64.9766C591.969 64.9869 591.997 65.0034 592.021 65.0238C592.066 65.0627 592.08 65.1018 592.084 65.1234C592.088 65.1451 592.09 65.1866 592.063 65.2395C592.048 65.2673 592.028 65.2933 592.004 65.3141C591.98 65.335 591.961 65.3427 591.958 65.3438L591.293 63.4578C589.333 64.1489 589.9 67.0588 591.975 66.9643L591.885 64.9664ZM608.96 66.7893C609.491 65.5644 608.555 64.2075 607.221 64.2682L607.312 66.2661C607.169 66.2726 607.068 66.1266 607.125 65.9947L608.96 66.7893ZM595.377 97.2117C595.391 97.1968 595.44 97.1613 595.512 97.1549C595.57 97.1496 595.608 97.1662 595.627 97.1785C595.646 97.1909 595.677 97.2183 595.696 97.2734C595.72 97.3414 595.708 97.4008 595.7 97.4192L593.865 96.6246C593.053 98.5004 595.492 100.069 596.862 98.5523L595.377 97.2117ZM615.042 78.6089C614.354 77.7193 613.028 77.669 612.274 78.5038L613.759 79.8443C613.677 79.9342 613.535 79.9287 613.461 79.833L615.042 78.6089ZM629.014 97.1426C629.069 97.0022 629.256 96.9755 629.348 97.0948L627.767 98.3188C628.624 99.4269 630.362 99.1785 630.875 97.8745L629.014 97.1426ZM638.07 82.9186C637.574 81.2797 635.288 81.1874 634.661 82.781L636.522 83.5129C636.512 83.5391 636.484 83.5786 636.438 83.6067C636.399 83.631 636.362 83.6371 636.334 83.636C636.306 83.6349 636.27 83.6258 636.232 83.5983C636.188 83.5667 636.164 83.525 636.156 83.4981L638.07 82.9186ZM644.014 103.691C644.029 103.666 644.059 103.633 644.103 103.612C644.141 103.593 644.177 103.59 644.205 103.593C644.233 103.596 644.267 103.607 644.301 103.634C644.339 103.663 644.362 103.702 644.37 103.73L642.456 104.309C642.917 105.833 644.981 106.057 645.759 104.668L644.014 103.691ZM681.135 120.562C681.218 120.438 681.404 120.45 681.471 120.583L679.682 121.478C680.301 122.716 682.027 122.825 682.797 121.675L681.135 120.562ZM695.645 104.357C695.288 102.817 693.265 102.446 692.385 103.76L694.047 104.872C694.031 104.897 693.998 104.926 693.954 104.944C693.914 104.96 693.879 104.961 693.851 104.955C693.823 104.95 693.79 104.937 693.758 104.908C693.723 104.876 693.703 104.837 693.696 104.808L695.645 104.357ZM698.771 119.181C698.879 119.071 699.065 119.122 699.1 119.272L697.152 119.724C697.475 121.117 699.212 121.6 700.207 120.573L698.771 119.181ZM724.589 122.384C724.651 122.357 724.723 122.365 724.779 122.404L723.628 124.039C724.144 124.402 724.812 124.47 725.39 124.217L724.589 122.384ZM738.105 117.411C737.591 117.055 736.929 116.991 736.356 117.242L737.157 119.074C737.095 119.101 737.024 119.094 736.969 119.056L738.105 117.411ZM755.247 129.521C755.299 129.414 755.434 129.379 755.532 129.447L754.395 131.092C755.302 131.719 756.554 131.393 757.041 130.405L755.247 129.521ZM761.749 122.389C760.964 121.259 759.255 121.387 758.647 122.621L760.441 123.505C760.375 123.638 760.191 123.652 760.107 123.53L761.749 122.389ZM753.365 93.1309C753.316 93.2597 753.152 93.2984 753.051 93.2051L754.406 91.7341C753.466 90.8675 751.947 91.2268 751.494 92.4232L753.365 93.1309ZM744.497 109.403C745.427 110.319 746.991 109.976 747.453 108.755L745.582 108.048C745.632 107.916 745.8 107.879 745.901 107.978L744.497 109.403ZM731.349 93.6416C730.593 92.8968 729.361 92.9614 728.687 93.7816L730.232 95.0512C730.16 95.1396 730.027 95.1465 729.946 95.0663L731.349 93.6416ZM710.387 116.053C710.484 115.935 710.673 115.969 710.722 116.114L708.827 116.755C709.281 118.097 711.033 118.417 711.933 117.322L710.387 116.053ZM696.864 75.1725C696.453 73.9586 694.942 73.5424 693.97 74.3868L695.281 75.8967C695.175 75.9888 695.013 75.9411 694.97 75.8137L696.864 75.1725ZM658.419 60.1912C658.279 60.2506 658.123 60.1314 658.151 59.9761L660.119 60.332C660.375 58.916 658.956 57.7903 657.637 58.3504L658.419 60.1912ZM623.521 71.8641C622.989 73.4069 624.571 74.5668 625.876 74.0123L625.095 72.1715C625.156 72.1453 625.253 72.1552 625.326 72.2186C625.361 72.2493 625.394 72.2958 625.412 72.3576C625.431 72.424 625.424 72.4826 625.412 72.5162L623.521 71.8641ZM642.993 50.9974C644.234 49.9586 643.606 47.884 641.95 47.7719L641.815 49.7674C641.785 49.7653 641.742 49.7506 641.706 49.7201C641.674 49.6937 641.659 49.6658 641.652 49.6452C641.646 49.6247 641.642 49.5955 641.652 49.559C641.663 49.5167 641.687 49.4821 641.709 49.4637L642.993 50.9974ZM622.396 45.2764C621.651 45.7006 621.383 46.5028 621.571 47.2067C621.754 47.895 622.36 48.4507 623.179 48.5061L623.314 46.5107C623.332 46.5118 623.375 46.5222 623.42 46.5596C623.46 46.5932 623.489 46.6387 623.503 46.6907C623.517 46.7432 623.518 46.8117 623.489 46.8831C623.458 46.961 623.407 47.0023 623.386 47.0146L622.396 45.2764ZM671.721 24.8903C670.822 25.0145 670.273 25.7134 670.205 26.4571C670.138 27.1917 670.537 27.97 671.365 28.2831L672.073 26.4124C672.089 26.4185 672.131 26.4438 672.164 26.4976C672.192 26.5448 672.201 26.5946 672.197 26.6394C672.193 26.6843 672.174 26.7406 672.127 26.7919C672.074 26.8497 672.015 26.8686 671.994 26.8715L671.721 24.8903ZM689.004 36.1583C690.521 35.5369 690.492 33.3785 688.958 32.7985L688.251 34.6692C688.224 34.6589 688.186 34.6327 688.158 34.5908C688.134 34.5539 688.126 34.5183 688.125 34.49C688.125 34.4616 688.132 34.4258 688.155 34.3883C688.182 34.3457 688.219 34.3185 688.246 34.3075L689.004 36.1583ZM659.692 47.7762C659.718 47.7803 659.766 47.8004 659.806 47.8447C659.839 47.8822 659.851 47.9193 659.854 47.9458C659.857 47.9723 659.854 48.011 659.83 48.0553C659.802 48.1074 659.759 48.138 659.735 48.1479L658.977 46.2972C657.288 46.9888 657.574 49.4628 659.376 49.751L659.692 47.7762ZM677.712 52.9791C678.211 51.8933 677.536 50.6309 676.356 50.4421L676.04 52.417C675.913 52.3966 675.841 52.2607 675.895 52.1439L677.712 52.9791ZM670.331 68.2387C670.358 68.2283 670.403 68.2228 670.451 68.235C670.493 68.2458 670.523 68.2665 670.543 68.2873C670.562 68.308 670.581 68.339 670.589 68.3818C670.598 68.4303 670.589 68.4749 670.577 68.5014L668.76 67.6661C668.084 69.137 669.536 70.6856 671.047 70.1062L670.331 68.2387ZM710.712 54.5837C710.32 53.7092 709.313 53.2935 708.418 53.6366L709.134 55.504C709.038 55.5409 708.93 55.4963 708.887 55.4021L710.712 54.5837ZM719.714 75.3998C719.796 75.2664 719.993 75.279 720.057 75.4217L718.233 76.2401C718.827 77.5654 720.663 77.6822 721.421 76.4429L719.714 75.3998ZM730.708 61.3307C729.859 60.6441 728.601 60.8614 728.031 61.7926L729.738 62.8357C729.677 62.9359 729.541 62.9593 729.45 62.8854L730.708 61.3307ZM772.685 138.75C772.684 138.724 772.694 138.673 772.729 138.627C772.759 138.587 772.792 138.568 772.818 138.559C772.843 138.551 772.882 138.546 772.929 138.56C772.985 138.577 773.023 138.611 773.039 138.633L771.396 139.774C772.424 141.253 774.745 140.481 774.684 138.682L772.685 138.75ZM747.394 75.2875C747.387 75.2609 747.386 75.2111 747.407 75.1599C747.426 75.1157 747.453 75.0891 747.476 75.0741C747.499 75.0591 747.534 75.0452 747.582 75.0462C747.638 75.0474 747.683 75.0687 747.704 75.086L746.446 76.6406C747.806 77.7412 749.78 76.4582 749.326 74.7685L747.394 75.2875ZM744.46 56.6612C744.467 56.6893 744.468 56.735 744.451 56.7815C744.436 56.8226 744.412 56.85 744.389 56.867C744.366 56.8841 744.333 56.8994 744.29 56.9027C744.24 56.9064 744.196 56.8929 744.172 56.8778L745.208 55.1675C743.816 54.3237 742.106 55.608 742.528 57.1802L744.46 56.6612ZM759.91 64.6326C759.9 64.6163 759.876 64.5595 759.886 64.4802C759.895 64.4101 759.927 64.3576 759.961 64.3242C759.994 64.2908 760.042 64.2641 760.101 64.2559C760.169 64.2467 760.218 64.2662 760.233 64.2748L759.196 65.9851C759.967 66.4527 760.839 66.271 761.37 65.7432C761.907 65.2104 762.09 64.3287 761.596 63.5556L759.91 64.6326ZM775.392 111.583C775.385 111.559 775.381 111.504 775.406 111.444C775.428 111.393 775.46 111.364 775.486 111.348C775.512 111.332 775.55 111.319 775.6 111.322C775.658 111.327 775.702 111.352 775.719 111.368L774.364 112.839C775.677 114.048 777.834 112.814 777.312 111.023L775.392 111.583ZM718.399 36.8734C718.423 36.8763 718.447 36.8839 718.469 36.8957C718.491 36.9072 718.505 36.9198 718.513 36.9281L717.033 38.2732C717.317 38.5862 717.705 38.802 718.151 38.8579L718.399 36.8734ZM651.062 133.148C661.473 129.216 669.564 132.304 684.587 137.788L685.273 135.909C670.428 130.49 661.587 127.036 650.356 131.276L651.062 133.148ZM620.195 128.331C612.026 119.534 602.571 118.691 586.866 116.936L586.644 118.923C602.538 120.7 611.157 121.537 618.729 129.692L620.195 128.331ZM625.042 252.464C595.619 246.939 568.115 257.192 543.258 275.301C518.407 293.405 496.108 319.425 477.026 345.633C457.943 371.844 442.025 398.318 429.987 417.324C423.954 426.848 418.919 434.459 414.941 439.26C412.942 441.673 411.276 443.293 409.943 444.109C409.281 444.514 408.775 444.674 408.403 444.691C408.07 444.706 407.795 444.611 407.524 444.362L406.169 445.832C406.826 446.438 407.62 446.729 408.494 446.689C409.329 446.651 410.169 446.316 410.987 445.815C412.616 444.818 414.455 442.982 416.481 440.536C420.554 435.621 425.654 427.902 431.676 418.395C443.746 399.34 459.609 372.953 478.643 346.811C497.678 320.666 519.833 294.841 544.435 276.918C569.03 258.999 595.98 249.041 624.672 254.43L625.042 252.464ZM407.524 444.362C400.128 437.542 365.273 402.253 326.896 361.534C288.518 320.814 246.686 274.735 225.316 246.334L223.718 247.536C245.165 276.04 287.072 322.195 325.441 362.906C363.812 403.618 398.713 438.957 406.169 445.832L407.524 444.362ZM142.853 299.458L235.122 476.546L236.895 475.622L144.627 298.534L142.853 299.458ZM236.008 477.084H886.328V475.084H236.008V477.084ZM148.807 285.765C146.379 288.482 144.501 291.043 143.411 293.303C142.344 295.519 141.912 297.709 142.859 299.47L144.621 298.523C144.146 297.64 144.219 296.234 145.213 294.171C146.185 292.154 147.925 289.754 150.299 287.097L148.807 285.765ZM150.355 285.833L132.656 262.091L131.052 263.286L148.751 287.029L150.355 285.833ZM225.316 246.334C223.998 244.583 221.88 243.811 219.402 243.689C216.925 243.568 213.944 244.082 210.657 245.055L211.224 246.972C214.41 246.029 217.146 245.581 219.304 245.687C221.46 245.793 222.894 246.441 223.718 247.536L225.316 246.334ZM193.413 220.087L210.095 246.547L211.787 245.48L195.105 219.02L193.413 220.087ZM642.388 309.683L631.87 328.04L633.606 329.034L644.124 310.678L642.388 309.683ZM655.098 310.016L651.748 333.091L653.727 333.378L657.078 310.304L655.098 310.016ZM670.331 309.216L676.797 328.665L678.695 328.034L672.229 308.585L670.331 309.216ZM688.148 302.868L701.15 321.508L702.79 320.363L689.789 301.724L688.148 302.868ZM707.868 294.169L724.649 306.11L725.808 304.48L709.027 292.539L707.868 294.169ZM719.455 282.898L743.114 288.455L743.572 286.508L719.912 280.951L719.455 282.898ZM754.25 263.587C829.845 299.943 868.147 358.519 874.13 396.677L876.106 396.368C869.999 357.415 831.159 298.355 755.117 261.785L754.25 263.587ZM635.822 297.75L618.635 307.506L619.622 309.246L636.81 299.49L635.822 297.75ZM632.517 282.494L618.792 279.271L618.335 281.218L632.06 284.441L632.517 282.494ZM629.212 265.442L622.415 263.846L621.957 265.793L628.755 267.389L629.212 265.442ZM132.752 262.248C132.335 261.398 132.326 260.229 132.883 258.673C133.438 257.124 134.51 255.322 136.038 253.336L134.452 252.117C132.861 254.185 131.654 256.175 131.001 257.999C130.35 259.816 130.206 261.6 130.957 263.129L132.752 262.248ZM154.276 280.213C152.239 282.121 150.398 283.984 148.807 285.765L150.299 287.097C151.842 285.37 153.64 283.549 155.644 281.672L154.276 280.213ZM134.425 253.299L154.14 281.515L155.78 280.37L136.065 252.154L134.425 253.299ZM187.568 218.923C189.206 218.622 190.526 218.592 191.512 218.807C192.472 219.016 193.055 219.439 193.383 220.035L195.135 219.071C194.462 217.848 193.312 217.152 191.938 216.853C190.589 216.559 188.974 216.631 187.206 216.956L187.568 218.923ZM210.657 245.055C208.916 245.57 207.075 246.219 205.16 246.981L205.899 248.839C207.769 248.095 209.552 247.468 211.224 246.972L210.657 245.055ZM186.531 218.457L204.674 248.428L206.385 247.392L188.242 217.422L186.531 218.457ZM176.76 222.794C180.915 220.822 184.637 219.461 187.568 218.923L187.206 216.956C184.027 217.54 180.124 218.983 175.902 220.988L176.76 222.794ZM205.16 246.981C202.197 248.16 199.047 249.614 195.798 251.278L196.71 253.058C199.915 251.417 203.007 249.99 205.899 248.839L205.16 246.981ZM175.496 222.441L195.419 252.717L197.09 251.618L177.167 221.341L175.496 222.441ZM136.038 253.336C138.205 250.519 141.226 247.414 144.783 244.247L143.453 242.754C139.841 245.969 136.723 249.165 134.452 252.117L136.038 253.336ZM164.778 271.294C160.938 274.292 157.376 277.309 154.276 280.213L155.644 281.672C158.692 278.816 162.207 275.839 166.008 272.871L164.778 271.294ZM143.316 244.098L164.591 272.68L166.195 271.486L144.92 242.903L143.316 244.098ZM144.783 244.247C149.292 240.233 154.632 236.146 160.123 232.448L159.006 230.79C153.452 234.53 148.039 238.671 143.453 242.754L144.783 244.247ZM160.123 232.448C165.775 228.642 171.569 225.259 176.76 222.794L175.902 220.988C170.601 223.504 164.72 226.941 159.006 230.79L160.123 232.448ZM195.798 251.278C190.478 254.002 184.882 257.293 179.4 260.867L180.492 262.543C185.926 259 191.462 255.745 196.71 253.058L195.798 251.278ZM179.4 260.867C174.331 264.172 169.354 267.722 164.778 271.294L166.008 272.871C170.538 269.335 175.469 265.818 180.492 262.543L179.4 260.867ZM158.736 232.18L179.118 262.266L180.774 261.144L160.392 231.058L158.736 232.18ZM727.226 265.274L750.87 269.724L751.239 267.758L727.595 263.309L727.226 265.274ZM722.459 246.026C722.146 246.975 722.146 246.975 722.146 246.975C722.146 246.975 722.146 246.975 722.146 246.975C722.146 246.975 722.147 246.975 722.147 246.976C722.147 246.976 722.148 246.976 722.149 246.976C722.152 246.977 722.156 246.978 722.161 246.98C722.171 246.984 722.187 246.989 722.208 246.996C722.25 247.01 722.313 247.031 722.397 247.06C722.565 247.117 722.814 247.203 723.136 247.317C723.781 247.545 724.719 247.885 725.887 248.332C728.223 249.227 731.474 250.548 735.132 252.252L735.977 250.44C732.268 248.711 728.972 247.372 726.602 246.465C725.417 246.011 724.462 245.665 723.803 245.431C723.473 245.315 723.217 245.226 723.043 245.167C722.955 245.137 722.889 245.115 722.843 245.1C722.82 245.092 722.803 245.086 722.791 245.082C722.785 245.08 722.781 245.079 722.778 245.078C722.776 245.077 722.775 245.077 722.774 245.076C722.773 245.076 722.773 245.076 722.773 245.076C722.773 245.076 722.773 245.076 722.772 245.076C722.772 245.076 722.772 245.076 722.459 246.026ZM735.132 252.252C737.084 253.162 739.151 254.181 741.255 255.301L742.195 253.536C740.055 252.396 737.957 251.362 735.977 250.44L735.132 252.252ZM741.255 255.301C745.603 257.617 750.097 260.361 754.066 263.473L755.3 261.899C751.211 258.693 746.61 255.887 742.195 253.536L741.255 255.301ZM725.326 257.035L741.823 255.414L741.627 253.423L725.131 255.044L725.326 257.035ZM729.055 197.54L753.448 209.826L754.348 208.039L729.954 195.754L729.055 197.54ZM754.921 214.812L752.863 218.325L754.589 219.336L756.646 215.823L754.921 214.812ZM748.191 219.711L735.976 213.6L735.081 215.389L747.297 221.5L748.191 219.711ZM738.175 209.189L749.795 214.964L750.685 213.173L739.066 207.398L738.175 209.189ZM727.356 227.045L726.578 204.518L724.58 204.587L725.358 227.114L727.356 227.045ZM735.106 209.918C735.819 208.966 737.11 208.659 738.175 209.189L739.066 207.398C737.136 206.439 734.797 206.994 733.505 208.719L735.106 209.918ZM735.976 213.6C734.601 212.913 734.184 211.148 735.106 209.918L733.505 208.719C731.836 210.947 732.591 214.143 735.081 215.389L735.976 213.6ZM752.863 218.325C751.914 219.945 749.871 220.552 748.191 219.711L747.297 221.5C749.918 222.811 753.107 221.865 754.589 219.336L752.863 218.325ZM753.448 209.826C755.286 210.751 755.961 213.036 754.921 214.812L756.646 215.823C758.27 213.051 757.217 209.484 754.348 208.039L753.448 209.826ZM781.574 172.157L778.217 173.768L779.083 175.571L782.44 173.96L781.574 172.157ZM781.873 165.075L782.947 168.029L784.827 167.346L783.752 164.392L781.873 165.075ZM782.943 167.357L781.063 172.728L782.951 173.389L784.831 168.018L782.943 167.357ZM733 153.296L706.817 141.665L706.005 143.492L732.188 155.124L733 153.296ZM779.056 173.756L758.378 164.57L757.566 166.398L778.244 175.584L779.056 173.756ZM758.227 154.579L782.396 165.643L783.229 163.824L759.06 152.76L758.227 154.579ZM710.828 132.88L744.531 148.309L745.364 146.49L711.661 131.062L710.828 132.88ZM694.341 130.95L702.733 131.957L702.972 129.971L694.58 128.964L694.341 130.95ZM702.733 131.957L711.126 132.964L711.364 130.978L702.972 129.971L702.733 131.957ZM707.137 141.891L700.692 135.084L699.24 136.459L705.685 143.266L707.137 141.891ZM700.692 135.084L695.187 129.269L693.734 130.644L699.24 136.459L700.692 135.084ZM701.995 130.449L699.108 135.257L700.823 136.286L703.71 131.479L701.995 130.449ZM710.324 132.361L711.935 136.162L713.777 135.381L712.165 131.581L710.324 132.361ZM711.908 135.453L710.297 140.246L712.193 140.883L713.804 136.09L711.908 135.453ZM710.86 139.641L706.026 141.655L706.795 143.502L711.629 141.488L710.86 139.641ZM799.134 191.051V203.27H801.134V191.051H799.134ZM799.134 214.281V226.5H801.134V214.281H799.134ZM811.816 207.641H804.506V209.641H811.816V207.641ZM795.762 207.641H788.452V209.641H795.762V207.641ZM525.753 18.644V30.8629H527.753V18.644H525.753ZM525.753 41.8734V54.0923H527.753V41.8734H525.753ZM538.435 35.2339H531.125V37.2339H538.435V35.2339ZM522.38 35.2339H515.071V37.2339H522.38V35.2339ZM817.664 246.61V253.488H819.664V246.61H817.664ZM817.664 264.499V271.378H819.664V264.499H817.664ZM827.675 257.859H823.036V259.859H827.675V257.859ZM814.291 257.859H809.652V259.859H814.291V257.859ZM544.283 63.4914V81.0812H546.283V63.4914H544.283ZM544.283 92.0917V109.682H546.283V92.0917H544.283ZM559.65 85.4522H549.655V87.4522H559.65V85.4522ZM540.91 85.4522H530.915V87.4522H540.91V85.4522ZM886.328 476.084C887.32 475.959 887.32 475.959 887.32 475.959C887.32 475.959 887.32 475.958 887.32 475.957C887.32 475.956 887.32 475.954 887.319 475.952C887.319 475.947 887.318 475.939 887.317 475.929C887.314 475.909 887.31 475.88 887.305 475.84C887.295 475.761 887.28 475.644 887.261 475.488C887.221 475.178 887.163 474.719 887.086 474.12C886.933 472.923 886.708 471.17 886.418 468.946C885.839 464.497 885.005 458.165 883.981 450.627C881.933 435.553 879.13 415.655 876.106 396.368L874.13 396.677C877.151 415.946 879.952 435.829 881.999 450.896C883.022 458.43 883.857 464.758 884.435 469.204C884.724 471.426 884.95 473.178 885.103 474.374C885.179 474.972 885.237 475.431 885.277 475.74C885.296 475.895 885.311 476.012 885.321 476.091C885.326 476.13 885.33 476.16 885.332 476.18C885.334 476.19 885.335 476.197 885.335 476.202C885.335 476.204 885.336 476.206 885.336 476.207C885.336 476.208 885.336 476.209 885.336 476.209C885.336 476.209 885.336 476.209 886.328 476.084Z" fill="#141414"/>
<circle cx="498.555" cy="73.8305" r="2.0141" fill="#141414"/>
<circle cx="120.067" cy="106.918" r="2.0141" fill="white"/>
<circle cx="26.6192" cy="62.4814" r="2.0141" fill="white"/>
<circle cx="99.4832" cy="43.8569" r="2.0141" fill="white"/>
<circle cx="568.646" cy="49.9296" r="2.0141" fill="#141414"/>
<circle cx="520.306" cy="121.363" r="2.0141" fill="#141414"/>
<circle cx="770.325" cy="249.46" r="2.0141" fill="#141414"/>
<path d="M260.575 478.045L206.602 321.535H460.79L510.556 465.846H680.706V478.045H514.763H260.575Z" fill="white"/>
<path d="M514.763 478.045H260.575L206.602 321.535H460.79L510.556 465.846M514.763 478.045L510.556 465.846M514.763 478.045H680.706V465.846H510.556" stroke="#141414" stroke-width="2"/>
<path d="M367.92 393.343C372.336 404.586 368.396 416.26 359.664 419.69C350.931 423.12 340.099 417.248 335.683 406.006C331.267 394.764 335.207 383.089 343.94 379.659C352.672 376.229 363.504 382.101 367.92 393.343Z" fill="#DEDEDE" stroke="#141414" stroke-width="2"/>
<path d="M141.579 243.933C135.981 230.15 125.765 212.74 116.747 211.626C105.474 210.234 65.4778 226.795 62.7977 214.678C60.6536 204.985 80.5672 198.383 90.792 196.294C83.7461 195.188 71.5143 190.035 78.9545 178.269M78.9545 178.269C75.7797 176.51 69.7925 171.698 71.2421 166.525C73.0541 160.058 79.2175 146.824 90.456 146.675C99.4468 146.556 99.2981 158.552 98.0999 164.565M78.9545 178.269C84.2474 169.898 91.5948 165.813 98.0999 164.565M94.1652 186.847C95.2339 187.383 99.6332 187.674 108.681 184.546C119.991 180.637 116.44 169.874 110.169 165.979C107.467 164.3 103.025 163.62 98.0999 164.565M142.502 194.976C130.984 187.358 127.386 181.05 131.036 162.634C123.694 162.765 109.259 160.009 110.249 147.945C111.486 132.865 141.673 138.058 151.929 148.913C162.185 159.769 165.532 192.721 181.115 219.428M74.0381 159.47C70.8633 157.711 65.1423 153.119 66.5919 147.945C68.4039 141.478 74.5674 128.244 85.8058 128.095C94.7966 127.977 94.6479 139.972 93.4497 145.985" stroke="#141414" stroke-width="2" stroke-linecap="round" stroke-linejoin="round"/>
<path d="M89.9721 128.92L54.0121 8.67822L125.242 196.065L111.519 200.966L106.877 185.446M94.1251 142.806L95.5909 147.707M98.9622 158.98L100.246 163.391" stroke="#141414" stroke-width="2" stroke-linecap="round" stroke-linejoin="round"/>
<path d="M507.041 391.621L516.844 354.209M534.978 408.285L563.895 376.754M549.845 435.405L591.994 427.89" stroke="white" stroke-width="2" stroke-linecap="round" stroke-linejoin="round"/>
<path d="M17.6818 84.3193C17.6818 83.7671 17.2341 83.3193 16.6818 83.3193C16.1295 83.3193 15.6818 83.7671 15.6818 84.3193H17.6818ZM15.6818 96.5382C15.6818 97.0905 16.1295 97.5382 16.6818 97.5382C17.2341 97.5382 17.6818 97.0905 17.6818 96.5382H15.6818ZM17.6818 107.549C17.6818 106.996 17.2341 106.549 16.6818 106.549C16.1295 106.549 15.6818 106.996 15.6818 107.549H17.6818ZM15.6818 119.768C15.6818 120.32 16.1295 120.768 16.6818 120.768C17.2341 120.768 17.6818 120.32 17.6818 119.768H15.6818ZM28.3636 102.909C28.9159 102.909 29.3636 102.461 29.3636 101.909C29.3636 101.357 28.9159 100.909 28.3636 100.909V102.909ZM21.0541 100.909C20.5018 100.909 20.0541 101.357 20.0541 101.909C20.0541 102.461 20.5018 102.909 21.0541 102.909V100.909ZM12.3095 102.909C12.8618 102.909 13.3095 102.461 13.3095 101.909C13.3095 101.357 12.8618 100.909 12.3095 100.909V102.909ZM5 100.909C4.44772 100.909 4 101.357 4 101.909C4 102.461 4.44772 102.909 5 102.909V100.909ZM15.6818 84.3193V96.5382H17.6818V84.3193H15.6818ZM15.6818 107.549V119.768H17.6818V107.549H15.6818ZM28.3636 100.909H21.0541V102.909H28.3636V100.909ZM12.3095 100.909H5V102.909H12.3095V100.909Z" fill="white"/>
<path d="M123.547 1C123.547 0.447715 123.099 0 122.547 0C121.995 0 121.547 0.447715 121.547 1H123.547ZM121.547 13.2189C121.547 13.7712 121.995 14.2189 122.547 14.2189C123.099 14.2189 123.547 13.7712 123.547 13.2189H121.547ZM123.547 24.2293C123.547 23.677 123.099 23.2293 122.547 23.2293C121.995 23.2293 121.547 23.677 121.547 24.2293H123.547ZM121.547 36.4482C121.547 37.0005 121.995 37.4482 122.547 37.4482C123.099 37.4482 123.547 37.0005 123.547 36.4482H121.547ZM134.229 19.5898C134.781 19.5898 135.229 19.1421 135.229 18.5898C135.229 18.0376 134.781 17.5898 134.229 17.5898V19.5898ZM126.919 17.5898C126.367 17.5898 125.919 18.0376 125.919 18.5898C125.919 19.1421 126.367 19.5898 126.919 19.5898V17.5898ZM118.175 19.5898C118.727 19.5898 119.175 19.1421 119.175 18.5898C119.175 18.0376 118.727 17.5898 118.175 17.5898V19.5898ZM110.865 17.5898C110.313 17.5898 109.865 18.0376 109.865 18.5898C109.865 19.1421 110.313 19.5898 110.865 19.5898V17.5898ZM121.547 1V13.2189H123.547V1H121.547ZM121.547 24.2293V36.4482H123.547V24.2293H121.547ZM134.229 17.5898H126.919V19.5898H134.229V17.5898ZM118.175 17.5898H110.865V19.5898H118.175V17.5898Z" fill="white"/>
</g>
<defs>
<filter id="filter0_d" x="0" y="0" width="891.462" height="487.045" filterUnits="userSpaceOnUse" color-interpolation-filters="sRGB">
<feFlood flood-opacity="0" result="BackgroundImageFix"/>
<feColorMatrix in="SourceAlpha" type="matrix" values="0 0 0 0 0 0 0 0 0 0 0 0 0 0 0 0 0 0 127 0"/>
<feOffset dy="4"/>
<feGaussianBlur stdDeviation="2"/>
<feColorMatrix type="matrix" values="0 0 0 0 0 0 0 0 0 0 0 0 0 0 0 0 0 0 0.25 0"/>
<feBlend mode="normal" in2="BackgroundImageFix" result="effect1_dropShadow"/>
<feBlend mode="normal" in="SourceGraphic" in2="effect1_dropShadow" result="shape"/>
</filter>
</defs>
</svg>
