<svg width="266" height="237" viewBox="0 0 266 237" fill="none" xmlns="http://www.w3.org/2000/svg">
<path d="M176.8 187.16H105.637C104.656 187.16 103.862 187.955 103.862 188.935V198.873C103.862 199.853 104.656 200.647 105.637 200.647H176.8C177.78 200.647 178.575 199.853 178.575 198.873V188.935C178.575 187.955 177.78 187.16 176.8 187.16Z" stroke="black" stroke-width="2"/>
<path d="M105.104 175.354H178.575M105.104 133.389H178.575H105.104ZM105.104 147.377H178.575H105.104ZM105.104 161.365H178.575H105.104Z" stroke="black" stroke-width="2" stroke-linecap="round" stroke-linejoin="round"/>
<path d="M212.616 201.95L214.392 235.722M222.618 185.78L262.129 203.789L222.618 185.78ZM222.435 195.382L248.208 229.66L222.435 195.382Z" stroke="black" stroke-width="2" stroke-linecap="round" stroke-linejoin="round"/>
<path d="M63.2225 13.245C63.2225 11.6768 64.4937 10.4055 66.062 10.4055H159.053C160.622 10.4055 161.893 11.6768 161.893 13.245V73.9379C161.893 75.5062 160.622 76.7773 159.053 76.7773H66.062C64.4937 76.7773 63.2225 75.5062 63.2225 73.9379V13.245Z" fill="white" stroke="black" stroke-width="2" stroke-linecap="round" stroke-linejoin="round"/>
<path d="M73.693 33.6534C73.693 32.0851 74.9642 30.814 76.5324 30.814H98.3606C99.9288 30.814 101.2 32.0851 101.2 33.6534V53.5295C101.2 55.0977 99.9288 56.3689 98.3606 56.3689H76.5324C74.9642 56.3689 73.693 55.0977 73.693 53.5295V33.6534Z" stroke="black" stroke-width="2" stroke-linecap="round" stroke-linejoin="round"/>
<path d="M92.3269 108.189C92.3269 106.62 93.5981 105.349 95.1663 105.349H188.335C189.904 105.349 191.175 106.62 191.175 108.189V207.391C191.175 208.96 189.904 210.231 188.335 210.231H95.1663C93.5981 210.231 92.3269 208.96 92.3269 207.391V108.189Z" stroke="black" stroke-width="2" stroke-linecap="round" stroke-linejoin="round"/>
<path d="M193.837 6.41267C193.837 3.42333 196.261 1 199.249 1C202.238 1 204.662 3.42333 204.662 6.41267V7.12253C204.662 10.1119 202.238 12.5352 199.249 12.5352C196.261 12.5352 193.837 10.1119 193.837 7.12253V6.41267Z" fill="white" stroke="black" stroke-width="2" stroke-linecap="round" stroke-linejoin="round"/>
<path d="M210.696 6.32394C210.696 3.38362 213.079 1 216.02 1C218.96 1 221.344 3.38362 221.344 6.32394V7.21127C221.344 10.1516 218.96 12.5352 216.02 12.5352C213.079 12.5352 210.696 10.1516 210.696 7.21127V6.32394Z" fill="white" stroke="black" stroke-width="2" stroke-linecap="round" stroke-linejoin="round"/>
<path d="M227.555 6.41267C227.555 3.42333 229.979 1 232.968 1C235.956 1 238.38 3.42333 238.38 6.41267V7.12253C238.38 10.1119 235.956 12.5352 232.968 12.5352C229.979 12.5352 227.555 10.1119 227.555 7.12253V6.41267Z" fill="white" stroke="black" stroke-width="2" stroke-linecap="round" stroke-linejoin="round"/>
<path d="M135.628 35.0733C135.628 33.5051 136.899 32.2339 138.468 32.2339H231.459C233.028 32.2339 234.299 33.5051 234.299 35.0733V134.099C234.299 135.667 233.028 136.938 231.459 136.938H138.468C136.899 136.938 135.628 135.667 135.628 134.099V35.0733Z" fill="white" stroke="black" stroke-width="2" stroke-linecap="round" stroke-linejoin="round"/>
<path d="M206.259 108.721C206.259 107.153 207.53 105.881 209.099 105.881H262.161C263.729 105.881 265 107.153 265 108.721V165.509C265 167.078 263.729 168.349 262.161 168.349H209.099C207.53 168.349 206.259 167.078 206.259 165.509V108.721Z" fill="white" stroke="black" stroke-width="2" stroke-linecap="round" stroke-linejoin="round"/>
<path d="M213.713 116.529C213.713 114.961 214.983 113.69 216.552 113.69H254.707C256.276 113.69 257.547 114.961 257.547 116.529V156.991C257.547 158.56 256.276 159.831 254.707 159.831H216.552C214.983 159.831 213.713 158.56 213.713 156.991V116.529Z" stroke="black" stroke-width="2" stroke-linecap="round" stroke-linejoin="round"/>
<path d="M145.921 46.0759H225.78" stroke="black" stroke-width="2" stroke-linecap="round" stroke-linejoin="round"/>
<path d="M145.921 58.8535H225.78" stroke="black" stroke-width="2" stroke-linecap="round" stroke-linejoin="round"/>
<path d="M145.921 71.6309H225.78" stroke="black" stroke-width="2" stroke-linecap="round" stroke-linejoin="round"/>
<path d="M145.921 84.231H225.78" stroke="black" stroke-width="2" stroke-linecap="round" stroke-linejoin="round"/>
<path d="M146.099 97.186H191.352" stroke="black" stroke-width="2" stroke-linecap="round" stroke-linejoin="round"/>
<path d="M6.13253 81.8145L17.5581 93.24L28.9834 81.8145L34.1161 86.9469L22.6905 98.3724L34.1161 109.798L28.9834 114.93L17.5581 103.505L6.13253 114.93L1 109.798L12.4254 98.3724L1 86.9469L6.13253 81.8145Z" stroke="black" stroke-width="2" stroke-linecap="round" stroke-linejoin="round"/>
</svg>
