<svg width="892" height="611" viewBox="0 0 892 611" fill="none" xmlns="http://www.w3.org/2000/svg">
<g filter="url(#filter0_d)">
<path d="M755.856 273.812L765.005 251.92L762.718 246.529L755.856 253.554L737.722 240.811L724.979 244.568L713.543 239.34H709.949L708.642 234.766L697.206 242.118L693.448 226.597L679.725 244.568L667.636 220.716L652.442 232.479L651.135 223.983L645.417 229.211L636.268 205.196L631.04 220.716L612.906 202.745L609.312 205.196L599.836 257.965C595.099 258.618 585.198 260.677 583.499 263.683C581.8 266.689 590.742 273.104 595.425 275.936C595.425 280.074 594.968 291.227 593.138 302.728C590.851 317.105 594.282 331.155 599.836 348.309C604.28 362.032 618.025 372.107 624.342 375.429L638.065 431.465L651.788 434.079C677.111 435.55 706.028 419.212 716.32 408.266C724.554 399.51 726.504 390.132 726.449 386.538C716.124 359.092 725.85 335.566 732.004 327.234C739.715 324.228 751.118 301.04 755.856 289.822L777.258 297.501L782.322 295.867L783.629 289.822L755.856 273.812Z" fill="white"/>
<path d="M63.9774 331.645C66.1992 324.065 82.874 321.19 90.9337 320.699C87.9386 318.848 80.9354 314.785 76.8838 313.348C72.8322 311.91 75.1957 304.362 76.8838 300.768C70.349 300.507 71.2202 289.55 72.4727 284.104C71.9282 282.471 69.9896 278.582 66.5914 276.099C62.3438 272.995 69.042 263.029 72.4727 257.311C75.9034 251.593 84.2355 252.737 90.9337 252.737C96.2922 252.737 94.6912 263.846 93.221 269.401C98.0568 269.793 97.8498 281.109 97.1419 286.718C100.899 285.248 109.493 284.66 113.806 294.07C118.119 303.48 112.009 307.793 108.415 308.773L111.519 324.784L126.385 318.249L111.519 279.203V266.133C115.875 264.5 126.026 261.232 131.777 261.232C138.965 261.232 157.589 272.341 158.896 282.307C159.942 290.28 173.709 325.383 180.461 341.938L143.213 367.424L139.782 363.503C137.005 344.225 121.484 335.24 116.42 334.749C112.368 334.357 85.4335 339.378 72.4727 341.938C68.7151 341.665 61.7555 339.226 63.9774 331.645Z" fill="white"/>
<path d="M129.653 383.107L150.238 411.207L213.953 371.344L191.734 340.794C187.977 341.284 176.279 344.453 159.55 353.21C142.821 361.967 132.648 376.79 129.653 383.107Z" fill="#DEDEDE"/>
<path d="M143.266 419.725L236.452 601.128L885.078 598.327C879.722 565.123 879.316 547.635 874.923 515.596C849.165 447.119 817.46 427.262 763.208 389.379C759.895 386.828 752.573 384.411 749.78 395.153C746.289 408.58 738.904 419.859 714.466 437.18C690.028 454.501 660.085 456.65 643.704 455.71C627.323 454.77 618.998 440.268 616.849 421.47C615.131 406.432 621.415 385.306 624.772 376.623C622.534 375.101 612.606 372.971 590.8 376.623C563.543 381.188 529.974 410.191 518.158 421.47C506.342 432.749 450.887 504.317 435.446 530.903C423.093 552.172 411.948 565.456 407.92 569.44C383.258 544.107 330.793 490.433 318.225 478.402C305.657 466.371 248.358 399.27 221.279 367.224C210.403 367.761 195.902 377.16 173.209 389.647C155.056 399.637 145.683 413.861 143.266 419.725Z" fill="#141414"/>
<path d="M603.538 259.026C602.607 259.609 600.129 261.947 598.693 266.443C597.413 270.481 599.282 274.389 599.668 275.5C601.154 275.962 603.461 276.372 607.844 274.655C609.68 273.943 613.618 273.547 614.555 272.72C614.986 269.077 620.795 269.343 619.863 265.619C618.931 261.894 606.787 259.747 603.538 259.026Z" fill="black" stroke="black" stroke-width="2" stroke-miterlimit="10" stroke-linecap="round" stroke-linejoin="round"/>
<path d="M665.226 267.92C664.164 268.585 660.37 271.156 658.733 276.284C657.273 280.89 658.438 284.769 658.878 286.036C660.572 286.563 667.575 288.278 672.573 286.319C674.668 285.507 676.237 284.368 677.305 283.425C677.797 279.27 684.423 279.574 683.359 275.326C682.296 271.077 668.932 268.743 665.226 267.92Z" fill="black" stroke="black" stroke-width="2" stroke-miterlimit="10" stroke-linecap="round" stroke-linejoin="round"/>
<path d="M601.796 303.382L624.831 264.826L627.282 265.806L631.366 294.396C632.728 297.01 634.372 303.382 630.059 307.956C624.668 313.674 610.455 310.734 605.554 309.753C601.633 308.969 601.415 305.179 601.796 303.382Z" fill="#DEDEDE"/>
<path d="M728.736 282.47C720.632 290.051 720.458 314.6 721.384 325.927C723.834 326.417 730.108 327.397 735.597 327.397C742.459 327.397 756.835 294.396 757.979 284.757C759.123 275.119 757.162 274.138 752.588 270.871C748.013 267.603 738.865 272.995 728.736 282.47Z" fill="#DEDEDE"/>
<path d="M636.783 379.11L636.566 380.086L636.783 379.11ZM722.5 325.818L723.103 325.021C722.855 324.833 722.534 324.772 722.234 324.854C721.934 324.937 721.69 325.155 721.573 325.443L722.5 325.818ZM601.964 302.392L601.054 301.977L601.964 302.392ZM728.587 280.759C728.219 281.171 728.253 281.803 728.665 282.172C729.076 282.54 729.708 282.506 730.077 282.094L728.587 280.759ZM751.854 270.785L752.128 269.823L751.854 270.785ZM726.487 306.828C725.952 306.963 725.628 307.507 725.763 308.042C725.898 308.578 726.442 308.902 726.978 308.767L726.487 306.828ZM729.121 297.627L728.257 297.124C728.058 297.465 728.079 297.892 728.31 298.212C728.542 298.533 728.94 298.687 729.327 298.606L729.121 297.627ZM751.445 302.038L752.294 302.566L751.445 302.038ZM732.707 327.445L733.149 328.341L732.707 327.445ZM755.544 272.559L754.942 273.357L755.544 272.559ZM764.447 251.026C764.519 250.479 764.133 249.977 763.585 249.905C763.037 249.834 762.536 250.22 762.464 250.767L764.447 251.026ZM732.389 328.428C732.661 327.947 732.491 327.337 732.01 327.065C731.529 326.794 730.919 326.964 730.647 327.445L732.389 328.428ZM725.565 382.72L724.628 383.068L725.565 382.72ZM615.743 370.031L615.11 370.805L615.743 370.031ZM628.051 388.921L627.066 389.093C627.071 389.117 627.076 389.141 627.082 389.165L628.051 388.921ZM638.218 429.377L637.248 429.62C637.25 429.626 637.251 429.631 637.252 429.636L638.218 429.377ZM727.399 386.936L728.383 387.11C728.421 386.897 728.389 386.678 728.291 386.485L727.399 386.936ZM745.66 292.953C745.391 293.435 745.563 294.044 746.045 294.314C746.527 294.583 747.137 294.411 747.406 293.928L745.66 292.953ZM597.949 258.079C597.868 258.625 598.246 259.134 598.792 259.215C599.339 259.295 599.847 258.918 599.928 258.372L597.949 258.079ZM608.613 208.178C608.981 208.59 609.613 208.624 610.025 208.256C610.436 207.887 610.471 207.255 610.103 206.844L608.613 208.178ZM597.268 275.855C597.37 275.312 597.012 274.789 596.469 274.688C595.926 274.586 595.404 274.944 595.302 275.487L597.268 275.855ZM724.707 430.517L725.291 431.329L724.707 430.517ZM612.876 329.321C612.426 328.999 611.802 329.103 611.481 329.553C611.16 330.002 611.263 330.627 611.713 330.948L612.876 329.321ZM643.673 326.686C644.08 326.313 644.107 325.68 643.733 325.273C643.359 324.867 642.726 324.84 642.32 325.214L643.673 326.686ZM592.883 258.701L592.956 259.698L592.957 259.698L592.883 258.701ZM584.729 263.086L585.674 263.413L585.675 263.41L584.729 263.086ZM589.842 271.978L590.363 271.125L590.354 271.119L589.842 271.978ZM652.586 267.435L652.659 268.432L652.659 268.432L652.586 267.435ZM643.285 272.438L644.23 272.764L644.231 272.761L643.285 272.438ZM649.117 282.579L649.638 281.726L649.63 281.72L649.117 282.579ZM718.275 160.866L718.151 161.858L718.275 160.866ZM760.753 187.094L759.91 187.633L760.753 187.094ZM743.494 179.921L742.528 180.18V180.18L743.494 179.921ZM748.36 198.028L747.394 198.288V198.288L748.36 198.028ZM747.075 198.863L747.704 198.086V198.086L747.075 198.863ZM730.079 185.108L730.708 184.331L730.079 185.108ZM728.885 185.314L728.031 184.793V184.793L728.885 185.314ZM720.568 198.921L719.714 198.4L720.568 198.921ZM719.145 198.831L718.233 199.24V199.24L719.145 198.831ZM709.8 177.993L710.712 177.584V177.584L709.8 177.993ZM708.776 177.57L708.418 176.637L708.776 177.57ZM670.689 192.172L671.047 193.106L670.689 192.172ZM669.669 191.084L670.577 191.501V191.501L669.669 191.084ZM676.803 175.561L675.895 175.144V175.144L676.803 175.561ZM676.198 174.43L676.356 173.442L676.198 174.43ZM659.534 171.764L659.376 172.751L659.534 171.764ZM659.356 170.223L659.735 171.148V171.148L659.356 170.223ZM688.625 158.233L688.246 157.308V157.308L688.625 158.233ZM671.857 148.881L671.721 147.89L671.857 148.881ZM717.773 160.601L717.033 161.273V161.273L717.773 160.601ZM688.605 156.734L688.958 155.798V155.798L688.605 156.734ZM671.719 150.348L671.365 151.283L671.719 150.348ZM622.891 169.145L623.386 170.015L622.891 169.145ZM642.351 173.231L642.993 173.997V173.997L642.351 173.231ZM624.467 195.19L625.412 195.516V195.516L624.467 195.19ZM625.486 196.092L625.876 197.012L625.876 197.012L625.486 196.092ZM658.028 182.271L657.637 181.35L658.028 182.271ZM730.647 217.354L731.349 216.642L730.647 217.354ZM745.199 231.69L744.497 232.403L745.199 231.69ZM746.518 231.402L745.582 231.048V231.048L746.518 231.402ZM752.429 215.777L751.494 215.423V215.423L752.429 215.777ZM759.714 188.13L759.196 188.985V188.985L759.714 188.13ZM755.339 185.478L755.858 184.623L755.339 185.478ZM744.69 179.023L744.172 179.878L744.69 179.023ZM776.352 234.303L775.392 234.583V234.583L776.352 234.303ZM753.729 215.47L753.051 216.205V216.205L753.729 215.47ZM775.042 235.103L775.719 234.368V234.368L775.042 235.103ZM773.684 261.716L774.684 261.682V261.682L773.684 261.716ZM772.217 262.204L771.396 262.774L772.217 262.204ZM760.928 245.959L761.749 245.389V245.389L760.928 245.959ZM759.544 246.063L760.441 246.505L759.544 246.063ZM756.144 252.963L757.041 253.405L757.041 253.405L756.144 252.963ZM754.963 253.269L755.532 252.447V252.447L754.963 253.269ZM737.537 241.233L736.969 242.056V242.056L737.537 241.233ZM736.756 241.158L736.356 240.242V240.242L736.756 241.158ZM724.989 246.301L724.589 245.384V245.384L724.989 246.301ZM711.16 239.688L710.387 239.053V239.053L711.16 239.688ZM729.46 217.416L730.232 218.051V218.051L729.46 217.416ZM724.203 246.221L724.779 245.404H724.779L724.203 246.221ZM695.917 198.493L696.864 198.172V198.172L695.917 198.493ZM709.774 239.434L710.722 239.114L709.774 239.434ZM699.489 242.877L700.207 243.573V243.573L699.489 242.877ZM698.126 242.498L699.1 242.272V242.272L698.126 242.498ZM694.671 227.582L695.645 227.357V227.357L694.671 227.582ZM693.216 227.316L692.385 226.76L693.216 227.316ZM681.966 244.118L681.135 243.562V243.562L681.966 244.118ZM650.332 229.046L651.306 229.275L650.332 229.046ZM694.625 198.142L693.97 197.387L694.625 198.142ZM680.576 244.03L679.682 244.478V244.478L680.576 244.03ZM659.135 183.154L658.151 182.976L659.135 183.154ZM644.887 227.18L644.014 226.691V226.691L644.887 227.18ZM643.413 227.02L644.37 226.73L643.413 227.02ZM637.113 206.208L638.07 205.919L637.113 206.208ZM635.592 206.147L634.661 205.781V205.781L635.592 206.147ZM629.944 220.509L629.014 220.143L629.944 220.509ZM628.558 220.707L627.767 221.319V221.319L628.558 220.707ZM614.251 202.221L615.042 201.609L614.251 202.221ZM613.016 202.174L612.274 201.504L613.016 202.174ZM596.12 220.882L595.377 220.212L596.12 220.882ZM594.782 220.022L593.865 219.625L594.782 220.022ZM608.043 189.392L608.96 189.789V189.789L608.043 189.392ZM607.267 188.267L607.312 189.266L607.267 188.267ZM591.93 188.965L591.975 189.964L591.93 188.965ZM623.247 170.508L623.314 169.511L623.247 170.508ZM641.883 171.77L641.95 170.772L641.883 171.77ZM591.625 187.401L591.293 186.458L591.625 187.401ZM650.356 254.276C649.839 254.472 649.579 255.049 649.774 255.565C649.969 256.082 650.546 256.343 651.062 256.148L650.356 254.276ZM684.587 260.788C685.106 260.977 685.68 260.71 685.869 260.192C686.058 259.673 685.791 259.099 685.273 258.909L684.587 260.788ZM618.729 252.692C619.105 253.096 619.738 253.12 620.142 252.744C620.547 252.368 620.57 251.735 620.195 251.331L618.729 252.692ZM586.866 239.936C586.317 239.874 585.823 240.27 585.761 240.818C585.7 241.367 586.095 241.862 586.644 241.923L586.866 239.936ZM224.517 369.935L223.718 370.536H223.718L224.517 369.935ZM143.74 421.996L144.627 421.534L144.621 421.523L143.74 421.996ZM236.008 599.084L235.122 599.546C235.294 599.877 235.636 600.084 236.008 600.084V599.084ZM886.328 599.084V600.084H887.462L887.32 598.959L886.328 599.084ZM149.553 409.431L150.299 410.097L149.553 409.431ZM131.854 385.689L130.957 386.129L130.997 386.212L131.052 386.286L131.854 385.689ZM194.259 342.553L193.383 343.035L193.397 343.062L193.413 343.087L194.259 342.553ZM754.683 385.686L754.066 386.473L754.152 386.54L754.25 386.587L754.683 385.686ZM135.245 375.727L134.452 375.117H134.452L135.245 375.727ZM154.96 403.942L155.644 404.672H155.644L154.96 403.942ZM205.53 370.91L205.899 371.839L205.53 370.91ZM196.254 375.168L196.71 376.058L196.254 375.168ZM144.118 366.501L143.453 365.754L144.118 366.501ZM735.554 374.346L735.977 373.44L735.554 374.346ZM741.725 377.418L742.195 376.536L741.725 377.418ZM729.954 318.754C729.461 318.506 728.86 318.704 728.611 319.198C728.363 319.691 728.561 320.292 729.055 320.54L729.954 318.754ZM753.898 331.933L754.348 331.039L753.898 331.933ZM755.784 338.318L754.921 337.812L755.784 338.318ZM753.726 341.831L754.589 342.336L753.726 341.831ZM747.744 343.606L748.191 342.711L747.744 343.606ZM735.528 337.495L735.081 338.389L735.528 337.495ZM738.621 331.293L738.175 332.189L738.621 331.293ZM749.795 337.964C750.289 338.21 750.889 338.008 751.135 337.514C751.381 337.019 751.179 336.419 750.685 336.173L749.795 337.964ZM725.358 350.114C725.377 350.666 725.84 351.098 726.392 351.079C726.944 351.06 727.376 350.597 727.356 350.045L725.358 350.114ZM726.578 327.518C726.559 326.966 726.096 326.534 725.544 326.553C724.992 326.572 724.56 327.035 724.58 327.587L726.578 327.518ZM734.306 332.318L735.106 332.918L734.306 332.318ZM782.007 296.059L782.44 296.96L782.814 296.781L782.951 296.389L782.007 296.059ZM778.65 297.67L778.244 298.584L778.666 298.771L779.083 298.571L778.65 297.67ZM782.812 287.734L783.752 287.392L783.609 286.999L783.229 286.824L782.812 287.734ZM783.887 290.688L784.831 291.018L784.948 290.681L784.827 290.346L783.887 290.688ZM706.411 265.579L705.685 266.266L705.822 266.411L706.005 266.492L706.411 265.579ZM711.245 254.971L711.661 254.062L711.519 253.997L711.364 253.978L711.245 254.971ZM694.461 252.957L694.58 251.964L691.831 251.634L693.734 253.644L694.461 252.957ZM699.966 258.771L699.24 259.459L699.966 258.771ZM712.856 258.771L713.804 259.09L713.925 258.73L713.777 258.381L712.856 258.771ZM711.245 263.564L711.629 264.488L712.048 264.313L712.193 263.883L711.245 263.564ZM801.134 314.051C801.134 313.499 800.686 313.051 800.134 313.051C799.581 313.051 799.134 313.499 799.134 314.051H801.134ZM799.134 326.27C799.134 326.822 799.581 327.27 800.134 327.27C800.686 327.27 801.134 326.822 801.134 326.27H799.134ZM801.134 337.281C801.134 336.728 800.686 336.281 800.134 336.281C799.581 336.281 799.134 336.728 799.134 337.281H801.134ZM799.134 349.5C799.134 350.052 799.581 350.5 800.134 350.5C800.686 350.5 801.134 350.052 801.134 349.5H799.134ZM811.816 332.641C812.368 332.641 812.816 332.193 812.816 331.641C812.816 331.089 812.368 330.641 811.816 330.641V332.641ZM804.506 330.641C803.954 330.641 803.506 331.089 803.506 331.641C803.506 332.193 803.954 332.641 804.506 332.641V330.641ZM795.762 332.641C796.314 332.641 796.762 332.193 796.762 331.641C796.762 331.089 796.314 330.641 795.762 330.641V332.641ZM788.452 330.641C787.9 330.641 787.452 331.089 787.452 331.641C787.452 332.193 787.9 332.641 788.452 332.641V330.641ZM527.753 141.644C527.753 141.092 527.305 140.644 526.753 140.644C526.2 140.644 525.753 141.092 525.753 141.644H527.753ZM525.753 153.863C525.753 154.415 526.2 154.863 526.753 154.863C527.305 154.863 527.753 154.415 527.753 153.863H525.753ZM527.753 164.873C527.753 164.321 527.305 163.873 526.753 163.873C526.2 163.873 525.753 164.321 525.753 164.873H527.753ZM525.753 177.092C525.753 177.645 526.2 178.092 526.753 178.092C527.305 178.092 527.753 177.645 527.753 177.092H525.753ZM538.435 160.234C538.987 160.234 539.435 159.786 539.435 159.234C539.435 158.682 538.987 158.234 538.435 158.234V160.234ZM531.125 158.234C530.573 158.234 530.125 158.682 530.125 159.234C530.125 159.786 530.573 160.234 531.125 160.234V158.234ZM522.38 160.234C522.933 160.234 523.38 159.786 523.38 159.234C523.38 158.682 522.933 158.234 522.38 158.234V160.234ZM515.071 158.234C514.519 158.234 514.071 158.682 514.071 159.234C514.071 159.786 514.519 160.234 515.071 160.234V158.234ZM819.664 369.61C819.664 369.058 819.216 368.61 818.664 368.61C818.111 368.61 817.664 369.058 817.664 369.61H819.664ZM817.664 376.488C817.664 377.041 818.111 377.488 818.664 377.488C819.216 377.488 819.664 377.041 819.664 376.488H817.664ZM819.664 387.499C819.664 386.947 819.216 386.499 818.664 386.499C818.111 386.499 817.664 386.947 817.664 387.499H819.664ZM817.664 394.378C817.664 394.93 818.111 395.378 818.664 395.378C819.216 395.378 819.664 394.93 819.664 394.378H817.664ZM827.675 382.859C828.228 382.859 828.675 382.412 828.675 381.859C828.675 381.307 828.228 380.859 827.675 380.859V382.859ZM823.036 380.859C822.483 380.859 822.036 381.307 822.036 381.859C822.036 382.412 822.483 382.859 823.036 382.859V380.859ZM814.291 382.859C814.844 382.859 815.291 382.412 815.291 381.859C815.291 381.307 814.844 380.859 814.291 380.859V382.859ZM809.652 380.859C809.1 380.859 808.652 381.307 808.652 381.859C808.652 382.412 809.1 382.859 809.652 382.859V380.859ZM546.283 186.491C546.283 185.939 545.835 185.491 545.283 185.491C544.73 185.491 544.283 185.939 544.283 186.491H546.283ZM544.283 204.081C544.283 204.634 544.73 205.081 545.283 205.081C545.835 205.081 546.283 204.634 546.283 204.081H544.283ZM546.283 215.092C546.283 214.539 545.835 214.092 545.283 214.092C544.73 214.092 544.283 214.539 544.283 215.092H546.283ZM544.283 232.682C544.283 233.234 544.73 233.682 545.283 233.682C545.835 233.682 546.283 233.234 546.283 232.682H544.283ZM559.65 210.452C560.202 210.452 560.65 210.004 560.65 209.452C560.65 208.9 560.202 208.452 559.65 208.452V210.452ZM549.655 208.452C549.103 208.452 548.655 208.9 548.655 209.452C548.655 210.004 549.103 210.452 549.655 210.452V208.452ZM540.91 210.452C541.463 210.452 541.91 210.004 541.91 209.452C541.91 208.9 541.463 208.452 540.91 208.452V210.452ZM530.915 208.452C530.363 208.452 529.915 208.9 529.915 209.452C529.915 210.004 530.363 210.452 530.915 210.452V208.452ZM636.566 380.086C660.144 385.311 679.377 378.047 693.939 366.374C708.474 354.724 718.38 338.673 723.427 326.193L721.573 325.443C716.623 337.682 706.898 353.424 692.688 364.814C678.506 376.181 659.879 383.203 636.999 378.134L636.566 380.086ZM622.455 266.622C619.354 272.787 614.458 280.648 610.103 287.463C607.934 290.857 605.89 294.007 604.295 296.519C602.716 299.008 601.513 300.971 601.054 301.977L602.873 302.807C603.261 301.956 604.372 300.13 605.984 297.591C607.581 295.075 609.604 291.958 611.788 288.54C616.138 281.733 621.088 273.79 624.242 267.521L622.455 266.622ZM601.054 301.977C599.73 304.88 601.048 308.623 604.765 310.929C608.496 313.243 614.668 314.198 623.545 311.97L623.058 310.031C614.478 312.183 608.922 311.154 605.819 309.229C602.703 307.296 602.08 304.546 602.873 302.807L601.054 301.977ZM623.545 311.97C627.975 310.859 630.883 309.47 632.678 307.822C634.525 306.126 635.136 304.207 635.074 302.256C635.013 300.382 634.329 298.497 633.69 296.821C633.022 295.068 632.417 293.566 632.276 292.214L630.287 292.421C630.461 294.099 631.198 295.898 631.821 297.533C632.473 299.243 633.027 300.829 633.075 302.321C633.12 303.736 632.71 305.078 631.325 306.349C629.888 307.668 627.356 308.952 623.058 310.031L623.545 311.97ZM632.276 292.214C631.973 289.303 631.537 279.731 630.412 272.604C630.128 270.807 629.797 269.133 629.405 267.729C629.02 266.353 628.549 265.129 627.937 264.317C627.627 263.905 627.221 263.519 626.694 263.326C626.128 263.118 625.545 263.177 625.013 263.443C624.514 263.692 624.073 264.112 623.674 264.624C623.268 265.142 622.864 265.809 622.455 266.622L624.242 267.521C624.615 266.779 624.952 266.236 625.25 265.855C625.554 265.466 625.777 265.297 625.906 265.232C625.964 265.203 625.992 265.201 625.995 265.201C625.995 265.201 625.996 265.2 626.005 265.204C626.037 265.215 626.157 265.277 626.34 265.52C626.716 266.019 627.107 266.938 627.478 268.267C627.842 269.567 628.159 271.158 628.437 272.916C629.556 280.006 629.959 289.274 630.287 292.421L632.276 292.214ZM730.077 282.094C732.051 279.891 735.534 276.714 739.515 274.388C743.53 272.042 747.841 270.683 751.58 271.746L752.128 269.823C747.59 268.532 742.669 270.229 738.506 272.661C734.311 275.112 730.671 278.434 728.587 280.759L730.077 282.094ZM726.978 308.767C732.766 307.303 735.984 304.118 736.282 301.083C736.437 299.514 735.773 298.081 734.389 297.224C733.048 296.394 731.159 296.177 728.916 296.648L729.327 298.606C731.268 298.198 732.58 298.457 733.336 298.924C734.048 299.365 734.374 300.05 734.292 300.888C734.117 302.666 731.957 305.445 726.487 306.828L726.978 308.767ZM750.596 301.51C747.168 307.021 744.198 312.448 741.173 317.046C738.153 321.637 735.282 325.06 732.265 326.548L733.149 328.341C736.699 326.591 739.824 322.735 742.844 318.145C745.859 313.561 748.975 307.904 752.294 302.566L750.596 301.51ZM732.265 326.548C730.887 327.227 729.491 327.495 728.023 327.292C726.543 327.086 724.915 326.391 723.103 325.021L721.897 326.616C723.905 328.134 725.846 329.009 727.748 329.273C729.66 329.538 731.458 329.175 733.149 328.341L732.265 326.548ZM751.58 271.746C752.926 272.129 754.039 272.676 754.942 273.357L756.147 271.76C755.02 270.911 753.677 270.264 752.128 269.823L751.58 271.746ZM754.942 273.357C757.659 275.405 758.75 278.911 758.038 283.784C757.325 288.663 754.817 294.722 750.596 301.51L752.294 302.566C756.588 295.661 759.249 289.334 760.017 284.073C760.786 278.805 759.67 274.417 756.147 271.76L754.942 273.357ZM756.421 273.04C759.795 266.896 761.799 261.412 762.96 257.456C763.541 255.478 763.911 253.881 764.137 252.774C764.25 252.22 764.327 251.789 764.376 251.493C764.4 251.345 764.418 251.231 764.429 251.153C764.435 251.114 764.439 251.083 764.442 251.062C764.444 251.052 764.445 251.043 764.446 251.037C764.446 251.034 764.446 251.032 764.447 251.03C764.447 251.029 764.447 251.028 764.447 251.028C764.447 251.027 764.447 251.027 764.447 251.027C764.447 251.027 764.447 251.026 763.456 250.897C762.464 250.767 762.464 250.767 762.464 250.767C762.464 250.767 762.464 250.767 762.464 250.767C762.464 250.767 762.464 250.767 762.464 250.767C762.464 250.767 762.464 250.769 762.464 250.77C762.463 250.773 762.462 250.779 762.461 250.787C762.459 250.802 762.456 250.827 762.451 250.861C762.441 250.928 762.425 251.03 762.403 251.166C762.357 251.439 762.285 251.846 762.177 252.374C761.962 253.431 761.605 254.973 761.041 256.893C759.914 260.733 757.962 266.08 754.668 272.077L756.421 273.04ZM722.88 351.594C723.656 347.101 726.01 341.334 728.212 336.628C729.307 334.289 730.353 332.236 731.125 330.768C731.51 330.035 731.827 329.448 732.048 329.045C732.158 328.844 732.244 328.689 732.302 328.584C732.331 328.532 732.353 328.492 732.368 328.466C732.375 328.453 732.38 328.443 732.384 328.437C732.386 328.434 732.387 328.431 732.388 328.43C732.388 328.429 732.389 328.428 732.389 328.428C732.389 328.428 732.389 328.428 732.389 328.428C732.389 328.428 732.389 328.428 731.518 327.936C730.647 327.445 730.647 327.445 730.647 327.445C730.647 327.445 730.647 327.445 730.647 327.446C730.646 327.446 730.646 327.447 730.645 327.448C730.644 327.45 730.643 327.453 730.641 327.456C730.637 327.464 730.631 327.475 730.623 327.489C730.607 327.517 730.584 327.558 730.554 327.612C730.493 327.721 730.405 327.88 730.293 328.085C730.068 328.497 729.746 329.093 729.354 329.837C728.572 331.325 727.512 333.406 726.401 335.78C724.191 340.501 721.734 346.477 720.909 351.253L722.88 351.594ZM720.909 351.253C719.277 360.712 719.866 370.241 724.628 383.068L726.503 382.372C721.853 369.845 721.313 360.674 722.88 351.594L720.909 351.253ZM615.11 370.805C617.801 373.007 621.47 374.964 625.356 376.562L626.117 374.712C622.326 373.154 618.855 371.285 616.376 369.257L615.11 370.805ZM625.356 376.562C629.056 378.083 632.998 379.296 636.566 380.086L636.999 378.134C633.54 377.367 629.708 376.188 626.117 374.712L625.356 376.562ZM624.751 375.809L627.066 389.093L629.037 388.749L626.722 375.465L624.751 375.809ZM627.082 389.165L637.248 429.62L639.188 429.133L629.021 388.677L627.082 389.165ZM724.628 383.068C725.175 384.543 725.798 385.988 726.506 387.387L728.291 386.485C727.62 385.157 727.026 383.782 726.503 382.372L724.628 383.068ZM637.252 429.636C637.846 431.85 639.846 433.362 642.458 434.33C645.099 435.309 648.592 435.823 652.613 435.901C660.668 436.056 671.075 434.461 681.585 431.034C702.53 424.205 724.364 409.92 728.383 387.11L726.414 386.763C722.594 408.44 701.713 422.368 680.965 429.133C670.628 432.503 660.445 434.051 652.651 433.901C648.749 433.826 645.503 433.326 643.153 432.455C640.773 431.573 639.528 430.399 639.184 429.118L637.252 429.636ZM729.985 298.13C731.801 295.011 734.857 290.387 738.109 286.66C739.738 284.794 741.384 283.189 742.921 282.109C744.493 281.003 745.773 280.572 746.728 280.718L747.03 278.741C745.289 278.474 743.461 279.285 741.771 280.472C740.047 281.684 738.28 283.422 736.602 285.345C733.242 289.196 730.114 293.933 728.257 297.124L729.985 298.13ZM746.728 280.718C747.743 280.873 748.239 281.348 748.505 282.002C748.807 282.744 748.848 283.818 748.627 285.145C748.189 287.779 746.815 290.885 745.66 292.953L747.406 293.928C748.613 291.769 750.108 288.432 750.6 285.473C750.844 284.004 750.865 282.494 750.358 281.248C749.815 279.914 748.711 278.998 747.03 278.741L746.728 280.718ZM599.928 258.372C602.218 242.887 604.369 229.726 606.171 220.694C607.074 216.17 607.882 212.716 608.568 210.53C608.918 209.417 609.21 208.72 609.427 208.376C609.553 208.176 609.555 208.255 609.393 208.326C609.278 208.376 609.104 208.408 608.914 208.355C608.74 208.306 608.643 208.212 608.613 208.178L610.103 206.844C609.96 206.684 609.746 206.511 609.451 206.428C609.139 206.342 608.84 206.385 608.595 206.492C608.174 206.675 607.901 207.046 607.735 207.309C607.369 207.89 607.014 208.804 606.66 209.931C605.94 212.226 605.115 215.768 604.21 220.302C602.398 229.385 600.24 242.587 597.949 258.079L599.928 258.372ZM595.302 275.487C592.608 289.878 590.819 308.15 593.053 325.581C595.287 343.006 601.56 359.718 615.11 370.805L616.376 369.257C603.377 358.62 597.237 342.486 595.037 325.327C592.838 308.176 594.595 290.129 597.268 275.855L595.302 275.487ZM625.127 377.062C624.198 376.691 624.198 376.692 624.197 376.692C624.197 376.693 624.197 376.694 624.197 376.695C624.196 376.696 624.195 376.699 624.194 376.702C624.191 376.709 624.187 376.718 624.182 376.731C624.173 376.755 624.158 376.792 624.14 376.84C624.102 376.935 624.048 377.076 623.979 377.259C623.839 377.627 623.639 378.166 623.392 378.859C622.897 380.244 622.217 382.243 621.468 384.707C619.97 389.633 618.196 396.429 617.093 403.899C614.903 418.743 615.306 436.659 626.367 447.606L627.773 446.185C617.459 435.975 616.89 418.975 619.072 404.191C620.156 396.847 621.903 390.152 623.381 385.289C624.12 382.859 624.79 380.89 625.275 379.531C625.518 378.851 625.714 378.324 625.849 377.968C625.916 377.79 625.968 377.655 626.003 377.565C626.021 377.52 626.034 377.486 626.043 377.464C626.047 377.453 626.05 377.445 626.053 377.44C626.054 377.437 626.054 377.435 626.055 377.434C626.055 377.434 626.055 377.433 626.055 377.433C626.055 377.433 626.055 377.433 625.127 377.062ZM626.367 447.606C631.92 453.103 639.41 455.884 647.812 456.729C656.209 457.574 665.577 456.492 674.989 454.204C693.806 449.63 712.989 440.19 725.291 431.329L724.122 429.706C712.021 438.423 693.073 447.75 674.516 452.261C665.241 454.515 656.112 455.554 648.012 454.739C639.915 453.925 632.908 451.267 627.773 446.185L626.367 447.606ZM725.291 431.329C745.11 417.053 752.782 393.47 754.538 384.804L752.578 384.406C750.866 392.856 743.35 415.856 724.122 429.706L725.291 431.329ZM611.713 330.948C617.495 335.081 622.702 336.68 627.943 335.825C633.132 334.978 638.162 331.751 643.673 326.686L642.32 325.214C636.898 330.197 632.225 333.099 627.621 333.851C623.069 334.594 618.39 333.262 612.876 329.321L611.713 330.948ZM615.954 261.033C608.586 258.268 600.647 257.126 592.81 257.703L592.957 259.698C600.505 259.142 608.154 260.242 615.251 262.906L615.954 261.033ZM592.81 257.703C591.121 257.827 589.221 258.156 587.575 258.899C585.92 259.645 584.436 260.853 583.783 262.762L585.675 263.41C586.092 262.192 587.057 261.326 588.397 260.722C589.746 260.113 591.387 259.813 592.956 259.698L592.81 257.703ZM583.783 262.76C583.04 264.915 583.695 267.248 584.859 268.952L586.511 267.823C585.585 266.469 585.197 264.796 585.674 263.413L583.783 262.76ZM584.859 268.952C586.028 270.662 587.71 271.87 589.329 272.837L590.354 271.119C588.814 270.2 587.432 269.172 586.511 267.823L584.859 268.952ZM589.32 272.831C593.129 275.158 597.394 276.761 601.813 277.368L602.085 275.387C597.962 274.821 593.957 273.32 590.363 271.125L589.32 272.831ZM601.813 277.368C603.963 277.663 605.754 277.838 607.756 277.499C609.755 277.162 611.888 276.328 614.787 274.735L613.824 272.982C611.017 274.524 609.108 275.243 607.423 275.527C605.741 275.811 604.207 275.678 602.085 275.387L601.813 277.368ZM615.251 262.906C616.935 263.538 617.91 264.319 618.421 265.086C618.916 265.83 619.034 266.651 618.831 267.533C618.407 269.38 616.555 271.482 613.824 272.982L614.787 274.735C617.763 273.101 620.175 270.616 620.781 267.981C621.093 266.622 620.917 265.228 620.086 263.978C619.27 262.751 617.886 261.759 615.954 261.033L615.251 262.906ZM678.851 270.227C670.467 267.08 661.431 265.781 652.513 266.438L652.659 268.432C661.289 267.797 670.035 269.054 678.148 272.1L678.851 270.227ZM652.513 266.438C650.595 266.579 648.446 266.952 646.589 267.789C644.724 268.631 643.068 269.984 642.339 272.114L644.231 272.761C644.724 271.323 645.861 270.312 647.412 269.612C648.971 268.909 650.861 268.565 652.659 268.432L652.513 266.438ZM642.34 272.111C641.51 274.515 642.239 277.129 643.55 279.048L645.202 277.92C644.129 276.35 643.667 274.395 644.23 272.764L642.34 272.111ZM643.55 279.048C644.866 280.974 646.763 282.339 648.604 283.438L649.63 281.72C647.867 280.669 646.27 279.484 645.202 277.92L643.55 279.048ZM648.596 283.432C652.925 286.077 657.771 287.899 662.791 288.588L663.063 286.606C658.339 285.958 653.753 284.24 649.638 281.726L648.596 283.432ZM662.791 288.588C665.24 288.924 667.266 289.12 669.527 288.738C671.784 288.357 674.202 287.414 677.502 285.601L676.539 283.848C673.331 285.61 671.138 286.438 669.193 286.766C667.253 287.094 665.485 286.939 663.063 286.606L662.791 288.588ZM678.148 272.1C680.087 272.828 681.228 273.733 681.831 274.64C682.419 275.524 682.558 276.501 682.32 277.541C681.823 279.703 679.671 282.128 676.539 283.848L677.502 285.601C680.879 283.746 683.591 280.939 684.269 277.989C684.617 276.472 684.421 274.922 683.496 273.532C682.587 272.165 681.037 271.048 678.851 270.227L678.148 272.1ZM718.151 161.858C727.765 163.061 748.541 169.844 759.91 187.633L761.596 186.556C749.786 168.077 728.338 161.117 718.399 159.873L718.151 161.858ZM742.528 180.18L747.394 198.288L749.326 197.769L744.46 179.661L742.528 180.18ZM747.704 198.086L730.708 184.331L729.45 185.885L746.446 199.641L747.704 198.086ZM728.031 184.793L719.714 198.4L721.421 199.443L729.738 185.836L728.031 184.793ZM720.057 198.422L710.712 177.584L708.887 178.402L718.233 199.24L720.057 198.422ZM708.418 176.637L670.331 191.239L671.047 193.106L709.134 178.504L708.418 176.637ZM670.577 191.501L677.712 175.979L675.895 175.144L668.76 190.666L670.577 191.501ZM676.356 173.442L659.692 170.776L659.376 172.751L676.04 175.417L676.356 173.442ZM659.735 171.148L689.004 159.158L688.246 157.308L658.977 169.297L659.735 171.148ZM671.994 149.872C677.906 149.055 686.339 148.757 694.726 150.255C703.123 151.755 711.363 155.034 717.033 161.273L718.513 159.928C712.431 153.236 703.705 149.827 695.078 148.286C686.441 146.743 677.792 147.051 671.721 147.89L671.994 149.872ZM688.958 155.798L686.154 154.738L685.446 156.609L688.251 157.669L688.958 155.798ZM686.154 154.738L672.073 149.412L671.365 151.283L685.446 156.609L686.154 154.738ZM685.721 154.676C677.843 155.302 665.524 156.714 653.442 158.954C641.401 161.186 629.446 164.264 622.396 168.276L623.386 170.015C630.112 166.187 641.762 163.153 653.807 160.92C665.81 158.696 678.058 157.292 685.879 156.67L685.721 154.676ZM641.709 172.464C638.787 174.909 634.956 178.466 631.506 182.414C628.072 186.344 624.943 190.741 623.521 194.864L625.412 195.516C626.706 191.764 629.629 187.602 633.012 183.73C636.38 179.877 640.132 176.391 642.993 173.997L641.709 172.464ZM625.876 197.012L658.419 183.191L657.637 181.35L625.095 195.171L625.876 197.012ZM729.946 218.066L744.497 232.403L745.901 230.978L731.349 216.642L729.946 218.066ZM747.453 231.755L753.365 216.131L751.494 215.423L745.582 231.048L747.453 231.755ZM760.233 187.275L755.858 184.623L754.821 186.333L759.196 188.985L760.233 187.275ZM755.858 184.623L745.208 178.168L744.172 179.878L754.821 186.333L755.858 184.623ZM777.312 234.023C774.949 225.926 771.342 214.691 767.491 204.968C765.566 200.109 763.571 195.603 761.631 192.049C760.661 190.272 759.695 188.715 758.748 187.462C757.81 186.223 756.844 185.221 755.858 184.623L754.821 186.333C755.49 186.739 756.276 187.51 757.153 188.669C758.02 189.816 758.934 191.281 759.876 193.007C761.76 196.459 763.72 200.88 765.632 205.705C769.452 215.35 773.04 226.521 775.392 234.583L777.312 234.023ZM753.051 216.205L772.023 233.682L773.378 232.211L754.406 214.734L753.051 216.205ZM772.023 233.682L774.364 235.839L775.719 234.368L773.378 232.211L772.023 233.682ZM771.701 232.981L772.685 261.75L774.684 261.682L773.7 232.912L771.701 232.981ZM773.039 261.633L761.749 245.389L760.107 246.53L771.396 262.774L773.039 261.633ZM758.647 245.621L755.247 252.521L757.041 253.405L760.441 246.505L758.647 245.621ZM755.532 252.447L738.105 240.411L736.969 242.056L754.395 254.092L755.532 252.447ZM736.356 240.242L724.589 245.384L725.39 247.217L737.157 242.074L736.356 240.242ZM711.933 240.322L713.308 238.649L711.763 237.379L710.387 239.053L711.933 240.322ZM713.308 238.649L730.232 218.051L728.687 216.782L711.763 237.379L713.308 238.649ZM724.779 245.404L713.111 237.196L711.96 238.832L723.628 247.039L724.779 245.404ZM694.97 198.814L707.029 234.443L708.924 233.802L696.864 198.172L694.97 198.814ZM707.029 234.443L708.827 239.755L710.722 239.114L708.924 233.802L707.029 234.443ZM707.259 233.427L698.771 242.181L700.207 243.573L708.695 234.819L707.259 233.427ZM699.1 242.272L695.645 227.357L693.696 227.808L697.152 242.724L699.1 242.272ZM692.385 226.76L681.135 243.562L682.797 244.675L694.047 227.872L692.385 226.76ZM649.359 228.818C649.22 229.411 649.164 230.141 649.569 230.735C650.019 231.397 650.76 231.512 651.321 231.478C651.894 231.443 652.543 231.249 653.216 230.977C653.904 230.699 654.683 230.312 655.535 229.838C658.928 227.951 663.742 224.534 669.017 220.496L667.802 218.908C662.531 222.942 657.817 226.281 654.563 228.09C653.753 228.541 653.051 228.886 652.467 229.123C651.867 229.365 651.453 229.466 651.2 229.482C650.937 229.498 651.091 229.417 651.222 229.61C651.307 229.735 651.201 229.724 651.306 229.275L649.359 228.818ZM669.017 220.496C677.798 213.774 687.978 205.24 695.281 198.897L693.97 197.387C686.682 203.716 676.537 212.221 667.802 218.908L669.017 220.496ZM681.471 243.583L669.304 219.254L667.515 220.149L679.682 244.478L681.471 243.583ZM658.151 182.976C656.847 190.187 654.838 201.127 653.005 210.743L654.969 211.117C656.805 201.494 658.814 190.547 660.119 183.332L658.151 182.976ZM653.005 210.743C651.513 218.565 650.141 225.486 649.359 228.818L651.306 229.275C652.1 225.894 653.479 218.929 654.969 211.117L653.005 210.743ZM653.114 210.441L644.014 226.691L645.759 227.668L654.859 211.418L653.114 210.441ZM644.37 226.73L638.07 205.919L636.156 206.498L642.456 227.309L644.37 226.73ZM634.661 205.781L629.014 220.143L630.875 220.874L636.522 206.513L634.661 205.781ZM629.348 220.095L615.042 201.609L613.461 202.833L627.767 221.319L629.348 220.095ZM612.274 201.504L595.377 220.212L596.862 221.552L613.759 202.844L612.274 201.504ZM595.7 220.419L608.96 189.789L607.125 188.995L593.865 219.625L595.7 220.419ZM607.221 187.268L591.885 187.966L591.975 189.964L607.312 189.266L607.221 187.268ZM623.179 171.506L636.828 172.43L636.963 170.434L623.314 169.511L623.179 171.506ZM636.828 172.43L641.815 172.767L641.95 170.772L636.963 170.434L636.828 172.43ZM591.958 188.344L637.228 172.375L636.562 170.489L591.293 186.458L591.958 188.344ZM591.885 187.966C591.888 187.966 591.908 187.966 591.939 187.977C591.969 187.987 591.997 188.003 592.021 188.024C592.066 188.063 592.08 188.102 592.084 188.123C592.088 188.145 592.09 188.187 592.063 188.24C592.048 188.267 592.028 188.293 592.004 188.314C591.98 188.335 591.961 188.343 591.958 188.344L591.293 186.458C589.333 187.149 589.9 190.059 591.975 189.964L591.885 187.966ZM608.96 189.789C609.491 188.564 608.555 187.207 607.221 187.268L607.312 189.266C607.169 189.273 607.068 189.127 607.125 188.995L608.96 189.789ZM595.377 220.212C595.391 220.197 595.44 220.161 595.512 220.155C595.57 220.15 595.608 220.166 595.627 220.179C595.646 220.191 595.677 220.218 595.696 220.273C595.72 220.341 595.708 220.401 595.7 220.419L593.865 219.625C593.053 221.5 595.492 223.069 596.862 221.552L595.377 220.212ZM615.042 201.609C614.354 200.719 613.028 200.669 612.274 201.504L613.759 202.844C613.677 202.934 613.535 202.929 613.461 202.833L615.042 201.609ZM629.014 220.143C629.069 220.002 629.256 219.976 629.348 220.095L627.767 221.319C628.624 222.427 630.362 222.179 630.875 220.874L629.014 220.143ZM638.07 205.919C637.574 204.28 635.288 204.187 634.661 205.781L636.522 206.513C636.512 206.539 636.484 206.579 636.438 206.607C636.399 206.631 636.362 206.637 636.334 206.636C636.306 206.635 636.27 206.626 636.232 206.598C636.188 206.567 636.164 206.525 636.156 206.498L638.07 205.919ZM644.014 226.691C644.029 226.666 644.059 226.633 644.103 226.612C644.141 226.593 644.177 226.59 644.205 226.593C644.233 226.596 644.267 226.607 644.301 226.634C644.339 226.663 644.362 226.702 644.37 226.73L642.456 227.309C642.917 228.833 644.981 229.057 645.759 227.668L644.014 226.691ZM681.135 243.562C681.218 243.438 681.404 243.45 681.471 243.583L679.682 244.478C680.301 245.716 682.027 245.825 682.797 244.675L681.135 243.562ZM695.645 227.357C695.288 225.817 693.265 225.446 692.385 226.76L694.047 227.872C694.031 227.897 693.998 227.926 693.954 227.944C693.914 227.96 693.879 227.961 693.851 227.955C693.823 227.95 693.79 227.937 693.758 227.908C693.723 227.876 693.703 227.837 693.696 227.808L695.645 227.357ZM698.771 242.181C698.879 242.071 699.065 242.122 699.1 242.272L697.152 242.724C697.475 244.117 699.212 244.6 700.207 243.573L698.771 242.181ZM724.589 245.384C724.651 245.357 724.723 245.365 724.779 245.404L723.628 247.039C724.144 247.402 724.812 247.47 725.39 247.217L724.589 245.384ZM738.105 240.411C737.591 240.055 736.929 239.991 736.356 240.242L737.157 242.074C737.095 242.101 737.024 242.094 736.969 242.056L738.105 240.411ZM755.247 252.521C755.299 252.414 755.434 252.379 755.532 252.447L754.395 254.092C755.302 254.719 756.554 254.393 757.041 253.405L755.247 252.521ZM761.749 245.389C760.964 244.259 759.255 244.387 758.647 245.621L760.441 246.505C760.375 246.638 760.191 246.652 760.107 246.53L761.749 245.389ZM753.365 216.131C753.316 216.26 753.152 216.298 753.051 216.205L754.406 214.734C753.466 213.867 751.947 214.227 751.494 215.423L753.365 216.131ZM744.497 232.403C745.427 233.319 746.991 232.976 747.453 231.755L745.582 231.048C745.632 230.916 745.8 230.879 745.901 230.978L744.497 232.403ZM731.349 216.642C730.593 215.897 729.361 215.961 728.687 216.782L730.232 218.051C730.16 218.14 730.027 218.146 729.946 218.066L731.349 216.642ZM710.387 239.053C710.484 238.935 710.673 238.969 710.722 239.114L708.827 239.755C709.281 241.097 711.033 241.417 711.933 240.322L710.387 239.053ZM696.864 198.172C696.453 196.959 694.942 196.542 693.97 197.387L695.281 198.897C695.175 198.989 695.013 198.941 694.97 198.814L696.864 198.172ZM658.419 183.191C658.279 183.251 658.123 183.131 658.151 182.976L660.119 183.332C660.375 181.916 658.956 180.79 657.637 181.35L658.419 183.191ZM623.521 194.864C622.989 196.407 624.571 197.567 625.876 197.012L625.095 195.171C625.156 195.145 625.253 195.155 625.326 195.219C625.361 195.249 625.394 195.296 625.412 195.358C625.431 195.424 625.424 195.483 625.412 195.516L623.521 194.864ZM642.993 173.997C644.234 172.959 643.606 170.884 641.95 170.772L641.815 172.767C641.785 172.765 641.742 172.751 641.706 172.72C641.674 172.694 641.659 172.666 641.652 172.645C641.646 172.625 641.642 172.595 641.652 172.559C641.663 172.517 641.687 172.482 641.709 172.464L642.993 173.997ZM622.396 168.276C621.651 168.701 621.383 169.503 621.571 170.207C621.754 170.895 622.36 171.451 623.179 171.506L623.314 169.511C623.332 169.512 623.375 169.522 623.42 169.56C623.46 169.593 623.489 169.639 623.503 169.691C623.517 169.743 623.518 169.812 623.489 169.883C623.458 169.961 623.407 170.002 623.386 170.015L622.396 168.276ZM671.721 147.89C670.822 148.014 670.273 148.713 670.205 149.457C670.138 150.192 670.537 150.97 671.365 151.283L672.073 149.412C672.089 149.419 672.131 149.444 672.164 149.498C672.192 149.545 672.201 149.595 672.197 149.639C672.193 149.684 672.174 149.741 672.127 149.792C672.074 149.85 672.015 149.869 671.994 149.872L671.721 147.89ZM689.004 159.158C690.521 158.537 690.492 156.378 688.958 155.798L688.251 157.669C688.224 157.659 688.186 157.633 688.158 157.591C688.134 157.554 688.126 157.518 688.125 157.49C688.125 157.462 688.132 157.426 688.155 157.388C688.182 157.346 688.219 157.318 688.246 157.308L689.004 159.158ZM659.692 170.776C659.718 170.78 659.766 170.8 659.806 170.845C659.839 170.882 659.851 170.919 659.854 170.946C659.857 170.972 659.854 171.011 659.83 171.055C659.802 171.107 659.759 171.138 659.735 171.148L658.977 169.297C657.288 169.989 657.574 172.463 659.376 172.751L659.692 170.776ZM677.712 175.979C678.211 174.893 677.536 173.631 676.356 173.442L676.04 175.417C675.913 175.397 675.841 175.261 675.895 175.144L677.712 175.979ZM670.331 191.239C670.358 191.228 670.403 191.223 670.451 191.235C670.493 191.246 670.523 191.267 670.543 191.287C670.562 191.308 670.581 191.339 670.589 191.382C670.598 191.43 670.589 191.475 670.577 191.501L668.76 190.666C668.084 192.137 669.536 193.686 671.047 193.106L670.331 191.239ZM710.712 177.584C710.32 176.709 709.313 176.294 708.418 176.637L709.134 178.504C709.038 178.541 708.93 178.496 708.887 178.402L710.712 177.584ZM719.714 198.4C719.796 198.266 719.993 198.279 720.057 198.422L718.233 199.24C718.827 200.565 720.663 200.682 721.421 199.443L719.714 198.4ZM730.708 184.331C729.859 183.644 728.601 183.861 728.031 184.793L729.738 185.836C729.677 185.936 729.541 185.959 729.45 185.885L730.708 184.331ZM772.685 261.75C772.684 261.724 772.694 261.673 772.729 261.627C772.759 261.587 772.792 261.568 772.818 261.559C772.843 261.551 772.882 261.546 772.929 261.56C772.985 261.577 773.023 261.611 773.039 261.633L771.396 262.774C772.424 264.253 774.745 263.481 774.684 261.682L772.685 261.75ZM747.394 198.288C747.387 198.261 747.386 198.211 747.407 198.16C747.426 198.116 747.453 198.089 747.476 198.074C747.499 198.059 747.534 198.045 747.582 198.046C747.638 198.047 747.683 198.069 747.704 198.086L746.446 199.641C747.806 200.741 749.78 199.458 749.326 197.768L747.394 198.288ZM744.46 179.661C744.467 179.689 744.468 179.735 744.451 179.782C744.436 179.823 744.412 179.85 744.389 179.867C744.366 179.884 744.333 179.899 744.29 179.903C744.24 179.906 744.196 179.893 744.172 179.878L745.208 178.168C743.816 177.324 742.106 178.608 742.528 180.18L744.46 179.661ZM759.91 187.633C759.9 187.616 759.876 187.56 759.886 187.48C759.895 187.41 759.927 187.358 759.961 187.324C759.994 187.291 760.042 187.264 760.101 187.256C760.169 187.247 760.218 187.266 760.233 187.275L759.196 188.985C759.967 189.453 760.839 189.271 761.37 188.743C761.907 188.21 762.09 187.329 761.596 186.556L759.91 187.633ZM775.392 234.583C775.385 234.559 775.381 234.504 775.406 234.444C775.428 234.393 775.46 234.364 775.486 234.348C775.512 234.332 775.55 234.319 775.6 234.322C775.658 234.327 775.702 234.352 775.719 234.368L774.364 235.839C775.677 237.048 777.834 235.814 777.312 234.023L775.392 234.583ZM718.399 159.873C718.423 159.876 718.447 159.884 718.469 159.896C718.491 159.907 718.505 159.92 718.513 159.928L717.033 161.273C717.317 161.586 717.705 161.802 718.151 161.858L718.399 159.873ZM651.062 256.148C661.473 252.216 669.564 255.304 684.587 260.788L685.273 258.909C670.428 253.49 661.587 250.036 650.356 254.276L651.062 256.148ZM620.195 251.331C612.026 242.534 602.571 241.691 586.866 239.936L586.644 241.923C602.538 243.7 611.157 244.537 618.729 252.692L620.195 251.331ZM625.042 375.464C595.619 369.939 568.115 380.192 543.258 398.301C518.407 416.405 496.108 442.425 477.026 468.633C457.943 494.844 442.025 521.318 429.987 540.324C423.954 549.848 418.919 557.459 414.941 562.26C412.942 564.673 411.276 566.293 409.943 567.109C409.281 567.514 408.775 567.674 408.403 567.691C408.07 567.706 407.795 567.611 407.524 567.362L406.169 568.832C406.826 569.438 407.62 569.729 408.494 569.689C409.329 569.651 410.169 569.316 410.987 568.815C412.616 567.818 414.455 565.982 416.481 563.536C420.554 558.621 425.654 550.902 431.676 541.395C443.746 522.34 459.609 495.953 478.643 469.811C497.678 443.666 519.833 417.841 544.435 399.918C569.03 381.999 595.98 372.041 624.672 377.43L625.042 375.464ZM407.524 567.362C400.128 560.542 365.273 525.253 326.896 484.534C288.518 443.814 246.686 397.735 225.316 369.334L223.718 370.536C245.165 399.04 287.072 445.195 325.441 485.906C363.812 526.618 398.713 561.957 406.169 568.832L407.524 567.362ZM142.853 422.458L235.122 599.546L236.895 598.622L144.627 421.534L142.853 422.458ZM236.008 600.084H886.328V598.084H236.008V600.084ZM148.807 408.765C146.379 411.482 144.501 414.043 143.411 416.303C142.344 418.519 141.912 420.709 142.859 422.47L144.621 421.523C144.146 420.64 144.219 419.234 145.213 417.171C146.185 415.154 147.925 412.754 150.299 410.097L148.807 408.765ZM150.355 408.833L132.656 385.091L131.052 386.286L148.751 410.029L150.355 408.833ZM225.316 369.334C223.998 367.583 221.88 366.811 219.402 366.689C216.925 366.568 213.944 367.082 210.657 368.055L211.224 369.972C214.41 369.029 217.146 368.581 219.304 368.687C221.46 368.793 222.894 369.441 223.718 370.536L225.316 369.334ZM193.413 343.087L210.095 369.547L211.787 368.48L195.105 342.02L193.413 343.087ZM642.388 432.683L631.87 451.04L633.606 452.034L644.124 433.678L642.388 432.683ZM655.098 433.016L651.748 456.091L653.727 456.378L657.078 433.304L655.098 433.016ZM670.331 432.216L676.797 451.665L678.695 451.034L672.229 431.585L670.331 432.216ZM688.148 425.868L701.15 444.508L702.79 443.363L689.789 424.724L688.148 425.868ZM707.868 417.169L724.649 429.11L725.808 427.48L709.027 415.539L707.868 417.169ZM719.455 405.898L743.114 411.455L743.572 409.508L719.912 403.951L719.455 405.898ZM754.25 386.587C829.845 422.943 868.147 481.519 874.13 519.677L876.106 519.368C869.999 480.415 831.159 421.355 755.117 384.785L754.25 386.587ZM635.822 420.75L618.635 430.506L619.622 432.246L636.81 422.49L635.822 420.75ZM632.517 405.494L618.792 402.271L618.335 404.218L632.06 407.441L632.517 405.494ZM629.212 388.442L622.415 386.846L621.957 388.793L628.755 390.389L629.212 388.442ZM132.752 385.248C132.335 384.398 132.326 383.229 132.883 381.673C133.438 380.124 134.51 378.322 136.038 376.336L134.452 375.117C132.861 377.185 131.654 379.175 131.001 380.999C130.35 382.816 130.206 384.6 130.957 386.129L132.752 385.248ZM154.276 403.213C152.239 405.121 150.398 406.984 148.807 408.765L150.299 410.097C151.842 408.37 153.64 406.549 155.644 404.672L154.276 403.213ZM134.425 376.299L154.14 404.515L155.78 403.37L136.065 375.154L134.425 376.299ZM187.568 341.923C189.206 341.622 190.526 341.592 191.512 341.807C192.472 342.016 193.055 342.439 193.383 343.035L195.135 342.071C194.462 340.848 193.312 340.152 191.938 339.853C190.589 339.559 188.974 339.631 187.206 339.956L187.568 341.923ZM210.657 368.055C208.916 368.57 207.075 369.219 205.16 369.981L205.899 371.839C207.769 371.095 209.552 370.468 211.224 369.972L210.657 368.055ZM186.531 341.457L204.674 371.428L206.385 370.392L188.242 340.422L186.531 341.457ZM176.76 345.794C180.915 343.822 184.637 342.461 187.568 341.923L187.206 339.956C184.027 340.54 180.124 341.983 175.902 343.988L176.76 345.794ZM205.16 369.981C202.197 371.16 199.047 372.614 195.798 374.278L196.71 376.058C199.915 374.417 203.007 372.99 205.899 371.839L205.16 369.981ZM175.496 345.441L195.419 375.717L197.09 374.618L177.167 344.341L175.496 345.441ZM136.038 376.336C138.205 373.519 141.226 370.414 144.783 367.247L143.453 365.754C139.841 368.969 136.723 372.165 134.452 375.117L136.038 376.336ZM164.778 394.294C160.938 397.292 157.376 400.309 154.276 403.213L155.644 404.672C158.692 401.816 162.207 398.839 166.008 395.871L164.778 394.294ZM143.316 367.098L164.591 395.68L166.195 394.486L144.92 365.903L143.316 367.098ZM144.783 367.247C149.292 363.233 154.632 359.146 160.123 355.448L159.006 353.79C153.452 357.53 148.039 361.671 143.453 365.754L144.783 367.247ZM160.123 355.448C165.775 351.642 171.569 348.259 176.76 345.794L175.902 343.988C170.601 346.504 164.72 349.941 159.006 353.79L160.123 355.448ZM195.798 374.278C190.478 377.002 184.882 380.293 179.4 383.867L180.492 385.543C185.926 382 191.462 378.745 196.71 376.058L195.798 374.278ZM179.4 383.867C174.331 387.172 169.354 390.722 164.778 394.294L166.008 395.871C170.538 392.335 175.469 388.818 180.492 385.543L179.4 383.867ZM158.736 355.18L179.118 385.266L180.774 384.144L160.392 354.058L158.736 355.18ZM727.226 388.274L750.87 392.724L751.239 390.758L727.595 386.309L727.226 388.274ZM722.459 369.026C722.146 369.975 722.146 369.975 722.146 369.975C722.146 369.975 722.146 369.975 722.146 369.975C722.146 369.975 722.147 369.975 722.147 369.976C722.147 369.976 722.148 369.976 722.149 369.976C722.152 369.977 722.156 369.978 722.161 369.98C722.171 369.984 722.187 369.989 722.208 369.996C722.25 370.01 722.313 370.031 722.397 370.06C722.565 370.117 722.814 370.203 723.136 370.317C723.781 370.545 724.719 370.885 725.887 371.332C728.223 372.227 731.474 373.548 735.132 375.252L735.977 373.44C732.268 371.711 728.972 370.372 726.602 369.465C725.417 369.011 724.462 368.665 723.803 368.431C723.473 368.315 723.217 368.226 723.043 368.167C722.955 368.137 722.889 368.115 722.843 368.1C722.82 368.092 722.803 368.086 722.791 368.082C722.785 368.08 722.781 368.079 722.778 368.078C722.776 368.077 722.775 368.077 722.774 368.076C722.773 368.076 722.773 368.076 722.773 368.076C722.773 368.076 722.773 368.076 722.772 368.076C722.772 368.076 722.772 368.076 722.459 369.026ZM735.132 375.252C737.084 376.162 739.151 377.181 741.255 378.301L742.195 376.536C740.055 375.396 737.957 374.362 735.977 373.44L735.132 375.252ZM741.255 378.301C745.603 380.617 750.097 383.361 754.066 386.473L755.3 384.899C751.211 381.693 746.61 378.887 742.195 376.536L741.255 378.301ZM725.326 380.035L741.823 378.414L741.627 376.423L725.131 378.044L725.326 380.035ZM729.055 320.54L753.448 332.826L754.348 331.039L729.954 318.754L729.055 320.54ZM754.921 337.812L752.863 341.325L754.589 342.336L756.646 338.823L754.921 337.812ZM748.191 342.711L735.976 336.6L735.081 338.389L747.297 344.5L748.191 342.711ZM738.175 332.189L749.795 337.964L750.685 336.173L739.066 330.398L738.175 332.189ZM727.356 350.045L726.578 327.518L724.58 327.587L725.358 350.114L727.356 350.045ZM735.106 332.918C735.819 331.966 737.11 331.659 738.175 332.189L739.066 330.398C737.136 329.439 734.797 329.994 733.505 331.719L735.106 332.918ZM735.976 336.6C734.601 335.913 734.184 334.148 735.106 332.918L733.505 331.719C731.836 333.947 732.591 337.143 735.081 338.389L735.976 336.6ZM752.863 341.325C751.914 342.945 749.871 343.552 748.191 342.711L747.297 344.5C749.918 345.811 753.107 344.865 754.589 342.336L752.863 341.325ZM753.448 332.826C755.286 333.751 755.961 336.036 754.921 337.812L756.646 338.823C758.27 336.051 757.217 332.484 754.348 331.039L753.448 332.826ZM781.574 295.157L778.217 296.768L779.083 298.571L782.44 296.96L781.574 295.157ZM781.873 288.075L782.947 291.029L784.827 290.346L783.752 287.392L781.873 288.075ZM782.943 290.357L781.063 295.728L782.951 296.389L784.831 291.018L782.943 290.357ZM733 276.296L706.817 264.665L706.005 266.492L732.188 278.124L733 276.296ZM779.056 296.756L758.378 287.57L757.566 289.398L778.244 298.584L779.056 296.756ZM758.227 277.579L782.396 288.643L783.229 286.824L759.06 275.76L758.227 277.579ZM710.828 255.88L744.531 271.309L745.364 269.49L711.661 254.062L710.828 255.88ZM694.341 253.95L702.733 254.957L702.972 252.971L694.58 251.964L694.341 253.95ZM702.733 254.957L711.126 255.964L711.364 253.978L702.972 252.971L702.733 254.957ZM707.137 264.891L700.692 258.084L699.24 259.459L705.685 266.266L707.137 264.891ZM700.692 258.084L695.187 252.269L693.734 253.644L699.24 259.459L700.692 258.084ZM701.995 253.449L699.108 258.257L700.823 259.286L703.71 254.479L701.995 253.449ZM710.324 255.361L711.935 259.162L713.777 258.381L712.165 254.581L710.324 255.361ZM711.908 258.453L710.297 263.246L712.193 263.883L713.804 259.09L711.908 258.453ZM710.86 262.641L706.026 264.655L706.795 266.502L711.629 264.488L710.86 262.641ZM799.134 314.051V326.27H801.134V314.051H799.134ZM799.134 337.281V349.5H801.134V337.281H799.134ZM811.816 330.641H804.506V332.641H811.816V330.641ZM795.762 330.641H788.452V332.641H795.762V330.641ZM525.753 141.644V153.863H527.753V141.644H525.753ZM525.753 164.873V177.092H527.753V164.873H525.753ZM538.435 158.234H531.125V160.234H538.435V158.234ZM522.38 158.234H515.071V160.234H522.38V158.234ZM817.664 369.61V376.488H819.664V369.61H817.664ZM817.664 387.499V394.378H819.664V387.499H817.664ZM827.675 380.859H823.036V382.859H827.675V380.859ZM814.291 380.859H809.652V382.859H814.291V380.859ZM544.283 186.491V204.081H546.283V186.491H544.283ZM544.283 215.092V232.682H546.283V215.092H544.283ZM559.65 208.452H549.655V210.452H559.65V208.452ZM540.91 208.452H530.915V210.452H540.91V208.452ZM886.328 599.084C887.32 598.959 887.32 598.959 887.32 598.959C887.32 598.959 887.32 598.958 887.32 598.957C887.32 598.956 887.32 598.954 887.319 598.952C887.319 598.947 887.318 598.939 887.317 598.929C887.314 598.909 887.31 598.88 887.305 598.84C887.295 598.761 887.28 598.644 887.261 598.488C887.221 598.178 887.163 597.719 887.086 597.12C886.933 595.923 886.708 594.17 886.418 591.946C885.839 587.497 885.005 581.165 883.981 573.627C881.933 558.553 879.13 538.655 876.106 519.368L874.13 519.677C877.151 538.946 879.952 558.829 881.999 573.896C883.022 581.43 883.857 587.758 884.435 592.204C884.724 594.426 884.95 596.178 885.103 597.374C885.179 597.972 885.237 598.431 885.277 598.74C885.296 598.895 885.311 599.012 885.321 599.091C885.326 599.13 885.33 599.16 885.332 599.18C885.334 599.19 885.335 599.197 885.335 599.202C885.335 599.204 885.336 599.206 885.336 599.207C885.336 599.208 885.336 599.209 885.336 599.209C885.336 599.209 885.336 599.209 886.328 599.084Z" fill="#141414"/>
<circle cx="498.555" cy="196.831" r="2.0141" fill="#141414"/>
<circle cx="120.067" cy="229.918" r="2.0141" fill="white"/>
<circle cx="26.6192" cy="185.481" r="2.0141" fill="white"/>
<circle cx="99.4832" cy="166.857" r="2.0141" fill="white"/>
<circle cx="568.646" cy="172.93" r="2.0141" fill="#141414"/>
<circle cx="520.306" cy="244.363" r="2.0141" fill="#141414"/>
<circle cx="770.325" cy="372.46" r="2.0141" fill="#141414"/>
<path d="M260.575 601.045L206.602 444.535H460.79L510.556 588.846H680.706V601.045H514.763H260.575Z" fill="white"/>
<path d="M514.763 601.045H260.575L206.602 444.535H460.79L510.556 588.846M514.763 601.045L510.556 588.846M514.763 601.045H680.706V588.846H510.556" stroke="#141414" stroke-width="2"/>
<path d="M367.92 516.343C372.336 527.586 368.396 539.26 359.664 542.69C350.931 546.12 340.099 540.248 335.683 529.006C331.267 517.764 335.207 506.089 343.94 502.659C352.672 499.229 363.504 505.101 367.92 516.343Z" fill="#DEDEDE" stroke="#141414" stroke-width="2"/>
<path d="M141.579 366.933C135.981 353.15 125.765 335.74 116.747 334.626C105.474 333.234 65.4778 349.795 62.7977 337.678C60.6536 327.985 80.5672 321.383 90.792 319.294C83.7461 318.188 71.5143 313.035 78.9545 301.269M78.9545 301.269C75.7797 299.51 69.7925 294.698 71.2421 289.525C73.0541 283.058 79.2175 269.824 90.456 269.675C99.4468 269.556 99.2981 281.552 98.0999 287.565M78.9545 301.269C84.2474 292.898 91.5948 288.813 98.0999 287.565M94.1652 309.847C95.2339 310.383 99.6332 310.674 108.681 307.546C119.991 303.637 116.44 292.874 110.169 288.979C107.467 287.3 103.025 286.62 98.0999 287.565M142.502 317.976C130.984 310.358 127.386 304.05 131.036 285.634C123.694 285.765 109.259 283.009 110.249 270.945C111.486 255.865 141.673 261.058 151.929 271.913C162.185 282.769 165.532 315.721 181.115 342.428M74.0381 282.47C70.8633 280.711 65.1423 276.119 66.5919 270.945C68.4039 264.478 74.5674 251.244 85.8058 251.095C94.7966 250.977 94.6479 262.972 93.4497 268.985" stroke="#141414" stroke-width="2" stroke-linecap="round" stroke-linejoin="round"/>
<path d="M89.9721 251.92L54.0121 131.678L125.242 319.065L111.519 323.966L106.877 308.446M94.1251 265.806L95.5909 270.707M98.9622 281.98L100.246 286.391" stroke="#141414" stroke-width="2" stroke-linecap="round" stroke-linejoin="round"/>
<path d="M507.041 514.621L516.844 477.209M534.978 531.285L563.895 499.754M549.845 558.405L591.994 550.89" stroke="white" stroke-width="2" stroke-linecap="round" stroke-linejoin="round"/>
<path d="M17.6818 207.319C17.6818 206.767 17.2341 206.319 16.6818 206.319C16.1295 206.319 15.6818 206.767 15.6818 207.319H17.6818ZM15.6818 219.538C15.6818 220.091 16.1295 220.538 16.6818 220.538C17.2341 220.538 17.6818 220.091 17.6818 219.538H15.6818ZM17.6818 230.549C17.6818 229.996 17.2341 229.549 16.6818 229.549C16.1295 229.549 15.6818 229.996 15.6818 230.549H17.6818ZM15.6818 242.768C15.6818 243.32 16.1295 243.768 16.6818 243.768C17.2341 243.768 17.6818 243.32 17.6818 242.768H15.6818ZM28.3636 225.909C28.9159 225.909 29.3636 225.461 29.3636 224.909C29.3636 224.357 28.9159 223.909 28.3636 223.909V225.909ZM21.0541 223.909C20.5018 223.909 20.0541 224.357 20.0541 224.909C20.0541 225.461 20.5018 225.909 21.0541 225.909V223.909ZM12.3095 225.909C12.8618 225.909 13.3095 225.461 13.3095 224.909C13.3095 224.357 12.8618 223.909 12.3095 223.909V225.909ZM5 223.909C4.44772 223.909 4 224.357 4 224.909C4 225.461 4.44772 225.909 5 225.909V223.909ZM15.6818 207.319V219.538H17.6818V207.319H15.6818ZM15.6818 230.549V242.768H17.6818V230.549H15.6818ZM28.3636 223.909H21.0541V225.909H28.3636V223.909ZM12.3095 223.909H5V225.909H12.3095V223.909Z" fill="white"/>
<path d="M123.547 124C123.547 123.448 123.099 123 122.547 123C121.995 123 121.547 123.448 121.547 124H123.547ZM121.547 136.219C121.547 136.771 121.995 137.219 122.547 137.219C123.099 137.219 123.547 136.771 123.547 136.219H121.547ZM123.547 147.229C123.547 146.677 123.099 146.229 122.547 146.229C121.995 146.229 121.547 146.677 121.547 147.229H123.547ZM121.547 159.448C121.547 160.001 121.995 160.448 122.547 160.448C123.099 160.448 123.547 160.001 123.547 159.448H121.547ZM134.229 142.59C134.781 142.59 135.229 142.142 135.229 141.59C135.229 141.038 134.781 140.59 134.229 140.59V142.59ZM126.919 140.59C126.367 140.59 125.919 141.038 125.919 141.59C125.919 142.142 126.367 142.59 126.919 142.59V140.59ZM118.175 142.59C118.727 142.59 119.175 142.142 119.175 141.59C119.175 141.038 118.727 140.59 118.175 140.59V142.59ZM110.865 140.59C110.313 140.59 109.865 141.038 109.865 141.59C109.865 142.142 110.313 142.59 110.865 142.59V140.59ZM121.547 124V136.219H123.547V124H121.547ZM121.547 147.229V159.448H123.547V147.229H121.547ZM134.229 140.59H126.919V142.59H134.229V140.59ZM118.175 140.59H110.865V142.59H118.175V140.59Z" fill="white"/>
</g>
<path d="M312.8 187.16H241.637C240.656 187.16 239.862 187.955 239.862 188.935V198.873C239.862 199.853 240.656 200.647 241.637 200.647H312.8C313.78 200.647 314.575 199.853 314.575 198.873V188.935C314.575 187.955 313.78 187.16 312.8 187.16Z" stroke="black" stroke-width="2"/>
<path d="M241.104 175.354H314.575M241.104 133.389H314.575H241.104ZM241.104 147.377H314.575H241.104ZM241.104 161.365H314.575H241.104Z" stroke="black" stroke-width="2" stroke-linecap="round" stroke-linejoin="round"/>
<path d="M348.616 201.95L350.392 235.722M358.618 185.78L398.129 203.789L358.618 185.78ZM358.435 195.382L384.208 229.66L358.435 195.382Z" stroke="black" stroke-width="2" stroke-linecap="round" stroke-linejoin="round"/>
<path d="M199.223 13.245C199.223 11.6768 200.494 10.4055 202.062 10.4055H295.053C296.622 10.4055 297.893 11.6768 297.893 13.245V73.9379C297.893 75.5062 296.622 76.7773 295.053 76.7773H202.062C200.494 76.7773 199.223 75.5062 199.223 73.9379V13.245Z" fill="white" stroke="black" stroke-width="2" stroke-linecap="round" stroke-linejoin="round"/>
<path d="M209.693 33.6534C209.693 32.0851 210.964 30.814 212.532 30.814H234.361C235.929 30.814 237.2 32.0851 237.2 33.6534V53.5295C237.2 55.0977 235.929 56.3689 234.361 56.3689H212.532C210.964 56.3689 209.693 55.0977 209.693 53.5295V33.6534Z" stroke="black" stroke-width="2" stroke-linecap="round" stroke-linejoin="round"/>
<path d="M228.327 108.189C228.327 106.62 229.598 105.349 231.166 105.349H324.335C325.904 105.349 327.175 106.62 327.175 108.189V207.391C327.175 208.96 325.904 210.231 324.335 210.231H231.166C229.598 210.231 228.327 208.96 228.327 207.391V108.189Z" stroke="black" stroke-width="2" stroke-linecap="round" stroke-linejoin="round"/>
<path d="M329.837 6.41267C329.837 3.42333 332.261 1 335.249 1C338.238 1 340.662 3.42333 340.662 6.41267V7.12253C340.662 10.1119 338.238 12.5352 335.249 12.5352C332.261 12.5352 329.837 10.1119 329.837 7.12253V6.41267Z" fill="white" stroke="black" stroke-width="2" stroke-linecap="round" stroke-linejoin="round"/>
<path d="M346.696 6.32394C346.696 3.38362 349.079 1 352.02 1C354.96 1 357.344 3.38362 357.344 6.32394V7.21127C357.344 10.1516 354.96 12.5352 352.02 12.5352C349.079 12.5352 346.696 10.1516 346.696 7.21127V6.32394Z" fill="white" stroke="black" stroke-width="2" stroke-linecap="round" stroke-linejoin="round"/>
<path d="M363.555 6.41267C363.555 3.42333 365.979 1 368.968 1C371.956 1 374.38 3.42333 374.38 6.41267V7.12253C374.38 10.1119 371.956 12.5352 368.968 12.5352C365.979 12.5352 363.555 10.1119 363.555 7.12253V6.41267Z" fill="white" stroke="black" stroke-width="2" stroke-linecap="round" stroke-linejoin="round"/>
<path d="M271.628 35.0733C271.628 33.5051 272.899 32.2339 274.468 32.2339H367.459C369.028 32.2339 370.299 33.5051 370.299 35.0733V134.099C370.299 135.667 369.028 136.938 367.459 136.938H274.468C272.899 136.938 271.628 135.667 271.628 134.099V35.0733Z" fill="white" stroke="black" stroke-width="2" stroke-linecap="round" stroke-linejoin="round"/>
<path d="M342.259 108.721C342.259 107.153 343.53 105.881 345.099 105.881H398.161C399.729 105.881 401 107.153 401 108.721V165.509C401 167.078 399.729 168.349 398.161 168.349H345.099C343.53 168.349 342.259 167.078 342.259 165.509V108.721Z" fill="white" stroke="black" stroke-width="2" stroke-linecap="round" stroke-linejoin="round"/>
<path d="M349.713 116.529C349.713 114.961 350.983 113.69 352.552 113.69H390.707C392.276 113.69 393.547 114.961 393.547 116.529V156.991C393.547 158.56 392.276 159.831 390.707 159.831H352.552C350.983 159.831 349.713 158.56 349.713 156.991V116.529Z" stroke="black" stroke-width="2" stroke-linecap="round" stroke-linejoin="round"/>
<path d="M281.921 46.0759H361.78" stroke="black" stroke-width="2" stroke-linecap="round" stroke-linejoin="round"/>
<path d="M281.921 58.8535H361.78" stroke="black" stroke-width="2" stroke-linecap="round" stroke-linejoin="round"/>
<path d="M281.921 71.6309H361.78" stroke="black" stroke-width="2" stroke-linecap="round" stroke-linejoin="round"/>
<path d="M281.921 84.231H361.78" stroke="black" stroke-width="2" stroke-linecap="round" stroke-linejoin="round"/>
<path d="M282.099 97.186H327.352" stroke="black" stroke-width="2" stroke-linecap="round" stroke-linejoin="round"/>
<path d="M142.133 81.8145L153.558 93.24L164.983 81.8145L170.116 86.9469L158.691 98.3724L170.116 109.798L164.983 114.93L153.558 103.505L142.133 114.93L137 109.798L148.425 98.3724L137 86.9469L142.133 81.8145Z" stroke="black" stroke-width="2" stroke-linecap="round" stroke-linejoin="round"/>
<defs>
<filter id="filter0_d" x="0" y="123" width="891.462" height="487.045" filterUnits="userSpaceOnUse" color-interpolation-filters="sRGB">
<feFlood flood-opacity="0" result="BackgroundImageFix"/>
<feColorMatrix in="SourceAlpha" type="matrix" values="0 0 0 0 0 0 0 0 0 0 0 0 0 0 0 0 0 0 127 0"/>
<feOffset dy="4"/>
<feGaussianBlur stdDeviation="2"/>
<feColorMatrix type="matrix" values="0 0 0 0 0 0 0 0 0 0 0 0 0 0 0 0 0 0 0.25 0"/>
<feBlend mode="normal" in2="BackgroundImageFix" result="effect1_dropShadow"/>
<feBlend mode="normal" in="SourceGraphic" in2="effect1_dropShadow" result="shape"/>
</filter>
</defs>
</svg>
