<svg width="950" height="625" viewBox="0 0 950 625" fill="none" xmlns="http://www.w3.org/2000/svg">
<path d="M488.531 385.2L507.015 370.652L539.74 425.21L508.378 440.668C510.853 443.85 511.439 454.641 493.985 472.342C472.168 494.468 429.14 505.986 402.627 516.14C376.113 526.294 318.844 532.659 289.755 535.841C266.483 538.387 232.485 531.244 218.395 527.355C221.122 541.348 226.698 571.607 227.183 580.7C227.668 589.793 219.708 598.634 215.668 601.917L15.2255 621.316C16.7911 618.083 20.3464 605.191 22.0433 579.488C24.1644 547.359 17.6497 485.678 17.6497 464.916C17.6497 444.153 18.2557 392.172 20.2252 365.65C21.8009 344.433 28.3561 315.184 31.4367 303.212L10.3773 281.237C4.11505 272.801 -3.68243 250.866 15.2255 230.619C34.1335 210.372 72.2929 208.745 89.0091 210.463L95.3723 192.58V187.371L91.4332 174.944C85.609 152.706 86.9398 143.685 91.4332 129.175C91.4837 120.638 94.2815 103.291 105.069 102.199C118.553 100.836 133.249 100.381 135.37 95.8344C137.491 91.2878 142.491 59.8872 141.43 43.398C149.46 41.2258 166.732 37.8512 171.58 41.7309C176.428 45.6106 197.639 82.8894 207.638 101.044L225.819 96.9519L235.667 131.202L219.456 137.87C221.274 147.57 220.213 182.224 219.456 198.339C225.718 195.763 240.97 188.973 251.878 182.426C262.787 175.879 274.402 175.96 278.846 176.819L292.027 162.573H299.754L312.178 150.752C313.693 147.923 316.723 140.932 316.723 135.597V99.9829C317.177 93.5673 319.42 80.5844 324.753 79.9782C330.086 79.372 333.641 96.3961 334.752 104.984C336.924 98.6189 344.873 85.6158 359.296 84.5247C373.719 83.4335 381.769 97.7096 383.991 104.984C390.557 100.589 412.323 114.627 407.778 122.81C403.233 130.994 394.395 117.361 383.991 126.807C382.416 133.233 377.073 135.345 374.598 135.597C370.002 146.206 358.781 168.059 350.66 170.605C342.539 173.151 331.52 181.972 327.025 186.063L331.722 199.097L315.208 215.01C321.859 254.561 260.817 279.721 193.094 320.488C202.091 350.031 206.699 366.934 206.426 403.69C212.638 415.51 239.455 422.936 256.423 423.997C273.392 425.058 319.298 413.086 358.841 397.476C398.385 381.866 438.534 370.955 455.654 368.833C469.35 367.136 483.279 379.037 488.531 385.2Z" fill="white"/>
<path d="M558.959 398.141C544.848 397.665 541.37 403.935 534.101 407.539L520.914 381.62C527.88 377.449 536.829 361.612 536.829 361.612C536.829 361.612 541.743 353.626 552.289 341.302C560.727 331.442 571.553 326.313 578.511 324.78C581.004 324.744 585.843 328.315 580.276 333.723C573.317 340.483 568.25 349.982 568.672 354.862C569.009 358.765 580.936 354.462 586.857 351.822C585.673 347.788 588.035 344.629 589.364 343.554L590.727 339.057C591.606 337.898 594.477 335.569 598.925 335.524C604.486 335.468 611.004 340.611 614.715 337.777C618.425 334.942 620.278 316.814 629.851 319.716C637.51 322.038 629.518 341.367 624.564 350.741C628.744 359.104 622.407 367.087 618.715 370.033C622.425 372.425 621.405 384.152 603.948 391.056C586.491 397.959 573.069 398.618 558.959 398.141Z" fill="white"/>
<path d="M206.774 147.619L181.605 160.49L172.811 101.888L206.774 147.619Z" fill="white"/>
<path d="M510.16 441.181L538.075 425.089C533.784 398.434 526.906 386.696 507.897 370.592L488.13 385.317L510.16 441.181Z" fill="white"/>
<path d="M310.169 225.058L333.055 200.551C320.106 176.903 317.68 170.318 294.312 161.536L274.608 182.302L310.169 225.058Z" fill="white"/>
<path d="M487.748 386.833C501.805 401.393 507.845 428.388 509.107 440.067C508.842 455.586 491.838 480.864 455.482 499.31C419.125 517.756 356.714 536.164 315.813 544.505C274.912 552.847 235.04 547.235 220.548 542.685C220.548 542.685 227.952 575.805 226.286 585.663C224.953 593.549 217.247 602.194 213.561 605.53L16.9348 612.659C18.9546 603.508 22.9941 581.901 22.9941 568.676C22.9941 552.145 21.1763 501.035 16.9348 430.663C13.5415 374.366 25.7209 322.376 32.2346 303.419C29.8109 302.256 22.6003 297.231 13.1476 286.432C1.33188 272.934 -2.00076 255.493 13.1476 232.289C25.2664 213.725 67.581 209.287 87.2234 209.388C85.8904 216.789 73.4384 235.019 67.379 243.208L76.6195 255.493C82.8304 252.965 98.8271 247.667 113.127 246.697C127.427 245.726 143.525 254.684 149.786 259.285L184.022 225.464C190.132 223.897 203.927 220.095 210.229 217.426C216.53 214.757 218.409 203.877 218.56 198.771C229.72 192.705 255.583 179.723 269.762 176.325C283.941 172.928 299.099 187.043 304.906 194.525C310.966 201.451 319.449 221.066 304.906 244.118C290.364 267.171 224.418 304.48 193.262 320.253C198.352 336.147 204.371 371.768 206.744 387.591C205.23 390.523 204.472 399.027 213.561 409.582C224.923 422.777 250.675 424.749 265.066 424.445C279.457 424.142 357.32 401.999 382.618 388.35C402.856 377.43 441.04 370.656 457.602 368.633C461.793 368.633 473.69 372.273 487.748 386.833Z" fill="black"/>
<path d="M236.108 131.278L202.308 141.888L180.178 108.694L226.408 97.6292L236.108 131.278Z" fill="black"/>
<path d="M172.296 110.513L174.57 147.951L122.732 160.835L113.031 126.276L172.296 110.513Z" fill="black"/>
<mask id="mask0" mask-type="alpha" maskUnits="userSpaceOnUse" x="113" y="97" width="124" height="64">
<path d="M236.108 131.278L202.308 141.888L180.178 108.694L226.408 97.6292L236.108 131.278Z" fill="black"/>
<path d="M172.296 110.513L174.57 147.951L122.732 160.835L113.031 126.276L172.296 110.513Z" fill="black"/>
</mask>
<g mask="url(#mask0)">
<path d="M250.81 135.371L177.297 90.8083M184.118 148.406L110.605 103.844M240.655 142.04L167.142 97.4776M173.963 155.075L100.45 110.513" stroke="white" stroke-width="2"/>
</g>
<path d="M142.287 43.5425H141.287C141.287 43.0783 141.607 42.6751 142.059 42.569L142.287 43.5425ZM173.061 43.5425L173.605 42.7033L173.061 43.5425ZM213.083 214.946L213.793 215.649L213.083 214.946ZM91.351 174.936L91.4708 173.944C91.7881 173.982 92.0681 174.17 92.224 174.449L91.351 174.936ZM38.7471 155.993L37.7839 156.262L38.7471 155.993ZM91.351 128.865L91.4774 129.857C91.3521 129.873 91.2248 129.865 91.1024 129.834L91.351 128.865ZM104.388 102.95L104.001 102.028L104.388 102.95ZM138.649 86.4311L137.665 86.2509V86.2509L138.649 86.4311ZM177.003 30.5092L176.634 31.4388L177.003 30.5092ZM38.7471 36.4196L39.5228 37.0507L38.7471 36.4196ZM0.999939 190.243L1.42426 191.149C1.02875 191.334 0.558777 191.241 0.263367 190.919C-0.0320435 190.598 -0.0845337 190.121 0.133789 189.743L0.999939 190.243ZM15.5529 183.423L15.1286 182.518C15.5901 182.302 16.1404 182.467 16.4061 182.902L15.5529 183.423ZM22.2231 194.335L23.0018 194.962C22.7977 195.216 22.4831 195.354 22.1584 195.333C21.8337 195.312 21.5396 195.134 21.3699 194.856L22.2231 194.335ZM31.0157 183.423L30.2371 182.796C30.4317 182.554 30.7274 182.417 31.0375 182.424C31.3476 182.43 31.637 182.581 31.8209 182.83L31.0157 183.423ZM41.1727 197.214L42.0409 197.711C41.873 198.004 41.5681 198.193 41.2304 198.213C40.8927 198.232 40.5681 198.08 40.3675 197.807L41.1727 197.214ZM49.0557 183.423L48.1875 182.927C48.3655 182.616 48.6969 182.423 49.0557 182.423C49.4145 182.423 49.7458 182.616 49.9239 182.927L49.0557 183.423ZM56.9387 197.214L57.713 197.847C57.5046 198.102 57.1841 198.238 56.8558 198.211C56.5276 198.184 56.2339 197.996 56.0705 197.711L56.9387 197.214ZM65.7312 186.454L64.9569 185.822C65.1624 185.57 65.4774 185.434 65.8014 185.457C66.1254 185.48 66.4182 185.658 66.5865 185.936L65.7312 186.454ZM72.2498 197.214L72.951 197.927C72.733 198.142 72.429 198.245 72.1256 198.207C71.8223 198.169 71.5529 197.994 71.3946 197.732L72.2498 197.214ZM81.4972 188.121L80.7961 187.408C80.9979 187.21 81.2742 187.106 81.5567 187.123C81.8391 187.14 82.1012 187.276 82.278 187.497L81.4972 188.121ZM88.7738 197.214L89.5076 197.894C89.3098 198.107 89.0288 198.224 88.7379 198.214C88.4469 198.203 88.175 198.066 87.9931 197.839L88.7738 197.214ZM104.388 210.096L103.425 210.363L104.388 210.096ZM47.5853 131.65C47.0517 131.508 46.7344 130.96 46.8766 130.426C47.0189 129.893 47.5668 129.575 48.1005 129.718L47.5853 131.65ZM88.7738 141.595L89.0314 140.629C89.394 140.726 89.672 141.017 89.7513 141.384C89.8306 141.751 89.6978 142.131 89.4076 142.369L88.7738 141.595ZM77.8589 150.537L77.22 151.306C76.9903 151.115 76.8579 150.832 76.8589 150.534C76.8599 150.235 76.9943 149.953 77.2252 149.763L77.8589 150.537ZM88.3516 157.951C88.7764 158.304 88.8348 158.935 88.482 159.36C88.1291 159.784 87.4986 159.843 87.0738 159.49L88.3516 157.951ZM46.8669 139.538C47.4171 139.585 47.8251 140.069 47.7781 140.62C47.7311 141.17 47.2469 141.578 46.6966 141.531L46.8669 139.538ZM28.9599 140.015C28.4096 139.968 28.0016 139.484 28.0486 138.934C28.0956 138.384 28.5799 137.976 29.1301 138.023L28.9599 140.015ZM72.3246 160.526C72.4155 159.982 72.9307 159.614 73.4755 159.704C74.0202 159.795 74.3882 160.31 74.2974 160.855L72.3246 160.526ZM71.2655 179.041C71.1747 179.586 70.6594 179.954 70.1147 179.863C69.5699 179.772 69.2019 179.257 69.2927 178.712L71.2655 179.041ZM207.17 148.264L207.979 147.675C208.152 147.913 208.212 148.215 208.142 148.501C208.072 148.788 207.879 149.028 207.615 149.159L207.17 148.264ZM183.208 161.283C182.714 161.529 182.113 161.327 181.868 160.833C181.622 160.338 181.824 159.738 182.318 159.492L183.208 161.283ZM122.731 160.388L122.957 161.362C122.427 161.484 121.897 161.162 121.762 160.635L122.731 160.388ZM175.184 148.264L176.182 148.207C176.209 148.693 175.883 149.128 175.409 149.238L175.184 148.264ZM227.181 96.4335L226.929 95.4659C227.459 95.3274 228.002 95.6419 228.146 96.171L227.181 96.4335ZM236.58 130.987L237.545 130.724C237.687 131.246 237.388 131.786 236.871 131.944L236.58 130.987ZM172.253 102.023C171.928 101.577 172.026 100.952 172.473 100.626C172.919 100.301 173.544 100.399 173.87 100.846L172.253 102.023ZM207.17 101.656L207.423 102.623L207.17 101.656ZM153.247 101.984C153.78 101.841 154.328 102.158 154.471 102.691C154.614 103.225 154.298 103.773 153.764 103.916L153.247 101.984ZM136.785 108.463C136.252 108.605 135.703 108.289 135.561 107.755C135.418 107.222 135.734 106.674 136.268 106.531L136.785 108.463ZM185.12 96.0419C184.583 96.171 184.043 95.8403 183.913 95.3033C183.784 94.7664 184.115 94.2264 184.652 94.0973L185.12 96.0419ZM196.628 91.2178C197.165 91.0887 197.705 91.4194 197.834 91.9563C197.963 92.4933 197.633 93.0333 197.096 93.1624L196.628 91.2178ZM188.676 183.636C189.228 183.636 189.676 184.083 189.676 184.636C189.676 185.188 189.228 185.636 188.676 185.636V183.636ZM180.489 185.636C179.937 185.636 179.489 185.188 179.489 184.636C179.489 184.083 179.937 183.636 180.489 183.636V185.636ZM67.3988 244.346L66.6585 245.019C66.3264 244.653 66.3111 244.1 66.6223 243.716L67.3988 244.346ZM78.5992 255.192C78.9705 255.601 78.9401 256.233 78.5312 256.605C78.1223 256.976 77.4899 256.945 77.1186 256.537L78.5992 255.192ZM154.171 262.999C154.583 263.367 154.619 263.999 154.251 264.411C153.883 264.823 153.251 264.859 152.839 264.491L154.171 262.999ZM66.3344 264.542C65.8939 264.876 65.2668 264.789 64.9337 264.348C64.6005 263.908 64.6875 263.28 65.128 262.947L66.3344 264.542ZM88.2937 210.096L89.1975 210.524L88.2937 210.096ZM29.6691 300.093C30.1006 300.438 30.171 301.067 29.8263 301.499C29.4817 301.93 28.8524 302.001 28.4209 301.656L29.6691 300.093ZM48.5456 281.222C49.0207 280.941 49.6341 281.097 49.9158 281.572C50.1975 282.047 50.0407 282.661 49.5657 282.943L48.5456 281.222ZM15.5529 623.979L15.6182 624.977C15.308 624.998 15.006 624.872 14.8011 624.639C14.5962 624.405 14.5115 624.089 14.5721 623.785L15.5529 623.979ZM70.9534 305.705C70.5455 306.077 69.913 306.049 69.5406 305.641C69.1682 305.233 69.197 304.6 69.6049 304.228L70.9534 305.705ZM136.527 304.966L135.93 305.769L136.527 304.966ZM264.474 423.933L264.565 424.929L264.474 423.933ZM478.073 376.65L477.383 377.374L478.073 376.65ZM486.714 479.855L487.337 480.637L486.714 479.855ZM55.9387 358.009C55.9387 357.457 56.3864 357.009 56.9387 357.009C57.491 357.009 57.9387 357.457 57.9387 358.009H55.9387ZM533.556 406.808L534.511 406.509C534.514 406.521 534.518 406.533 534.521 406.545L533.556 406.808ZM518.549 380.287L519.248 379.572C519.27 379.593 519.291 379.616 519.312 379.64L518.549 380.287ZM313.136 150.537L314.096 150.817C314.045 150.993 313.947 151.151 313.812 151.274L313.136 150.537ZM324.658 80.6723L324.628 81.6719L324.658 80.6723ZM334.208 119.469L335.199 119.601L334.208 119.469ZM361.799 85.2188L361.581 86.1948L361.799 85.2188ZM358.312 103.556L357.893 102.648L358.312 103.556ZM352.057 111.476C351.784 111.956 351.174 112.125 350.693 111.852C350.213 111.579 350.045 110.969 350.317 110.489L352.057 111.476ZM385.423 104.92L384.491 105.283L385.423 104.92ZM371.349 112.515L371.943 111.71L371.349 112.515ZM376.807 136.14L376.751 135.141H376.751L376.807 136.14ZM367.199 120.182C366.806 120.569 366.173 120.564 365.785 120.17C365.398 119.777 365.403 119.143 365.797 118.756L367.199 120.182ZM345.862 110.262C345.339 110.084 345.06 109.516 345.238 108.993C345.416 108.47 345.984 108.191 346.507 108.369L345.862 110.262ZM343.835 149.036C343.744 149.58 343.228 149.948 342.683 149.856C342.139 149.764 341.771 149.248 341.863 148.704L343.835 149.036ZM374.381 135.356L375.01 134.578V134.578L374.381 135.356ZM348.61 171.754L348.95 172.694L348.61 171.754ZM538.408 425.146L539.376 424.893C539.491 425.337 539.29 425.803 538.887 426.023L538.408 425.146ZM508.158 371.497L507.609 370.661C507.963 370.429 508.425 370.444 508.762 370.7L508.158 371.497ZM502.208 410.142L501.292 410.544H501.292L502.208 410.142ZM514.533 376.65L515.183 375.89H515.183L514.533 376.65ZM492.366 393.017L491.553 393.599L492.366 393.017ZM522.036 384.399L522.798 383.752C522.804 383.759 522.809 383.765 522.814 383.772L522.036 384.399ZM505.517 419.084L504.56 419.372L505.517 419.084ZM535.982 415.901L536.949 415.646H536.949L535.982 415.901ZM507.896 430.298L506.904 430.419L507.896 430.298ZM315.613 215.85C315.198 216.214 314.566 216.171 314.202 215.755C313.839 215.339 313.882 214.708 314.298 214.344L315.613 215.85ZM331.783 200.397L332.769 200.233C332.826 200.575 332.702 200.922 332.441 201.15L331.783 200.397ZM292.822 161.704L292.075 161.04C292.243 160.852 292.475 160.733 292.725 160.709L292.822 161.704ZM279.774 177.874C279.407 178.287 278.775 178.324 278.362 177.957C277.95 177.59 277.913 176.958 278.28 176.545L279.774 177.874ZM160.724 248.741L160.03 248.022L160.724 248.741ZM149.382 260.319C148.93 260.637 148.306 260.529 147.988 260.077C147.67 259.626 147.779 259.002 148.23 258.684L149.382 260.319ZM198.681 612.007L199.052 612.936C198.954 612.975 198.851 612.998 198.746 613.005L198.681 612.007ZM199.213 342.248L198.245 342.497L199.213 342.248ZM327.515 187.293C327.135 187.694 326.502 187.712 326.101 187.332C325.7 186.953 325.682 186.32 326.062 185.919L327.515 187.293ZM300.319 163.626C299.912 163.999 299.279 163.971 298.907 163.564C298.534 163.156 298.562 162.524 298.969 162.151L300.319 163.626ZM312.681 232.374L313.63 232.69L312.681 232.374ZM255.681 180.089L256.132 180.982L255.681 180.089ZM302.373 190.277L301.646 190.964L302.373 190.277ZM309.195 167.779L309.747 166.945L309.195 167.779ZM294.641 183.678L294.078 184.504L294.641 183.678ZM325.124 183.678L325.961 183.132L325.124 183.678ZM330.084 193.729L331.03 193.402L330.084 193.729ZM142.059 42.569C145.868 41.6744 151.985 40.6027 157.99 40.2896C160.993 40.133 163.993 40.1646 166.677 40.512C169.344 40.8572 171.786 41.5249 173.605 42.7033L172.517 44.3817C171.062 43.4384 168.961 42.8243 166.42 42.4954C163.896 42.1687 161.025 42.134 158.094 42.2868C152.232 42.5925 146.235 43.6426 142.516 44.516L142.059 42.569ZM173.605 42.7033C174.553 43.3175 175.621 44.3885 176.756 45.7395C177.906 47.1073 179.178 48.8271 180.531 50.8009C183.238 54.7496 186.303 59.7662 189.401 65.1307C195.601 75.8625 201.97 88.043 205.942 95.9861L204.154 96.8808C200.193 88.9617 193.843 76.8184 187.669 66.1311C184.582 60.7861 181.547 55.8194 178.882 51.9317C177.549 49.9873 176.317 48.3256 175.225 47.0263C174.119 45.7101 173.207 44.8283 172.517 44.3817L173.605 42.7033ZM218.467 136.644C220.141 147.442 221.868 164.186 221.761 179.675C221.708 187.417 221.196 194.88 219.978 201.144C218.769 207.367 216.831 212.58 213.793 215.649L212.372 214.242C214.974 211.613 216.822 206.899 218.015 200.762C219.2 194.667 219.708 187.341 219.761 179.661C219.867 164.305 218.152 147.672 216.491 136.95L218.467 136.644ZM91.2311 175.929C85.8575 175.281 78.653 174.14 71.2867 172.53L71.7136 170.576C79.0132 172.171 86.1548 173.302 91.4708 173.944L91.2311 175.929ZM71.2867 172.53C63.7304 170.879 55.9611 168.726 49.8155 166.087C46.744 164.769 44.0396 163.313 41.9623 161.712C39.8971 160.12 38.3562 158.311 37.7839 156.262L39.7103 155.724C40.1168 157.18 41.2769 158.658 43.1832 160.127C45.0774 161.587 47.615 162.966 50.6046 164.25C56.581 166.816 64.2094 168.937 71.7136 170.576L71.2867 172.53ZM37.7839 156.262C36.4799 151.59 35.6806 145.55 35.5435 139.683L37.543 139.636C37.6771 145.377 38.4606 151.247 39.7103 155.724L37.7839 156.262ZM35.5435 139.683C35.417 134.266 35.8529 128.915 37.0239 124.882C37.6083 122.869 38.3962 121.111 39.4483 119.838C40.5186 118.543 41.9016 117.711 43.5982 117.711V119.711C42.6382 119.711 41.7797 120.157 40.9899 121.112C40.1819 122.09 39.4911 123.557 38.9446 125.439C37.8538 129.197 37.4188 134.32 37.543 139.636L35.5435 139.683ZM43.5982 117.711C45.3403 117.711 48.4065 118.153 52.1479 118.838C55.9193 119.529 60.4613 120.484 65.2026 121.543C74.6865 123.661 84.998 126.202 91.5995 127.897L91.1024 129.834C84.515 128.143 74.2246 125.607 64.7666 123.495C60.037 122.439 55.523 121.49 51.7876 120.806C48.0221 120.116 45.1306 119.711 43.5982 119.711V117.711ZM90.3511 128.88C90.299 125.391 90.9046 119.905 92.8954 114.694C94.8842 109.49 98.3136 104.419 104.001 102.028L104.776 103.872C99.7905 105.967 96.6508 110.469 94.7637 115.408C92.8787 120.342 92.3018 125.57 92.3509 128.85L90.3511 128.88ZM104.001 102.028C107.488 100.562 111.2 100.061 114.785 99.7979C118.434 99.5304 121.833 99.5106 125.011 99.0434C128.145 98.5827 130.846 97.7067 132.979 95.8456C135.102 93.994 136.784 91.0617 137.665 86.2509L139.633 86.6114C138.695 91.7271 136.852 95.122 134.294 97.3528C131.747 99.5741 128.611 100.536 125.302 101.022C122.038 101.502 118.388 101.539 114.931 101.793C111.41 102.051 107.959 102.534 104.776 103.872L104.001 102.028ZM137.665 86.2509C140.561 70.4519 141.287 51.1912 141.287 43.5425H143.287C143.287 51.2508 142.558 70.6455 139.633 86.6114L137.665 86.2509ZM204.063 96.6082C202.327 86.8214 198.845 71.7929 194.053 58.5335C191.656 51.9018 188.944 45.7482 185.978 40.9229C182.99 36.0622 179.839 32.7094 176.634 31.4388L177.371 29.5795C181.2 31.0974 184.637 34.9231 187.681 39.8755C190.748 44.8634 193.514 51.1578 195.934 57.8537C200.775 71.2494 204.282 86.3945 206.033 96.2588L204.063 96.6082ZM176.634 31.4388C174.562 30.6175 171.007 29.8901 166.266 29.2874C161.552 28.6882 155.748 28.2216 149.231 27.892C136.199 27.2329 120.361 27.1239 104.778 27.5874C89.192 28.0509 73.8858 29.0865 61.9124 30.7115C55.9226 31.5245 50.7945 32.4814 46.8923 33.579C44.9407 34.128 43.3199 34.7055 42.0611 35.3061C40.7853 35.9148 39.9636 36.509 39.5228 37.0507L37.9714 35.7885C38.6866 34.9095 39.819 34.1599 41.1999 33.501C42.5978 32.834 44.3363 32.2204 46.3507 31.6537C50.3807 30.5201 55.612 29.5483 61.6434 28.7297C73.7122 27.0917 89.0947 26.0529 104.719 25.5882C120.345 25.1235 136.238 25.2323 149.332 25.8945C155.879 26.2256 161.737 26.6956 166.519 27.3034C171.273 27.9078 175.047 28.658 177.371 29.5795L176.634 31.4388ZM39.5228 37.0507C39.0385 37.646 38.4652 38.6979 37.8215 40.2337C37.1858 41.7501 36.5093 43.6691 35.7976 45.9446C34.3746 50.4946 32.8288 56.4115 31.1999 63.2645C27.9426 76.9683 24.3692 94.347 20.7966 111.883C17.2257 129.41 13.6558 147.093 10.4099 161.379C8.78705 168.521 7.24225 174.828 5.81598 179.848C4.39954 184.833 3.07318 188.651 1.86603 190.743L0.133789 189.743C1.20056 187.895 2.47034 184.305 3.89215 179.301C5.30414 174.331 6.83978 168.065 8.45966 160.936C11.6992 146.678 15.2637 129.021 18.8368 111.484C22.4081 93.9545 25.988 76.543 29.2541 62.802C30.8869 55.9326 32.4452 49.9634 33.8888 45.3476C34.6105 43.0402 35.308 41.0564 35.977 39.4605C36.6378 37.8839 37.2998 36.614 37.9714 35.7885L39.5228 37.0507ZM0.575562 189.338L15.1286 182.518L15.9773 184.329L1.42426 191.149L0.575562 189.338ZM16.4061 182.902L23.0764 193.813L21.3699 194.856L14.6997 183.945L16.4061 182.902ZM21.4445 193.707L30.2371 182.796L31.7944 184.051L23.0018 194.962L21.4445 193.707ZM31.8209 182.83L41.9779 196.621L40.3675 197.807L30.2105 184.016L31.8209 182.83ZM40.3045 196.718L48.1875 182.927L49.9239 183.92L42.0409 197.711L40.3045 196.718ZM49.9239 182.927L57.8069 196.718L56.0705 197.711L48.1875 183.92L49.9239 182.927ZM56.1643 196.582L64.9569 185.822L66.5056 187.087L57.713 197.847L56.1643 196.582ZM66.5865 185.936L73.1051 196.696L71.3946 197.732L64.8759 186.972L66.5865 185.936ZM71.5487 196.501L80.7961 187.408L82.1984 188.834L72.951 197.927L71.5487 196.501ZM82.278 187.497L89.5546 196.59L87.9931 197.839L80.7165 188.746L82.278 187.497ZM103.425 210.363C100.997 201.615 98.4754 194.243 96.2591 188.48L98.1258 187.762C100.364 193.583 102.906 201.016 105.352 209.829L103.425 210.363ZM96.2591 188.48C93.7289 181.902 91.604 177.44 90.4779 175.424L92.224 174.449C93.4131 176.577 95.5767 181.135 98.1258 187.762L96.2591 188.48ZM88.04 196.535L96.4586 187.442L97.9262 188.801L89.5076 197.894L88.04 196.535ZM48.1005 129.718L89.0314 140.629L88.5163 142.562L47.5853 131.65L48.1005 129.718ZM89.4076 142.369L78.4926 151.31L77.2252 149.763L88.1401 140.822L89.4076 142.369ZM78.4978 149.768L88.3516 157.951L87.0738 159.49L77.22 151.306L78.4978 149.768ZM46.6966 141.531L36.4582 140.656L36.6284 138.663L46.8669 139.538L46.6966 141.531ZM36.4582 140.656L28.9599 140.015L29.1301 138.023L36.6284 138.663L36.4582 140.656ZM74.2974 160.855L72.4865 171.718L70.5137 171.389L72.3246 160.526L74.2974 160.855ZM72.4865 171.718L71.2655 179.041L69.2927 178.712L70.5137 171.389L72.4865 171.718ZM207.615 149.159L183.208 161.283L182.318 159.492L206.725 147.368L207.615 149.159ZM114.065 126.978L91.4774 129.857L91.2245 127.873L113.812 124.994L114.065 126.978ZM114.908 125.738L123.7 160.14L121.762 160.635L112.97 126.233L114.908 125.738ZM122.506 159.413L174.958 147.289L175.409 149.238L122.957 161.362L122.506 159.413ZM173.314 111.524L114.191 126.953L113.686 125.018L172.809 109.589L173.314 111.524ZM174.185 148.32L172.063 110.613L174.06 110.501L176.182 148.207L174.185 148.32ZM228.146 96.171L237.545 130.724L235.615 131.249L226.216 96.6959L228.146 96.171ZM173.87 100.846L179.453 108.511L177.836 109.689L172.253 102.023L173.87 100.846ZM179.453 108.511L203.011 140.855L201.395 142.033L177.836 109.689L179.453 108.511ZM203.011 140.855L207.979 147.675L206.362 148.852L201.395 142.033L203.011 140.855ZM236.871 131.944L217.77 137.754L217.188 135.84L236.289 130.03L236.871 131.944ZM217.77 137.754L202.494 142.401L201.912 140.487L217.188 135.84L217.77 137.754ZM227.434 97.401L207.423 102.623L206.918 100.688L226.929 95.4659L227.434 97.401ZM207.423 102.623L178.897 110.067L178.392 108.132L206.918 100.688L207.423 102.623ZM178.897 110.067L173.314 111.524L172.809 109.589L178.392 108.132L178.897 110.067ZM205.974 96.0569L208.097 101.279L206.244 102.032L204.122 96.81L205.974 96.0569ZM153.764 103.916L136.785 108.463L136.268 106.531L153.247 101.984L153.764 103.916ZM184.652 94.0973L196.628 91.2178L197.096 93.1624L185.12 96.0419L184.652 94.0973ZM188.676 185.636H180.489V183.636H188.676V185.636ZM68.1391 243.674L78.5992 255.192L77.1186 256.537L66.6585 245.019L68.1391 243.674ZM213.793 215.649C211.522 217.945 207.592 219.909 202.684 221.546C197.744 223.195 191.686 224.553 185.037 225.568L184.735 223.591C191.31 222.588 197.25 221.251 202.051 219.649C206.886 218.036 210.442 216.192 212.372 214.242L213.793 215.649ZM185.037 225.568C169.379 227.958 150.301 228.464 134.534 226.295C126.655 225.211 119.546 223.452 114.09 220.89C108.659 218.338 104.684 214.901 103.425 210.363L105.352 209.829C106.381 213.536 109.718 216.626 114.941 219.079C120.14 221.522 127.028 223.244 134.807 224.314C150.357 226.453 169.239 225.956 184.735 223.591L185.037 225.568ZM152.839 264.491C141.361 254.239 127.505 248.395 112.662 248.026C97.8184 247.657 81.9114 252.762 66.3344 264.542L65.128 262.947C81.0122 250.934 97.3528 245.645 112.711 246.026C128.07 246.408 142.371 252.46 154.171 262.999L152.839 264.491ZM98.1452 188.425C96.5872 193.315 93.5294 201.374 89.1975 210.524L87.3899 209.668C91.6878 200.59 94.7114 192.614 96.2396 187.818L98.1452 188.425ZM89.1975 210.524C83.9511 221.605 76.8141 234.332 68.1753 244.977L66.6223 243.716C75.124 233.241 82.1817 220.669 87.3899 209.668L89.1975 210.524ZM88.2114 211.093C55.3728 208.381 25.6662 218.838 11.7557 235.774C4.82977 244.207 1.81757 254.234 4.21436 265.121C6.61914 276.045 14.5013 287.978 29.6691 300.093L28.4209 301.656C13.0421 289.372 4.79828 277.076 2.26117 265.551C-0.283936 253.99 2.94617 243.349 10.2102 234.505C24.6797 216.888 55.1441 206.355 88.376 209.099L88.2114 211.093ZM49.5657 282.943C43.9422 286.277 39.2103 292.139 35.2662 300.046C31.3256 307.947 28.2085 317.814 25.775 329.053C20.9078 351.531 18.8051 379.346 18.2347 407.537C17.094 463.915 22.0823 521.589 23.2214 540.719L21.2249 540.838C20.09 521.777 15.0923 463.979 16.2352 407.496C16.8065 379.256 18.913 351.293 23.8203 328.63C26.2739 317.299 29.4352 307.256 33.4765 299.154C37.5144 291.058 42.468 284.826 48.5456 281.222L49.5657 282.943ZM23.2214 540.719C24.3636 559.901 22.6883 580.77 20.7335 596.821C19.7554 604.852 18.7062 611.686 17.9013 616.514C17.4988 618.928 17.1573 620.841 16.9163 622.152C16.7958 622.807 16.7004 623.311 16.6349 623.653C16.6023 623.823 16.5771 623.953 16.56 624.041C16.5515 624.084 16.545 624.118 16.5406 624.14C16.5384 624.151 16.5367 624.16 16.5356 624.165C16.535 624.168 16.5345 624.17 16.5342 624.172C16.5341 624.173 16.534 624.173 16.5339 624.174C16.5338 624.174 16.5338 624.174 15.5529 623.979C14.5721 623.785 14.5721 623.784 14.5722 623.784C14.5723 623.784 14.5723 623.784 14.5724 623.783C14.5727 623.782 14.5731 623.78 14.5736 623.777C14.5746 623.772 14.5762 623.764 14.5782 623.753C14.5825 623.732 14.5887 623.7 14.597 623.658C14.6137 623.572 14.6384 623.445 14.6707 623.276C14.7352 622.94 14.8297 622.44 14.9493 621.79C15.1885 620.49 15.5281 618.588 15.9285 616.185C16.7296 611.381 17.7743 604.576 18.7481 596.58C20.6968 580.578 22.3567 559.846 21.2249 540.838L23.2214 540.719ZM69.6049 304.228C79.7499 294.966 107.4 282.094 137.123 304.164L135.93 305.769C107.198 284.435 80.6169 296.882 70.9534 305.705L69.6049 304.228ZM264.382 422.938C302.945 419.392 348.283 400.146 388.152 385.43C408.037 378.09 426.572 371.876 442.131 369.389C457.644 366.91 470.519 368.081 478.762 375.925L477.383 377.374C469.86 370.215 457.836 368.904 442.447 371.364C427.103 373.817 408.735 379.964 388.845 387.306C349.164 401.953 303.468 421.352 264.565 424.929L264.382 422.938ZM487.337 480.637C478.256 487.876 461.907 497.095 441.283 506.398C420.641 515.709 395.654 525.131 369.258 532.76C342.864 540.388 315.04 546.23 288.727 548.368C262.425 550.505 237.568 548.947 217.145 541.721L217.812 539.836C237.866 546.931 262.41 548.499 288.565 546.374C314.709 544.25 342.398 538.441 368.703 530.838C395.005 523.236 419.903 513.847 440.461 504.575C461.039 495.293 477.207 486.156 486.09 479.073L487.337 480.637ZM217.145 541.721C176.424 527.313 136.148 492.224 106.077 455.425C91.0323 437.014 78.5134 418.14 69.7505 401.155C61.0054 384.204 55.9387 369.015 55.9387 358.009H57.9387C57.9387 368.523 62.8204 383.36 71.5279 400.238C80.2174 417.081 92.655 435.839 107.626 454.16C137.588 490.825 177.582 525.601 217.812 539.836L217.145 541.721ZM312.176 150.257C313.576 145.458 316.381 133.04 316.381 121.894H318.381C318.381 133.298 315.526 145.917 314.096 150.817L312.176 150.257ZM316.381 121.894C316.381 114.976 315.623 104.429 316.156 95.8224C316.422 91.5068 317.017 87.525 318.251 84.613C318.871 83.1501 319.679 81.8934 320.747 81.0083C321.837 80.1056 323.154 79.6277 324.687 79.6727L324.628 81.6719C323.584 81.6412 322.741 81.9541 322.023 82.5485C321.284 83.1607 320.638 84.1073 320.092 85.3936C318.996 87.98 318.416 91.68 318.152 95.9459C317.623 104.502 318.381 114.718 318.381 121.894H316.381ZM324.687 79.6727C326.913 79.7382 328.643 81.0769 329.955 82.9727C331.262 84.8611 332.247 87.4235 332.997 90.2596C334.502 95.9438 335.139 103.025 335.35 108.824L333.352 108.897C333.142 103.15 332.512 96.2419 331.064 90.7712C330.338 88.0298 329.426 85.7233 328.31 84.1108C327.2 82.5057 325.981 81.7117 324.628 81.6719L324.687 79.6727ZM335.35 108.824C335.536 113.918 335.396 118.124 335.199 119.601L333.217 119.337C333.391 118.035 333.537 113.968 333.352 108.897L335.35 108.824ZM333.435 108.461C335.438 103.868 339.233 97.1538 344.14 91.9192C349.01 86.7241 355.229 82.7277 362.017 84.2428L361.581 86.1948C355.877 84.9214 350.344 88.2247 345.599 93.287C340.891 98.3098 337.209 104.811 335.268 109.26L333.435 108.461ZM358.731 104.464C357.344 105.104 355.939 106.369 354.719 107.771C353.511 109.158 352.557 110.596 352.057 111.476L350.317 110.489C350.879 109.5 351.91 107.952 353.211 106.457C354.5 104.977 356.127 103.463 357.893 102.648L358.731 104.464ZM362.017 84.2428C367.425 85.4501 372.695 88.4626 377 92.1724C381.3 95.8782 384.719 100.35 386.355 104.558L384.491 105.283C383.004 101.459 379.82 97.2431 375.694 93.6875C371.573 90.1359 366.592 87.3134 361.581 86.1948L362.017 84.2428ZM386.355 104.558C387.977 108.731 387.933 112.957 384.732 115.684L383.435 114.161C385.681 112.249 385.982 109.119 384.491 105.283L386.355 104.558ZM384.732 115.684C382.616 117.485 380.181 117.708 377.769 117.068C375.406 116.441 373.003 114.977 370.756 113.32L371.943 111.71C374.134 113.327 376.291 114.606 378.281 115.135C380.222 115.65 381.935 115.439 383.435 114.161L384.732 115.684ZM370.756 113.32C367.937 111.241 365.124 108.664 362.922 106.88C361.787 105.961 360.816 105.25 360.021 104.83C359.159 104.374 358.814 104.426 358.731 104.464L357.893 102.648C358.91 102.179 360.044 102.579 360.956 103.062C361.935 103.579 363.033 104.396 364.181 105.326C366.545 107.241 369.15 109.65 371.943 111.71L370.756 113.32ZM385.082 114.879C385.246 118.625 385.03 124.429 383.758 129.126L381.828 128.604C383.024 124.183 383.244 118.607 383.084 114.966L385.082 114.879ZM383.758 129.126C383.203 131.178 382.428 133.092 381.339 134.535C380.237 135.997 378.763 137.033 376.862 137.138L376.751 135.141C377.904 135.077 378.885 134.468 379.742 133.331C380.614 132.176 381.305 130.537 381.828 128.604L383.758 129.126ZM382.061 128.184C385.347 124.649 387.97 122.894 390.267 122.323C392.639 121.734 394.487 122.45 396.061 123.368C396.812 123.806 397.586 124.345 398.253 124.77C398.955 125.218 399.618 125.597 400.308 125.848C401.61 126.321 403.127 126.39 405.275 125.194L406.248 126.942C403.62 128.404 401.5 128.409 399.625 127.727C398.726 127.4 397.917 126.928 397.177 126.456C396.403 125.962 395.766 125.512 395.053 125.096C393.699 124.306 392.406 123.853 390.749 124.264C389.016 124.695 386.72 126.11 383.525 129.546L382.061 128.184ZM405.275 125.194C406.259 124.646 406.809 123.926 407.068 123.098C407.335 122.244 407.317 121.189 406.993 119.967C406.341 117.508 404.517 114.634 402.04 112.03C399.572 109.436 396.544 107.202 393.598 105.97C390.627 104.728 387.937 104.575 385.938 105.777L384.907 104.063C387.696 102.386 391.136 102.773 394.369 104.125C397.626 105.487 400.875 107.904 403.489 110.651C406.093 113.389 408.156 116.55 408.926 119.454C409.313 120.914 409.39 122.373 408.977 123.695C408.556 125.043 407.651 126.16 406.248 126.942L405.275 125.194ZM370.124 114.845C370.191 113.976 370.27 113.156 370.356 112.402L372.343 112.628C372.26 113.357 372.184 114.154 372.118 115L370.124 114.845ZM371.822 115.636L367.199 120.182L365.797 118.756L370.419 114.21L371.822 115.636ZM370.125 126.164C369.762 122.391 369.859 118.234 370.124 114.845L372.118 115C371.859 118.318 371.768 122.352 372.116 125.972L370.125 126.164ZM346.507 108.369C352.176 110.3 356.423 112.238 360.313 114.871C364.198 117.503 367.684 120.799 371.861 125.395L370.381 126.74C366.252 122.197 362.888 119.031 359.191 116.528C355.498 114.027 351.43 112.158 345.862 110.262L346.507 108.369ZM335.199 119.601C335.018 120.96 335.473 122.638 336.392 124.721C337.309 126.8 338.571 129.046 339.864 131.6C342.399 136.608 344.924 142.567 343.835 149.036L341.863 148.704C342.836 142.927 340.601 137.485 338.08 132.504C336.845 130.064 335.505 127.668 334.562 125.528C333.621 123.394 332.958 121.278 333.217 119.337L335.199 119.601ZM376.862 137.138C375.662 137.205 374.618 136.833 373.752 136.134L375.01 134.578C375.507 134.98 376.068 135.179 376.751 135.141L376.862 137.138ZM373.752 136.134C372.579 135.185 371.785 133.679 371.234 131.99C370.676 130.28 370.327 128.265 370.125 126.164L372.116 125.972C372.31 127.992 372.639 129.85 373.135 131.369C373.637 132.907 374.275 133.984 375.01 134.578L373.752 136.134ZM375.32 135.702C373.382 140.959 369.763 149.092 365.183 156.444C362.892 160.12 360.347 163.624 357.634 166.481C354.93 169.329 352.007 171.59 348.95 172.694L348.27 170.813C350.916 169.857 353.586 167.84 356.184 165.104C358.774 162.377 361.239 158.992 363.485 155.386C367.98 148.173 371.543 140.168 373.443 135.01L375.32 135.702ZM509.155 441.744C508.022 455.957 501.299 469.506 487.337 480.637L486.09 479.073C499.642 468.27 506.075 455.219 507.161 441.585L509.155 441.744ZM478.762 375.925C482.183 379.18 485.388 382.606 488.341 386.165L486.801 387.442C483.9 383.945 480.748 380.577 477.383 377.374L478.762 375.925ZM538.887 426.023L508.637 442.542L507.679 440.787L537.929 424.268L538.887 426.023ZM508.158 371.497C508.707 372.333 508.707 372.333 508.707 372.333C508.707 372.333 508.707 372.333 508.707 372.333C508.706 372.333 508.706 372.334 508.705 372.334C508.704 372.335 508.703 372.336 508.7 372.337C508.696 372.34 508.688 372.345 508.679 372.351C508.66 372.364 508.631 372.383 508.593 372.408C508.518 372.458 508.405 372.533 508.257 372.632C507.961 372.83 507.526 373.122 506.971 373.5C505.86 374.257 504.271 375.357 502.356 376.725C498.525 379.463 493.398 383.275 488.209 387.574L486.933 386.033C492.17 381.696 497.337 377.854 501.193 375.098C503.121 373.72 504.723 372.612 505.844 371.848C506.405 371.466 506.845 371.17 507.145 370.969C507.296 370.869 507.411 370.792 507.489 370.74C507.528 370.714 507.558 370.695 507.578 370.681C507.588 370.675 507.596 370.67 507.601 370.666C507.604 370.665 507.606 370.663 507.607 370.662C507.608 370.662 507.608 370.662 507.609 370.661C507.609 370.661 507.609 370.661 507.609 370.661C507.609 370.661 507.609 370.661 508.158 371.497ZM529.258 395.395L502.715 411.004L501.701 409.28L528.244 393.671L529.258 395.395ZM517.85 381.002C516.643 379.822 515.251 378.579 513.883 377.41L515.183 375.89C516.569 377.075 517.997 378.35 519.248 379.572L517.85 381.002ZM513.883 377.41C512.255 376.017 510.671 374.737 509.494 373.805C508.906 373.339 508.42 372.96 508.081 372.699C507.912 372.568 507.779 372.466 507.69 372.397C507.645 372.363 507.611 372.337 507.588 372.32C507.576 372.311 507.568 372.304 507.562 372.3C507.559 372.298 507.557 372.296 507.556 372.295C507.555 372.295 507.554 372.294 507.554 372.294C507.554 372.294 507.554 372.294 507.554 372.294C507.554 372.294 507.554 372.294 507.554 372.294C507.554 372.294 507.554 372.294 508.158 371.497C508.762 370.7 508.762 370.7 508.762 370.7C508.762 370.7 508.762 370.7 508.763 370.7C508.763 370.7 508.763 370.701 508.763 370.701C508.763 370.701 508.764 370.702 508.765 370.702C508.767 370.703 508.769 370.705 508.772 370.708C508.778 370.712 508.787 370.719 508.799 370.728C508.824 370.747 508.859 370.774 508.905 370.809C508.997 370.88 509.132 370.983 509.304 371.116C509.648 371.382 510.14 371.765 510.736 372.237C511.926 373.179 513.53 374.476 515.183 375.89L513.883 377.41ZM488.341 386.165C490.04 388.213 491.655 390.306 493.18 392.435L491.553 393.599C490.057 391.509 488.471 389.455 486.801 387.442L488.341 386.165ZM515.127 377.454L492.96 393.822L491.772 392.213L513.939 375.845L515.127 377.454ZM527.861 394.989C526.131 391.616 524.063 388.511 521.257 385.026L522.814 383.772C525.689 387.34 527.837 390.559 529.641 394.076L527.861 394.989ZM493.18 392.435C495.077 395.086 496.834 397.794 498.435 400.546L496.706 401.552C495.138 398.856 493.416 396.201 491.553 393.599L493.18 392.435ZM498.435 400.546C500.191 403.564 501.76 406.635 503.124 409.74L501.292 410.544C499.961 407.512 498.426 404.508 496.706 401.552L498.435 400.546ZM522.598 385.226L498.133 401.876L497.008 400.223L521.473 383.572L522.598 385.226ZM532.602 407.107C532.425 406.541 532.249 405.99 532.073 405.451L533.974 404.831C534.153 405.377 534.331 405.937 534.511 406.509L532.602 407.107ZM532.073 405.451C530.746 401.385 529.439 398.065 527.861 394.989L529.641 394.076C531.282 397.276 532.627 400.702 533.974 404.831L532.073 405.451ZM503.124 409.74C504.437 412.732 505.56 415.755 506.475 418.796L504.56 419.372C503.669 416.414 502.575 413.466 501.292 410.544L503.124 409.74ZM533.476 406.033L505.969 419.976L505.065 418.192L532.572 404.249L533.476 406.033ZM534.521 406.545C535.143 408.824 536.071 412.319 536.949 415.646L535.015 416.156C534.137 412.829 533.211 409.342 532.592 407.071L534.521 406.545ZM536.949 415.646C537.581 418.042 538.188 420.354 538.636 422.067C538.861 422.923 539.045 423.63 539.174 424.122C539.238 424.368 539.289 424.561 539.323 424.692C539.34 424.758 539.353 424.808 539.362 424.842C539.367 424.859 539.37 424.872 539.372 424.88C539.373 424.884 539.374 424.888 539.375 424.89C539.375 424.891 539.375 424.892 539.375 424.892C539.375 424.893 539.375 424.893 539.375 424.893C539.376 424.893 539.376 424.893 539.376 424.893C539.376 424.893 539.376 424.893 538.408 425.146C537.44 425.398 537.44 425.398 537.44 425.398C537.44 425.398 537.44 425.398 537.44 425.398C537.44 425.398 537.44 425.398 537.44 425.397C537.44 425.397 537.44 425.396 537.44 425.395C537.439 425.393 537.438 425.39 537.437 425.385C537.435 425.377 537.431 425.364 537.427 425.347C537.418 425.313 537.405 425.263 537.388 425.198C537.354 425.067 537.303 424.874 537.239 424.628C537.11 424.136 536.926 423.429 536.702 422.574C536.253 420.862 535.647 418.551 535.015 416.156L536.949 415.646ZM506.475 418.796C507.612 422.575 508.428 426.38 508.889 430.178L506.904 430.419C506.458 426.742 505.666 423.049 504.56 419.372L506.475 418.796ZM508.889 430.178C509.359 434.052 509.46 437.919 509.155 441.744L507.161 441.585C507.455 437.901 507.359 434.168 506.904 430.419L508.889 430.178ZM536.438 416.791L508.353 431.188L507.44 429.409L535.526 415.011L536.438 416.791ZM314.298 214.344L331.125 199.644L332.441 201.15L315.613 215.85L314.298 214.344ZM293.569 162.369L279.774 177.874L278.28 176.545L292.075 161.04L293.569 162.369ZM185.602 225.277C179.653 231.391 169.603 241.561 161.419 249.461L160.03 248.022C168.192 240.143 178.227 229.989 184.169 223.882L185.602 225.277ZM161.419 249.461C156.137 254.559 151.559 258.785 149.382 260.319L148.23 258.684C150.252 257.26 154.706 253.161 160.03 248.022L161.419 249.461ZM137.123 304.164C143.491 308.892 149.143 315.722 154.517 323.691C159.892 331.662 165.031 340.839 170.341 350.292C180.99 369.245 192.342 389.315 207.849 403.622L206.492 405.092C190.712 390.532 179.214 370.166 168.598 351.271C163.276 341.799 158.179 332.699 152.859 324.809C147.536 316.916 142.033 310.301 135.93 305.769L137.123 304.164ZM207.849 403.622C222.212 416.876 240.125 425.168 264.382 422.938L264.565 424.929C239.665 427.219 221.209 418.672 206.492 405.092L207.849 403.622ZM218.433 540.48C221.599 550.615 228.181 562.247 228.181 579.424H226.181C226.181 562.653 219.827 551.653 216.524 541.077L218.433 540.48ZM228.181 579.424C228.181 588.302 223.214 595.746 217.177 601.39C211.132 607.041 203.895 611.004 199.052 612.936L198.311 611.078C202.967 609.221 209.98 605.38 215.811 599.929C221.648 594.472 226.181 587.519 226.181 579.424H228.181ZM161.581 248.225C172.321 266.043 189.947 302.165 200.182 341.999L198.245 342.497C188.066 302.88 170.525 266.937 159.868 249.258L161.581 248.225ZM200.182 341.999C205.435 362.446 208.749 383.903 208.17 404.386L206.171 404.329C206.743 384.089 203.467 362.825 198.245 342.497L200.182 341.999ZM348.95 172.694C339.714 176.032 331.834 182.741 327.578 187.226L326.128 185.849C330.496 181.245 338.628 174.298 348.27 170.813L348.95 172.694ZM327.578 187.226C327.557 187.248 327.536 187.27 327.515 187.293L326.062 185.919C326.083 185.896 326.105 185.873 326.128 185.849L327.578 187.226ZM313.812 151.274L300.319 163.626L298.969 162.151L312.461 149.799L313.812 151.274ZM193.982 320.425C193.53 319.532 193.53 319.532 193.531 319.532C193.532 319.531 193.533 319.531 193.535 319.53C193.538 319.528 193.542 319.526 193.549 319.523C193.562 319.516 193.581 319.507 193.606 319.493C193.658 319.467 193.734 319.428 193.836 319.377C194.038 319.273 194.34 319.119 194.734 318.916C195.521 318.511 196.679 317.911 198.157 317.136C201.113 315.585 205.35 313.331 210.47 310.521C220.71 304.901 234.478 297.059 248.592 288.17C262.711 279.277 277.154 269.35 288.757 259.561C294.559 254.667 299.634 249.82 303.599 245.168C307.572 240.507 310.388 236.091 311.733 232.058L313.63 232.69C312.17 237.068 309.173 241.712 305.121 246.466C301.062 251.229 295.899 256.152 290.047 261.09C278.342 270.964 263.812 280.947 249.658 289.862C235.499 298.779 221.695 306.642 211.432 312.275C206.3 315.091 202.052 317.351 199.086 318.907C197.604 319.685 196.441 320.287 195.649 320.694C195.253 320.898 194.95 321.054 194.745 321.158C194.643 321.21 194.565 321.25 194.513 321.276C194.487 321.29 194.467 321.3 194.454 321.306C194.447 321.31 194.442 321.312 194.439 321.314C194.437 321.315 194.435 321.316 194.435 321.316C194.434 321.316 194.433 321.317 193.982 320.425ZM256.132 180.982C240.835 188.704 231.724 193.807 226.445 196.973C223.806 198.556 222.128 199.653 221.116 200.349C220.61 200.697 220.271 200.945 220.062 201.102C219.958 201.18 219.887 201.236 219.843 201.271C219.821 201.288 219.807 201.3 219.798 201.307C219.794 201.31 219.792 201.312 219.791 201.313C219.79 201.314 219.79 201.314 219.79 201.314C219.791 201.313 219.791 201.313 219.791 201.313C219.791 201.313 219.792 201.313 219.792 201.312C219.792 201.312 219.792 201.312 219.147 200.548C218.501 199.785 218.501 199.785 218.502 199.784C218.502 199.784 218.502 199.784 218.503 199.783C218.503 199.783 218.504 199.782 218.505 199.781C218.507 199.78 218.509 199.778 218.511 199.776C218.516 199.772 218.523 199.767 218.531 199.76C218.547 199.747 218.569 199.729 218.598 199.706C218.656 199.66 218.741 199.593 218.859 199.505C219.093 199.328 219.455 199.064 219.982 198.701C221.035 197.977 222.749 196.858 225.416 195.258C230.749 192.059 239.905 186.933 255.231 179.196L256.132 180.982ZM198.746 613.005L15.6182 624.977L15.4877 622.982L198.616 611.009L198.746 613.005ZM318.109 175.044L303.1 190.963L301.645 189.591L316.653 173.672L318.109 175.044ZM300.783 164.391C297.527 163.064 294.782 162.518 292.919 162.7L292.725 160.709C295.06 160.481 298.161 161.163 301.538 162.539L300.783 164.391ZM286.259 180.255C276.78 176.312 266.073 175.964 256.132 180.982L255.231 179.196C265.762 173.88 277.085 174.273 287.027 178.408L286.259 180.255ZM301.898 164.14L287.381 180.006L285.905 178.656L300.422 162.79L301.898 164.14ZM316.686 175.078C314.088 172.568 311.346 170.402 308.643 168.613L309.747 166.945C312.549 168.8 315.386 171.042 318.076 173.639L316.686 175.078ZM308.643 168.613C305.913 166.806 303.23 165.388 300.783 164.391L301.538 162.539C304.12 163.591 306.919 165.073 309.747 166.945L308.643 168.613ZM301.646 190.964C299.354 188.54 296.809 186.367 294.078 184.504L295.205 182.852C298.056 184.796 300.71 187.063 303.1 189.59L301.646 190.964ZM294.078 184.504C291.607 182.819 288.984 181.388 286.259 180.255L287.027 178.408C289.883 179.596 292.625 181.093 295.205 182.852L294.078 184.504ZM309.932 168.454L295.379 184.353L293.904 183.003L308.457 167.104L309.932 168.454ZM325.98 187.025C325.445 186.068 324.88 185.134 324.286 184.224L325.961 183.132C326.579 184.078 327.169 185.051 327.726 186.05L325.98 187.025ZM324.286 184.224C322.064 180.818 319.459 177.755 316.686 175.078L318.076 173.639C320.945 176.409 323.649 179.587 325.961 183.132L324.286 184.224ZM308.323 200.009C306.481 196.734 304.224 193.691 301.646 190.964L303.1 189.59C305.787 192.432 308.142 195.607 310.066 199.028L308.323 200.009ZM325.829 184.387L309.9 200.227L308.49 198.809L324.419 182.969L325.829 184.387ZM330.796 200.561C330.422 198.312 329.859 196.141 329.139 194.055L331.03 193.402C331.784 195.59 332.375 197.869 332.769 200.233L330.796 200.561ZM329.139 194.055C328.289 191.592 327.219 189.245 325.98 187.025L327.726 186.05C329.019 188.366 330.138 190.82 331.03 193.402L329.139 194.055ZM311.733 232.058C314.339 224.24 314.243 216.399 312.175 209.183L314.098 208.632C316.269 216.208 316.373 224.463 313.63 232.69L311.733 232.058ZM312.175 209.183C311.258 205.984 309.953 202.906 308.323 200.009L310.066 199.028C311.769 202.055 313.136 205.277 314.098 208.632L312.175 209.183ZM330.751 194.474L313.803 209.653L312.469 208.163L329.417 192.984L330.751 194.474ZM519.312 379.64L522.798 383.752L521.273 385.046L517.786 380.934L519.312 379.64Z" fill="black"/>
<path d="M619.406 371.344C619.219 370.824 619.489 370.251 620.009 370.064C620.528 369.877 621.101 370.147 621.288 370.667L619.406 371.344ZM595.642 383.11C595.109 383.258 594.558 382.946 594.41 382.414C594.262 381.882 594.574 381.331 595.106 381.183L595.642 383.11ZM624.192 351.682C623.958 351.181 624.174 350.586 624.674 350.352C625.174 350.118 625.769 350.334 626.003 350.834L624.192 351.682ZM594.004 368.53C593.472 368.677 592.921 368.365 592.773 367.833C592.626 367.301 592.938 366.75 593.47 366.602L594.004 368.53ZM625.984 347.574L626.88 348.018L625.984 347.574ZM539.863 357.568L540.774 357.981L540.753 358.028L540.727 358.072L539.863 357.568ZM522.242 382.161C521.843 382.543 521.21 382.529 520.828 382.13C520.446 381.731 520.46 381.098 520.86 380.716L522.242 382.161ZM612.338 339.458L613.117 340.086L612.338 339.458ZM608.3 343.32L608.878 344.136L608.878 344.136L608.3 343.32ZM534.306 408.897C533.891 409.261 533.259 409.22 532.895 408.805C532.53 408.39 532.572 407.758 532.987 407.394L534.306 408.897ZM564.683 397.506C573.902 398.038 589.302 395.674 601.579 390.947C607.721 388.583 612.976 385.667 616.286 382.312C619.563 378.991 620.849 375.354 619.406 371.344L621.288 370.667C623.069 375.616 621.346 380.032 617.71 383.717C614.108 387.367 608.546 390.408 602.297 392.814C589.792 397.628 574.108 400.053 564.567 399.502L564.683 397.506ZM595.106 381.183C601.553 379.392 610.72 375.72 617.317 370.564C620.614 367.987 623.2 365.093 624.526 361.946C625.835 358.838 625.944 355.427 624.192 351.682L626.003 350.834C627.999 355.099 627.895 359.101 626.369 362.722C624.861 366.302 621.991 369.45 618.549 372.14C611.668 377.518 602.226 381.28 595.642 383.11L595.106 381.183ZM593.47 366.602C597.726 365.422 604.445 363.013 610.716 359.636C617.031 356.236 622.692 351.96 625.088 347.129L626.88 348.018C624.191 353.438 618.044 357.962 611.664 361.397C605.24 364.856 598.379 367.317 594.004 368.53L593.47 366.602ZM625.088 347.129C628.232 340.792 630.278 334.294 630.651 329.22C630.838 326.678 630.598 324.581 629.941 323.053C629.303 321.569 628.28 320.625 626.785 320.266L627.253 318.321C629.442 318.848 630.927 320.281 631.779 322.263C632.612 324.203 632.844 326.662 632.646 329.367C632.248 334.786 630.092 341.542 626.88 348.018L625.088 347.129ZM566.964 356.441C566.692 355.267 566.832 353.994 567.198 352.714C567.564 351.428 568.178 350.068 568.93 348.683C570.43 345.92 572.555 342.926 574.591 340.068C576.65 337.179 578.609 334.44 579.871 332.099C580.501 330.929 580.925 329.916 581.11 329.076C581.295 328.233 581.214 327.689 581.006 327.335L582.729 326.321C583.295 327.283 583.305 328.408 583.063 329.506C582.82 330.608 582.299 331.809 581.631 333.048C580.297 335.524 578.251 338.379 576.22 341.229C574.167 344.11 572.118 347.001 570.688 349.637C569.974 350.953 569.432 352.17 569.121 353.263C568.808 354.36 568.745 355.265 568.913 355.99L566.964 356.441ZM581.006 327.335C580.903 327.16 580.574 326.884 579.529 326.916C578.526 326.945 577.148 327.262 575.46 327.878C572.101 329.103 567.769 331.417 563.25 334.463C554.185 340.576 544.643 349.449 540.774 357.981L538.953 357.155C543.052 348.117 552.963 338.987 562.132 332.805C566.732 329.704 571.213 327.298 574.775 325.999C576.547 325.352 578.157 324.955 579.47 324.916C580.742 324.879 582.057 325.179 582.729 326.321L581.006 327.335ZM626.785 320.266C625.638 319.99 624.706 320.336 623.749 321.31C622.74 322.335 621.805 323.97 620.792 326.053C618.819 330.111 616.644 335.712 613.117 340.086L611.56 338.831C614.898 334.691 616.916 329.453 618.994 325.178C620.007 323.095 621.061 321.19 622.323 319.907C623.636 318.572 625.254 317.84 627.253 318.321L626.785 320.266ZM613.117 340.086C611.898 341.598 610.503 342.986 608.878 344.136L607.722 342.503C609.169 341.48 610.432 340.229 611.56 338.831L613.117 340.086ZM608.878 344.136C605.663 346.411 600.875 349.176 595.712 351.723L594.827 349.93C599.933 347.41 604.622 344.698 607.722 342.503L608.878 344.136ZM612.013 340.404C604.523 337.827 598.582 337.332 594.876 338.212C593.026 338.651 591.851 339.402 591.245 340.277C590.666 341.113 590.495 342.225 590.996 343.687L589.104 344.335C588.444 342.408 588.585 340.605 589.601 339.138C590.591 337.71 592.294 336.769 594.414 336.266C598.648 335.261 605.011 335.879 612.664 338.513L612.013 340.404ZM590.996 343.687C591.595 345.438 593.141 347.608 595.932 350.078L594.607 351.576C591.694 348.999 589.863 346.552 589.104 344.335L590.996 343.687ZM595.712 351.723C593.176 352.975 590.542 354.178 587.951 355.248L587.187 353.399C589.733 352.348 592.326 351.164 594.827 349.93L595.712 351.723ZM587.951 355.248C583.103 357.249 578.346 358.81 574.64 359.327C572.797 359.584 571.112 359.6 569.779 359.21C568.393 358.806 567.309 357.928 566.964 356.441L568.913 355.99C569.054 356.601 569.461 357.034 570.34 357.291C571.271 357.563 572.625 357.589 574.363 357.346C577.817 356.864 582.389 355.38 587.187 353.399L587.951 355.248ZM590.8 344.673C588.974 346.743 587.873 348.183 587.459 349.52C587.085 350.728 587.246 351.976 588.409 353.782L586.728 354.865C585.352 352.73 584.949 350.868 585.549 348.929C586.109 347.118 587.517 345.372 589.299 343.35L590.8 344.673ZM564.567 399.502C555.394 398.973 547.816 401.33 542.527 403.823C539.884 405.069 537.817 406.348 536.415 407.311C535.714 407.792 535.181 408.194 534.825 408.473C534.648 408.612 534.515 408.721 534.428 408.794C534.384 408.83 534.352 408.857 534.332 408.874C534.322 408.883 534.314 408.889 534.31 408.893C534.308 408.895 534.306 408.896 534.306 408.897C534.305 408.897 534.305 408.897 534.305 408.897C534.305 408.897 534.305 408.897 534.305 408.897C534.306 408.897 534.306 408.897 533.646 408.145C532.987 407.394 532.987 407.393 532.987 407.393C532.988 407.393 532.988 407.392 532.988 407.392C532.989 407.391 532.99 407.39 532.991 407.389C532.994 407.387 532.997 407.385 533 407.382C533.008 407.375 533.019 407.366 533.032 407.354C533.059 407.331 533.098 407.298 533.148 407.256C533.25 407.172 533.397 407.052 533.59 406.9C533.977 406.597 534.544 406.169 535.282 405.662C536.758 404.648 538.919 403.313 541.675 402.014C547.185 399.416 555.097 396.952 564.683 397.506L564.567 399.502ZM540.727 358.072C537.91 362.901 530.276 374.48 522.242 382.161L520.86 380.716C528.698 373.222 536.222 361.826 539 357.064L540.727 358.072Z" fill="black"/>
<path d="M70.257 304.997C80.1632 295.952 107.284 283.288 136.517 304.997" stroke="white" stroke-width="2" stroke-linecap="round" stroke-linejoin="round"/>
<path d="M405.049 41.1241L397.146 2.20348M394.853 46.9488L369.18 15.2571M382.927 56.2813L345.388 39.3291" stroke="black" stroke-width="2" stroke-linecap="round" stroke-linejoin="round"/>
<path d="M670.133 242.932L709.735 239.942M667.304 254.329L704.788 270.406M661.571 268.346L688.101 299.852" stroke="black" stroke-width="2" stroke-linecap="round" stroke-linejoin="round"/>
<path d="M247.774 10.115C247.774 9.56271 248.222 9.11499 248.774 9.11499C249.326 9.11499 249.774 9.56271 249.774 10.115H247.774ZM249.774 20.4895C249.774 21.0418 249.326 21.4895 248.774 21.4895C248.222 21.4895 247.774 21.0418 247.774 20.4895H249.774ZM247.774 29.8379C247.774 29.2856 248.222 28.8379 248.774 28.8379C249.326 28.8379 249.774 29.2856 249.774 29.8379H247.774ZM249.774 40.2124C249.774 40.7647 249.326 41.2124 248.774 41.2124C248.222 41.2124 247.774 40.7647 247.774 40.2124H249.774ZM238.856 26.0497C238.303 26.0497 237.856 25.602 237.856 25.0497C237.856 24.4974 238.303 24.0497 238.856 24.0497V26.0497ZM245.062 24.0497C245.614 24.0497 246.062 24.4974 246.062 25.0497C246.062 25.602 245.614 26.0497 245.062 26.0497V24.0497ZM252.486 26.0497C251.934 26.0497 251.486 25.602 251.486 25.0497C251.486 24.4974 251.934 24.0497 252.486 24.0497V26.0497ZM258.693 24.0497C259.245 24.0497 259.693 24.4974 259.693 25.0497C259.693 25.602 259.245 26.0497 258.693 26.0497V24.0497ZM232.041 57.2871C232.041 56.7348 232.489 56.2871 233.041 56.2871C233.594 56.2871 234.041 56.7348 234.041 57.2871H232.041ZM234.041 63.1275C234.041 63.6797 233.594 64.1275 233.041 64.1275C232.489 64.1275 232.041 63.6797 232.041 63.1275H234.041ZM232.041 72.4759C232.041 71.9236 232.489 71.4759 233.041 71.4759C233.594 71.4759 234.041 71.9236 234.041 72.4759H232.041ZM234.041 78.3162C234.041 78.8685 233.594 79.3162 233.041 79.3162C232.489 79.3162 232.041 78.8685 232.041 78.3162H234.041ZM225.39 68.6877C224.838 68.6877 224.39 68.24 224.39 67.6877C224.39 67.1354 224.838 66.6877 225.39 66.6877V68.6877ZM229.329 66.6877C229.881 66.6877 230.329 67.1354 230.329 67.6877C230.329 68.24 229.881 68.6877 229.329 68.6877V66.6877ZM236.754 68.6877C236.201 68.6877 235.754 68.24 235.754 67.6877C235.754 67.1354 236.201 66.6877 236.754 66.6877V68.6877ZM240.693 66.6877C241.245 66.6877 241.693 67.1354 241.693 67.6877C241.693 68.24 241.245 68.6877 240.693 68.6877V66.6877ZM249.774 10.115V20.4895H247.774V10.115H249.774ZM249.774 29.8379V40.2124H247.774V29.8379H249.774ZM238.856 24.0497H245.062V26.0497H238.856V24.0497ZM252.486 24.0497H258.693V26.0497H252.486V24.0497ZM234.041 57.2871V63.1275H232.041V57.2871H234.041ZM234.041 72.4759V78.3162H232.041V72.4759H234.041ZM225.39 66.6877H229.329V68.6877H225.39V66.6877ZM236.754 66.6877H240.693V68.6877H236.754V66.6877Z" fill="black"/>
<circle r="1.71008" transform="matrix(-1 0 0 1 281.841 61.5905)" fill="black"/>
<circle r="1.71008" transform="matrix(-1 0 0 1 219.975 45.7775)" fill="black"/>
<path d="M605.567 46.2371C605.403 45.7099 605.697 45.1492 606.224 44.9848C606.751 44.8204 607.312 45.1146 607.476 45.6418L605.567 46.2371ZM610.564 55.5461C610.729 56.0734 610.435 56.634 609.907 56.7984C609.38 56.9628 608.819 56.6686 608.655 56.1414L610.564 55.5461ZM611.438 65.0661C611.273 64.5389 611.567 63.9782 612.095 63.8138C612.622 63.6494 613.183 63.9436 613.347 64.4709L611.438 65.0661ZM616.435 74.3751C616.599 74.9024 616.305 75.4631 615.778 75.6274C615.251 75.7918 614.69 75.4977 614.525 74.9704L616.435 74.3751ZM601.796 64.1041C601.269 64.2685 600.708 63.9744 600.543 63.4471C600.379 62.9198 600.673 62.3592 601.2 62.1948L601.796 64.1041ZM607.125 60.3476C607.653 60.1832 608.213 60.4773 608.378 61.0046C608.542 61.5318 608.248 62.0925 607.721 62.2569L607.125 60.3476ZM614.809 60.047C614.281 60.2114 613.721 59.9172 613.556 59.39C613.392 58.8627 613.686 58.302 614.213 58.1377L614.809 60.047ZM620.138 56.2904C620.666 56.1261 621.226 56.4202 621.391 56.9475C621.555 57.4747 621.261 58.0354 620.734 58.1998L620.138 56.2904ZM607.476 45.6418L610.564 55.5461L608.655 56.1414L605.567 46.2371L607.476 45.6418ZM613.347 64.4709L616.435 74.3751L614.525 74.9704L611.438 65.0661L613.347 64.4709ZM601.2 62.1948L607.125 60.3476L607.721 62.2569L601.796 64.1041L601.2 62.1948ZM614.213 58.1377L620.138 56.2904L620.734 58.1998L614.809 60.047L614.213 58.1377Z" fill="black"/>
<path d="M360.312 261.783C360.148 261.256 360.442 260.695 360.969 260.53C361.497 260.366 362.057 260.66 362.222 261.187L360.312 261.783ZM365.31 271.092C365.474 271.619 365.18 272.18 364.652 272.344C364.125 272.508 363.565 272.214 363.4 271.687L365.31 271.092ZM366.183 280.612C366.018 280.085 366.312 279.524 366.84 279.359C367.367 279.195 367.928 279.489 368.092 280.017L366.183 280.612ZM371.18 289.921C371.344 290.448 371.05 291.009 370.523 291.173C369.996 291.337 369.435 291.043 369.271 290.516L371.18 289.921ZM356.541 279.65C356.014 279.814 355.453 279.52 355.289 278.993C355.124 278.465 355.418 277.905 355.946 277.74L356.541 279.65ZM361.87 275.893C362.398 275.729 362.958 276.023 363.123 276.55C363.287 277.077 362.993 277.638 362.466 277.803L361.87 275.893ZM369.554 275.593C369.027 275.757 368.466 275.463 368.302 274.936C368.137 274.408 368.431 273.848 368.959 273.683L369.554 275.593ZM374.883 271.836C375.411 271.672 375.971 271.966 376.136 272.493C376.3 273.02 376.006 273.581 375.479 273.745L374.883 271.836ZM362.222 261.187L365.31 271.092L363.4 271.687L360.312 261.783L362.222 261.187ZM368.092 280.017L371.18 289.921L369.271 290.516L366.183 280.612L368.092 280.017ZM355.946 277.74L361.87 275.893L362.466 277.803L356.541 279.65L355.946 277.74ZM368.959 273.683L374.883 271.836L375.479 273.745L369.554 275.593L368.959 273.683Z" fill="black"/>
<ellipse rx="1.71008" ry="1.71008" transform="matrix(-0.954677 0.297644 0.297644 0.954677 589.727 51.062)" fill="black"/>
<ellipse rx="1.71008" ry="1.71008" transform="matrix(-0.954677 0.297644 0.297644 0.954677 579.143 28.3232)" fill="black"/>
<ellipse rx="1.71008" ry="1.71008" transform="matrix(-0.954677 0.297644 0.297644 0.954677 547.181 39.8759)" fill="black"/>
<ellipse rx="1.71008" ry="1.71008" transform="matrix(-0.954677 0.297644 0.297644 0.954677 394.271 299.03)" fill="black"/>
<ellipse rx="1.71008" ry="1.71008" transform="matrix(-0.954677 0.297644 0.297644 0.954677 403.477 323.467)" fill="black"/>
<ellipse rx="1.71008" ry="1.71008" transform="matrix(-0.954677 0.297644 0.297644 0.954677 428.617 322.616)" fill="black"/>
<path d="M901.008 540.072L948.425 381.08H723.353L675.937 526.862H501.597V540.072H672.149H901.008Z" fill="white"/>
<path d="M672.149 540.072H901.008L948.425 381.08H723.353L675.937 526.862M672.149 540.072L675.937 526.862M672.149 540.072H501.597V526.862H675.937" stroke="black" stroke-width="2"/>
<path d="M800.116 449.594C795.32 461.804 799.591 474.513 809.111 478.252C818.631 481.992 830.41 475.587 835.206 463.377C840.002 451.167 835.731 438.457 826.211 434.718C816.691 430.979 804.912 437.384 800.116 449.594Z" fill="white" stroke="black" stroke-width="2"/>
<path d="M400.651 145.683C400.995 141.843 404.4 139.017 408.255 139.37L414.023 139.899L449.84 143.181L453.786 143.543C457.642 143.896 460.489 147.295 460.144 151.135L451.522 247.265C451.178 251.105 447.773 253.931 443.917 253.578L398.386 249.405C394.53 249.052 391.684 245.652 392.028 241.812L400.651 145.683Z" fill="white"/>
<path d="M393.285 190.268L392.472 199.337M414.023 139.899L408.255 139.37C404.4 139.017 400.995 141.843 400.651 145.683L392.028 241.812C391.684 245.652 394.53 249.052 398.386 249.405L443.917 253.578C447.773 253.931 451.178 251.105 451.522 247.265L460.144 151.135C460.489 147.295 457.642 143.896 453.786 143.543L449.84 143.181L414.023 139.899ZM414.023 139.899L413.752 142.922C413.407 146.762 416.254 150.161 420.109 150.514L441.964 152.517C445.82 152.87 449.225 150.044 449.569 146.204L449.84 143.181L414.023 139.899ZM414.023 139.899L449.84 143.181L414.023 139.899ZM405.021 240.26L440.839 243.543L405.021 240.26ZM463.364 154.478L460.869 182.289L463.364 154.478Z" stroke="black" stroke-width="2" stroke-linecap="round" stroke-linejoin="round"/>
<path d="M561.629 70.9625C565.299 69.7758 569.235 71.7887 570.422 75.4583L572.197 80.9472L583.221 115.036L584.436 118.791C585.622 122.461 583.609 126.398 579.94 127.584L488.074 157.292C484.404 158.479 480.468 156.466 479.281 152.796L465.268 109.464C464.081 105.794 466.094 101.857 469.763 100.671L561.629 70.9625Z" fill="white"/>
<path d="M517.702 81.6577L509.035 84.4604M572.197 80.9472L570.422 75.4583C569.235 71.7887 565.299 69.7758 561.629 70.9625L469.763 100.671C466.094 101.857 464.081 105.794 465.268 109.464L479.281 152.796C480.468 156.466 484.404 158.479 488.074 157.292L579.94 127.584C583.609 126.398 585.622 122.461 584.436 118.791L583.221 115.036L572.197 80.9472ZM572.197 80.9472L569.308 81.8812C565.639 83.0679 563.626 87.0048 564.813 90.6744L571.539 111.474C572.726 115.144 576.662 117.156 580.332 115.97L583.221 115.036L572.197 80.9472ZM572.197 80.9472L583.221 115.036L572.197 80.9472ZM476.287 111.963L487.311 146.052L476.287 111.963ZM578.125 131.841L551.548 140.435L578.125 131.841Z" stroke="black" stroke-width="2" stroke-linecap="round" stroke-linejoin="round"/>
<path d="M461.278 190.962C459.056 194.114 454.699 194.868 451.547 192.646L446.832 189.323L417.549 168.681L414.323 166.407C411.171 164.184 410.417 159.828 412.639 156.676L468.267 77.7616C470.49 74.6096 474.846 73.8552 477.999 76.0774L515.222 102.317C518.374 104.539 519.128 108.896 516.906 112.048L461.278 190.962Z" fill="white"/>
<path d="M489.985 156.035L495.233 148.59M446.832 189.323L451.547 192.646C454.699 194.868 459.056 194.114 461.278 190.962L516.906 112.048C519.128 108.896 518.374 104.539 515.222 102.317L477.999 76.0774C474.846 73.8552 470.49 74.6096 468.267 77.7616L412.639 156.676C410.417 159.828 411.171 164.184 414.323 166.407L417.549 168.681L446.832 189.323ZM446.832 189.323L448.581 186.841C450.803 183.689 450.049 179.332 446.897 177.11L429.03 164.515C425.878 162.293 421.521 163.047 419.299 166.199L417.549 168.681L446.832 189.323ZM446.832 189.323L417.549 168.681L446.832 189.323ZM504.909 106.935L475.627 86.2926L504.909 106.935ZM411.535 152.182L427.628 129.352L411.535 152.182Z" stroke="black" stroke-width="2" stroke-linecap="round" stroke-linejoin="round"/>
<path d="M425.457 163.861C422.072 163.144 419.254 166.578 418.268 168.385L447.347 188.585L449.097 177.997C442.628 173.584 428.842 164.578 425.457 163.861Z" fill="black"/>
<path d="M588.015 283.269C585.793 286.421 581.437 287.175 578.284 284.953L573.569 281.629L544.287 260.987L541.061 258.714C537.908 256.491 537.154 252.135 539.377 248.982L595.005 170.069C597.227 166.916 601.584 166.162 604.736 168.384L641.96 194.624C645.11 196.846 645.867 201.203 643.644 204.355L588.015 283.269Z" fill="white"/>
<path d="M616.722 248.342L621.97 240.897M573.569 281.629L578.284 284.953C581.437 287.175 585.793 286.421 588.015 283.269L643.644 204.355C645.867 201.203 645.11 196.846 641.96 194.624L604.736 168.384C601.584 166.162 597.227 166.916 595.005 170.069L539.377 248.982C537.154 252.135 537.908 256.491 541.061 258.714L544.287 260.987L573.569 281.629ZM573.569 281.629L575.319 279.148C577.541 275.996 576.787 271.639 573.634 269.417L555.767 256.822C552.615 254.6 548.258 255.354 546.036 258.506L544.287 260.987L573.569 281.629ZM573.569 281.629L544.287 260.987L573.569 281.629ZM631.647 199.241L602.364 178.599L631.647 199.241ZM538.272 244.489L554.366 221.659L538.272 244.489Z" stroke="black" stroke-width="2" stroke-linecap="round" stroke-linejoin="round"/>
<path d="M510.959 220.427C511.309 216.579 514.708 213.742 518.552 214.09L524.302 214.611L560.01 217.841L563.945 218.197C567.789 218.544 570.621 221.945 570.272 225.793L561.519 322.107C561.169 325.953 557.77 328.79 553.926 328.445L508.534 324.336C504.69 323.99 501.857 320.588 502.207 316.741L510.959 220.427Z" fill="white"/>
<path d="M518.555 254.478L554.67 257.986L551.755 291.749L515.72 287.984M524.302 214.611L518.552 214.09C514.708 213.742 511.309 216.579 510.959 220.427L502.207 316.741C501.857 320.588 504.69 323.99 508.534 324.336L553.926 328.445C557.77 328.79 561.169 325.953 561.519 322.107L570.272 225.793C570.621 221.945 567.789 218.544 563.945 218.197L560.01 217.841L524.302 214.611ZM524.302 214.611L524.027 217.639C523.677 221.487 526.51 224.887 530.354 225.235L552.142 227.206C555.986 227.554 559.385 224.717 559.735 220.87L560.01 217.841L524.302 214.611ZM524.302 214.611L560.01 217.841L524.302 214.611ZM515.164 315.165L550.873 318.395L515.164 315.165ZM573.476 229.136L570.944 257.001L573.476 229.136ZM503.543 265.103L502.717 274.189L503.543 265.103ZM516.617 298.411L552.325 301.642L516.617 298.411ZM520.834 238.708L556.542 241.939L520.834 238.708Z" stroke="black" stroke-width="2" stroke-linecap="round" stroke-linejoin="round"/>
<path d="M641.017 190.634C642.636 194.135 641.111 198.285 637.609 199.904L632.374 202.325L599.856 217.364L596.274 219.02C592.773 220.639 588.623 219.114 587.004 215.613L546.477 127.981C544.858 124.481 546.383 120.33 549.884 118.712L591.22 99.5949C594.72 97.9761 598.87 99.5012 600.489 103.002L641.017 190.634Z" fill="white"/>
<path d="M625.123 148.31L621.299 140.043M632.374 202.325L637.609 199.904C641.111 198.285 642.636 194.135 641.017 190.634L600.489 103.002C598.87 99.5012 594.72 97.9761 591.22 99.5949L549.884 118.712C546.383 120.33 544.858 124.481 546.477 127.981L587.004 215.613C588.623 219.114 592.773 220.639 596.274 219.02L599.856 217.364L632.374 202.325ZM632.374 202.325L631.1 199.569C629.48 196.069 625.33 194.544 621.831 196.162L601.988 205.339C598.488 206.957 596.963 211.107 598.582 214.608L599.856 217.364L632.374 202.325ZM632.374 202.325L599.856 217.364L632.374 202.325ZM590.062 110.835L557.544 125.873L590.062 110.835ZM582.561 214.323L570.836 188.971L582.561 214.323Z" stroke="black" stroke-width="2" stroke-linecap="round" stroke-linejoin="round"/>
<path d="M536.711 257.577C539.863 259.799 540.618 264.156 538.395 267.308L535.072 272.023L514.43 301.305L512.156 304.531C509.933 307.683 505.577 308.437 502.425 306.216L423.511 250.587C420.358 248.365 419.604 244.008 421.827 240.856L448.066 203.633C450.288 200.48 454.645 199.726 457.797 201.948L536.711 257.577Z" fill="white"/>
<path d="M535.072 272.023L538.395 267.308C540.618 264.156 539.863 259.799 536.711 257.577L457.797 201.948C454.645 199.726 450.288 200.48 448.066 203.633L421.827 240.856C419.604 244.008 420.358 248.365 423.511 250.587L502.425 306.216C505.577 308.437 509.933 307.683 512.156 304.531L514.43 301.305L535.072 272.023ZM535.072 272.023L532.59 270.273C529.438 268.051 525.081 268.805 522.859 271.958L510.264 289.825C508.042 292.977 508.796 297.334 511.948 299.556L514.43 301.305L535.072 272.023ZM535.072 272.023L514.43 301.305L535.072 272.023ZM497.931 307.32L475.101 291.226L497.931 307.32ZM501.784 228.87L494.339 223.622L501.784 228.87ZM454.044 213.985L433.402 243.268L472.859 271.082L493.501 241.8L454.044 213.985Z" stroke="black" stroke-width="2" stroke-linecap="round" stroke-linejoin="round"/>
<path d="M510.536 291.841C509.685 295.195 513.004 298.148 514.77 299.205L536.112 270.954L525.602 268.783C520.935 275.072 511.387 288.488 510.536 291.841Z" fill="black"/>
<path d="M555.203 226.441C558.497 225.382 559.731 219.126 559.69 217.068L524.419 213.971C524.419 213.971 524.436 221.847 528.157 224.031C531.877 226.215 551.909 227.498 555.203 226.441Z" fill="black"/>
<path d="M598.988 207.113C596.673 209.684 598.752 215.713 599.822 217.471L631.869 202.413C631.869 202.413 627.893 195.613 623.578 195.596C619.264 195.579 601.303 204.543 598.988 207.113Z" fill="black"/>
<path d="M566.941 265.194L566.058 276.617L572.048 280.457C572.918 280.682 574.978 280.102 576.259 275.992C577.541 271.881 570.581 267.08 566.941 265.194Z" fill="black"/>
<path d="M572.613 80.6387L579.676 104.546L571.163 108.798C568.757 104.007 564.1 93.2064 564.72 88.3255C565.34 83.4449 570.24 81.1675 572.613 80.6387Z" fill="black"/>
<path d="M578.849 126.599L578.849 126.6C567.92 131.467 563.005 144.273 567.873 155.202L567.873 155.202C572.74 166.131 585.546 171.046 596.475 166.178L596.475 166.178C607.405 161.311 612.319 148.505 607.451 137.576L607.451 137.576C602.584 126.646 589.778 121.732 578.849 126.599Z" fill="white" stroke="black" stroke-width="2" stroke-linejoin="round"/>
<path d="M435.341 153.846C433.192 152.361 432.654 149.415 434.14 147.267L450.41 123.729L466.681 100.192C468.166 98.0431 471.112 97.5054 473.26 98.9904L495.283 114.214C497.431 115.699 497.969 118.645 496.484 120.793L480.213 144.331L463.942 167.868C462.457 170.017 459.511 170.555 457.363 169.069L435.341 153.846Z" fill="white"/>
<path d="M450.41 123.729L480.213 144.331M450.41 123.729L434.14 147.267C432.654 149.415 433.192 152.361 435.341 153.846L457.363 169.069C459.511 170.555 462.457 170.017 463.942 167.868L480.213 144.331L450.41 123.729ZM450.41 123.729L466.681 100.192C468.166 98.0431 471.112 97.5054 473.26 98.9904L495.283 114.214C497.431 115.699 497.969 118.645 496.484 120.793L480.213 144.331L450.41 123.729Z" stroke="black" stroke-width="2" stroke-linejoin="round"/>
<path d="M423.889 69.2235C424.267 68.0111 423.591 66.722 422.379 66.344C421.166 65.9662 419.877 66.6425 419.499 67.8547L423.889 69.2235ZM416.758 76.647C416.38 77.8591 417.056 79.1485 418.268 79.5262C419.481 79.9043 420.77 79.228 421.148 78.0155L416.758 76.647ZM418.678 85.9382C419.056 84.726 418.379 83.4367 417.167 83.059C415.955 82.6809 414.666 83.3572 414.288 84.5697L418.678 85.9382ZM411.547 93.3617C411.169 94.5738 411.845 95.8631 413.057 96.2409C414.27 96.6189 415.559 95.9427 415.937 94.7305L411.547 93.3617ZM425.469 86.0115C426.682 86.3895 427.971 85.7133 428.349 84.5011C428.727 83.2886 428.05 81.9996 426.838 81.6216L425.469 86.0115ZM421.578 79.9817C420.366 79.6039 419.077 80.2802 418.699 81.4924C418.321 82.7049 418.997 83.9939 420.21 84.3719L421.578 79.9817ZM413.918 82.4102C415.13 82.7879 416.419 82.1116 416.797 80.8995C417.175 79.6873 416.499 78.398 415.286 78.0199L413.918 82.4102ZM410.027 76.3804C408.814 76.0023 407.525 76.6786 407.147 77.8908C406.769 79.1032 407.446 80.3923 408.658 80.7703L410.027 76.3804ZM419.499 67.8547L416.758 76.647L421.148 78.0155L423.889 69.2235L419.499 67.8547ZM414.288 84.5697L411.547 93.3617L415.937 94.7305L418.678 85.9382L414.288 84.5697ZM426.838 81.6216L421.578 79.9817L420.21 84.3719L425.469 86.0115L426.838 81.6216ZM415.286 78.0199L410.027 76.3804L408.658 80.7703L413.918 82.4102L415.286 78.0199Z" fill="black"/>
<path d="M436.152 74.5359C436.952 74.7854 437.803 74.3389 438.053 73.5385C438.302 72.7381 437.856 71.8869 437.055 71.6374C436.255 71.3878 435.404 71.8344 435.154 72.6348C434.905 73.4352 435.351 74.2864 436.152 74.5359Z" fill="black"/>
<path d="M445.546 54.3504C446.347 54.5999 447.198 54.1533 447.447 53.3529C447.697 52.5525 447.25 51.7014 446.45 51.4518C445.65 51.2023 444.798 51.6489 444.549 52.4493C444.299 53.2497 444.746 54.1008 445.546 54.3504Z" fill="black"/>
<path d="M473.92 64.6057C474.72 64.8553 475.571 64.4087 475.821 63.6083C476.07 62.8079 475.624 61.9568 474.823 61.7072C474.023 61.4577 473.172 61.9042 472.922 62.7046C472.673 63.505 473.119 64.3562 473.92 64.6057Z" fill="black"/>
</svg>
