<svg width="885" height="585" viewBox="0 0 885 585" fill="none" xmlns="http://www.w3.org/2000/svg">
<path d="M284.866 583.916L244.526 404.722H498.307L539.211 569.027H735.225V583.916H542.918H284.866Z" fill="black"/>
<path d="M542.918 583.916H284.866L244.526 404.722H498.307L542.918 583.916ZM542.918 583.916H735.225V569.027H539.211" stroke="black" stroke-width="2" stroke-linecap="round" stroke-linejoin="round"/>
<path d="M408.406 486.264C413.827 500.066 409.013 514.479 398.197 518.727C387.382 522.975 374.045 515.692 368.624 501.89C363.202 488.088 368.017 473.676 378.833 469.427C389.648 465.179 402.985 472.462 408.406 486.264Z" fill="white" stroke="black" stroke-width="2"/>
<path d="M679.529 164.98C688.772 161.236 686.778 145.069 672.776 145.444C670.363 145.567 665.255 147.374 664.119 153.61C662.983 159.847 673.919 163.788 679.529 164.98Z" fill="black"/>
<path d="M614.84 161.983C624.083 158.24 622.088 142.072 608.086 142.447C605.674 142.571 600.565 144.377 599.429 150.614C598.293 156.85 609.23 160.792 614.84 161.983Z" fill="black"/>
<path d="M656.885 133.996V127.808M677.004 209.28C670.835 211.45 655.727 214.88 644.642 211.239M617.136 134.413C617.525 136.897 617.795 139.011 617.973 140.852M735.41 196.826C755.585 210.478 796.918 152.828 753.245 151.187M735.41 196.826C735.223 198.526 734.981 200.146 734.685 201.693M735.41 196.826C735.065 197.534 734.829 199.256 734.685 201.693M753.245 151.187C750.027 151.565 746.156 152.434 741.55 153.883C730.485 145.452 711.033 128.194 721.747 126.619C735.141 124.649 736.062 90.889 719.376 88.574C702.69 86.2591 659.642 100.606 653.758 92.899C647.873 85.1923 642.779 76.0313 633.197 90.3652C626.718 100.058 620.258 107.862 617.701 117.933M753.245 151.187C755.523 139.487 758.851 113.349 753.944 102.402L758.914 81.2936L747.15 85.5324L749.547 68.7618L733.968 78.2192C733.59 71.1048 729.074 56.2574 714.028 53.7827C695.222 50.6892 653.949 60.3417 650.653 52.1782C648.016 45.6473 644.234 54.1454 642.673 59.2107C638.619 55.6944 630.466 50.1558 630.281 56.132C630.049 63.6023 609.688 93.1567 617.701 117.933M617.701 117.933C617.037 120.547 616.636 123.313 616.565 126.304M652.03 145.953C645.278 156.757 633.2 179.317 638.905 183.123C644.61 186.929 649.393 186.309 656.885 185.939M737.59 181.58C743.768 178.721 754.509 172.184 748.055 168.906C739.988 164.809 756.048 155.928 762.195 163.667M734.685 201.693C733.92 205.689 732.79 209.199 731.285 212.349C724.627 226.286 710.638 233.2 688.486 244.052C675.458 250.435 662.631 252.281 652.03 250.838M734.685 201.693C733.921 214.642 735.755 247.785 737.59 256.403M652.03 250.838C649.423 250.483 646.95 249.929 644.642 249.194C642.119 248.391 639.793 247.373 637.703 246.163C632.119 242.929 628.222 238.329 626.765 232.825C622.237 215.718 618.161 193.495 617.577 172.22C617.252 168.018 617.152 164.757 617.179 162.089M652.03 250.838C652.881 258.58 654.625 271.581 656.645 280.515M660.127 290.015L652.03 312.694M660.127 290.015C661.282 290.901 667.985 289.476 677.004 286.738M660.127 290.015C658.951 289.113 657.756 285.429 656.645 280.515M737.59 256.403C738.009 258.373 735.554 260.947 731.285 263.796M737.59 256.403L758.914 258.361M737.397 249.881C743.603 252.245 750.95 255.129 758.914 258.361M858.615 581.485C908.328 581.485 868.846 325.801 858.615 310.416C850.38 298.032 800.277 275.282 762.195 259.698M654.003 265.266C650.442 266.435 646.385 267.816 641.982 269.375M514.358 467.753C519.161 423.717 533.974 334.63 548.816 316.436C561.827 300.486 610.674 280.457 641.982 269.375M768.558 366.77C774.382 411.308 781.167 502.522 761.714 511.084C742.367 517.205 647.6 515.624 574.958 513.106M616.565 126.304C623.417 126.332 631.489 127.906 631.489 129.691C631.489 132.868 608.614 135.042 607.173 129.691C606.621 127.2 611.222 126.282 616.565 126.304ZM524.776 511.084C531.259 511.386 538.407 511.7 546.057 512.014M585.549 344.644C581.208 388.307 573.013 483.129 574.958 513.106M574.958 513.106C564.803 512.754 555.08 512.384 546.057 512.014M641.982 269.375C641.392 273.937 640.978 280.284 641.252 286.738M652.03 312.694C656.043 314.139 665.374 312.927 677.004 309.863M652.03 312.694C644.382 309.942 641.738 298.173 641.252 286.738M762.195 259.698C760.763 265.745 755.154 272.027 747.15 278.071M762.195 259.698C761.091 259.246 759.997 258.8 758.914 258.361M677.004 286.738V309.863M677.004 286.738C682.485 285.074 688.821 282.925 695.288 280.515M677.004 309.863C685.321 307.671 694.814 304.531 704.379 300.737M695.288 280.515L704.379 300.737M695.288 280.515C701.638 278.149 708.113 275.532 714.028 272.875M704.379 300.737C712.378 297.564 720.426 293.933 727.879 290.015M714.028 272.875L727.879 290.015M714.028 272.875C720.892 269.792 727.001 266.655 731.285 263.796M727.879 290.015C735.045 286.248 741.661 282.215 747.15 278.071M731.285 263.796L747.15 278.071M656.645 280.515L641.252 286.738M546.057 512.014C546.627 514.002 547.149 515.913 547.621 517.76M547.621 567.768C547.621 567.768 549.102 558.575 549.916 553.613M550.98 540.854H532.59M550.98 540.854C550.967 536.825 550.61 532.795 549.916 528.526M550.98 540.854C550.995 545.021 550.642 549.187 549.916 553.613M549.916 528.526H529.638M549.916 528.526C549.364 525.128 548.598 521.579 547.621 517.76M547.621 517.76H526.513M549.916 553.613H536.41M704.379 157.366C702.466 172.118 663.647 165.478 664.916 152.957C666.185 140.435 706.27 142.776 704.379 157.366ZM638.816 154.022C636.904 168.774 598.085 162.134 599.354 149.612C600.623 137.09 640.708 139.432 638.816 154.022ZM708.759 136.337C707.318 141.688 684.443 139.514 684.443 136.337C684.443 133.16 710.02 130.651 708.759 136.337Z" stroke="black" stroke-width="2" stroke-linecap="round" stroke-linejoin="round"/>
<circle cx="470.844" cy="164.998" r="2.07349" transform="rotate(20.7275 470.844 164.998)" fill="black"/>
<circle cx="510.78" cy="84.0826" r="2.07349" transform="rotate(20.7275 510.78 84.0826)" fill="black"/>
<circle cx="430.213" cy="40.6731" r="2.07349" transform="rotate(20.7275 430.213 40.6731)" fill="black"/>
<circle cx="373.615" cy="82.3543" r="2.07349" transform="rotate(7.74477 373.615 82.3543)" fill="black"/>
<path d="M443.915 106.024L445.245 98.0603C446.423 91.0136 453.09 86.2557 460.136 87.433C467.183 88.6104 473.85 83.8524 475.027 76.8058L476.186 69.8696C477.814 60.1273 471.236 50.9099 461.494 49.2821C451.751 47.6543 442.534 54.2325 440.906 63.9748L440.591 65.8587M441.254 121.952L440.08 128.973" stroke="black" stroke-width="2" stroke-linecap="round" stroke-linejoin="round"/>
<path d="M397.545 142.51L395.042 139.373C392.826 136.598 393.28 132.553 396.055 130.337C398.831 128.122 399.285 124.076 397.069 121.301L394.889 118.569C391.826 114.733 386.233 114.105 382.396 117.168C378.559 120.231 377.931 125.824 380.994 129.661L381.586 130.403M402.553 148.782L404.76 151.548" stroke="black" stroke-width="2" stroke-linecap="round" stroke-linejoin="round"/>
<path d="M408.226 47.2307C408.181 46.6803 407.699 46.2704 407.148 46.3153C406.598 46.3601 406.188 46.8427 406.233 47.3932L408.226 47.2307ZM407.255 59.9308C407.3 60.4813 407.782 60.8911 408.333 60.8463C408.883 60.8014 409.293 60.3188 409.248 59.7683L407.255 59.9308ZM410.169 71.066C410.124 70.5155 409.642 70.1056 409.091 70.1505C408.541 70.1954 408.131 70.678 408.176 71.2284L410.169 71.066ZM409.198 83.766C409.243 84.3165 409.725 84.7264 410.276 84.6815C410.826 84.6366 411.236 84.154 411.191 83.6035L409.198 83.766ZM420.769 65.3802C421.319 65.3353 421.729 64.8527 421.684 64.3022C421.639 63.7518 421.157 63.3419 420.606 63.3868L420.769 65.3802ZM413.106 63.9982C412.556 64.0431 412.146 64.5257 412.191 65.0761C412.235 65.6266 412.718 66.0364 413.269 65.9916L413.106 63.9982ZM404.296 66.723C404.846 66.6781 405.256 66.1955 405.211 65.6451C405.166 65.0946 404.684 64.6847 404.133 64.7296L404.296 66.723ZM396.633 65.341C396.083 65.3859 395.673 65.8685 395.718 66.4189C395.763 66.9694 396.245 67.3793 396.796 67.3344L396.633 65.341ZM406.233 47.3932L407.255 59.9308L409.248 59.7683L408.226 47.2307L406.233 47.3932ZM408.176 71.2284L409.198 83.766L411.191 83.6035L410.169 71.066L408.176 71.2284ZM420.606 63.3868L413.106 63.9982L413.269 65.9916L420.769 65.3802L420.606 63.3868ZM404.133 64.7296L396.633 65.341L396.796 67.3344L404.296 66.723L404.133 64.7296Z" fill="black"/>
<path d="M484.573 114.791C484.814 114.294 484.605 113.696 484.108 113.455C483.611 113.215 483.013 113.424 482.772 113.921L484.573 114.791ZM477.301 125.248C477.06 125.745 477.269 126.343 477.766 126.583C478.263 126.823 478.861 126.615 479.101 126.118L477.301 125.248ZM474.171 136.324C474.411 135.827 474.203 135.229 473.705 134.989C473.208 134.748 472.61 134.957 472.37 135.454L474.171 136.324ZM466.898 146.781C466.658 147.278 466.866 147.876 467.363 148.116C467.861 148.356 468.459 148.148 468.699 147.651L466.898 146.781ZM486.19 136.793C486.687 137.033 487.285 136.825 487.525 136.328C487.765 135.83 487.557 135.233 487.06 134.992L486.19 136.793ZM480.284 131.719C479.787 131.479 479.189 131.687 478.948 132.184C478.708 132.682 478.917 133.28 479.414 133.52L480.284 131.719ZM471.308 129.604C471.805 129.844 472.403 129.636 472.643 129.138C472.883 128.641 472.675 128.043 472.178 127.803L471.308 129.604ZM465.402 124.53C464.905 124.289 464.307 124.498 464.067 124.995C463.826 125.492 464.035 126.09 464.532 126.33L465.402 124.53ZM482.772 113.921L477.301 125.248L479.101 126.118L484.573 114.791L482.772 113.921ZM472.37 135.454L466.898 146.781L468.699 147.651L474.171 136.324L472.37 135.454ZM487.06 134.992L480.284 131.719L479.414 133.52L486.19 136.793L487.06 134.992ZM472.178 127.803L465.402 124.53L464.532 126.33L471.308 129.604L472.178 127.803Z" fill="black"/>
<path d="M449.765 181.598C472.048 200.293 529.708 237.683 582.077 237.683" stroke="black" stroke-width="2" stroke-linecap="round" stroke-linejoin="round"/>
<path d="M628.959 60.7462C628.091 70.2963 615.762 95.4737 616.631 114.574C623.402 103.924 637.883 82.6245 641.634 82.6245C646.322 82.6245 648.753 88.7018 656.74 94.4318C664.728 100.162 698.761 88.7018 707.095 88.7018C715.43 88.7018 725.327 88.3545 729.495 94.4318C733.662 100.509 729.321 114.574 729.495 119.436C729.668 124.297 719.944 126.555 717.34 128.812C715.256 130.618 732.794 146.002 741.823 153.469L754.325 150.169C756.686 138.779 755.309 113.243 754.325 101.898L757.45 82.6245L746.858 85.4027L749.463 68.5598L734.009 76.8944C734.009 69.9489 727.932 60.7462 719.944 55.3635C711.957 49.9807 666.985 55.3635 659.692 55.3635C652.4 55.3635 651.879 50.8489 648.753 49.8071C646.253 48.9736 642.965 56.7526 641.634 60.7462L636.946 55.3635C634.573 53.9744 629.653 53.1062 628.959 60.7462Z" fill="black"/>
<path d="M607.08 126.728C607.254 132.979 628.959 138.536 628.959 130.722C628.959 124.471 614.373 125.455 607.08 126.728Z" fill="black"/>
<path d="M686.259 135.758C685.912 144.787 709.006 138.536 708.311 135.758C707.755 133.535 693.378 134.832 686.259 135.758Z" fill="black"/>
<path d="M376 291.033C342.658 307.013 264.564 325.147 218.904 269.845" stroke="black" stroke-width="2" stroke-linecap="round" stroke-linejoin="round"/>
<path d="M220.731 101.855C223.007 112.63 218.843 143.606 221.935 153.931C234.643 132.816 231.416 84.2152 225.4 76.8877C219.385 69.5602 196.995 70.1782 186.852 72.9345L195.885 84.6688C210.912 84.6246 218.455 91.08 220.731 101.855Z" fill="black"/>
<path d="M169.719 95.4166L171.53 93.7051L169.719 95.4166ZM169.623 98.7633L171.343 100.566L169.623 98.7633ZM156.401 111.378L158.121 113.18L156.401 111.378ZM156.787 121.457L155.363 123.501L156.787 121.457ZM162.733 125.598L164.157 123.553L162.733 125.598ZM166.042 125.496L167.593 127.445L166.042 125.496ZM175.342 118.097L176.894 120.047L175.342 118.097ZM195.644 109.754L197.868 110.877L195.644 109.754ZM200.949 102.369C201.313 101.042 200.532 99.6715 199.205 99.3077C197.878 98.9438 196.507 99.7245 196.143 101.052L200.949 102.369ZM180.468 138.277L179.208 136.128C179.136 136.17 179.067 136.216 179 136.265L180.468 138.277ZM172.007 159.006L169.893 160.325C170.354 161.064 171.167 161.508 172.038 161.497L172.007 159.006ZM224.954 158.334L224.985 160.826C225.941 160.813 226.805 160.257 227.21 159.392C227.615 158.527 227.49 157.507 226.889 156.765L224.954 158.334ZM194.626 84.5149L194.257 86.979L194.394 86.9996L194.533 87.0047L194.626 84.5149ZM181.113 84.6864L180.777 82.2175L181.113 84.6864ZM186.827 72.9369L184.76 74.3291L186.827 72.9369ZM169.576 91.1985L171.1 93.1695L169.576 91.1985ZM177.39 117.512L177.154 119.992L177.39 117.512ZM188.801 116.55L187.868 114.24L188.801 116.55ZM142.439 73.5002L143.994 71.5531C143.001 70.7603 141.571 70.8417 140.674 71.7418C139.777 72.6419 139.702 74.0726 140.498 75.0625L142.439 73.5002ZM182.979 117.694L182.861 115.205L182.979 117.694ZM167.405 96.5958L167.909 97.1281L171.53 93.7051L171.026 93.1729L167.405 96.5958ZM153.156 113.161L153.237 119.549L158.22 119.486L158.139 113.098L153.156 113.161ZM155.363 123.501L161.309 127.642L164.157 123.553L158.21 119.412L155.363 123.501ZM167.593 127.445L176.894 120.047L173.791 116.147L164.491 123.546L167.593 127.445ZM197.868 110.877C199.075 108.487 200.051 105.643 200.949 102.369L196.143 101.052C195.285 104.18 194.412 106.665 193.42 108.631L197.868 110.877ZM179 136.265C171.174 141.972 168.578 147.777 168.238 152.484C168.072 154.782 168.455 156.69 168.889 158.038C169.106 158.713 169.337 159.252 169.523 159.637C169.616 159.83 169.698 159.985 169.762 160.1C169.794 160.158 169.821 160.206 169.843 160.243C169.854 160.262 169.864 160.278 169.873 160.292C169.877 160.298 169.88 160.305 169.884 160.31C169.885 160.313 169.887 160.316 169.889 160.318C169.889 160.319 169.89 160.321 169.891 160.322C169.892 160.323 169.893 160.325 172.007 159.006C174.12 157.687 174.121 157.689 174.122 157.69C174.122 157.69 174.123 157.692 174.124 157.693C174.125 157.695 174.126 157.696 174.127 157.698C174.129 157.701 174.13 157.703 174.131 157.705C174.134 157.709 174.135 157.711 174.135 157.71C174.134 157.709 174.128 157.7 174.118 157.681C174.098 157.645 174.06 157.575 174.011 157.473C173.913 157.269 173.771 156.943 173.633 156.513C173.355 155.65 173.097 154.387 173.208 152.843C173.423 149.868 175.058 145.308 181.936 140.29L179 136.265ZM172.038 161.497L224.985 160.826L224.922 155.843L171.975 156.515L172.038 161.497ZM226.889 156.765C223.997 153.2 223.122 147.369 223.151 139.763C223.166 136.038 223.39 132.076 223.604 127.964C223.816 123.881 224.018 119.665 223.972 115.554C223.878 107.411 222.816 99.2175 218.511 92.9265C214.081 86.4518 206.567 82.4683 194.719 82.0252L194.533 87.0047C205.274 87.4063 211.096 90.914 214.399 95.7406C217.828 100.751 218.898 107.669 218.989 115.611C219.034 119.544 218.841 123.614 218.628 127.705C218.416 131.768 218.184 135.87 218.168 139.743C218.139 147.333 218.908 154.835 223.019 159.904L226.889 156.765ZM194.996 82.0511C192.176 81.6286 189.049 81.5162 185.587 81.7329L185.898 86.706C189.071 86.5075 191.841 86.6169 194.257 86.979L194.996 82.0511ZM185.587 81.7329C184.052 81.8291 182.45 81.9897 180.777 82.2175L181.449 87.1549C183.011 86.9422 184.493 86.7941 185.898 86.706L185.587 81.7329ZM184.76 74.3291L192.56 85.9068L196.693 83.1231L188.893 71.545L184.76 74.3291ZM183.112 73.3048L183.251 84.251L188.233 84.1879L188.095 73.2416L183.112 73.3048ZM171.1 93.1695C172.957 91.7334 174.613 90.3679 176.386 89.2362C178.128 88.1248 179.776 87.3827 181.449 87.1549L180.777 82.2175C178.108 82.581 175.761 83.7245 173.706 85.0357C171.682 86.327 169.74 87.922 168.052 89.2278L171.1 93.1695ZM189.734 118.86C193.447 117.36 195.967 114.642 197.868 110.877L193.42 108.631C191.915 111.612 190.19 113.302 187.868 114.24L189.734 118.86ZM176.894 120.047C176.919 120.026 177.01 119.979 177.154 119.992L177.625 115.032C176.29 114.905 174.896 115.268 173.791 116.147L176.894 120.047ZM161.309 127.642C163.201 128.96 165.785 128.884 167.593 127.445L164.491 123.546C164.465 123.567 164.41 123.594 164.329 123.597C164.248 123.599 164.188 123.575 164.157 123.553L161.309 127.642ZM153.237 119.549C153.258 121.162 154.083 122.61 155.363 123.501L158.21 119.412C158.192 119.4 158.194 119.395 158.201 119.408C158.209 119.423 158.219 119.45 158.22 119.486L153.237 119.549ZM188.893 71.545C188.012 70.2369 186.517 69.9699 185.419 70.2716C184.314 70.5754 183.091 71.6196 183.112 73.3048L188.095 73.2416C188.108 74.3041 187.319 74.9173 186.739 75.0767C186.166 75.2339 185.287 75.1104 184.76 74.3291L188.893 71.545ZM154.681 109.575C153.711 110.5 153.138 111.786 153.156 113.161L158.139 113.098C158.139 113.128 158.132 113.153 158.125 113.169C158.119 113.185 158.114 113.187 158.121 113.18L154.681 109.575ZM167.909 97.1281C167.914 97.1335 167.906 97.126 167.897 97.1048C167.89 97.0845 167.885 97.0602 167.886 97.0349C167.887 97.0096 167.892 96.988 167.9 96.9718C167.907 96.9543 167.913 96.9515 167.904 96.9607L171.343 100.566C173.293 98.7056 173.394 95.6771 171.53 93.7051L167.909 97.1281ZM171.026 93.1729C171.022 93.1681 171.023 93.1681 171.026 93.1739C171.029 93.1789 171.033 93.1864 171.036 93.1955C171.043 93.2144 171.043 93.2292 171.042 93.2356C171.041 93.2414 171.041 93.2377 171.047 93.2269C171.052 93.2171 171.066 93.1958 171.1 93.1695L168.052 89.2278C165.788 90.9784 165.286 94.3538 167.405 96.5958L171.026 93.1729ZM170.771 92.9373L143.994 71.5531L140.884 75.4469L167.661 96.8311L170.771 92.9373ZM167.904 96.9607L164.03 100.656L167.47 104.261L171.343 100.566L167.904 96.9607ZM164.03 100.656L154.681 109.575L158.121 113.18L167.47 104.261L164.03 100.656ZM140.498 75.0625L163.809 104.021L167.691 100.896L144.38 71.9379L140.498 75.0625ZM177.154 119.992C179.309 120.197 181.284 120.269 183.097 120.183L182.861 115.205C181.343 115.278 179.612 115.22 177.625 115.032L177.154 119.992ZM183.097 120.183C185.556 120.066 187.762 119.657 189.734 118.86L187.868 114.24C186.544 114.774 184.92 115.108 182.861 115.205L183.097 120.183ZM181.728 140.427C184.782 138.637 186.899 136.506 188.194 134.135C189.493 131.759 189.884 129.29 189.716 126.967C189.388 122.421 186.929 118.382 184.839 116.037L181.119 119.352C182.758 121.191 184.523 124.233 184.747 127.326C184.855 128.822 184.604 130.314 183.822 131.745C183.036 133.182 181.634 134.706 179.208 136.128L181.728 140.427Z" fill="black"/>
<path d="M176.81 98.234C176.831 99.8693 178.173 101.178 179.809 101.157C181.444 101.137 182.753 99.7942 182.732 98.1589C182.711 96.5236 181.369 95.2148 179.734 95.2356C178.098 95.2563 176.79 96.5988 176.81 98.234Z" fill="black"/>
<path d="M108.619 305.949C107.632 304.77 107.788 303.015 108.966 302.028C110.145 301.041 111.9 301.197 112.887 302.376C113.874 303.554 113.719 305.309 112.54 306.296C111.361 307.283 109.606 307.128 108.619 305.949Z" fill="black"/>
<path d="M115.021 300.588C114.034 299.409 114.19 297.654 115.368 296.667C116.547 295.68 118.302 295.836 119.289 297.014C120.276 298.193 120.12 299.948 118.942 300.935C117.763 301.922 116.008 301.767 115.021 300.588Z" fill="black"/>
<path d="M121.423 295.228C120.436 294.049 120.592 292.294 121.771 291.307C122.949 290.32 124.704 290.476 125.691 291.654C126.678 292.833 126.523 294.588 125.344 295.575C124.165 296.562 122.41 296.407 121.423 295.228Z" fill="black"/>
<path d="M122.514 323.357C121.527 322.178 121.682 320.422 122.861 319.435L170.61 279.455C171.789 278.468 173.544 278.623 174.531 279.802C175.518 280.98 175.363 282.736 174.184 283.723L126.435 323.704C125.256 324.69 123.501 324.535 122.514 323.357Z" fill="black"/>
<path d="M129.661 331.893C128.674 330.714 128.83 328.959 130.008 327.972L177.758 287.991C178.936 287.004 180.692 287.16 181.678 288.338C182.665 289.517 182.51 291.272 181.331 292.259L133.582 332.24C132.403 333.227 130.648 333.071 129.661 331.893Z" fill="black"/>
<path d="M136.808 340.429C135.822 339.251 135.977 337.496 137.156 336.507L184.905 296.527C186.084 295.54 187.839 295.696 188.826 296.874C189.813 298.053 189.657 299.808 188.479 300.795L140.73 340.776C139.551 341.762 137.795 341.607 136.808 340.429Z" fill="black"/>
<path d="M143.956 348.964C142.969 347.786 143.124 346.031 144.303 345.043L192.053 305.063C193.231 304.077 194.987 304.232 195.973 305.411C196.96 306.589 196.805 308.345 195.626 309.331L147.877 349.312C146.698 350.301 144.943 350.142 143.956 348.964Z" fill="black"/>
<path d="M102.456 303.469L158.475 256.564C159.63 255.597 161.35 255.749 162.317 256.904L209.222 312.923C210.189 314.078 210.036 315.798 208.881 316.765L152.863 363.669C151.708 364.638 149.988 364.486 149.021 363.328L102.116 307.311C101.149 306.156 101.301 304.436 102.456 303.469Z" stroke="black" stroke-width="2" stroke-linecap="round" stroke-linejoin="round"/>
<path d="M91.1121 139.465C87.1472 116.84 65.5917 101.713 42.9665 105.678C20.3413 109.643 5.21417 131.198 9.17904 153.823C13.1439 176.449 34.6994 191.576 57.3246 187.611C79.9498 183.646 95.077 162.091 91.1121 139.465Z" stroke="black" stroke-width="2" stroke-linecap="round" stroke-linejoin="round"/>
<path d="M87.7248 120.142L5.79175 134.5L12.5644 173.148L94.4975 158.79L87.7248 120.142Z" stroke="black" stroke-width="2" stroke-linecap="round" stroke-linejoin="round"/>
<path d="M76.6473 184.225L62.2892 102.292L23.6414 109.064L37.9995 190.997L76.6473 184.225Z" stroke="black" stroke-width="2" stroke-linecap="round" stroke-linejoin="round"/>
<path d="M93.5322 153.125L29.2982 108.047L6.75914 140.164L70.9931 185.242L93.5322 153.125Z" stroke="black" stroke-width="2" stroke-linecap="round" stroke-linejoin="round"/>
<path d="M11.5471 167.493L56.6251 103.259L88.7423 125.798L43.6642 190.032L11.5471 167.493Z" stroke="black" stroke-width="2" stroke-linecap="round" stroke-linejoin="round"/>
<path d="M98.2909 180.432L16.3581 194.79M2 112.857L83.9329 98.499L2 112.857ZM2 112.857L16.3581 194.79L2 112.857ZM2 112.857L98.2909 180.432L2 112.857ZM83.9329 98.499L98.2909 180.432L83.9329 98.499ZM83.9329 98.499L16.3581 194.79L83.9329 98.499Z" stroke="black" stroke-width="2" stroke-linecap="round" stroke-linejoin="round"/>
<path d="M256.619 164.8C255.908 163.271 254.093 162.608 252.564 163.319C251.036 164.03 250.373 165.845 251.084 167.374L256.619 164.8ZM253.986 173.614C254.696 175.143 256.512 175.806 258.04 175.095C259.569 174.384 260.231 172.569 259.521 171.04L253.986 173.614ZM264.166 181.029C263.455 179.501 261.64 178.838 260.111 179.549C258.583 180.259 257.92 182.075 258.631 183.603L264.166 181.029ZM261.533 189.844C262.244 191.372 264.059 192.035 265.587 191.324C267.116 190.613 267.779 188.798 267.068 187.269L261.533 189.844ZM268.482 176.166C270.01 175.455 270.673 173.639 269.962 172.111C269.252 170.583 267.436 169.92 265.908 170.631L268.482 176.166ZM261.699 172.588C260.17 173.299 259.508 175.114 260.218 176.642C260.929 178.171 262.744 178.834 264.273 178.123L261.699 172.588ZM256.339 181.812C257.868 181.101 258.531 179.286 257.82 177.757C257.109 176.229 255.294 175.566 253.766 176.277L256.339 181.812ZM249.557 178.234C248.028 178.945 247.365 180.76 248.076 182.289C248.787 183.817 250.602 184.48 252.13 183.769L249.557 178.234ZM251.084 167.374L253.986 173.614L259.521 171.04L256.619 164.8L251.084 167.374ZM258.631 183.603L261.533 189.844L267.068 187.269L264.166 181.029L258.631 183.603ZM265.908 170.631L261.699 172.588L264.273 178.123L268.482 176.166L265.908 170.631ZM253.766 176.277L249.557 178.234L252.13 183.769L256.339 181.812L253.766 176.277Z" fill="black"/>
<path d="M48.2004 221.62C47.4896 220.092 45.6742 219.429 44.1456 220.139C42.6174 220.85 41.9546 222.665 42.6654 224.194L48.2004 221.62ZM45.5672 230.434C46.278 231.963 48.0931 232.625 49.6216 231.915C51.1502 231.204 51.813 229.389 51.1022 227.86L45.5672 230.434ZM55.7473 237.849C55.0365 236.321 53.2214 235.658 51.6929 236.369C50.1643 237.079 49.5015 238.895 50.2123 240.423L55.7473 237.849ZM53.1144 246.663C53.8252 248.192 55.6403 248.855 57.1689 248.144C58.6971 247.433 59.3599 245.618 58.6492 244.09L53.1144 246.663ZM60.0633 232.986C61.5915 232.275 62.2544 230.46 61.5436 228.931C60.8328 227.403 59.0177 226.74 57.4891 227.45L60.0633 232.986ZM53.2802 229.408C51.7519 230.118 51.0891 231.934 51.7999 233.462C52.5106 234.991 54.3257 235.653 55.8543 234.943L53.2802 229.408ZM47.9209 238.632C49.4495 237.921 50.1124 236.106 49.4016 234.578C48.6908 233.049 46.8754 232.386 45.3472 233.097L47.9209 238.632ZM41.1382 235.054C39.6096 235.765 38.9467 237.58 39.6575 239.109C40.3683 240.637 42.1834 241.3 43.712 240.589L41.1382 235.054ZM42.6654 224.194L45.5672 230.434L51.1022 227.86L48.2004 221.62L42.6654 224.194ZM50.2123 240.423L53.1144 246.663L58.6492 244.09L55.7473 237.849L50.2123 240.423ZM57.4891 227.45L53.2802 229.408L55.8543 234.943L60.0633 232.986L57.4891 227.45ZM45.3472 233.097L41.1382 235.054L43.712 240.589L47.9209 238.632L45.3472 233.097Z" fill="black"/>
<path d="M102.537 57.4503C101.826 55.9217 100.011 55.2589 98.4823 55.9697C96.9541 56.6804 96.2913 58.4959 97.002 60.0241L102.537 57.4503ZM99.9039 66.2645C100.615 67.7931 102.43 68.4559 103.958 67.7451C105.487 67.0344 106.15 65.2193 105.439 63.6907L99.9039 66.2645ZM110.084 73.6794C109.373 72.1512 107.558 71.4884 106.03 72.1992C104.501 72.9099 103.838 74.725 104.549 76.2536L110.084 73.6794ZM107.451 82.494C108.162 84.0226 109.977 84.6854 111.506 83.9746C113.034 83.2639 113.697 81.4484 112.986 79.9202L107.451 82.494ZM114.4 68.816C115.928 68.1052 116.591 66.2898 115.881 64.7616C115.17 63.2331 113.354 62.5702 111.826 63.281L114.4 68.816ZM107.617 65.2382C106.089 65.9489 105.426 67.7644 106.137 69.2926C106.847 70.8211 108.662 71.484 110.191 70.7732L107.617 65.2382ZM102.258 74.4625C103.786 73.7517 104.449 71.9362 103.738 70.408C103.027 68.8795 101.212 68.2166 99.6838 68.9274L102.258 74.4625ZM95.4748 70.8846C93.9463 71.5954 93.2834 73.4108 93.9942 74.939C94.705 76.4676 96.5201 77.1304 98.0486 76.4196L95.4748 70.8846ZM97.002 60.0241L99.9039 66.2645L105.439 63.6907L102.537 57.4503L97.002 60.0241ZM104.549 76.2536L107.451 82.494L112.986 79.9202L110.084 73.6794L104.549 76.2536ZM111.826 63.281L107.617 65.2382L110.191 70.7732L114.4 68.816L111.826 63.281ZM99.6838 68.9274L95.4748 70.8846L98.0486 76.4196L102.258 74.4625L99.6838 68.9274Z" fill="black"/>
<path d="M76.609 3.73461C75.8982 2.20616 74.0828 1.54331 72.5545 2.25409C71.026 2.96484 70.3631 4.7801 71.0739 6.30854L76.609 3.73461ZM76.2289 17.3938C76.9397 18.9222 78.7548 19.5851 80.2834 18.8743C81.8119 18.1636 82.4748 16.3483 81.764 14.8199L76.2289 17.3938ZM86.409 24.8088C85.6982 23.2803 83.8828 22.6175 82.3546 23.3282C80.8261 24.039 80.1632 25.8543 80.874 27.3827L86.409 24.8088ZM86.029 38.4679C86.7398 39.9964 88.5549 40.6593 90.0834 39.9485C91.612 39.2377 92.2748 37.4223 91.5641 35.8941L86.029 38.4679ZM93.1473 18.8186C94.6758 18.1078 95.3387 16.2926 94.6279 14.7642C93.9171 13.2357 92.1017 12.5728 90.5731 13.2836L93.1473 18.8186ZM83.9419 16.3674C82.4137 17.0781 81.7505 18.8934 82.4613 20.4218C83.172 21.9503 84.9875 22.6131 86.516 21.9024L83.9419 16.3674ZM78.5827 25.5916C80.1112 24.8808 80.7741 23.0655 80.0633 21.5371C79.3525 20.0086 77.5371 19.3458 76.0085 20.0566L78.5827 25.5916ZM69.3773 23.1403C67.8487 23.8511 67.1859 25.6663 67.8967 27.1948C68.6074 28.7232 70.4229 29.3861 71.9514 28.6753L69.3773 23.1403ZM71.0739 6.30854L76.2289 17.3938L81.764 14.8199L76.609 3.73461L71.0739 6.30854ZM80.874 27.3827L86.029 38.4679L91.5641 35.8941L86.409 24.8088L80.874 27.3827ZM90.5731 13.2836L83.9419 16.3674L86.516 21.9024L93.1473 18.8186L90.5731 13.2836ZM76.0085 20.0566L69.3773 23.1403L71.9514 28.6753L78.5827 25.5916L76.0085 20.0566Z" fill="black"/>
<path d="M99.1728 216.956C98.462 215.428 96.647 214.765 95.1184 215.476C93.5902 216.187 92.9273 218.002 93.6378 219.53L99.1728 216.956ZM98.7928 230.615C99.5036 232.144 101.319 232.807 102.847 232.096C104.376 231.385 105.039 229.57 104.328 228.042L98.7928 230.615ZM108.973 238.03C108.262 236.502 106.447 235.839 104.918 236.55C103.39 237.261 102.727 239.076 103.438 240.604L108.973 238.03ZM108.593 251.689C109.304 253.218 111.119 253.881 112.647 253.17C114.176 252.459 114.839 250.644 114.128 249.116L108.593 251.689ZM115.711 232.04C117.24 231.33 117.903 229.514 117.192 227.986C116.481 226.457 114.666 225.795 113.137 226.505L115.711 232.04ZM106.506 229.589C104.978 230.3 104.315 232.115 105.025 233.644C105.736 235.172 107.551 235.835 109.08 235.124L106.506 229.589ZM101.147 238.813C102.675 238.102 103.338 236.287 102.627 234.759C101.916 233.23 100.101 232.568 98.5728 233.278L101.147 238.813ZM91.9415 236.362C90.4129 237.073 89.7501 238.888 90.4609 240.417C91.1717 241.945 92.9867 242.608 94.5153 241.897L91.9415 236.362ZM93.6378 219.53L98.7928 230.615L104.328 228.042L99.1728 216.956L93.6378 219.53ZM103.438 240.604L108.593 251.689L114.128 249.116L108.973 238.03L103.438 240.604ZM113.137 226.505L106.506 229.589L109.08 235.124L115.711 232.04L113.137 226.505ZM98.5728 233.278L91.9415 236.362L94.5153 241.897L101.147 238.813L98.5728 233.278Z" fill="black"/>
<path d="M233.231 206.541C232.52 205.013 230.705 204.35 229.177 205.06C227.649 205.771 226.986 207.586 227.696 209.115L233.231 206.541ZM232.851 220.2C233.562 221.729 235.377 222.392 236.906 221.681C238.434 220.97 239.097 219.155 238.386 217.626L232.851 220.2ZM243.031 227.615C242.32 226.087 240.505 225.424 238.977 226.135C237.449 226.845 236.786 228.661 237.496 230.189L243.031 227.615ZM242.651 241.274C243.362 242.803 245.177 243.466 246.706 242.755C248.234 242.044 248.897 240.229 248.186 238.7L242.651 241.274ZM249.769 221.625C251.298 220.914 251.961 219.099 251.25 217.571C250.539 216.042 248.724 215.379 247.196 216.09L249.769 221.625ZM240.564 219.174C239.036 219.885 238.373 221.7 239.084 223.228C239.795 224.757 241.61 225.42 243.138 224.709L240.564 219.174ZM235.205 228.398C236.733 227.687 237.396 225.872 236.686 224.343C235.975 222.815 234.16 222.152 232.631 222.863L235.205 228.398ZM226 225.947C224.471 226.658 223.808 228.473 224.519 230.001C225.23 231.529 227.045 232.192 228.574 231.482L226 225.947ZM227.696 209.115L232.851 220.2L238.386 217.626L233.231 206.541L227.696 209.115ZM237.496 230.189L242.651 241.274L248.186 238.7L243.031 227.615L237.496 230.189ZM247.196 216.09L240.564 219.174L243.138 224.709L249.769 221.625L247.196 216.09ZM232.631 222.863L226 225.947L228.574 231.482L235.205 228.398L232.631 222.863Z" fill="black"/>
<path d="M204.698 196.76C205.707 196.291 206.145 195.092 205.676 194.083C205.206 193.074 204.008 192.636 202.999 193.106C201.989 193.575 201.552 194.773 202.021 195.783C202.49 196.792 203.689 197.229 204.698 196.76Z" fill="black"/>
<path d="M262.944 149.124C263.953 148.655 264.391 147.456 263.921 146.447C263.452 145.438 262.254 145 261.244 145.469C260.235 145.939 259.798 147.137 260.267 148.146C260.736 149.155 261.935 149.593 262.944 149.124Z" fill="black"/>
<path d="M189.997 247.966C191.006 247.497 191.444 246.298 190.975 245.289C190.505 244.28 189.307 243.842 188.298 244.312C187.288 244.781 186.851 245.979 187.32 246.989C187.789 247.998 188.988 248.435 189.997 247.966Z" fill="black"/>
<path d="M136.614 180.624C137.623 180.154 138.06 178.956 137.591 177.947C137.122 176.938 135.923 176.5 134.914 176.969C133.905 177.438 133.467 178.637 133.937 179.646C134.406 180.655 135.604 181.093 136.614 180.624Z" fill="black"/>
<path d="M82.1663 268.254C83.1755 267.785 83.6131 266.586 83.1438 265.577C82.6746 264.568 81.476 264.13 80.4669 264.6C79.4577 265.069 79.0201 266.267 79.4894 267.276C79.9586 268.286 81.1572 268.723 82.1663 268.254Z" fill="black"/>
<path d="M48.222 4.50423C49.2311 4.03494 49.6688 2.83643 49.1995 1.82727C48.7302 0.818115 47.5317 0.380464 46.5225 0.849749C45.5134 1.31903 45.0757 2.51755 45.545 3.5267C46.0143 4.53586 47.2128 4.97351 48.222 4.50423Z" fill="black"/>
<path d="M154.537 37.7139C155.546 37.2447 155.984 36.0461 155.514 35.037C155.045 34.0278 153.846 33.5902 152.837 34.0595C151.828 34.5287 151.39 35.7273 151.86 36.7364C152.329 37.7456 153.528 38.1832 154.537 37.7139Z" fill="black"/>
<path d="M107.495 118.007C108.504 117.537 108.942 116.339 108.472 115.33C108.003 114.321 106.805 113.883 105.796 114.352C104.786 114.821 104.349 116.02 104.818 117.029C105.287 118.038 106.486 118.476 107.495 118.007Z" fill="black"/>
</svg>
