<svg width="950" height="627" viewBox="0 0 950 627" fill="none" xmlns="http://www.w3.org/2000/svg">
<path d="M488.531 387.2L507.015 372.652L539.74 427.21L508.378 442.668C510.853 445.85 511.439 456.641 493.985 474.342C472.168 496.468 429.14 507.986 402.627 518.14C376.113 528.294 318.844 534.659 289.755 537.841C266.483 540.387 232.485 533.244 218.395 529.355C221.122 543.348 226.698 573.607 227.183 582.7C227.668 591.793 219.708 600.634 215.668 603.917L15.2255 623.316C16.7911 620.083 20.3464 607.191 22.0433 581.488C24.1644 549.359 17.6497 487.678 17.6497 466.916C17.6497 446.153 18.2557 394.172 20.2252 367.65C21.8009 346.433 28.3561 317.184 31.4367 305.212L10.3773 283.237C4.11505 274.801 -3.68243 252.866 15.2255 232.619C34.1335 212.372 72.2929 210.745 89.0091 212.463L95.3723 194.58V189.371L91.4332 176.944C85.609 154.706 86.9398 145.685 91.4332 131.175C91.4837 122.638 94.2815 105.291 105.069 104.199C118.553 102.836 133.249 102.381 135.37 97.8344C137.491 93.2878 142.491 61.8872 141.43 45.398C149.46 43.2258 166.732 39.8512 171.58 43.7309C176.428 47.6106 197.639 84.8894 207.638 103.044L225.819 98.9519L235.667 133.202L219.456 139.87C221.274 149.57 220.213 184.224 219.456 200.339C225.718 197.763 240.97 190.973 251.878 184.426C262.787 177.879 274.402 177.96 278.846 178.819L292.027 164.573H299.754L312.178 152.752C313.693 149.923 316.723 142.932 316.723 137.597V101.983C317.177 95.5673 319.42 82.5844 324.753 81.9782C330.086 81.372 333.641 98.3961 334.752 106.984C336.924 100.619 344.873 87.6158 359.296 86.5247C373.719 85.4335 381.769 99.7096 383.991 106.984C390.557 102.589 412.323 116.627 407.778 124.81C403.233 132.994 394.395 119.361 383.991 128.807C382.416 135.233 377.073 137.345 374.598 137.597C370.002 148.206 358.781 170.059 350.66 172.605C342.539 175.151 331.52 183.972 327.025 188.063L331.722 201.097L315.208 217.01C321.859 256.561 260.817 281.721 193.094 322.488C202.091 352.031 206.699 368.934 206.426 405.69C212.638 417.51 239.455 424.936 256.423 425.997C273.392 427.058 319.298 415.086 358.841 399.476C398.385 383.866 438.534 372.955 455.654 370.833C469.35 369.136 483.279 381.037 488.531 387.2Z" fill="white"/>
<path d="M558.959 400.141C544.848 399.665 541.37 405.935 534.101 409.539L520.914 383.62C527.88 379.449 536.829 363.612 536.829 363.612C536.829 363.612 541.743 355.626 552.289 343.302C560.727 333.442 571.553 328.313 578.511 326.78C581.004 326.744 585.843 330.315 580.276 335.723C573.317 342.483 568.25 351.982 568.672 356.862C569.009 360.765 580.936 356.462 586.857 353.822C585.673 349.788 588.035 346.629 589.364 345.554L590.727 341.057C591.606 339.898 594.477 337.569 598.925 337.524C604.486 337.468 611.004 342.611 614.715 339.777C618.425 336.942 620.278 318.814 629.851 321.716C637.51 324.038 629.518 343.367 624.564 352.741C628.744 361.104 622.407 369.087 618.715 372.033C622.425 374.425 621.405 386.152 603.948 393.056C586.491 399.959 573.069 400.618 558.959 400.141Z" fill="white"/>
<path d="M206.774 149.619L181.605 162.49L172.811 103.888L206.774 149.619Z" fill="white"/>
<path d="M510.16 443.181L538.075 427.089C533.784 400.434 526.906 388.696 507.897 372.592L488.13 387.317L510.16 443.181Z" fill="white"/>
<path d="M310.169 227.058L333.055 202.551C320.106 178.903 317.68 172.318 294.312 163.536L274.608 184.302L310.169 227.058Z" fill="white"/>
<path d="M487.748 388.833C501.805 403.393 507.845 430.388 509.107 442.067C508.842 457.586 491.838 482.864 455.482 501.31C419.125 519.756 356.714 538.164 315.813 546.505C274.912 554.847 235.04 549.235 220.548 544.685C220.548 544.685 227.952 577.805 226.286 587.663C224.953 595.549 217.247 604.194 213.561 607.53L16.9348 614.659C18.9546 605.508 22.9941 583.901 22.9941 570.676C22.9941 554.145 21.1763 503.035 16.9348 432.663C13.5415 376.366 25.7209 324.376 32.2346 305.419C29.8109 304.256 22.6003 299.231 13.1476 288.432C1.33188 274.934 -2.00076 257.493 13.1476 234.289C25.2664 215.725 67.581 211.287 87.2234 211.388C85.8904 218.789 73.4384 237.019 67.379 245.208L76.6195 257.493C82.8304 254.965 98.8271 249.667 113.127 248.697C127.427 247.726 143.525 256.684 149.786 261.285L184.022 227.464C190.132 225.897 203.927 222.095 210.229 219.426C216.53 216.757 218.409 205.877 218.56 200.771C229.72 194.705 255.583 181.723 269.762 178.325C283.941 174.928 299.099 189.043 304.906 196.525C310.966 203.451 319.449 223.066 304.906 246.118C290.364 269.171 224.418 306.48 193.262 322.253C198.352 338.147 204.371 373.768 206.744 389.591C205.23 392.523 204.472 401.027 213.561 411.582C224.923 424.777 250.675 426.749 265.066 426.445C279.457 426.142 357.32 403.999 382.618 390.35C402.856 379.43 441.04 372.656 457.602 370.633C461.793 370.633 473.69 374.273 487.748 388.833Z" fill="black"/>
<path d="M236.108 133.278L202.308 143.888L180.178 110.694L226.408 99.6292L236.108 133.278Z" fill="black"/>
<path d="M172.296 112.513L174.57 149.951L122.732 162.835L113.031 128.276L172.296 112.513Z" fill="black"/>
<mask id="mask0" mask-type="alpha" maskUnits="userSpaceOnUse" x="113" y="99" width="124" height="64">
<path d="M236.108 133.278L202.308 143.888L180.178 110.694L226.408 99.6292L236.108 133.278Z" fill="black"/>
<path d="M172.296 112.513L174.57 149.951L122.732 162.835L113.031 128.276L172.296 112.513Z" fill="black"/>
</mask>
<g mask="url(#mask0)">
<path d="M250.81 137.371L177.297 92.8083M184.118 150.406L110.605 105.844M240.655 144.04L167.142 99.4776M173.963 157.075L100.45 112.513" stroke="white" stroke-width="2"/>
</g>
<path d="M142.287 45.5425H141.287C141.287 45.0783 141.607 44.6751 142.059 44.569L142.287 45.5425ZM173.061 45.5425L173.605 44.7033L173.061 45.5425ZM213.083 216.946L213.793 217.649L213.083 216.946ZM91.351 176.936L91.4708 175.944C91.7881 175.982 92.0681 176.17 92.224 176.449L91.351 176.936ZM38.7471 157.993L37.7839 158.262L38.7471 157.993ZM91.351 130.865L91.4774 131.857C91.3521 131.873 91.2248 131.865 91.1024 131.834L91.351 130.865ZM104.388 104.95L104.001 104.028L104.388 104.95ZM138.649 88.4311L137.665 88.2509V88.2509L138.649 88.4311ZM177.003 32.5092L176.634 33.4388L177.003 32.5092ZM38.7471 38.4196L39.5228 39.0507L38.7471 38.4196ZM0.999939 192.243L1.42426 193.149C1.02875 193.334 0.558777 193.241 0.263367 192.919C-0.0320435 192.598 -0.0845337 192.121 0.133789 191.743L0.999939 192.243ZM15.5529 185.423L15.1286 184.518C15.5901 184.302 16.1404 184.467 16.4061 184.902L15.5529 185.423ZM22.2231 196.335L23.0018 196.962C22.7977 197.216 22.4831 197.354 22.1584 197.333C21.8337 197.312 21.5396 197.134 21.3699 196.856L22.2231 196.335ZM31.0157 185.423L30.2371 184.796C30.4317 184.554 30.7274 184.417 31.0375 184.424C31.3476 184.43 31.637 184.581 31.8209 184.83L31.0157 185.423ZM41.1727 199.214L42.0409 199.711C41.873 200.004 41.5681 200.193 41.2304 200.213C40.8927 200.232 40.5681 200.08 40.3675 199.807L41.1727 199.214ZM49.0557 185.423L48.1875 184.927C48.3655 184.616 48.6969 184.423 49.0557 184.423C49.4145 184.423 49.7458 184.616 49.9239 184.927L49.0557 185.423ZM56.9387 199.214L57.713 199.847C57.5046 200.102 57.1841 200.238 56.8558 200.211C56.5276 200.184 56.2339 199.996 56.0705 199.711L56.9387 199.214ZM65.7312 188.454L64.9569 187.822C65.1624 187.57 65.4774 187.434 65.8014 187.457C66.1254 187.48 66.4182 187.658 66.5865 187.936L65.7312 188.454ZM72.2498 199.214L72.951 199.927C72.733 200.142 72.429 200.245 72.1256 200.207C71.8223 200.169 71.5529 199.994 71.3946 199.732L72.2498 199.214ZM81.4972 190.121L80.7961 189.408C80.9979 189.21 81.2742 189.106 81.5567 189.123C81.8391 189.14 82.1012 189.276 82.278 189.497L81.4972 190.121ZM88.7738 199.214L89.5076 199.894C89.3098 200.107 89.0288 200.224 88.7379 200.214C88.4469 200.203 88.175 200.066 87.9931 199.839L88.7738 199.214ZM104.388 212.096L103.425 212.363L104.388 212.096ZM47.5853 133.65C47.0517 133.508 46.7344 132.96 46.8766 132.426C47.0189 131.893 47.5668 131.575 48.1005 131.718L47.5853 133.65ZM88.7738 143.595L89.0314 142.629C89.394 142.726 89.672 143.017 89.7513 143.384C89.8306 143.751 89.6978 144.131 89.4076 144.369L88.7738 143.595ZM77.8589 152.537L77.22 153.306C76.9903 153.115 76.8579 152.832 76.8589 152.534C76.8599 152.235 76.9943 151.953 77.2252 151.763L77.8589 152.537ZM88.3516 159.951C88.7764 160.304 88.8348 160.935 88.482 161.36C88.1291 161.784 87.4986 161.843 87.0738 161.49L88.3516 159.951ZM46.8669 141.538C47.4171 141.585 47.8251 142.069 47.7781 142.62C47.7311 143.17 47.2469 143.578 46.6966 143.531L46.8669 141.538ZM28.9599 142.015C28.4096 141.968 28.0016 141.484 28.0486 140.934C28.0956 140.384 28.5799 139.976 29.1301 140.023L28.9599 142.015ZM72.3246 162.526C72.4155 161.982 72.9307 161.614 73.4755 161.704C74.0202 161.795 74.3882 162.31 74.2974 162.855L72.3246 162.526ZM71.2655 181.041C71.1747 181.586 70.6594 181.954 70.1147 181.863C69.5699 181.772 69.2019 181.257 69.2927 180.712L71.2655 181.041ZM207.17 150.264L207.979 149.675C208.152 149.913 208.212 150.215 208.142 150.501C208.072 150.788 207.879 151.028 207.615 151.159L207.17 150.264ZM183.208 163.283C182.714 163.529 182.113 163.327 181.868 162.833C181.622 162.338 181.824 161.738 182.318 161.492L183.208 163.283ZM122.731 162.388L122.957 163.362C122.427 163.484 121.897 163.162 121.762 162.635L122.731 162.388ZM175.184 150.264L176.182 150.207C176.209 150.693 175.883 151.128 175.409 151.238L175.184 150.264ZM227.181 98.4335L226.929 97.4659C227.459 97.3274 228.002 97.6419 228.146 98.171L227.181 98.4335ZM236.58 132.987L237.545 132.724C237.687 133.246 237.388 133.786 236.871 133.944L236.58 132.987ZM172.253 104.023C171.928 103.577 172.026 102.952 172.473 102.626C172.919 102.301 173.544 102.399 173.87 102.846L172.253 104.023ZM207.17 103.656L207.423 104.623L207.17 103.656ZM153.247 103.984C153.78 103.841 154.328 104.158 154.471 104.691C154.614 105.225 154.298 105.773 153.764 105.916L153.247 103.984ZM136.785 110.463C136.252 110.605 135.703 110.289 135.561 109.755C135.418 109.222 135.734 108.674 136.268 108.531L136.785 110.463ZM185.12 98.0419C184.583 98.171 184.043 97.8403 183.913 97.3033C183.784 96.7664 184.115 96.2264 184.652 96.0973L185.12 98.0419ZM196.628 93.2178C197.165 93.0887 197.705 93.4194 197.834 93.9563C197.963 94.4933 197.633 95.0333 197.096 95.1624L196.628 93.2178ZM188.676 185.636C189.228 185.636 189.676 186.083 189.676 186.636C189.676 187.188 189.228 187.636 188.676 187.636V185.636ZM180.489 187.636C179.937 187.636 179.489 187.188 179.489 186.636C179.489 186.083 179.937 185.636 180.489 185.636V187.636ZM67.3988 246.346L66.6585 247.019C66.3264 246.653 66.3111 246.1 66.6223 245.716L67.3988 246.346ZM78.5992 257.192C78.9705 257.601 78.9401 258.233 78.5312 258.605C78.1223 258.976 77.4899 258.945 77.1186 258.537L78.5992 257.192ZM154.171 264.999C154.583 265.367 154.619 265.999 154.251 266.411C153.883 266.823 153.251 266.859 152.839 266.491L154.171 264.999ZM66.3344 266.542C65.8939 266.876 65.2668 266.789 64.9337 266.348C64.6005 265.908 64.6875 265.28 65.128 264.947L66.3344 266.542ZM88.2937 212.096L89.1975 212.524L88.2937 212.096ZM29.6691 302.093C30.1006 302.438 30.171 303.067 29.8263 303.499C29.4817 303.93 28.8524 304.001 28.4209 303.656L29.6691 302.093ZM48.5456 283.222C49.0207 282.941 49.6341 283.097 49.9158 283.572C50.1975 284.047 50.0407 284.661 49.5657 284.943L48.5456 283.222ZM15.5529 625.979L15.6182 626.977C15.308 626.998 15.006 626.872 14.8011 626.639C14.5962 626.405 14.5115 626.089 14.5721 625.785L15.5529 625.979ZM70.9534 307.705C70.5455 308.077 69.913 308.049 69.5406 307.641C69.1682 307.233 69.197 306.6 69.6049 306.228L70.9534 307.705ZM136.527 306.966L135.93 307.769L136.527 306.966ZM264.474 425.933L264.565 426.929L264.474 425.933ZM478.073 378.65L477.383 379.374L478.073 378.65ZM486.714 481.855L487.337 482.637L486.714 481.855ZM55.9387 360.009C55.9387 359.457 56.3864 359.009 56.9387 359.009C57.491 359.009 57.9387 359.457 57.9387 360.009H55.9387ZM533.556 408.808L534.511 408.509C534.514 408.521 534.518 408.533 534.521 408.545L533.556 408.808ZM518.549 382.287L519.248 381.572C519.27 381.593 519.291 381.616 519.312 381.64L518.549 382.287ZM313.136 152.537L314.096 152.817C314.045 152.993 313.947 153.151 313.812 153.274L313.136 152.537ZM324.658 82.6723L324.628 83.6719L324.658 82.6723ZM334.208 121.469L335.199 121.601L334.208 121.469ZM361.799 87.2188L361.581 88.1948L361.799 87.2188ZM358.312 105.556L357.893 104.648L358.312 105.556ZM352.057 113.476C351.784 113.956 351.174 114.125 350.693 113.852C350.213 113.579 350.045 112.969 350.317 112.489L352.057 113.476ZM385.423 106.92L384.491 107.283L385.423 106.92ZM371.349 114.515L371.943 113.71L371.349 114.515ZM376.807 138.14L376.751 137.141H376.751L376.807 138.14ZM367.199 122.182C366.806 122.569 366.173 122.564 365.785 122.17C365.398 121.777 365.403 121.143 365.797 120.756L367.199 122.182ZM345.862 112.262C345.339 112.084 345.06 111.516 345.238 110.993C345.416 110.47 345.984 110.191 346.507 110.369L345.862 112.262ZM343.835 151.036C343.744 151.58 343.228 151.948 342.683 151.856C342.139 151.764 341.771 151.248 341.863 150.704L343.835 151.036ZM374.381 137.356L375.01 136.578V136.578L374.381 137.356ZM348.61 173.754L348.95 174.694L348.61 173.754ZM538.408 427.146L539.376 426.893C539.491 427.337 539.29 427.803 538.887 428.023L538.408 427.146ZM508.158 373.497L507.609 372.661C507.963 372.429 508.425 372.444 508.762 372.7L508.158 373.497ZM502.208 412.142L501.292 412.544H501.292L502.208 412.142ZM514.533 378.65L515.183 377.89H515.183L514.533 378.65ZM492.366 395.017L491.553 395.599L492.366 395.017ZM522.036 386.399L522.798 385.752C522.804 385.759 522.809 385.765 522.814 385.772L522.036 386.399ZM505.517 421.084L504.56 421.372L505.517 421.084ZM535.982 417.901L536.949 417.646H536.949L535.982 417.901ZM507.896 432.298L506.904 432.419L507.896 432.298ZM315.613 217.85C315.198 218.214 314.566 218.171 314.202 217.755C313.839 217.339 313.882 216.708 314.298 216.344L315.613 217.85ZM331.783 202.397L332.769 202.233C332.826 202.575 332.702 202.922 332.441 203.15L331.783 202.397ZM292.822 163.704L292.075 163.04C292.243 162.852 292.475 162.733 292.725 162.709L292.822 163.704ZM279.774 179.874C279.407 180.287 278.775 180.324 278.362 179.957C277.95 179.59 277.913 178.958 278.28 178.545L279.774 179.874ZM160.724 250.741L160.03 250.022L160.724 250.741ZM149.382 262.319C148.93 262.637 148.306 262.529 147.988 262.077C147.67 261.626 147.779 261.002 148.23 260.684L149.382 262.319ZM198.681 614.007L199.052 614.936C198.954 614.975 198.851 614.998 198.746 615.005L198.681 614.007ZM199.213 344.248L198.245 344.497L199.213 344.248ZM327.515 189.293C327.135 189.694 326.502 189.712 326.101 189.332C325.7 188.953 325.682 188.32 326.062 187.919L327.515 189.293ZM300.319 165.626C299.912 165.999 299.279 165.971 298.907 165.564C298.534 165.156 298.562 164.524 298.969 164.151L300.319 165.626ZM312.681 234.374L313.63 234.69L312.681 234.374ZM255.681 182.089L256.132 182.982L255.681 182.089ZM302.373 192.277L301.646 192.964L302.373 192.277ZM309.195 169.779L309.747 168.945L309.195 169.779ZM294.641 185.678L294.078 186.504L294.641 185.678ZM325.124 185.678L325.961 185.132L325.124 185.678ZM330.084 195.729L331.03 195.402L330.084 195.729ZM142.059 44.569C145.868 43.6744 151.985 42.6027 157.99 42.2896C160.993 42.133 163.993 42.1646 166.677 42.512C169.344 42.8572 171.786 43.5249 173.605 44.7033L172.517 46.3817C171.062 45.4384 168.961 44.8243 166.42 44.4954C163.896 44.1687 161.025 44.134 158.094 44.2868C152.232 44.5925 146.235 45.6426 142.516 46.516L142.059 44.569ZM173.605 44.7033C174.553 45.3175 175.621 46.3885 176.756 47.7395C177.906 49.1073 179.178 50.8271 180.531 52.8009C183.238 56.7496 186.303 61.7662 189.401 67.1307C195.601 77.8625 201.97 90.043 205.942 97.9861L204.154 98.8808C200.193 90.9617 193.843 78.8184 187.669 68.1311C184.582 62.7861 181.547 57.8194 178.882 53.9317C177.549 51.9873 176.317 50.3256 175.225 49.0263C174.119 47.7101 173.207 46.8283 172.517 46.3817L173.605 44.7033ZM218.467 138.644C220.141 149.442 221.868 166.186 221.761 181.675C221.708 189.417 221.196 196.88 219.978 203.144C218.769 209.367 216.831 214.58 213.793 217.649L212.372 216.242C214.974 213.613 216.822 208.899 218.015 202.762C219.2 196.667 219.708 189.341 219.761 181.661C219.867 166.305 218.152 149.672 216.491 138.95L218.467 138.644ZM91.2311 177.929C85.8575 177.281 78.653 176.14 71.2867 174.53L71.7136 172.576C79.0132 174.171 86.1548 175.302 91.4708 175.944L91.2311 177.929ZM71.2867 174.53C63.7304 172.879 55.9611 170.726 49.8155 168.087C46.744 166.769 44.0396 165.313 41.9623 163.712C39.8971 162.12 38.3562 160.311 37.7839 158.262L39.7103 157.724C40.1168 159.18 41.2769 160.658 43.1832 162.127C45.0774 163.587 47.615 164.966 50.6046 166.25C56.581 168.816 64.2094 170.937 71.7136 172.576L71.2867 174.53ZM37.7839 158.262C36.4799 153.59 35.6806 147.55 35.5435 141.683L37.543 141.636C37.6771 147.377 38.4606 153.247 39.7103 157.724L37.7839 158.262ZM35.5435 141.683C35.417 136.266 35.8529 130.915 37.0239 126.882C37.6083 124.869 38.3962 123.111 39.4483 121.838C40.5186 120.543 41.9016 119.711 43.5982 119.711V121.711C42.6382 121.711 41.7797 122.157 40.9899 123.112C40.1819 124.09 39.4911 125.557 38.9446 127.439C37.8538 131.197 37.4188 136.32 37.543 141.636L35.5435 141.683ZM43.5982 119.711C45.3403 119.711 48.4065 120.153 52.1479 120.838C55.9193 121.529 60.4613 122.484 65.2026 123.543C74.6865 125.661 84.998 128.202 91.5995 129.897L91.1024 131.834C84.515 130.143 74.2246 127.607 64.7666 125.495C60.037 124.439 55.523 123.49 51.7876 122.806C48.0221 122.116 45.1306 121.711 43.5982 121.711V119.711ZM90.3511 130.88C90.299 127.391 90.9046 121.905 92.8954 116.694C94.8842 111.49 98.3136 106.419 104.001 104.028L104.776 105.872C99.7905 107.967 96.6508 112.469 94.7637 117.408C92.8787 122.342 92.3018 127.57 92.3509 130.85L90.3511 130.88ZM104.001 104.028C107.488 102.562 111.2 102.061 114.785 101.798C118.434 101.53 121.833 101.511 125.011 101.043C128.145 100.583 130.846 99.7067 132.979 97.8456C135.102 95.994 136.784 93.0617 137.665 88.2509L139.633 88.6114C138.695 93.7271 136.852 97.122 134.294 99.3528C131.747 101.574 128.611 102.536 125.302 103.022C122.038 103.502 118.388 103.539 114.931 103.793C111.41 104.051 107.959 104.534 104.776 105.872L104.001 104.028ZM137.665 88.2509C140.561 72.4519 141.287 53.1912 141.287 45.5425H143.287C143.287 53.2508 142.558 72.6455 139.633 88.6114L137.665 88.2509ZM204.063 98.6082C202.327 88.8214 198.845 73.7929 194.053 60.5335C191.656 53.9018 188.944 47.7482 185.978 42.9229C182.99 38.0622 179.839 34.7094 176.634 33.4388L177.371 31.5795C181.2 33.0974 184.637 36.9231 187.681 41.8755C190.748 46.8634 193.514 53.1578 195.934 59.8537C200.775 73.2494 204.282 88.3945 206.033 98.2588L204.063 98.6082ZM176.634 33.4388C174.562 32.6175 171.007 31.8901 166.266 31.2874C161.552 30.6882 155.748 30.2216 149.231 29.892C136.199 29.2329 120.361 29.1239 104.778 29.5874C89.192 30.0509 73.8858 31.0865 61.9124 32.7115C55.9226 33.5245 50.7945 34.4814 46.8923 35.579C44.9407 36.128 43.3199 36.7055 42.0611 37.3061C40.7853 37.9148 39.9636 38.509 39.5228 39.0507L37.9714 37.7885C38.6866 36.9095 39.819 36.1599 41.1999 35.501C42.5978 34.834 44.3363 34.2204 46.3507 33.6537C50.3807 32.5201 55.612 31.5483 61.6434 30.7297C73.7122 29.0917 89.0947 28.0529 104.719 27.5882C120.345 27.1235 136.238 27.2323 149.332 27.8945C155.879 28.2256 161.737 28.6956 166.519 29.3034C171.273 29.9078 175.047 30.658 177.371 31.5795L176.634 33.4388ZM39.5228 39.0507C39.0385 39.646 38.4652 40.6979 37.8215 42.2337C37.1858 43.7501 36.5093 45.6691 35.7976 47.9446C34.3746 52.4946 32.8288 58.4115 31.1999 65.2645C27.9426 78.9683 24.3692 96.347 20.7966 113.883C17.2257 131.41 13.6558 149.093 10.4099 163.379C8.78705 170.521 7.24225 176.828 5.81598 181.848C4.39954 186.833 3.07318 190.651 1.86603 192.743L0.133789 191.743C1.20056 189.895 2.47034 186.305 3.89215 181.301C5.30414 176.331 6.83978 170.065 8.45966 162.936C11.6992 148.678 15.2637 131.021 18.8368 113.484C22.4081 95.9545 25.988 78.543 29.2541 64.802C30.8869 57.9326 32.4452 51.9634 33.8888 47.3476C34.6105 45.0402 35.308 43.0564 35.977 41.4605C36.6378 39.8839 37.2998 38.614 37.9714 37.7885L39.5228 39.0507ZM0.575562 191.338L15.1286 184.518L15.9773 186.329L1.42426 193.149L0.575562 191.338ZM16.4061 184.902L23.0764 195.813L21.3699 196.856L14.6997 185.945L16.4061 184.902ZM21.4445 195.707L30.2371 184.796L31.7944 186.051L23.0018 196.962L21.4445 195.707ZM31.8209 184.83L41.9779 198.621L40.3675 199.807L30.2105 186.016L31.8209 184.83ZM40.3045 198.718L48.1875 184.927L49.9239 185.92L42.0409 199.711L40.3045 198.718ZM49.9239 184.927L57.8069 198.718L56.0705 199.711L48.1875 185.92L49.9239 184.927ZM56.1643 198.582L64.9569 187.822L66.5056 189.087L57.713 199.847L56.1643 198.582ZM66.5865 187.936L73.1051 198.696L71.3946 199.732L64.8759 188.972L66.5865 187.936ZM71.5487 198.501L80.7961 189.408L82.1984 190.834L72.951 199.927L71.5487 198.501ZM82.278 189.497L89.5546 198.59L87.9931 199.839L80.7165 190.746L82.278 189.497ZM103.425 212.363C100.997 203.615 98.4754 196.243 96.2591 190.48L98.1258 189.762C100.364 195.583 102.906 203.016 105.352 211.829L103.425 212.363ZM96.2591 190.48C93.7289 183.902 91.604 179.44 90.4779 177.424L92.224 176.449C93.4131 178.577 95.5767 183.135 98.1258 189.762L96.2591 190.48ZM88.04 198.535L96.4586 189.442L97.9262 190.801L89.5076 199.894L88.04 198.535ZM48.1005 131.718L89.0314 142.629L88.5163 144.562L47.5853 133.65L48.1005 131.718ZM89.4076 144.369L78.4926 153.31L77.2252 151.763L88.1401 142.822L89.4076 144.369ZM78.4978 151.768L88.3516 159.951L87.0738 161.49L77.22 153.306L78.4978 151.768ZM46.6966 143.531L36.4582 142.656L36.6284 140.663L46.8669 141.538L46.6966 143.531ZM36.4582 142.656L28.9599 142.015L29.1301 140.023L36.6284 140.663L36.4582 142.656ZM74.2974 162.855L72.4865 173.718L70.5137 173.389L72.3246 162.526L74.2974 162.855ZM72.4865 173.718L71.2655 181.041L69.2927 180.712L70.5137 173.389L72.4865 173.718ZM207.615 151.159L183.208 163.283L182.318 161.492L206.725 149.368L207.615 151.159ZM114.065 128.978L91.4774 131.857L91.2245 129.873L113.812 126.994L114.065 128.978ZM114.908 127.738L123.7 162.14L121.762 162.635L112.97 128.233L114.908 127.738ZM122.506 161.413L174.958 149.289L175.409 151.238L122.957 163.362L122.506 161.413ZM173.314 113.524L114.191 128.953L113.686 127.018L172.809 111.589L173.314 113.524ZM174.185 150.32L172.063 112.613L174.06 112.501L176.182 150.207L174.185 150.32ZM228.146 98.171L237.545 132.724L235.615 133.249L226.216 98.6959L228.146 98.171ZM173.87 102.846L179.453 110.511L177.836 111.689L172.253 104.023L173.87 102.846ZM179.453 110.511L203.011 142.855L201.395 144.033L177.836 111.689L179.453 110.511ZM203.011 142.855L207.979 149.675L206.362 150.852L201.395 144.033L203.011 142.855ZM236.871 133.944L217.77 139.754L217.188 137.84L236.289 132.03L236.871 133.944ZM217.77 139.754L202.494 144.401L201.912 142.487L217.188 137.84L217.77 139.754ZM227.434 99.401L207.423 104.623L206.918 102.688L226.929 97.4659L227.434 99.401ZM207.423 104.623L178.897 112.067L178.392 110.132L206.918 102.688L207.423 104.623ZM178.897 112.067L173.314 113.524L172.809 111.589L178.392 110.132L178.897 112.067ZM205.974 98.0569L208.097 103.279L206.244 104.032L204.122 98.81L205.974 98.0569ZM153.764 105.916L136.785 110.463L136.268 108.531L153.247 103.984L153.764 105.916ZM184.652 96.0973L196.628 93.2178L197.096 95.1624L185.12 98.0419L184.652 96.0973ZM188.676 187.636H180.489V185.636H188.676V187.636ZM68.1391 245.674L78.5992 257.192L77.1186 258.537L66.6585 247.019L68.1391 245.674ZM213.793 217.649C211.522 219.945 207.592 221.909 202.684 223.546C197.744 225.195 191.686 226.553 185.037 227.568L184.735 225.591C191.31 224.588 197.25 223.251 202.051 221.649C206.886 220.036 210.442 218.192 212.372 216.242L213.793 217.649ZM185.037 227.568C169.379 229.958 150.301 230.464 134.534 228.295C126.655 227.211 119.546 225.452 114.09 222.89C108.659 220.338 104.684 216.901 103.425 212.363L105.352 211.829C106.381 215.536 109.718 218.626 114.941 221.079C120.14 223.522 127.028 225.244 134.807 226.314C150.357 228.453 169.239 227.956 184.735 225.591L185.037 227.568ZM152.839 266.491C141.361 256.239 127.505 250.395 112.662 250.026C97.8184 249.657 81.9114 254.762 66.3344 266.542L65.128 264.947C81.0122 252.934 97.3528 247.645 112.711 248.026C128.07 248.408 142.371 254.46 154.171 264.999L152.839 266.491ZM98.1452 190.425C96.5872 195.315 93.5294 203.374 89.1975 212.524L87.3899 211.668C91.6878 202.59 94.7114 194.614 96.2396 189.818L98.1452 190.425ZM89.1975 212.524C83.9511 223.605 76.8141 236.332 68.1753 246.977L66.6223 245.716C75.124 235.241 82.1817 222.669 87.3899 211.668L89.1975 212.524ZM88.2114 213.093C55.3728 210.381 25.6662 220.838 11.7557 237.774C4.82977 246.207 1.81757 256.234 4.21436 267.121C6.61914 278.045 14.5013 289.978 29.6691 302.093L28.4209 303.656C13.0421 291.372 4.79828 279.076 2.26117 267.551C-0.283936 255.99 2.94617 245.349 10.2102 236.505C24.6797 218.888 55.1441 208.355 88.376 211.099L88.2114 213.093ZM49.5657 284.943C43.9422 288.277 39.2103 294.139 35.2662 302.046C31.3256 309.947 28.2085 319.814 25.775 331.053C20.9078 353.531 18.8051 381.346 18.2347 409.537C17.094 465.915 22.0823 523.589 23.2214 542.719L21.2249 542.838C20.09 523.777 15.0923 465.979 16.2352 409.496C16.8065 381.256 18.913 353.293 23.8203 330.63C26.2739 319.299 29.4352 309.256 33.4765 301.154C37.5144 293.058 42.468 286.826 48.5456 283.222L49.5657 284.943ZM23.2214 542.719C24.3636 561.901 22.6883 582.77 20.7335 598.821C19.7554 606.852 18.7062 613.686 17.9013 618.514C17.4988 620.928 17.1573 622.841 16.9163 624.152C16.7958 624.807 16.7004 625.311 16.6349 625.653C16.6023 625.823 16.5771 625.953 16.56 626.041C16.5515 626.084 16.545 626.118 16.5406 626.14C16.5384 626.151 16.5367 626.16 16.5356 626.165C16.535 626.168 16.5345 626.17 16.5342 626.172C16.5341 626.173 16.534 626.173 16.5339 626.174C16.5338 626.174 16.5338 626.174 15.5529 625.979C14.5721 625.785 14.5721 625.784 14.5722 625.784C14.5723 625.784 14.5723 625.784 14.5724 625.783C14.5727 625.782 14.5731 625.78 14.5736 625.777C14.5746 625.772 14.5762 625.764 14.5782 625.753C14.5825 625.732 14.5887 625.7 14.597 625.658C14.6137 625.572 14.6384 625.445 14.6707 625.276C14.7352 624.94 14.8297 624.44 14.9493 623.79C15.1885 622.49 15.5281 620.588 15.9285 618.185C16.7296 613.381 17.7743 606.576 18.7481 598.58C20.6968 582.578 22.3567 561.846 21.2249 542.838L23.2214 542.719ZM69.6049 306.228C79.7499 296.966 107.4 284.094 137.123 306.164L135.93 307.769C107.198 286.435 80.6169 298.882 70.9534 307.705L69.6049 306.228ZM264.382 424.938C302.945 421.392 348.283 402.146 388.152 387.43C408.037 380.09 426.572 373.876 442.131 371.389C457.644 368.91 470.519 370.081 478.762 377.925L477.383 379.374C469.86 372.215 457.836 370.904 442.447 373.364C427.103 375.817 408.735 381.964 388.845 389.306C349.164 403.953 303.468 423.352 264.565 426.929L264.382 424.938ZM487.337 482.637C478.256 489.876 461.907 499.095 441.283 508.398C420.641 517.709 395.654 527.131 369.258 534.76C342.864 542.388 315.04 548.23 288.727 550.368C262.425 552.505 237.568 550.947 217.145 543.721L217.812 541.836C237.866 548.931 262.41 550.499 288.565 548.374C314.709 546.25 342.398 540.441 368.703 532.838C395.005 525.236 419.903 515.847 440.461 506.575C461.039 497.293 477.207 488.156 486.09 481.073L487.337 482.637ZM217.145 543.721C176.424 529.313 136.148 494.224 106.077 457.425C91.0323 439.014 78.5134 420.14 69.7505 403.155C61.0054 386.204 55.9387 371.015 55.9387 360.009H57.9387C57.9387 370.523 62.8204 385.36 71.5279 402.238C80.2174 419.081 92.655 437.839 107.626 456.16C137.588 492.825 177.582 527.601 217.812 541.836L217.145 543.721ZM312.176 152.257C313.576 147.458 316.381 135.04 316.381 123.894H318.381C318.381 135.298 315.526 147.917 314.096 152.817L312.176 152.257ZM316.381 123.894C316.381 116.976 315.623 106.429 316.156 97.8224C316.422 93.5068 317.017 89.525 318.251 86.613C318.871 85.1501 319.679 83.8934 320.747 83.0083C321.837 82.1056 323.154 81.6277 324.687 81.6727L324.628 83.6719C323.584 83.6412 322.741 83.9541 322.023 84.5485C321.284 85.1607 320.638 86.1073 320.092 87.3936C318.996 89.98 318.416 93.68 318.152 97.9459C317.623 106.502 318.381 116.718 318.381 123.894H316.381ZM324.687 81.6727C326.913 81.7382 328.643 83.0769 329.955 84.9727C331.262 86.8611 332.247 89.4235 332.997 92.2596C334.502 97.9438 335.139 105.025 335.35 110.824L333.352 110.897C333.142 105.15 332.512 98.2419 331.064 92.7712C330.338 90.0298 329.426 87.7233 328.31 86.1108C327.2 84.5057 325.981 83.7117 324.628 83.6719L324.687 81.6727ZM335.35 110.824C335.536 115.918 335.396 120.124 335.199 121.601L333.217 121.337C333.391 120.035 333.537 115.968 333.352 110.897L335.35 110.824ZM333.435 110.461C335.438 105.868 339.233 99.1538 344.14 93.9192C349.01 88.7241 355.229 84.7277 362.017 86.2428L361.581 88.1948C355.877 86.9214 350.344 90.2247 345.599 95.287C340.891 100.31 337.209 106.811 335.268 111.26L333.435 110.461ZM358.731 106.464C357.344 107.104 355.939 108.369 354.719 109.771C353.511 111.158 352.557 112.596 352.057 113.476L350.317 112.489C350.879 111.5 351.91 109.952 353.211 108.457C354.5 106.977 356.127 105.463 357.893 104.648L358.731 106.464ZM362.017 86.2428C367.425 87.4501 372.695 90.4626 377 94.1724C381.3 97.8782 384.719 102.35 386.355 106.558L384.491 107.283C383.004 103.459 379.82 99.2431 375.694 95.6875C371.573 92.1359 366.592 89.3134 361.581 88.1948L362.017 86.2428ZM386.355 106.558C387.977 110.731 387.933 114.957 384.732 117.684L383.435 116.161C385.681 114.249 385.982 111.119 384.491 107.283L386.355 106.558ZM384.732 117.684C382.616 119.485 380.181 119.708 377.769 119.068C375.406 118.441 373.003 116.977 370.756 115.32L371.943 113.71C374.134 115.327 376.291 116.606 378.281 117.135C380.222 117.65 381.935 117.439 383.435 116.161L384.732 117.684ZM370.756 115.32C367.937 113.241 365.124 110.664 362.922 108.88C361.787 107.961 360.816 107.25 360.021 106.83C359.159 106.374 358.814 106.426 358.731 106.464L357.893 104.648C358.91 104.179 360.044 104.579 360.956 105.062C361.935 105.579 363.033 106.396 364.181 107.326C366.545 109.241 369.15 111.65 371.943 113.71L370.756 115.32ZM385.082 116.879C385.246 120.625 385.03 126.429 383.758 131.126L381.828 130.604C383.024 126.183 383.244 120.607 383.084 116.966L385.082 116.879ZM383.758 131.126C383.203 133.178 382.428 135.092 381.339 136.535C380.237 137.997 378.763 139.033 376.862 139.138L376.751 137.141C377.904 137.077 378.885 136.468 379.742 135.331C380.614 134.176 381.305 132.537 381.828 130.604L383.758 131.126ZM382.061 130.184C385.347 126.649 387.97 124.894 390.267 124.323C392.639 123.734 394.487 124.45 396.061 125.368C396.812 125.806 397.586 126.345 398.253 126.77C398.955 127.218 399.618 127.597 400.308 127.848C401.61 128.321 403.127 128.39 405.275 127.194L406.248 128.942C403.62 130.404 401.5 130.409 399.625 129.727C398.726 129.4 397.917 128.928 397.177 128.456C396.403 127.962 395.766 127.512 395.053 127.096C393.699 126.306 392.406 125.853 390.749 126.264C389.016 126.695 386.72 128.11 383.525 131.546L382.061 130.184ZM405.275 127.194C406.259 126.646 406.809 125.926 407.068 125.098C407.335 124.244 407.317 123.189 406.993 121.967C406.341 119.508 404.517 116.634 402.04 114.03C399.572 111.436 396.544 109.202 393.598 107.97C390.627 106.728 387.937 106.575 385.938 107.777L384.907 106.063C387.696 104.386 391.136 104.773 394.369 106.125C397.626 107.487 400.875 109.904 403.489 112.651C406.093 115.389 408.156 118.55 408.926 121.454C409.313 122.914 409.39 124.373 408.977 125.695C408.556 127.043 407.651 128.16 406.248 128.942L405.275 127.194ZM370.124 116.845C370.191 115.976 370.27 115.156 370.356 114.402L372.343 114.628C372.26 115.357 372.184 116.154 372.118 117L370.124 116.845ZM371.822 117.636L367.199 122.182L365.797 120.756L370.419 116.21L371.822 117.636ZM370.125 128.164C369.762 124.391 369.859 120.234 370.124 116.845L372.118 117C371.859 120.318 371.768 124.352 372.116 127.972L370.125 128.164ZM346.507 110.369C352.176 112.3 356.423 114.238 360.313 116.871C364.198 119.503 367.684 122.799 371.861 127.395L370.381 128.74C366.252 124.197 362.888 121.031 359.191 118.528C355.498 116.027 351.43 114.158 345.862 112.262L346.507 110.369ZM335.199 121.601C335.018 122.96 335.473 124.638 336.392 126.721C337.309 128.8 338.571 131.046 339.864 133.6C342.399 138.608 344.924 144.567 343.835 151.036L341.863 150.704C342.836 144.927 340.601 139.485 338.08 134.504C336.845 132.064 335.505 129.668 334.562 127.528C333.621 125.394 332.958 123.278 333.217 121.337L335.199 121.601ZM376.862 139.138C375.662 139.205 374.618 138.833 373.752 138.134L375.01 136.578C375.507 136.98 376.068 137.179 376.751 137.141L376.862 139.138ZM373.752 138.134C372.579 137.185 371.785 135.679 371.234 133.99C370.676 132.28 370.327 130.265 370.125 128.164L372.116 127.972C372.31 129.992 372.639 131.85 373.135 133.369C373.637 134.907 374.275 135.984 375.01 136.578L373.752 138.134ZM375.32 137.702C373.382 142.959 369.763 151.092 365.183 158.444C362.892 162.12 360.347 165.624 357.634 168.481C354.93 171.329 352.007 173.59 348.95 174.694L348.27 172.813C350.916 171.857 353.586 169.84 356.184 167.104C358.774 164.377 361.239 160.992 363.485 157.386C367.98 150.173 371.543 142.168 373.443 137.01L375.32 137.702ZM509.155 443.744C508.022 457.957 501.299 471.506 487.337 482.637L486.09 481.073C499.642 470.27 506.075 457.219 507.161 443.585L509.155 443.744ZM478.762 377.925C482.183 381.18 485.388 384.606 488.341 388.165L486.801 389.442C483.9 385.945 480.748 382.577 477.383 379.374L478.762 377.925ZM538.887 428.023L508.637 444.542L507.679 442.787L537.929 426.268L538.887 428.023ZM508.158 373.497C508.707 374.333 508.707 374.333 508.707 374.333C508.707 374.333 508.707 374.333 508.707 374.333C508.706 374.333 508.706 374.334 508.705 374.334C508.704 374.335 508.703 374.336 508.7 374.337C508.696 374.34 508.688 374.345 508.679 374.351C508.66 374.364 508.631 374.383 508.593 374.408C508.518 374.458 508.405 374.533 508.257 374.632C507.961 374.83 507.526 375.122 506.971 375.5C505.86 376.257 504.271 377.357 502.356 378.725C498.525 381.463 493.398 385.275 488.209 389.574L486.933 388.033C492.17 383.696 497.337 379.854 501.193 377.098C503.121 375.72 504.723 374.612 505.844 373.848C506.405 373.466 506.845 373.17 507.145 372.969C507.296 372.869 507.411 372.792 507.489 372.74C507.528 372.714 507.558 372.695 507.578 372.681C507.588 372.675 507.596 372.67 507.601 372.666C507.604 372.665 507.606 372.663 507.607 372.662C507.608 372.662 507.608 372.662 507.609 372.661C507.609 372.661 507.609 372.661 507.609 372.661C507.609 372.661 507.609 372.661 508.158 373.497ZM529.258 397.395L502.715 413.004L501.701 411.28L528.244 395.671L529.258 397.395ZM517.85 383.002C516.643 381.822 515.251 380.579 513.883 379.41L515.183 377.89C516.569 379.075 517.997 380.35 519.248 381.572L517.85 383.002ZM513.883 379.41C512.255 378.017 510.671 376.737 509.494 375.805C508.906 375.339 508.42 374.96 508.081 374.699C507.912 374.568 507.779 374.466 507.69 374.397C507.645 374.363 507.611 374.337 507.588 374.32C507.576 374.311 507.568 374.304 507.562 374.3C507.559 374.298 507.557 374.296 507.556 374.295C507.555 374.295 507.554 374.294 507.554 374.294C507.554 374.294 507.554 374.294 507.554 374.294C507.554 374.294 507.554 374.294 507.554 374.294C507.554 374.294 507.554 374.294 508.158 373.497C508.762 372.7 508.762 372.7 508.762 372.7C508.762 372.7 508.762 372.7 508.763 372.7C508.763 372.7 508.763 372.701 508.763 372.701C508.763 372.701 508.764 372.702 508.765 372.702C508.767 372.703 508.769 372.705 508.772 372.708C508.778 372.712 508.787 372.719 508.799 372.728C508.824 372.747 508.859 372.774 508.905 372.809C508.997 372.88 509.132 372.983 509.304 373.116C509.648 373.382 510.14 373.765 510.736 374.237C511.926 375.179 513.53 376.476 515.183 377.89L513.883 379.41ZM488.341 388.165C490.04 390.213 491.655 392.306 493.18 394.435L491.553 395.599C490.057 393.509 488.471 391.455 486.801 389.442L488.341 388.165ZM515.127 379.454L492.96 395.822L491.772 394.213L513.939 377.845L515.127 379.454ZM527.861 396.989C526.131 393.616 524.063 390.511 521.257 387.026L522.814 385.772C525.689 389.34 527.837 392.559 529.641 396.076L527.861 396.989ZM493.18 394.435C495.077 397.086 496.834 399.794 498.435 402.546L496.706 403.552C495.138 400.856 493.416 398.201 491.553 395.599L493.18 394.435ZM498.435 402.546C500.191 405.564 501.76 408.635 503.124 411.74L501.292 412.544C499.961 409.512 498.426 406.508 496.706 403.552L498.435 402.546ZM522.598 387.226L498.133 403.876L497.008 402.223L521.473 385.572L522.598 387.226ZM532.602 409.107C532.425 408.541 532.249 407.99 532.073 407.451L533.974 406.831C534.153 407.377 534.331 407.937 534.511 408.509L532.602 409.107ZM532.073 407.451C530.746 403.385 529.439 400.065 527.861 396.989L529.641 396.076C531.282 399.276 532.627 402.702 533.974 406.831L532.073 407.451ZM503.124 411.74C504.437 414.732 505.56 417.755 506.475 420.796L504.56 421.372C503.669 418.414 502.575 415.466 501.292 412.544L503.124 411.74ZM533.476 408.033L505.969 421.976L505.065 420.192L532.572 406.249L533.476 408.033ZM534.521 408.545C535.143 410.824 536.071 414.319 536.949 417.646L535.015 418.156C534.137 414.829 533.211 411.342 532.592 409.071L534.521 408.545ZM536.949 417.646C537.581 420.042 538.188 422.354 538.636 424.067C538.861 424.923 539.045 425.63 539.174 426.122C539.238 426.368 539.289 426.561 539.323 426.692C539.34 426.758 539.353 426.808 539.362 426.842C539.367 426.859 539.37 426.872 539.372 426.88C539.373 426.884 539.374 426.888 539.375 426.89C539.375 426.891 539.375 426.892 539.375 426.892C539.375 426.893 539.375 426.893 539.375 426.893C539.376 426.893 539.376 426.893 539.376 426.893C539.376 426.893 539.376 426.893 538.408 427.146C537.44 427.398 537.44 427.398 537.44 427.398C537.44 427.398 537.44 427.398 537.44 427.398C537.44 427.398 537.44 427.398 537.44 427.397C537.44 427.397 537.44 427.396 537.44 427.395C537.439 427.393 537.438 427.39 537.437 427.385C537.435 427.377 537.431 427.364 537.427 427.347C537.418 427.313 537.405 427.263 537.388 427.198C537.354 427.067 537.303 426.874 537.239 426.628C537.11 426.136 536.926 425.429 536.702 424.574C536.253 422.862 535.647 420.551 535.015 418.156L536.949 417.646ZM506.475 420.796C507.612 424.575 508.428 428.38 508.889 432.178L506.904 432.419C506.458 428.742 505.666 425.049 504.56 421.372L506.475 420.796ZM508.889 432.178C509.359 436.052 509.46 439.919 509.155 443.744L507.161 443.585C507.455 439.901 507.359 436.168 506.904 432.419L508.889 432.178ZM536.438 418.791L508.353 433.188L507.44 431.409L535.526 417.011L536.438 418.791ZM314.298 216.344L331.125 201.644L332.441 203.15L315.613 217.85L314.298 216.344ZM293.569 164.369L279.774 179.874L278.28 178.545L292.075 163.04L293.569 164.369ZM185.602 227.277C179.653 233.391 169.603 243.561 161.419 251.461L160.03 250.022C168.192 242.143 178.227 231.989 184.169 225.882L185.602 227.277ZM161.419 251.461C156.137 256.559 151.559 260.785 149.382 262.319L148.23 260.684C150.252 259.26 154.706 255.161 160.03 250.022L161.419 251.461ZM137.123 306.164C143.491 310.892 149.143 317.722 154.517 325.691C159.892 333.662 165.031 342.839 170.341 352.292C180.99 371.245 192.342 391.315 207.849 405.622L206.492 407.092C190.712 392.532 179.214 372.166 168.598 353.271C163.276 343.799 158.179 334.699 152.859 326.809C147.536 318.916 142.033 312.301 135.93 307.769L137.123 306.164ZM207.849 405.622C222.212 418.876 240.125 427.168 264.382 424.938L264.565 426.929C239.665 429.219 221.209 420.672 206.492 407.092L207.849 405.622ZM218.433 542.48C221.599 552.615 228.181 564.247 228.181 581.424H226.181C226.181 564.653 219.827 553.653 216.524 543.077L218.433 542.48ZM228.181 581.424C228.181 590.302 223.214 597.746 217.177 603.39C211.132 609.041 203.895 613.004 199.052 614.936L198.311 613.078C202.967 611.221 209.98 607.38 215.811 601.929C221.648 596.472 226.181 589.519 226.181 581.424H228.181ZM161.581 250.225C172.321 268.043 189.947 304.165 200.182 343.999L198.245 344.497C188.066 304.88 170.525 268.937 159.868 251.258L161.581 250.225ZM200.182 343.999C205.435 364.446 208.749 385.903 208.17 406.386L206.171 406.329C206.743 386.089 203.467 364.825 198.245 344.497L200.182 343.999ZM348.95 174.694C339.714 178.032 331.834 184.741 327.578 189.226L326.128 187.849C330.496 183.245 338.628 176.298 348.27 172.813L348.95 174.694ZM327.578 189.226C327.557 189.248 327.536 189.27 327.515 189.293L326.062 187.919C326.083 187.896 326.105 187.873 326.128 187.849L327.578 189.226ZM313.812 153.274L300.319 165.626L298.969 164.151L312.461 151.799L313.812 153.274ZM193.982 322.425C193.53 321.532 193.53 321.532 193.531 321.532C193.532 321.531 193.533 321.531 193.535 321.53C193.538 321.528 193.542 321.526 193.549 321.523C193.562 321.516 193.581 321.507 193.606 321.493C193.658 321.467 193.734 321.428 193.836 321.377C194.038 321.273 194.34 321.119 194.734 320.916C195.521 320.511 196.679 319.911 198.157 319.136C201.113 317.585 205.35 315.331 210.47 312.521C220.71 306.901 234.478 299.059 248.592 290.17C262.711 281.277 277.154 271.35 288.757 261.561C294.559 256.667 299.634 251.82 303.599 247.168C307.572 242.507 310.388 238.091 311.733 234.058L313.63 234.69C312.17 239.068 309.173 243.712 305.121 248.466C301.062 253.229 295.899 258.152 290.047 263.09C278.342 272.964 263.812 282.947 249.658 291.862C235.499 300.779 221.695 308.642 211.432 314.275C206.3 317.091 202.052 319.351 199.086 320.907C197.604 321.685 196.441 322.287 195.649 322.694C195.253 322.898 194.95 323.054 194.745 323.158C194.643 323.21 194.565 323.25 194.513 323.276C194.487 323.29 194.467 323.3 194.454 323.306C194.447 323.31 194.442 323.312 194.439 323.314C194.437 323.315 194.435 323.316 194.435 323.316C194.434 323.316 194.433 323.317 193.982 322.425ZM256.132 182.982C240.835 190.704 231.724 195.807 226.445 198.973C223.806 200.556 222.128 201.653 221.116 202.349C220.61 202.697 220.271 202.945 220.062 203.102C219.958 203.18 219.887 203.236 219.843 203.271C219.821 203.288 219.807 203.3 219.798 203.307C219.794 203.31 219.792 203.312 219.791 203.313C219.79 203.314 219.79 203.314 219.79 203.314C219.791 203.313 219.791 203.313 219.791 203.313C219.791 203.313 219.792 203.313 219.792 203.312C219.792 203.312 219.792 203.312 219.147 202.548C218.501 201.785 218.501 201.785 218.502 201.784C218.502 201.784 218.502 201.784 218.503 201.783C218.503 201.783 218.504 201.782 218.505 201.781C218.507 201.78 218.509 201.778 218.511 201.776C218.516 201.772 218.523 201.767 218.531 201.76C218.547 201.747 218.569 201.729 218.598 201.706C218.656 201.66 218.741 201.593 218.859 201.505C219.093 201.328 219.455 201.064 219.982 200.701C221.035 199.977 222.749 198.858 225.416 197.258C230.749 194.059 239.905 188.933 255.231 181.196L256.132 182.982ZM198.746 615.005L15.6182 626.977L15.4877 624.982L198.616 613.009L198.746 615.005ZM318.109 177.044L303.1 192.963L301.645 191.591L316.653 175.672L318.109 177.044ZM300.783 166.391C297.527 165.064 294.782 164.518 292.919 164.7L292.725 162.709C295.06 162.481 298.161 163.163 301.538 164.539L300.783 166.391ZM286.259 182.255C276.78 178.312 266.073 177.964 256.132 182.982L255.231 181.196C265.762 175.88 277.085 176.273 287.027 180.408L286.259 182.255ZM301.898 166.14L287.381 182.006L285.905 180.656L300.422 164.79L301.898 166.14ZM316.686 177.078C314.088 174.568 311.346 172.402 308.643 170.613L309.747 168.945C312.549 170.8 315.386 173.042 318.076 175.639L316.686 177.078ZM308.643 170.613C305.913 168.806 303.23 167.388 300.783 166.391L301.538 164.539C304.12 165.591 306.919 167.073 309.747 168.945L308.643 170.613ZM301.646 192.964C299.354 190.54 296.809 188.367 294.078 186.504L295.205 184.852C298.056 186.796 300.71 189.063 303.1 191.59L301.646 192.964ZM294.078 186.504C291.607 184.819 288.984 183.388 286.259 182.255L287.027 180.408C289.883 181.596 292.625 183.093 295.205 184.852L294.078 186.504ZM309.932 170.454L295.379 186.353L293.904 185.003L308.457 169.104L309.932 170.454ZM325.98 189.025C325.445 188.068 324.88 187.134 324.286 186.224L325.961 185.132C326.579 186.078 327.169 187.051 327.726 188.05L325.98 189.025ZM324.286 186.224C322.064 182.818 319.459 179.755 316.686 177.078L318.076 175.639C320.945 178.409 323.649 181.587 325.961 185.132L324.286 186.224ZM308.323 202.009C306.481 198.734 304.224 195.691 301.646 192.964L303.1 191.59C305.787 194.432 308.142 197.607 310.066 201.028L308.323 202.009ZM325.829 186.387L309.9 202.227L308.49 200.809L324.419 184.969L325.829 186.387ZM330.796 202.561C330.422 200.312 329.859 198.141 329.139 196.055L331.03 195.402C331.784 197.59 332.375 199.869 332.769 202.233L330.796 202.561ZM329.139 196.055C328.289 193.592 327.219 191.245 325.98 189.025L327.726 188.05C329.019 190.366 330.138 192.82 331.03 195.402L329.139 196.055ZM311.733 234.058C314.339 226.24 314.243 218.399 312.175 211.183L314.098 210.632C316.269 218.208 316.373 226.463 313.63 234.69L311.733 234.058ZM312.175 211.183C311.258 207.984 309.953 204.906 308.323 202.009L310.066 201.028C311.769 204.055 313.136 207.277 314.098 210.632L312.175 211.183ZM330.751 196.474L313.803 211.653L312.469 210.163L329.417 194.984L330.751 196.474ZM519.312 381.64L522.798 385.752L521.273 387.046L517.786 382.934L519.312 381.64Z" fill="black"/>
<path d="M619.406 373.344C619.219 372.824 619.489 372.251 620.009 372.064C620.528 371.877 621.101 372.147 621.288 372.667L619.406 373.344ZM595.642 385.11C595.109 385.258 594.558 384.946 594.41 384.414C594.262 383.882 594.574 383.331 595.106 383.183L595.642 385.11ZM624.192 353.682C623.958 353.181 624.174 352.586 624.674 352.352C625.174 352.118 625.769 352.334 626.003 352.834L624.192 353.682ZM594.004 370.53C593.472 370.677 592.921 370.365 592.773 369.833C592.626 369.301 592.938 368.75 593.47 368.602L594.004 370.53ZM625.984 349.574L626.88 350.018L625.984 349.574ZM539.863 359.568L540.774 359.981L540.753 360.028L540.727 360.072L539.863 359.568ZM522.242 384.161C521.843 384.543 521.21 384.529 520.828 384.13C520.446 383.731 520.46 383.098 520.86 382.716L522.242 384.161ZM612.338 341.458L613.117 342.086L612.338 341.458ZM608.3 345.32L608.878 346.136L608.878 346.136L608.3 345.32ZM534.306 410.897C533.891 411.261 533.259 411.22 532.895 410.805C532.53 410.39 532.572 409.758 532.987 409.394L534.306 410.897ZM564.683 399.506C573.902 400.038 589.302 397.674 601.579 392.947C607.721 390.583 612.976 387.667 616.286 384.312C619.563 380.991 620.849 377.354 619.406 373.344L621.288 372.667C623.069 377.616 621.346 382.032 617.71 385.717C614.108 389.367 608.546 392.408 602.297 394.814C589.792 399.628 574.108 402.053 564.567 401.502L564.683 399.506ZM595.106 383.183C601.553 381.392 610.72 377.72 617.317 372.564C620.614 369.987 623.2 367.093 624.526 363.946C625.835 360.838 625.944 357.427 624.192 353.682L626.003 352.834C627.999 357.099 627.895 361.101 626.369 364.722C624.861 368.302 621.991 371.45 618.549 374.14C611.668 379.518 602.226 383.28 595.642 385.11L595.106 383.183ZM593.47 368.602C597.726 367.422 604.445 365.013 610.716 361.636C617.031 358.236 622.692 353.96 625.088 349.129L626.88 350.018C624.191 355.438 618.044 359.962 611.664 363.397C605.24 366.856 598.379 369.317 594.004 370.53L593.47 368.602ZM625.088 349.129C628.232 342.792 630.278 336.294 630.651 331.22C630.838 328.678 630.598 326.581 629.941 325.053C629.303 323.569 628.28 322.625 626.785 322.266L627.253 320.321C629.442 320.848 630.927 322.281 631.779 324.263C632.612 326.203 632.844 328.662 632.646 331.367C632.248 336.786 630.092 343.542 626.88 350.018L625.088 349.129ZM566.964 358.441C566.692 357.267 566.832 355.994 567.198 354.714C567.564 353.428 568.178 352.068 568.93 350.683C570.43 347.92 572.555 344.926 574.591 342.068C576.65 339.179 578.609 336.44 579.871 334.099C580.501 332.929 580.925 331.916 581.11 331.076C581.295 330.233 581.214 329.689 581.006 329.335L582.729 328.321C583.295 329.283 583.305 330.408 583.063 331.506C582.82 332.608 582.299 333.809 581.631 335.048C580.297 337.524 578.251 340.379 576.22 343.229C574.167 346.11 572.118 349.001 570.688 351.637C569.974 352.953 569.432 354.17 569.121 355.263C568.808 356.36 568.745 357.265 568.913 357.99L566.964 358.441ZM581.006 329.335C580.903 329.16 580.574 328.884 579.529 328.916C578.526 328.945 577.148 329.262 575.46 329.878C572.101 331.103 567.769 333.417 563.25 336.463C554.185 342.576 544.643 351.449 540.774 359.981L538.953 359.155C543.052 350.117 552.963 340.987 562.132 334.805C566.732 331.704 571.213 329.298 574.775 327.999C576.547 327.352 578.157 326.955 579.47 326.916C580.742 326.879 582.057 327.179 582.729 328.321L581.006 329.335ZM626.785 322.266C625.638 321.99 624.706 322.336 623.749 323.31C622.74 324.335 621.805 325.97 620.792 328.053C618.819 332.111 616.644 337.712 613.117 342.086L611.56 340.831C614.898 336.691 616.916 331.453 618.994 327.178C620.007 325.095 621.061 323.19 622.323 321.907C623.636 320.572 625.254 319.84 627.253 320.321L626.785 322.266ZM613.117 342.086C611.898 343.598 610.503 344.986 608.878 346.136L607.722 344.503C609.169 343.48 610.432 342.229 611.56 340.831L613.117 342.086ZM608.878 346.136C605.663 348.411 600.875 351.176 595.712 353.723L594.827 351.93C599.933 349.41 604.622 346.698 607.722 344.503L608.878 346.136ZM612.013 342.404C604.523 339.827 598.582 339.332 594.876 340.212C593.026 340.651 591.851 341.402 591.245 342.277C590.666 343.113 590.495 344.225 590.996 345.687L589.104 346.335C588.444 344.408 588.585 342.605 589.601 341.138C590.591 339.71 592.294 338.769 594.414 338.266C598.648 337.261 605.011 337.879 612.664 340.513L612.013 342.404ZM590.996 345.687C591.595 347.438 593.141 349.608 595.932 352.078L594.607 353.576C591.694 350.999 589.863 348.552 589.104 346.335L590.996 345.687ZM595.712 353.723C593.176 354.975 590.542 356.178 587.951 357.248L587.187 355.399C589.733 354.348 592.326 353.164 594.827 351.93L595.712 353.723ZM587.951 357.248C583.103 359.249 578.346 360.81 574.64 361.327C572.797 361.584 571.112 361.6 569.779 361.21C568.393 360.806 567.309 359.928 566.964 358.441L568.913 357.99C569.054 358.601 569.461 359.034 570.34 359.291C571.271 359.563 572.625 359.589 574.363 359.346C577.817 358.864 582.389 357.38 587.187 355.399L587.951 357.248ZM590.8 346.673C588.974 348.743 587.873 350.183 587.459 351.52C587.085 352.728 587.246 353.976 588.409 355.782L586.728 356.865C585.352 354.73 584.949 352.868 585.549 350.929C586.109 349.118 587.517 347.372 589.299 345.35L590.8 346.673ZM564.567 401.502C555.394 400.973 547.816 403.33 542.527 405.823C539.884 407.069 537.817 408.348 536.415 409.311C535.714 409.792 535.181 410.194 534.825 410.473C534.648 410.612 534.515 410.721 534.428 410.794C534.384 410.83 534.352 410.857 534.332 410.874C534.322 410.883 534.314 410.889 534.31 410.893C534.308 410.895 534.306 410.896 534.306 410.897C534.305 410.897 534.305 410.897 534.305 410.897C534.305 410.897 534.305 410.897 534.305 410.897C534.306 410.897 534.306 410.897 533.646 410.145C532.987 409.394 532.987 409.393 532.987 409.393C532.988 409.393 532.988 409.392 532.988 409.392C532.989 409.391 532.99 409.39 532.991 409.389C532.994 409.387 532.997 409.385 533 409.382C533.008 409.375 533.019 409.366 533.032 409.354C533.059 409.331 533.098 409.298 533.148 409.256C533.25 409.172 533.397 409.052 533.59 408.9C533.977 408.597 534.544 408.169 535.282 407.662C536.758 406.648 538.919 405.313 541.675 404.014C547.185 401.416 555.097 398.952 564.683 399.506L564.567 401.502ZM540.727 360.072C537.91 364.901 530.276 376.48 522.242 384.161L520.86 382.716C528.698 375.222 536.222 363.826 539 359.064L540.727 360.072Z" fill="black"/>
<path d="M70.257 306.997C80.1632 297.952 107.284 285.288 136.517 306.997" stroke="white" stroke-width="2" stroke-linecap="round" stroke-linejoin="round"/>
<path d="M405.049 43.1241L397.146 4.20348M394.853 48.9488L369.18 17.2571M382.927 58.2813L345.388 41.3291" stroke="black" stroke-width="2" stroke-linecap="round" stroke-linejoin="round"/>
<path d="M670.133 244.932L709.735 241.942M667.304 256.329L704.788 272.406M661.571 270.346L688.101 301.852" stroke="black" stroke-width="2" stroke-linecap="round" stroke-linejoin="round"/>
<path d="M247.774 12.115C247.774 11.5627 248.222 11.115 248.774 11.115C249.326 11.115 249.774 11.5627 249.774 12.115H247.774ZM249.774 22.4895C249.774 23.0418 249.326 23.4895 248.774 23.4895C248.222 23.4895 247.774 23.0418 247.774 22.4895H249.774ZM247.774 31.8379C247.774 31.2856 248.222 30.8379 248.774 30.8379C249.326 30.8379 249.774 31.2856 249.774 31.8379H247.774ZM249.774 42.2124C249.774 42.7647 249.326 43.2124 248.774 43.2124C248.222 43.2124 247.774 42.7647 247.774 42.2124H249.774ZM238.856 28.0497C238.303 28.0497 237.856 27.602 237.856 27.0497C237.856 26.4974 238.303 26.0497 238.856 26.0497V28.0497ZM245.062 26.0497C245.614 26.0497 246.062 26.4974 246.062 27.0497C246.062 27.602 245.614 28.0497 245.062 28.0497V26.0497ZM252.486 28.0497C251.934 28.0497 251.486 27.602 251.486 27.0497C251.486 26.4974 251.934 26.0497 252.486 26.0497V28.0497ZM258.693 26.0497C259.245 26.0497 259.693 26.4974 259.693 27.0497C259.693 27.602 259.245 28.0497 258.693 28.0497V26.0497ZM232.041 59.2871C232.041 58.7348 232.489 58.2871 233.041 58.2871C233.594 58.2871 234.041 58.7348 234.041 59.2871H232.041ZM234.041 65.1275C234.041 65.6797 233.594 66.1275 233.041 66.1275C232.489 66.1275 232.041 65.6797 232.041 65.1275H234.041ZM232.041 74.4759C232.041 73.9236 232.489 73.4759 233.041 73.4759C233.594 73.4759 234.041 73.9236 234.041 74.4759H232.041ZM234.041 80.3162C234.041 80.8685 233.594 81.3162 233.041 81.3162C232.489 81.3162 232.041 80.8685 232.041 80.3162H234.041ZM225.39 70.6877C224.838 70.6877 224.39 70.24 224.39 69.6877C224.39 69.1354 224.838 68.6877 225.39 68.6877V70.6877ZM229.329 68.6877C229.881 68.6877 230.329 69.1354 230.329 69.6877C230.329 70.24 229.881 70.6877 229.329 70.6877V68.6877ZM236.754 70.6877C236.201 70.6877 235.754 70.24 235.754 69.6877C235.754 69.1354 236.201 68.6877 236.754 68.6877V70.6877ZM240.693 68.6877C241.245 68.6877 241.693 69.1354 241.693 69.6877C241.693 70.24 241.245 70.6877 240.693 70.6877V68.6877ZM249.774 12.115V22.4895H247.774V12.115H249.774ZM249.774 31.8379V42.2124H247.774V31.8379H249.774ZM238.856 26.0497H245.062V28.0497H238.856V26.0497ZM252.486 26.0497H258.693V28.0497H252.486V26.0497ZM234.041 59.2871V65.1275H232.041V59.2871H234.041ZM234.041 74.4759V80.3162H232.041V74.4759H234.041ZM225.39 68.6877H229.329V70.6877H225.39V68.6877ZM236.754 68.6877H240.693V70.6877H236.754V68.6877Z" fill="black"/>
<circle r="1.71008" transform="matrix(-1 0 0 1 281.841 63.5905)" fill="black"/>
<circle r="1.71008" transform="matrix(-1 0 0 1 219.975 47.7775)" fill="black"/>
<path d="M605.567 48.2371C605.403 47.7099 605.697 47.1492 606.224 46.9848C606.751 46.8204 607.312 47.1146 607.476 47.6418L605.567 48.2371ZM610.564 57.5461C610.729 58.0734 610.435 58.634 609.907 58.7984C609.38 58.9628 608.819 58.6686 608.655 58.1414L610.564 57.5461ZM611.438 67.0661C611.273 66.5389 611.567 65.9782 612.095 65.8138C612.622 65.6494 613.183 65.9436 613.347 66.4709L611.438 67.0661ZM616.435 76.3751C616.599 76.9024 616.305 77.4631 615.778 77.6274C615.251 77.7918 614.69 77.4977 614.525 76.9704L616.435 76.3751ZM601.796 66.1041C601.269 66.2685 600.708 65.9744 600.543 65.4471C600.379 64.9198 600.673 64.3592 601.2 64.1948L601.796 66.1041ZM607.125 62.3476C607.653 62.1832 608.213 62.4773 608.378 63.0046C608.542 63.5318 608.248 64.0925 607.721 64.2569L607.125 62.3476ZM614.809 62.047C614.281 62.2114 613.721 61.9172 613.556 61.39C613.392 60.8627 613.686 60.302 614.213 60.1377L614.809 62.047ZM620.138 58.2904C620.666 58.1261 621.226 58.4202 621.391 58.9475C621.555 59.4747 621.261 60.0354 620.734 60.1998L620.138 58.2904ZM607.476 47.6418L610.564 57.5461L608.655 58.1414L605.567 48.2371L607.476 47.6418ZM613.347 66.4709L616.435 76.3751L614.525 76.9704L611.438 67.0661L613.347 66.4709ZM601.2 64.1948L607.125 62.3476L607.721 64.2569L601.796 66.1041L601.2 64.1948ZM614.213 60.1377L620.138 58.2904L620.734 60.1998L614.809 62.047L614.213 60.1377Z" fill="black"/>
<path d="M360.312 263.783C360.148 263.256 360.442 262.695 360.969 262.53C361.497 262.366 362.057 262.66 362.222 263.187L360.312 263.783ZM365.31 273.092C365.474 273.619 365.18 274.18 364.652 274.344C364.125 274.508 363.565 274.214 363.4 273.687L365.31 273.092ZM366.183 282.612C366.018 282.085 366.312 281.524 366.84 281.359C367.367 281.195 367.928 281.489 368.092 282.017L366.183 282.612ZM371.18 291.921C371.344 292.448 371.05 293.009 370.523 293.173C369.996 293.337 369.435 293.043 369.271 292.516L371.18 291.921ZM356.541 281.65C356.014 281.814 355.453 281.52 355.289 280.993C355.124 280.465 355.418 279.905 355.946 279.74L356.541 281.65ZM361.87 277.893C362.398 277.729 362.958 278.023 363.123 278.55C363.287 279.077 362.993 279.638 362.466 279.803L361.87 277.893ZM369.554 277.593C369.027 277.757 368.466 277.463 368.302 276.936C368.137 276.408 368.431 275.848 368.959 275.683L369.554 277.593ZM374.883 273.836C375.411 273.672 375.971 273.966 376.136 274.493C376.3 275.02 376.006 275.581 375.479 275.745L374.883 273.836ZM362.222 263.187L365.31 273.092L363.4 273.687L360.312 263.783L362.222 263.187ZM368.092 282.017L371.18 291.921L369.271 292.516L366.183 282.612L368.092 282.017ZM355.946 279.74L361.87 277.893L362.466 279.803L356.541 281.65L355.946 279.74ZM368.959 275.683L374.883 273.836L375.479 275.745L369.554 277.593L368.959 275.683Z" fill="black"/>
<ellipse rx="1.71008" ry="1.71008" transform="matrix(-0.954677 0.297644 0.297644 0.954677 589.727 53.062)" fill="black"/>
<ellipse rx="1.71008" ry="1.71008" transform="matrix(-0.954677 0.297644 0.297644 0.954677 579.143 30.3232)" fill="black"/>
<ellipse rx="1.71008" ry="1.71008" transform="matrix(-0.954677 0.297644 0.297644 0.954677 547.181 41.8759)" fill="black"/>
<ellipse rx="1.71008" ry="1.71008" transform="matrix(-0.954677 0.297644 0.297644 0.954677 394.271 301.03)" fill="black"/>
<ellipse rx="1.71008" ry="1.71008" transform="matrix(-0.954677 0.297644 0.297644 0.954677 403.477 325.467)" fill="black"/>
<ellipse rx="1.71008" ry="1.71008" transform="matrix(-0.954677 0.297644 0.297644 0.954677 428.617 324.616)" fill="black"/>
<path d="M901.008 542.072L948.425 383.08H723.353L675.937 528.862H501.597V542.072H672.149H901.008Z" fill="white"/>
<path d="M672.149 542.072H901.008L948.425 383.08H723.353L675.937 528.862M672.149 542.072L675.937 528.862M672.149 542.072H501.597V528.862H675.937" stroke="black" stroke-width="2"/>
<path d="M800.116 451.594C795.32 463.804 799.591 476.513 809.111 480.252C818.631 483.992 830.41 477.587 835.206 465.377C840.002 453.167 835.731 440.457 826.211 436.718C816.691 432.979 804.912 439.384 800.116 451.594Z" fill="white" stroke="black" stroke-width="2"/>
</svg>
