<svg width="891" height="487" viewBox="0 0 891 487" fill="none" xmlns="http://www.w3.org/2000/svg">
<g filter="url(#filter0_d)">
<path d="M755.856 150.812L765.005 128.92L762.718 123.529L755.856 130.554L737.722 117.811L724.979 121.568L713.543 116.34H709.949L708.642 111.766L697.206 119.118L693.448 103.597L679.725 121.568L667.636 97.716L652.442 109.479L651.135 100.983L645.417 106.211L636.268 82.1957L631.04 97.716L612.906 79.7451L609.312 82.1957L599.836 134.965C595.099 135.618 585.198 137.677 583.499 140.683C581.8 143.689 590.742 150.104 595.425 152.936C595.425 157.074 594.968 168.227 593.138 179.728C590.851 194.105 594.282 208.155 599.836 225.309C604.28 239.032 618.025 249.107 624.342 252.429L638.065 308.465L651.788 311.079C677.111 312.55 706.028 296.212 716.32 285.266C724.554 276.51 726.504 267.132 726.449 263.538C716.124 236.092 725.85 212.566 732.004 204.234C739.715 201.228 751.118 178.04 755.856 166.822L777.258 174.501L782.322 172.867L783.629 166.822L755.856 150.812Z" fill="white"/>
<path d="M63.9774 208.645C66.1992 201.065 82.874 198.19 90.9337 197.699C87.9386 195.848 80.9354 191.785 76.8838 190.348C72.8322 188.91 75.1957 181.362 76.8838 177.768C70.349 177.507 71.2202 166.55 72.4727 161.104C71.9282 159.471 69.9896 155.582 66.5914 153.099C62.3438 149.995 69.042 140.029 72.4727 134.311C75.9034 128.593 84.2355 129.737 90.9337 129.737C96.2922 129.737 94.6912 140.846 93.221 146.401C98.0568 146.793 97.8498 158.109 97.1419 163.718C100.899 162.248 109.493 161.66 113.806 171.07C118.119 180.48 112.009 184.793 108.415 185.773L111.519 201.784L126.385 195.249L111.519 156.203V143.133C115.875 141.5 126.026 138.232 131.777 138.232C138.965 138.232 157.589 149.341 158.896 159.307C159.942 167.28 173.709 202.383 180.461 218.938L143.213 244.424L139.782 240.503C137.005 221.225 121.484 212.24 116.42 211.749C112.368 211.357 85.4335 216.378 72.4727 218.938C68.7151 218.665 61.7555 216.226 63.9774 208.645Z" fill="white"/>
<path d="M129.653 260.107L150.238 288.207L213.953 248.344L191.734 217.794C187.977 218.284 176.279 221.453 159.55 230.21C142.821 238.967 132.648 253.79 129.653 260.107Z" fill="#DEDEDE"/>
<path d="M143.266 296.725L236.452 478.128L885.078 475.327C879.722 442.123 879.316 424.635 874.923 392.596C849.165 324.119 817.46 304.262 763.208 266.379C759.895 263.828 752.573 261.411 749.78 272.153C746.289 285.58 738.904 296.859 714.466 314.18C690.028 331.501 660.085 333.65 643.704 332.71C627.323 331.77 618.998 317.268 616.849 298.47C615.131 283.432 621.415 262.306 624.772 253.623C622.534 252.101 612.606 249.971 590.8 253.623C563.543 258.188 529.974 287.191 518.158 298.47C506.342 309.749 450.887 381.317 435.446 407.903C423.093 429.172 411.948 442.456 407.92 446.44C383.258 421.107 330.793 367.433 318.225 355.402C305.657 343.371 248.358 276.27 221.279 244.224C210.403 244.761 195.902 254.16 173.209 266.647C155.056 276.637 145.683 290.861 143.266 296.725Z" fill="#141414"/>
<path d="M603.538 136.026C602.607 136.609 600.129 138.947 598.693 143.443C597.413 147.481 599.282 151.389 599.668 152.5C601.154 152.962 603.461 153.372 607.844 151.655C609.68 150.943 613.618 150.547 614.555 149.72C614.986 146.077 620.795 146.343 619.863 142.619C618.931 138.894 606.787 136.747 603.538 136.026Z" fill="black" stroke="black" stroke-miterlimit="10" stroke-linecap="round" stroke-linejoin="round"/>
<path d="M665.226 144.92C664.164 145.585 660.37 148.156 658.733 153.284C657.273 157.89 658.438 161.769 658.878 163.036C660.572 163.563 667.575 165.278 672.573 163.319C674.668 162.507 676.237 161.368 677.305 160.425C677.797 156.27 684.423 156.574 683.359 152.326C682.296 148.077 668.932 145.743 665.226 144.92Z" fill="black" stroke="black" stroke-miterlimit="10" stroke-linecap="round" stroke-linejoin="round"/>
<path d="M601.796 180.382L624.831 141.826L627.282 142.806L631.366 171.396C632.728 174.01 634.372 180.382 630.059 184.956C624.668 190.674 610.455 187.734 605.554 186.753C601.633 185.969 601.415 182.179 601.796 180.382Z" fill="#DEDEDE"/>
<path d="M728.736 159.47C720.632 167.051 720.458 191.6 721.384 202.927C723.834 203.417 730.108 204.397 735.597 204.397C742.459 204.397 756.835 171.396 757.979 161.757C759.123 152.119 757.162 151.138 752.588 147.871C748.013 144.603 738.865 149.995 728.736 159.47Z" fill="#DEDEDE"/>
<path d="M636.783 256.11L636.675 256.598L636.783 256.11ZM722.5 202.818L722.802 202.419C722.678 202.326 722.517 202.295 722.367 202.336C722.217 202.378 722.095 202.487 722.037 202.631L722.5 202.818ZM601.964 179.392L601.509 179.184L601.964 179.392ZM728.96 158.093C728.776 158.299 728.793 158.615 728.998 158.799C729.204 158.983 729.52 158.966 729.705 158.761L728.96 158.093ZM751.854 147.785L751.991 147.304L751.854 147.785ZM726.61 184.312C726.342 184.38 726.18 184.652 726.248 184.92C726.316 185.187 726.587 185.35 726.855 185.282L726.61 184.312ZM729.121 174.627L728.689 174.375C728.59 174.546 728.6 174.759 728.716 174.92C728.831 175.08 729.031 175.157 729.224 175.116L729.121 174.627ZM751.445 179.038L751.869 179.302L751.445 179.038ZM732.707 204.445L732.928 204.893L732.707 204.445ZM755.544 149.559L755.243 149.958L755.544 149.559ZM763.951 127.962C763.987 127.688 763.794 127.437 763.52 127.401C763.246 127.365 762.996 127.558 762.96 127.832L763.951 127.962ZM731.954 205.182C732.089 204.942 732.004 204.637 731.764 204.501C731.523 204.365 731.218 204.45 731.083 204.691L731.954 205.182ZM725.565 259.72L725.096 259.894L725.565 259.72ZM615.743 247.031L615.427 247.418L615.743 247.031ZM628.051 265.921L627.559 266.007C627.561 266.019 627.564 266.031 627.567 266.043L628.051 265.921ZM638.218 306.377L637.733 306.499L637.735 306.506L638.218 306.377ZM727.399 263.936L727.891 264.023C727.91 263.917 727.894 263.807 727.845 263.711L727.399 263.936ZM746.097 170.197C745.962 170.438 746.048 170.742 746.289 170.877C746.53 171.012 746.835 170.926 746.97 170.685L746.097 170.197ZM598.444 135.152C598.403 135.425 598.592 135.68 598.865 135.72C599.139 135.76 599.393 135.572 599.433 135.299L598.444 135.152ZM608.985 84.8445C609.169 85.0502 609.486 85.0676 609.691 84.8834C609.897 84.6992 609.914 84.383 609.73 84.1773L608.985 84.8445ZM596.777 152.763C596.828 152.491 596.649 152.23 596.377 152.179C596.106 152.128 595.845 152.307 595.794 152.579L596.777 152.763ZM724.707 307.517L724.999 307.923L724.707 307.517ZM612.585 206.727C612.36 206.567 612.048 206.619 611.887 206.843C611.727 207.068 611.779 207.38 612.004 207.541L612.585 206.727ZM643.335 203.318C643.538 203.131 643.552 202.815 643.365 202.612C643.178 202.408 642.861 202.395 642.658 202.582L643.335 203.318ZM592.883 135.701L592.92 136.199L592.92 136.199L592.883 135.701ZM584.729 140.086L585.201 140.25L585.202 140.248L584.729 140.086ZM589.842 148.978L590.102 148.551L590.098 148.549L589.842 148.978ZM652.586 144.435L652.623 144.934L652.623 144.934L652.586 144.435ZM643.285 149.438L643.758 149.601L643.758 149.6L643.285 149.438ZM649.117 159.579L649.378 159.152L649.373 159.15L649.117 159.579ZM718.275 37.8656L718.213 38.3618L718.275 37.8656ZM760.753 64.0941L760.332 64.3634L760.753 64.0941ZM743.494 56.9207L743.011 57.0504V57.0504L743.494 56.9207ZM748.36 75.028L747.877 75.1578V75.1578L748.36 75.028ZM747.075 75.8633L747.389 75.4747V75.4747L747.075 75.8633ZM730.079 62.1081L730.393 61.7194V61.7194L730.079 62.1081ZM728.885 62.3141L728.458 62.0534V62.0534L728.885 62.3141ZM720.568 75.9213L720.141 75.6606V75.6606L720.568 75.9213ZM719.145 75.8309L718.689 76.0355L719.145 75.8309ZM709.8 54.9929L710.256 54.7883V54.7883L709.8 54.9929ZM708.776 54.5703L708.597 54.1034L708.776 54.5703ZM670.689 69.1724L670.868 69.6393L670.689 69.1724ZM669.669 68.0837L670.123 68.2925V68.2925L669.669 68.0837ZM676.803 52.5615L676.349 52.3527V52.3527L676.803 52.5615ZM676.198 51.4295L676.277 50.9358L676.198 51.4295ZM659.534 48.7636L659.455 49.2573L659.534 48.7636ZM659.356 47.2226L659.545 47.6852L659.356 47.2226ZM688.625 35.2329L688.435 34.7702L688.625 35.2329ZM671.857 25.8809L671.789 25.3856V25.3856L671.857 25.8809ZM717.773 37.6006L717.403 37.9369L717.773 37.6006ZM688.605 33.7338L688.782 33.2662V33.2661L688.605 33.7338ZM671.719 27.3477L671.542 27.8154L671.719 27.3477ZM622.891 46.1455L623.138 46.58L622.891 46.1455ZM642.351 50.2306L642.672 50.614L642.351 50.2306ZM624.467 72.1902L624.939 72.3532L624.467 72.1902ZM625.486 73.0919L625.681 73.5521L625.486 73.0919ZM658.028 59.2708L657.832 58.8106L658.028 59.2708ZM730.647 94.354L730.998 93.9978L730.647 94.354ZM745.199 108.69L744.848 109.047V109.047L745.199 108.69ZM746.518 108.402L746.05 108.225L746.518 108.402ZM752.429 92.7771L751.962 92.6001L752.429 92.7771ZM759.714 65.13L759.455 65.5575H759.455L759.714 65.13ZM755.339 62.478L755.598 62.0504L755.339 62.478ZM744.69 56.0227L744.431 56.4503L744.69 56.0227ZM776.352 111.303L775.872 111.443L776.352 111.303ZM753.729 92.4696L753.39 92.8374V92.8374L753.729 92.4696ZM775.042 112.103L775.38 111.736L775.042 112.103ZM773.684 138.716L774.184 138.699V138.699L773.684 138.716ZM772.217 139.204L771.807 139.489L772.217 139.204ZM760.928 122.959L761.338 122.674V122.674L760.928 122.959ZM759.544 123.063L759.992 123.284V123.284L759.544 123.063ZM756.144 129.963L756.592 130.184V130.184L756.144 129.963ZM754.963 130.269L755.247 129.858L754.963 130.269ZM737.537 118.233L737.253 118.645L737.537 118.233ZM736.756 118.158L736.556 117.7L736.556 117.7L736.756 118.158ZM724.989 123.301L724.789 122.843L724.989 123.301ZM711.16 116.688L710.774 116.37V116.37L711.16 116.688ZM729.46 94.4164L729.846 94.7338L729.846 94.7338L729.46 94.4164ZM724.203 123.221L724.491 122.813V122.813L724.203 123.221ZM695.917 75.4931L696.391 75.3328L695.917 75.4931ZM709.774 116.434L710.248 116.274L709.774 116.434ZM699.489 119.877L699.848 120.225L699.489 119.877ZM698.126 119.498L698.613 119.385L698.126 119.498ZM694.671 104.582L695.158 104.47V104.47L694.671 104.582ZM693.216 104.316L692.801 104.038V104.038L693.216 104.316ZM681.966 121.118L681.551 120.84L681.966 121.118ZM650.332 106.046L650.819 106.16L650.332 106.046ZM694.625 75.1417L694.298 74.7642L694.625 75.1417ZM680.576 121.03L680.129 121.254L680.576 121.03ZM659.135 60.154L658.643 60.0651L659.135 60.154ZM644.887 104.18L644.451 103.935L644.887 104.18ZM643.413 104.02L643.892 103.875L643.413 104.02ZM637.113 83.2084L637.591 83.0635L637.113 83.2084ZM635.592 83.147L635.126 82.964L635.592 83.147ZM629.944 97.5086L629.479 97.3256L629.944 97.5086ZM628.558 97.7068L628.162 98.0128L628.558 97.7068ZM614.251 79.221L614.647 78.9149V78.9149L614.251 79.221ZM613.016 79.174L612.645 78.8389L613.016 79.174ZM596.12 97.882L595.748 97.5468L596.12 97.882ZM594.782 97.0219L594.323 96.8233L594.782 97.0219ZM608.043 66.392L608.502 66.5907L608.043 66.392ZM607.267 65.2671L607.289 65.7666L607.267 65.2671ZM591.93 65.9654L591.953 66.4648L591.93 65.9654ZM623.247 47.5084L623.281 47.0095L623.247 47.5084ZM641.883 48.7697L641.917 48.2708L641.883 48.7697ZM591.625 64.4008L591.459 63.9293L591.625 64.4008ZM650.533 131.744C650.274 131.842 650.144 132.13 650.241 132.389C650.339 132.647 650.628 132.777 650.886 132.68L650.533 131.744ZM684.758 137.318C685.018 137.413 685.305 137.279 685.399 137.02C685.494 136.761 685.36 136.474 685.101 136.379L684.758 137.318ZM619.095 129.351C619.283 129.554 619.6 129.566 619.802 129.378C620.004 129.19 620.016 128.873 619.828 128.671L619.095 129.351ZM586.811 117.433C586.536 117.402 586.289 117.6 586.258 117.874C586.228 118.148 586.425 118.396 586.7 118.426L586.811 117.433ZM224.517 246.935L224.117 247.236L224.117 247.236L224.517 246.935ZM143.74 298.996L144.184 298.765L144.18 298.76L143.74 298.996ZM236.008 476.084L235.565 476.315C235.651 476.481 235.822 476.584 236.008 476.584V476.084ZM886.328 476.084V476.584H886.895L886.824 476.022L886.328 476.084ZM149.553 286.431L149.926 286.764L149.553 286.431ZM131.854 262.689L131.405 262.909L131.426 262.95L131.453 262.987L131.854 262.689ZM194.259 219.553L193.821 219.794L193.828 219.807L193.836 219.82L194.259 219.553ZM754.683 262.686L754.375 263.08L754.417 263.113L754.467 263.137L754.683 262.686ZM135.245 252.727L134.849 252.422L135.245 252.727ZM154.96 280.942L155.302 281.307H155.302L154.96 280.942ZM205.53 247.91L205.715 248.374L205.53 247.91ZM196.254 252.168L196.482 252.613L196.254 252.168ZM144.118 243.501L143.785 243.127L144.118 243.501ZM735.554 251.346L735.765 250.893L735.554 251.346ZM741.725 254.418L741.96 253.977L741.725 254.418ZM729.729 196.201C729.483 196.077 729.182 196.176 729.058 196.422C728.934 196.669 729.033 196.97 729.279 197.094L729.729 196.201ZM753.898 208.933L754.123 208.486L753.898 208.933ZM755.784 215.318L755.352 215.065L755.784 215.318ZM753.726 218.831L754.157 219.083L753.726 218.831ZM747.744 220.606L747.968 220.159L747.744 220.606ZM735.528 214.495L735.305 214.942L735.528 214.495ZM738.621 208.293L738.398 208.741L738.621 208.293ZM750.017 214.516C750.265 214.639 750.565 214.538 750.688 214.291C750.81 214.044 750.71 213.744 750.462 213.621L750.017 214.516ZM725.857 227.097C725.867 227.373 726.098 227.589 726.374 227.579C726.65 227.57 726.866 227.338 726.857 227.062L725.857 227.097ZM726.079 204.535C726.069 204.259 725.838 204.044 725.562 204.053C725.286 204.063 725.07 204.294 725.079 204.57L726.079 204.535ZM734.306 209.318L734.706 209.618L734.306 209.318ZM782.007 173.059L782.223 173.509L782.41 173.42L782.479 173.224L782.007 173.059ZM778.65 174.67L778.447 175.127L778.658 175.221L778.866 175.121L778.65 174.67ZM782.812 164.734L783.282 164.563L783.211 164.366L783.021 164.279L782.812 164.734ZM783.887 167.688L784.359 167.853L784.418 167.684L784.357 167.517L783.887 167.688ZM706.411 142.579L706.048 142.922L706.116 142.995L706.208 143.035L706.411 142.579ZM711.245 131.971L711.453 131.516L711.382 131.484L711.304 131.474L711.245 131.971ZM694.461 129.957L694.52 129.46L693.146 129.295L694.097 130.301L694.461 129.957ZM699.966 135.771L699.603 136.115L699.966 135.771ZM712.856 135.771L713.33 135.931L713.39 135.751L713.316 135.576L712.856 135.771ZM711.245 140.564L711.437 141.026L711.646 140.939L711.719 140.724L711.245 140.564ZM800.634 191.051C800.634 190.775 800.41 190.551 800.134 190.551C799.858 190.551 799.634 190.775 799.634 191.051H800.634ZM799.634 203.27C799.634 203.546 799.858 203.77 800.134 203.77C800.41 203.77 800.634 203.546 800.634 203.27H799.634ZM800.634 214.281C800.634 214.005 800.41 213.781 800.134 213.781C799.858 213.781 799.634 214.005 799.634 214.281H800.634ZM799.634 226.5C799.634 226.776 799.858 227 800.134 227C800.41 227 800.634 226.776 800.634 226.5H799.634ZM811.816 209.141C812.092 209.141 812.316 208.917 812.316 208.641C812.316 208.365 812.092 208.141 811.816 208.141V209.141ZM804.506 208.141C804.23 208.141 804.006 208.365 804.006 208.641C804.006 208.917 804.23 209.141 804.506 209.141V208.141ZM795.762 209.141C796.038 209.141 796.262 208.917 796.262 208.641C796.262 208.365 796.038 208.141 795.762 208.141V209.141ZM788.452 208.141C788.176 208.141 787.952 208.365 787.952 208.641C787.952 208.917 788.176 209.141 788.452 209.141V208.141ZM527.253 18.644C527.253 18.3679 527.029 18.144 526.753 18.144C526.477 18.144 526.253 18.3679 526.253 18.644H527.253ZM526.253 30.8629C526.253 31.1391 526.477 31.3629 526.753 31.3629C527.029 31.3629 527.253 31.1391 527.253 30.8629H526.253ZM527.253 41.8734C527.253 41.5972 527.029 41.3734 526.753 41.3734C526.477 41.3734 526.253 41.5972 526.253 41.8734H527.253ZM526.253 54.0923C526.253 54.3684 526.477 54.5923 526.753 54.5923C527.029 54.5923 527.253 54.3684 527.253 54.0923H526.253ZM538.435 36.7339C538.711 36.7339 538.935 36.51 538.935 36.2339C538.935 35.9577 538.711 35.7339 538.435 35.7339V36.7339ZM531.125 35.7339C530.849 35.7339 530.625 35.9577 530.625 36.2339C530.625 36.51 530.849 36.7339 531.125 36.7339V35.7339ZM522.38 36.7339C522.657 36.7339 522.88 36.51 522.88 36.2339C522.88 35.9577 522.657 35.7339 522.38 35.7339V36.7339ZM515.071 35.7339C514.795 35.7339 514.571 35.9577 514.571 36.2339C514.571 36.51 514.795 36.7339 515.071 36.7339V35.7339ZM819.164 246.61C819.164 246.334 818.94 246.11 818.664 246.11C818.387 246.11 818.164 246.334 818.164 246.61H819.164ZM818.164 253.488C818.164 253.765 818.387 253.988 818.664 253.988C818.94 253.988 819.164 253.765 819.164 253.488H818.164ZM819.164 264.499C819.164 264.223 818.94 263.999 818.664 263.999C818.387 263.999 818.164 264.223 818.164 264.499H819.164ZM818.164 271.378C818.164 271.654 818.387 271.878 818.664 271.878C818.94 271.878 819.164 271.654 819.164 271.378H818.164ZM827.675 259.359C827.951 259.359 828.175 259.136 828.175 258.859C828.175 258.583 827.951 258.359 827.675 258.359V259.359ZM823.036 258.359C822.76 258.359 822.536 258.583 822.536 258.859C822.536 259.136 822.76 259.359 823.036 259.359V258.359ZM814.291 259.359C814.567 259.359 814.791 259.136 814.791 258.859C814.791 258.583 814.567 258.359 814.291 258.359V259.359ZM809.652 258.359C809.376 258.359 809.152 258.583 809.152 258.859C809.152 259.136 809.376 259.359 809.652 259.359V258.359ZM545.783 63.4914C545.783 63.2153 545.559 62.9914 545.283 62.9914C545.006 62.9914 544.783 63.2153 544.783 63.4914H545.783ZM544.783 81.0812C544.783 81.3574 545.006 81.5812 545.283 81.5812C545.559 81.5812 545.783 81.3574 545.783 81.0812H544.783ZM545.783 92.0917C545.783 91.8155 545.559 91.5917 545.283 91.5917C545.006 91.5917 544.783 91.8155 544.783 92.0917H545.783ZM544.783 109.682C544.783 109.958 545.006 110.182 545.283 110.182C545.559 110.182 545.783 109.958 545.783 109.682H544.783ZM559.65 86.9522C559.926 86.9522 560.15 86.7283 560.15 86.4522C560.15 86.176 559.926 85.9522 559.65 85.9522V86.9522ZM549.655 85.9522C549.379 85.9522 549.155 86.176 549.155 86.4522C549.155 86.7283 549.379 86.9522 549.655 86.9522V85.9522ZM540.91 86.9522C541.186 86.9522 541.41 86.7283 541.41 86.4522C541.41 86.176 541.186 85.9522 540.91 85.9522V86.9522ZM530.915 85.9522C530.639 85.9522 530.415 86.176 530.415 86.4522C530.415 86.7283 530.639 86.9522 530.915 86.9522V85.9522ZM636.675 256.598C660.078 261.784 679.159 254.58 693.627 242.984C708.08 231.399 717.941 215.425 722.964 203.006L722.037 202.631C717.062 214.93 707.292 230.749 693.001 242.204C678.724 253.647 659.945 260.73 636.891 255.622L636.675 256.598ZM622.902 143.847C619.787 150.038 614.878 157.919 610.524 164.733C608.351 168.132 606.313 171.274 604.718 173.787C603.13 176.288 601.95 178.217 601.509 179.184L602.418 179.599C602.824 178.71 603.958 176.849 605.562 174.323C607.158 171.808 609.186 168.683 611.367 165.271C615.718 158.461 620.654 150.539 623.795 144.296L622.902 143.847ZM601.509 179.184C600.317 181.796 601.461 185.292 605.028 187.504C608.602 189.721 614.62 190.694 623.423 188.485L623.18 187.516C614.525 189.687 608.816 188.676 605.556 186.654C602.289 184.628 601.493 181.629 602.418 179.599L601.509 179.184ZM623.423 188.485C627.82 187.382 630.635 186.019 632.34 184.454C634.071 182.864 634.632 181.089 634.574 179.272C634.517 177.494 633.865 175.683 633.223 173.999C632.566 172.276 631.928 170.699 631.779 169.266L630.784 169.369C630.95 170.965 631.654 172.691 632.288 174.355C632.937 176.057 633.523 177.717 633.574 179.305C633.624 180.854 633.164 182.34 631.663 183.717C630.137 185.119 627.511 186.429 623.18 187.516L623.423 188.485ZM631.779 169.266C631.469 166.296 631.042 156.8 629.918 149.682C629.636 147.895 629.308 146.241 628.923 144.863C628.542 143.499 628.091 142.351 627.538 141.617C627.259 141.248 626.925 140.943 626.522 140.795C626.099 140.64 625.66 140.679 625.237 140.89C624.83 141.093 624.443 141.451 624.068 141.931C623.689 142.416 623.302 143.052 622.902 143.847L623.795 144.296C624.177 143.537 624.531 142.962 624.856 142.547C625.183 142.128 625.461 141.896 625.683 141.785C625.888 141.683 626.042 141.684 626.178 141.734C626.333 141.791 626.524 141.934 626.739 142.219C627.174 142.796 627.585 143.792 627.96 145.132C628.33 146.459 628.651 148.07 628.93 149.838C630.051 156.937 630.462 166.281 630.784 169.369L631.779 169.266ZM729.705 158.761C731.706 156.527 735.228 153.314 739.263 150.956C743.315 148.589 747.778 147.145 751.717 148.266L751.991 147.304C747.652 146.069 742.884 147.682 738.759 150.093C734.617 152.513 731.016 155.798 728.96 158.093L729.705 158.761ZM726.855 185.282C732.563 183.839 735.518 180.755 735.785 178.034C735.921 176.648 735.341 175.402 734.125 174.649C732.931 173.91 731.187 173.682 729.018 174.138L729.224 175.116C731.241 174.693 732.697 174.941 733.599 175.499C734.479 176.044 734.89 176.916 734.79 177.937C734.584 180.029 732.159 182.909 726.61 184.312L726.855 185.282ZM751.02 178.774C747.62 184.242 744.613 189.726 741.591 194.32C738.57 198.911 735.636 202.443 732.486 203.996L732.928 204.893C736.345 203.208 739.406 199.461 742.426 194.87C745.444 190.283 748.523 184.683 751.869 179.302L751.02 178.774ZM732.486 203.996C731.03 204.714 729.534 205.006 727.954 204.787C726.369 204.567 724.663 203.827 722.802 202.419L722.199 203.217C724.157 204.698 726.02 205.528 727.816 205.777C729.618 206.027 731.315 205.688 732.928 204.893L732.486 203.996ZM751.717 148.266C753.114 148.663 754.284 149.235 755.243 149.958L755.846 149.159C754.775 148.352 753.489 147.73 751.991 147.304L751.717 148.266ZM755.243 149.958C758.161 152.158 759.259 155.885 758.533 160.856C757.806 165.831 755.259 171.957 751.02 178.774L751.869 179.302C756.145 172.426 758.768 166.166 759.522 161C760.277 155.832 759.167 151.664 755.846 149.159L755.243 149.958ZM755.983 149.799C759.337 143.692 761.328 138.242 762.48 134.315C763.057 132.352 763.424 130.769 763.647 129.674C763.759 129.126 763.834 128.701 763.882 128.411C763.906 128.266 763.923 128.155 763.935 128.08C763.94 128.042 763.944 128.013 763.947 127.993C763.948 127.983 763.949 127.976 763.95 127.97C763.951 127.968 763.951 127.966 763.951 127.964C763.951 127.964 763.951 127.963 763.951 127.962C763.951 127.962 763.951 127.962 763.951 127.962C763.951 127.962 763.951 127.962 763.456 127.897C762.96 127.832 762.96 127.832 762.96 127.832C762.96 127.832 762.96 127.832 762.96 127.832C762.96 127.832 762.96 127.832 762.96 127.833C762.96 127.834 762.959 127.835 762.959 127.837C762.959 127.841 762.958 127.847 762.957 127.856C762.954 127.873 762.951 127.899 762.945 127.934C762.935 128.003 762.919 128.109 762.896 128.248C762.85 128.526 762.776 128.939 762.667 129.474C762.449 130.544 762.089 132.099 761.521 134.034C760.385 137.903 758.42 143.284 755.106 149.318L755.983 149.799ZM722.388 228.509C723.175 223.945 725.555 218.125 727.759 213.416C728.858 211.068 729.907 209.008 730.682 207.535C731.069 206.799 731.388 206.21 731.609 205.805C731.72 205.603 731.806 205.447 731.865 205.341C731.894 205.288 731.916 205.248 731.931 205.222C731.939 205.208 731.944 205.198 731.948 205.192C731.95 205.188 731.951 205.186 731.952 205.184C731.953 205.183 731.953 205.183 731.953 205.182C731.953 205.182 731.954 205.182 731.954 205.182C731.954 205.182 731.954 205.182 731.518 204.936C731.083 204.691 731.083 204.691 731.083 204.691C731.083 204.691 731.082 204.691 731.082 204.691C731.082 204.692 731.082 204.693 731.081 204.693C731.08 204.695 731.079 204.698 731.077 204.702C731.073 204.709 731.067 204.719 731.059 204.733C731.043 204.761 731.021 204.802 730.991 204.855C730.931 204.963 730.843 205.121 730.732 205.325C730.508 205.734 730.187 206.328 729.797 207.07C729.017 208.553 727.961 210.627 726.854 212.992C724.646 217.709 722.214 223.633 721.402 228.338L722.388 228.509ZM721.402 228.338C719.786 237.702 720.363 247.142 725.096 259.894L726.034 259.546C721.356 246.944 720.804 237.683 722.388 228.509L721.402 228.338ZM615.427 247.418C618.064 249.576 621.684 251.512 625.547 253.099L625.927 252.175C622.112 250.607 618.592 248.716 616.06 246.644L615.427 247.418ZM625.547 253.099C629.219 254.609 633.133 255.814 636.675 256.598L636.891 255.622C633.404 254.849 629.545 253.662 625.927 252.175L625.547 253.099ZM625.244 252.723L627.559 266.007L628.544 265.835L626.229 252.551L625.244 252.723ZM627.567 266.043L637.733 306.499L638.703 306.255L628.536 265.799L627.567 266.043ZM725.096 259.894C725.638 261.352 726.254 262.78 726.953 264.162L727.845 263.711C727.164 262.365 726.563 260.972 726.034 259.546L725.096 259.894ZM637.735 306.506C638.267 308.487 640.078 309.915 642.632 310.862C645.2 311.814 648.631 312.324 652.623 312.401C660.612 312.554 670.963 310.971 681.43 307.559C702.325 300.746 723.921 286.55 727.891 264.023L726.906 263.849C723.036 285.81 701.917 299.827 681.12 306.608C670.74 309.992 660.5 311.552 652.642 311.401C648.709 311.325 645.402 310.822 642.979 309.924C640.541 309.02 639.107 307.762 638.701 306.247L637.735 306.506ZM729.553 174.878C731.379 171.742 734.453 167.089 737.732 163.331C739.373 161.451 741.05 159.813 742.634 158.699C744.235 157.574 745.652 157.047 746.803 157.223L746.955 156.235C745.41 155.999 743.719 156.714 742.059 157.881C740.382 159.06 738.645 160.765 736.979 162.674C733.645 166.494 730.536 171.203 728.689 174.375L729.553 174.878ZM746.803 157.223C747.985 157.404 748.633 157.99 748.969 158.814C749.322 159.681 749.347 160.864 749.12 162.227C748.669 164.942 747.265 168.106 746.097 170.197L746.97 170.685C748.163 168.548 749.628 165.269 750.107 162.391C750.345 160.958 750.351 159.557 749.895 158.437C749.421 157.273 748.469 156.467 746.955 156.235L746.803 157.223ZM599.433 135.299C601.723 119.812 603.877 106.641 605.681 97.5958C606.584 93.0694 607.397 89.5936 608.091 87.3806C608.442 86.2638 608.75 85.5125 609.004 85.1089C609.14 84.8936 609.21 84.8603 609.194 84.8673C609.168 84.8784 609.113 84.8913 609.048 84.8733C608.991 84.8574 608.972 84.83 608.985 84.8445L609.73 84.1773C609.631 84.0662 609.495 83.9595 609.316 83.9099C609.131 83.8582 608.95 83.8829 608.795 83.9504C608.519 84.0703 608.314 84.3283 608.158 84.5757C607.829 85.0977 607.49 85.9576 607.137 87.081C606.425 89.3484 605.604 92.8686 604.7 97.4001C602.891 106.471 600.735 119.662 598.444 135.152L599.433 135.299ZM595.794 152.579C593.105 166.941 591.324 185.156 593.549 202.518C595.775 219.876 602.014 236.444 615.427 247.418L616.06 246.644C602.923 235.895 596.749 219.616 594.541 202.391C592.333 185.169 594.098 167.066 596.777 152.763L595.794 152.579ZM625.127 254.062C624.662 253.877 624.662 253.877 624.662 253.878C624.662 253.878 624.661 253.879 624.661 253.879C624.66 253.881 624.66 253.883 624.658 253.887C624.656 253.893 624.652 253.902 624.647 253.914C624.638 253.938 624.624 253.974 624.606 254.021C624.569 254.115 624.515 254.254 624.446 254.437C624.308 254.801 624.108 255.338 623.862 256.027C623.371 257.406 622.692 259.397 621.946 261.853C620.453 266.763 618.686 273.533 617.588 280.972C615.4 295.801 615.844 313.488 626.718 324.251L627.422 323.54C616.921 313.146 616.393 295.917 618.577 281.118C619.666 273.743 621.42 267.022 622.903 262.144C623.644 259.705 624.317 257.729 624.804 256.363C625.048 255.68 625.245 255.15 625.381 254.791C625.449 254.612 625.502 254.475 625.537 254.384C625.555 254.338 625.569 254.304 625.578 254.281C625.582 254.269 625.586 254.261 625.588 254.255C625.589 254.253 625.59 254.251 625.59 254.249C625.591 254.249 625.591 254.248 625.591 254.248C625.591 254.248 625.591 254.247 625.127 254.062ZM626.718 324.251C632.167 329.644 639.536 332.395 647.862 333.232C656.185 334.069 665.493 332.998 674.871 330.718C693.623 326.16 712.747 316.748 724.999 307.923L724.414 307.112C712.263 315.865 693.256 325.22 674.635 329.747C665.325 332.009 656.136 333.059 647.962 332.237C639.789 331.415 632.661 328.726 627.422 323.54L626.718 324.251ZM724.999 307.923C744.67 293.754 752.303 270.317 754.048 261.704L753.068 261.506C751.345 270.009 743.79 293.155 724.414 307.112L724.999 307.923ZM612.004 207.541C617.719 211.626 622.793 213.159 627.863 212.331C632.906 211.508 637.846 208.363 643.335 203.318L642.658 202.582C637.214 207.585 632.452 210.569 627.701 211.344C622.977 212.116 618.166 210.716 612.585 206.727L612.004 207.541ZM615.778 138.501C608.478 135.761 600.611 134.63 592.846 135.202L592.92 136.199C600.54 135.638 608.262 136.748 615.427 139.438L615.778 138.501ZM592.846 135.202C591.188 135.324 589.352 135.645 587.78 136.355C586.204 137.066 584.85 138.188 584.256 139.924L585.202 140.248C585.678 138.857 586.773 137.906 588.191 137.266C589.615 136.624 591.321 136.317 592.92 136.199L592.846 135.202ZM584.256 139.923C583.579 141.885 584.167 144.053 585.272 145.67L586.098 145.106C585.112 143.663 584.657 141.825 585.201 140.25L584.256 139.923ZM585.272 145.67C586.379 147.29 587.986 148.452 589.585 149.407L590.098 148.549C588.538 147.617 587.081 146.545 586.098 145.106L585.272 145.67ZM589.581 149.405C593.336 151.699 597.536 153.276 601.881 153.873L602.017 152.882C597.82 152.306 593.75 150.78 590.102 148.551L589.581 149.405ZM601.881 153.873C604.024 154.167 605.751 154.331 607.673 154.006C609.593 153.682 611.67 152.877 614.547 151.297L614.065 150.421C611.235 151.975 609.27 152.722 607.506 153.02C605.744 153.318 604.146 153.174 602.017 152.882L601.881 153.873ZM615.427 139.438C617.173 140.093 618.25 140.927 618.837 141.809C619.416 142.679 619.549 143.643 619.319 144.645C618.849 146.689 616.857 148.887 614.065 150.421L614.547 151.297C617.461 149.696 619.733 147.307 620.293 144.869C620.578 143.629 620.417 142.378 619.67 141.255C618.93 140.143 617.648 139.203 615.778 138.501L615.427 139.438ZM678.675 147.696C670.359 144.574 661.396 143.285 652.549 143.936L652.623 144.934C661.325 144.293 670.143 145.561 678.324 148.632L678.675 147.696ZM652.549 143.936C650.662 144.075 648.577 144.441 646.795 145.245C645.008 146.051 643.482 147.319 642.812 149.275L643.758 149.6C644.31 147.988 645.577 146.892 647.206 146.157C648.84 145.42 650.795 145.068 652.623 144.934L652.549 143.936ZM642.812 149.274C642.05 151.485 642.711 153.934 643.963 155.766L644.789 155.202C643.656 153.545 643.128 151.425 643.758 149.601L642.812 149.274ZM643.963 155.766C645.217 157.601 647.039 158.921 648.861 160.008L649.373 159.15C647.591 158.086 645.919 156.856 644.789 155.202L643.963 155.766ZM648.856 160.006C653.132 162.618 657.913 164.413 662.859 165.092L662.995 164.102C658.197 163.443 653.546 161.699 649.378 159.152L648.856 160.006ZM662.859 165.092C665.302 165.428 667.262 165.614 669.443 165.245C671.622 164.877 673.984 163.963 677.261 162.163L676.78 161.286C673.549 163.061 671.299 163.917 669.277 164.259C667.256 164.601 665.424 164.435 662.995 164.102L662.859 165.092ZM678.324 148.632C680.324 149.383 681.567 150.341 682.247 151.363C682.92 152.374 683.073 153.494 682.807 154.653C682.265 157.012 679.973 159.532 676.78 161.286L677.261 162.163C680.577 160.342 683.149 157.63 683.781 154.877C684.102 153.48 683.921 152.073 683.08 150.809C682.247 149.557 680.799 148.493 678.675 147.696L678.324 148.632ZM718.213 38.3618C727.908 39.5753 748.852 46.4021 760.332 64.3634L761.174 63.8248C749.475 45.5188 728.195 38.6034 718.337 37.3695L718.213 38.3618ZM743.011 57.0504L747.877 75.1578L748.843 74.8983L743.977 56.7909L743.011 57.0504ZM747.389 75.4747L730.393 61.7194L729.764 62.4967L746.76 76.252L747.389 75.4747ZM728.458 62.0534L720.141 75.6606L720.994 76.1821L729.311 62.5749L728.458 62.0534ZM719.601 75.6263L710.256 54.7883L709.344 55.1975L718.689 76.0355L719.601 75.6263ZM708.597 54.1034L670.51 68.7056L670.868 69.6393L708.955 55.0372L708.597 54.1034ZM670.123 68.2925L677.257 52.7703L676.349 52.3527L669.214 67.8749L670.123 68.2925ZM676.277 50.9358L659.613 48.2699L659.455 49.2573L676.119 51.9232L676.277 50.9358ZM659.545 47.6852L688.815 35.6956L688.435 34.7702L659.166 46.7599L659.545 47.6852ZM671.926 26.3762C677.877 25.5539 686.364 25.2535 694.814 26.7629C703.269 28.2731 711.63 31.5845 717.403 37.9369L718.143 37.2644C712.164 30.6855 703.559 27.3092 694.99 25.7784C686.415 24.2468 677.82 24.5522 671.789 25.3856L671.926 26.3762ZM688.782 33.2661L685.977 32.2055L685.623 33.1409L688.428 34.2015L688.782 33.2661ZM685.977 32.2055L671.896 26.8801L671.542 27.8154L685.623 33.1409L685.977 32.2055ZM685.761 32.1748C677.897 32.7997 665.596 34.2097 653.533 36.4455C641.491 38.6774 629.613 41.7448 622.644 45.7109L623.138 46.58C629.945 42.706 641.672 39.661 653.715 37.4287C665.738 35.2003 678.004 33.7943 685.84 33.1716L685.761 32.1748ZM642.03 49.8471C639.124 52.2796 635.312 55.8188 631.883 59.743C628.461 63.6582 625.384 67.997 623.994 72.0271L624.939 72.3532C626.265 68.5085 629.24 64.2871 632.636 60.401C636.024 56.524 639.796 53.0208 642.672 50.614L642.03 49.8471ZM625.681 73.5521L658.223 59.731L657.832 58.8106L625.29 72.6317L625.681 73.5521ZM730.297 94.7102L744.848 109.047L745.55 108.334L730.998 93.9978L730.297 94.7102ZM746.985 108.578L752.897 92.954L751.962 92.6001L746.05 108.225L746.985 108.578ZM759.973 64.7024L755.598 62.0504L755.08 62.9055L759.455 65.5575L759.973 64.7024ZM755.598 62.0504L744.949 55.5951L744.431 56.4503L755.08 62.9055L755.598 62.0504ZM776.832 111.163C774.472 103.075 770.87 91.8561 767.026 82.1522C765.105 77.3013 763.119 72.8173 761.192 69.2886C760.23 67.5244 759.277 65.9898 758.349 64.7641C757.426 63.5449 756.505 62.6002 755.598 62.0504L755.08 62.9055C755.829 63.3594 756.659 64.1883 757.552 65.3675C758.439 66.5403 759.366 68.0289 760.315 69.7677C762.213 73.2453 764.182 77.6868 766.096 82.5204C769.925 92.1856 773.517 103.372 775.872 111.443L776.832 111.163ZM753.39 92.8374L772.362 110.314L773.039 109.579L754.068 92.1019L753.39 92.8374ZM772.362 110.314L774.703 112.471L775.38 111.736L773.039 109.579L772.362 110.314ZM772.201 109.964L773.185 138.733L774.184 138.699L773.2 109.929L772.201 109.964ZM772.628 138.918L761.338 122.674L760.517 123.245L771.807 139.489L772.628 138.918ZM759.095 122.842L755.695 129.742L756.592 130.184L759.992 123.284L759.095 122.842ZM755.247 129.858L737.821 117.822L737.253 118.645L754.679 130.681L755.247 129.858ZM736.556 117.7L724.789 122.843L725.19 123.759L736.957 118.616L736.556 117.7ZM711.546 117.005L712.922 115.331L712.149 114.696L710.774 116.37L711.546 117.005ZM712.922 115.331L729.846 94.7338L729.073 94.099L712.149 114.696L712.922 115.331ZM724.491 122.813L712.823 114.605L712.248 115.423L723.916 123.63L724.491 122.813ZM695.444 75.6534L707.503 111.283L708.45 110.962L696.391 75.3328L695.444 75.6534ZM707.503 111.283L709.301 116.595L710.248 116.274L708.45 110.962L707.503 111.283ZM707.618 110.775L699.13 119.529L699.848 120.225L708.336 111.471L707.618 110.775ZM698.613 119.385L695.158 104.47L694.184 104.695L697.639 119.611L698.613 119.385ZM692.801 104.038L681.551 120.84L682.382 121.396L693.632 104.594L692.801 104.038ZM649.846 105.932C649.715 106.489 649.7 107.04 649.982 107.454C650.287 107.902 650.804 108.008 651.291 107.979C651.784 107.949 652.374 107.778 653.029 107.513C653.691 107.246 654.451 106.869 655.292 106.401C658.65 104.534 663.439 101.136 668.713 97.0988L668.106 96.3047C662.834 100.34 658.095 103.698 654.806 105.527C653.986 105.983 653.265 106.339 652.654 106.586C652.036 106.836 651.563 106.961 651.231 106.981C650.893 107.001 650.823 106.912 650.809 106.891C650.772 106.837 650.705 106.645 650.819 106.16L649.846 105.932ZM668.713 97.0988C677.483 90.386 687.654 81.8595 694.953 75.5192L694.298 74.7642C687.006 81.0974 676.853 89.6093 668.106 96.3047L668.713 97.0988ZM681.024 120.807L668.857 96.4781L667.962 96.9254L680.129 121.254L681.024 120.807ZM658.643 60.0651C657.339 67.277 655.33 78.2188 653.496 87.8362L654.478 88.0235C656.313 78.4019 658.323 67.4568 659.627 60.243L658.643 60.0651ZM653.496 87.8362C652.004 95.6562 650.631 102.588 649.846 105.932L650.819 106.16C651.61 102.792 652.988 95.8382 654.478 88.0235L653.496 87.8362ZM653.551 87.6856L644.451 103.935L645.323 104.424L654.423 88.1742L653.551 87.6856ZM643.892 103.875L637.591 83.0635L636.634 83.3532L642.934 104.164L643.892 103.875ZM635.126 82.964L629.479 97.3256L630.41 97.6915L636.057 83.3299L635.126 82.964ZM628.953 97.4008L614.647 78.9149L613.856 79.527L628.162 98.0128L628.953 97.4008ZM612.645 78.8389L595.748 97.5468L596.491 98.2171L613.388 79.5092L612.645 78.8389ZM595.241 97.2206L608.502 66.5907L607.584 66.1934L594.323 96.8233L595.241 97.2206ZM607.244 64.7677L591.907 65.4659L591.953 66.4648L607.289 65.7666L607.244 64.7677ZM623.213 48.0072L636.861 48.9309L636.929 47.9332L623.281 47.0095L623.213 48.0072ZM636.861 48.9309L641.849 49.2685L641.917 48.2708L636.929 47.9332L636.861 48.9309ZM591.792 64.8723L637.061 48.9036L636.729 47.9606L591.459 63.9293L591.792 64.8723ZM591.907 65.4659C591.556 65.4819 591.46 64.9893 591.792 64.8723L591.459 63.9293C590.042 64.429 590.452 66.5332 591.953 66.4648L591.907 65.4659ZM608.502 66.5907C608.885 65.705 608.208 64.7238 607.244 64.7677L607.289 65.7666C607.515 65.7563 607.674 65.986 607.584 66.1934L608.502 66.5907ZM595.748 97.5468C595.517 97.8036 595.104 97.538 595.241 97.2206L594.323 96.8233C593.736 98.1796 595.5 99.3139 596.491 98.2171L595.748 97.5468ZM614.647 78.9149C614.149 78.2717 613.191 78.2353 612.645 78.8389L613.388 79.5092C613.515 79.3679 613.739 79.3764 613.856 79.527L614.647 78.9149ZM629.479 97.3256C629.392 97.5463 629.098 97.5884 628.953 97.4008L628.162 98.0128C628.782 98.8141 630.039 98.6344 630.41 97.6915L629.479 97.3256ZM637.591 83.0635C637.232 81.8784 635.58 81.8117 635.126 82.964L636.057 83.3299C636.163 83.0602 636.55 83.0758 636.634 83.3532L637.591 83.0635ZM644.451 103.935C644.319 104.171 643.97 104.133 643.892 103.875L642.934 104.164C643.268 105.266 644.761 105.428 645.323 104.424L644.451 103.935ZM681.551 120.84C681.421 121.035 681.128 121.016 681.024 120.807L680.129 121.254C680.577 122.15 681.825 122.229 682.382 121.396L681.551 120.84ZM695.158 104.47C694.9 103.356 693.437 103.088 692.801 104.038L693.632 104.594C693.781 104.372 694.123 104.435 694.184 104.695L695.158 104.47ZM699.13 119.529C698.962 119.703 698.668 119.621 698.613 119.385L697.639 119.611C697.872 120.618 699.129 120.968 699.848 120.225L699.13 119.529ZM724.789 122.843C724.691 122.885 724.578 122.874 724.491 122.813L723.916 123.63C724.289 123.893 724.772 123.942 725.19 123.759L724.789 122.843ZM737.821 117.822C737.449 117.565 736.971 117.519 736.556 117.7L736.957 118.616C737.054 118.574 737.166 118.585 737.253 118.645L737.821 117.822ZM755.695 129.742C755.613 129.909 755.401 129.964 755.247 129.858L754.679 130.681C755.335 131.134 756.24 130.898 756.592 130.184L755.695 129.742ZM761.338 122.674C760.771 121.857 759.535 121.95 759.095 122.842L759.992 123.284C760.095 123.075 760.384 123.053 760.517 123.245L761.338 122.674ZM752.897 92.954C752.974 92.7515 753.231 92.6907 753.39 92.8374L754.068 92.1019C753.387 91.4752 752.289 91.735 751.962 92.6001L752.897 92.954ZM744.848 109.047C745.52 109.709 746.651 109.461 746.985 108.578L746.05 108.225C745.972 108.431 745.707 108.489 745.55 108.334L744.848 109.047ZM730.998 93.9978C730.452 93.4592 729.56 93.506 729.073 94.099L729.846 94.7338C729.96 94.595 730.168 94.5841 730.297 94.7102L730.998 93.9978ZM710.774 116.37C710.621 116.555 710.325 116.501 710.248 116.274L709.301 116.595C709.629 117.565 710.896 117.796 711.546 117.005L710.774 116.37ZM696.391 75.3328C696.093 74.4542 695 74.154 694.298 74.7642L694.953 75.5192C695.117 75.3772 695.373 75.4454 695.444 75.6534L696.391 75.3328ZM658.223 59.731C658.448 59.6355 658.686 59.8276 658.643 60.0651L659.627 60.243C659.812 59.2199 658.786 58.4054 657.832 58.8106L658.223 59.731ZM623.994 72.0271C623.62 73.1103 624.725 73.9583 625.681 73.5521L625.29 72.6317C625.169 72.6831 625.063 72.6532 624.997 72.5951C624.934 72.5406 624.902 72.4606 624.939 72.3532L623.994 72.0271ZM642.672 50.614C643.575 49.8578 643.113 48.3517 641.917 48.2708L641.849 49.2685C642.126 49.2872 642.258 49.6561 642.03 49.8471L642.672 50.614ZM622.644 45.7109C622.106 46.0171 621.921 46.5821 622.054 47.0777C622.184 47.5655 622.614 47.9667 623.213 48.0072L623.281 47.0095C623.121 46.9987 623.043 46.9065 623.02 46.8197C623.008 46.7741 623.011 46.7315 623.025 46.6965C623.038 46.6648 623.066 46.6209 623.138 46.58L622.644 45.7109ZM671.789 25.3856C671.139 25.4755 670.752 25.9724 670.703 26.5027C670.655 27.0284 670.938 27.587 671.542 27.8154L671.896 26.8801C671.74 26.821 671.689 26.7018 671.699 26.5938C671.704 26.5371 671.726 26.4887 671.758 26.4542C671.787 26.423 671.836 26.3887 671.926 26.3762L671.789 25.3856ZM688.815 35.6956C689.911 35.2463 689.89 33.6855 688.782 33.2662L688.428 34.2015C688.687 34.2996 688.692 34.665 688.435 34.7702L688.815 35.6956ZM659.613 48.2699C659.308 48.2211 659.26 47.8023 659.545 47.6852L659.166 46.7599C657.945 47.26 658.152 49.0489 659.455 49.2573L659.613 48.2699ZM677.257 52.7703C677.618 51.9851 677.131 51.0723 676.277 50.9358L676.119 51.9232C676.319 51.9552 676.433 52.1689 676.349 52.3527L677.257 52.7703ZM670.51 68.7056C670.254 68.8037 670.009 68.5415 670.123 68.2925L669.214 67.8749C668.726 68.9385 669.775 70.0583 670.868 69.6393L670.51 68.7056ZM710.256 54.7883C709.973 54.156 709.244 53.8554 708.597 54.1034L708.955 55.0372C709.107 54.9791 709.277 55.0495 709.344 55.1975L710.256 54.7883ZM720.141 75.6606C720.013 75.8704 719.702 75.8506 719.601 75.6263L718.689 76.0355C719.119 76.9938 720.446 77.0782 720.994 76.1821L720.141 75.6606ZM730.393 61.7194C729.78 61.2229 728.87 61.38 728.458 62.0534L729.311 62.5749C729.407 62.4173 729.621 62.3805 729.764 62.4967L730.393 61.7194ZM773.185 138.733C773.195 139.038 772.802 139.168 772.628 138.918L771.807 139.489C772.55 140.558 774.228 140 774.184 138.699L773.185 138.733ZM747.877 75.1578C747.954 75.4437 747.62 75.661 747.389 75.4747L746.76 76.252C747.744 77.0478 749.171 76.1201 748.843 74.8983L747.877 75.1578ZM743.977 56.791C743.906 56.5248 744.195 56.3074 744.431 56.4503L744.949 55.5951C743.942 54.9849 742.706 55.9136 743.011 57.0504L743.977 56.791ZM760.332 64.3634C760.382 64.4422 760.388 64.5031 760.382 64.545C760.376 64.5916 760.353 64.6393 760.313 64.6789C760.238 64.7532 760.118 64.7898 759.973 64.7024L759.455 65.5575C760.017 65.8984 760.639 65.7651 761.018 65.3885C761.399 65.0093 761.533 64.3855 761.174 63.8248L760.332 64.3634ZM775.872 111.443C775.952 111.717 775.62 111.956 775.38 111.736L774.703 112.471C775.658 113.351 777.207 112.448 776.832 111.163L775.872 111.443ZM718.337 37.3695C718.266 37.3606 718.2 37.3274 718.143 37.2644L717.403 37.9369C717.611 38.1666 717.892 38.3215 718.213 38.3618L718.337 37.3695ZM650.886 132.68C661.502 128.671 669.78 131.851 684.758 137.318L685.101 136.379C670.212 130.944 661.559 127.581 650.533 131.744L650.886 132.68ZM619.828 128.671C611.808 120.035 602.562 119.194 586.811 117.433L586.7 118.426C602.546 120.198 611.374 121.036 619.095 129.351L619.828 128.671ZM624.949 252.956C595.709 247.464 568.344 257.644 543.552 275.705C518.763 293.764 496.501 319.735 477.43 345.928C458.359 372.121 442.455 398.574 430.409 417.592C424.379 427.111 419.328 434.75 415.326 439.579C413.32 442.001 411.611 443.674 410.204 444.535C409.503 444.964 408.914 445.168 408.426 445.191C407.958 445.212 407.553 445.068 407.185 444.729L406.508 445.464C407.068 445.982 407.733 446.223 408.471 446.19C409.191 446.157 409.947 445.865 410.726 445.388C412.281 444.437 414.077 442.655 416.096 440.217C420.145 435.331 425.229 427.638 431.254 418.127C443.316 399.084 459.193 372.675 478.239 346.516C497.286 320.356 519.476 294.482 544.141 276.514C568.802 258.548 595.889 248.516 624.765 253.939L624.949 252.956ZM407.185 444.729C399.774 437.896 364.908 402.594 326.533 361.877C288.157 321.159 246.306 275.061 224.916 246.634L224.117 247.236C245.545 275.714 287.433 321.85 325.805 362.563C364.177 403.277 399.067 438.603 406.508 445.464L407.185 444.729ZM143.297 299.227L235.565 476.315L236.452 475.853L144.184 298.765L143.297 299.227ZM236.008 476.584H886.328V475.584H236.008V476.584ZM149.18 286.098C146.766 288.8 144.922 291.32 143.862 293.52C142.813 295.698 142.47 297.691 143.3 299.233L144.18 298.76C143.587 297.657 143.75 296.055 144.763 293.954C145.764 291.876 147.538 289.436 149.926 286.764L149.18 286.098ZM149.954 286.132L132.255 262.39L131.453 262.987L149.152 286.73L149.954 286.132ZM224.916 246.634C223.722 245.047 221.775 244.307 219.377 244.189C216.98 244.071 214.06 244.569 210.799 245.534L211.083 246.493C214.294 245.542 217.091 245.078 219.328 245.188C221.565 245.298 223.17 245.976 224.117 247.236L224.916 246.634ZM193.836 219.82L210.518 246.28L211.364 245.747L194.682 219.287L193.836 219.82ZM642.822 309.932L632.304 328.289L633.172 328.786L643.69 310.429L642.822 309.932ZM655.593 310.088L652.243 333.163L653.232 333.306L656.583 310.232L655.593 310.088ZM670.805 309.058L677.272 328.507L678.221 328.192L671.754 308.743L670.805 309.058ZM688.558 302.582L701.56 321.221L702.38 320.649L689.378 302.01L688.558 302.582ZM708.158 293.762L724.939 305.703L725.518 304.888L708.737 292.947L708.158 293.762ZM719.569 282.411L743.229 287.968L743.457 286.994L719.798 281.438L719.569 282.411ZM754.467 263.137C830.173 299.546 868.61 358.243 874.624 396.6L875.612 396.445C869.536 357.691 830.83 298.752 754.9 262.236L754.467 263.137ZM636.069 298.185L618.882 307.941L619.376 308.811L636.563 299.055L636.069 298.185ZM632.403 282.981L618.678 279.757L618.449 280.731L632.174 283.954L632.403 282.981ZM629.098 265.929L622.3 264.333L622.072 265.306L628.869 266.903L629.098 265.929ZM132.303 262.468C131.802 261.449 131.832 260.126 132.413 258.504C132.992 256.887 134.098 255.038 135.641 253.032L134.849 252.422C133.273 254.47 132.1 256.412 131.471 258.167C130.844 259.919 130.738 261.55 131.405 262.909L132.303 262.468ZM154.618 280.578C152.59 282.478 150.759 284.331 149.18 286.098L149.926 286.764C151.481 285.023 153.29 283.192 155.302 281.307L154.618 280.578ZM134.835 253.013L154.55 281.229L155.37 280.656L135.655 252.44L134.835 253.013ZM187.477 218.431C189.148 218.125 190.542 218.084 191.618 218.318C192.682 218.55 193.407 219.042 193.821 219.794L194.697 219.312C194.111 218.246 193.102 217.618 191.831 217.341C190.573 217.067 189.032 217.129 187.297 217.448L187.477 218.431ZM210.799 245.534C209.075 246.044 207.249 246.688 205.345 247.445L205.715 248.374C207.596 247.626 209.393 246.993 211.083 246.493L210.799 245.534ZM186.959 218.198L205.102 248.169L205.958 247.651L187.815 217.681L186.959 218.198ZM176.546 222.343C180.718 220.362 184.484 218.981 187.477 218.431L187.297 217.448C184.179 218.02 180.322 219.443 176.117 221.439L176.546 222.343ZM205.345 247.445C202.4 248.617 199.264 250.065 196.026 251.723L196.482 252.613C199.698 250.966 202.805 249.532 205.715 248.374L205.345 247.445ZM175.913 222.166L195.836 252.443L196.672 251.893L176.749 221.616L175.913 222.166ZM135.641 253.032C137.835 250.18 140.88 247.053 144.45 243.874L143.785 243.127C140.187 246.33 137.094 249.504 134.849 252.422L135.641 253.032ZM165.085 271.689C161.255 274.679 157.705 277.686 154.618 280.578L155.302 281.307C158.363 278.439 161.89 275.452 165.701 272.477L165.085 271.689ZM143.717 243.799L164.992 272.381L165.794 271.784L144.519 243.202L143.717 243.799ZM144.45 243.874C148.979 239.843 154.337 235.742 159.843 232.034L159.285 231.204C153.747 234.934 148.352 239.062 143.785 243.127L144.45 243.874ZM159.843 232.034C165.511 228.216 171.327 224.82 176.546 222.343L176.117 221.439C170.843 223.943 164.984 227.366 159.285 231.204L159.843 232.034ZM196.026 251.723C190.724 254.438 185.143 257.72 179.673 261.286L180.219 262.124C185.665 258.574 191.216 255.309 196.482 252.613L196.026 251.723ZM179.673 261.286C174.615 264.584 169.65 268.125 165.085 271.689L165.701 272.477C170.242 268.932 175.184 265.406 180.219 262.124L179.673 261.286ZM159.15 231.899L179.532 261.986L180.36 261.425L159.978 231.339L159.15 231.899ZM727.318 264.783L750.962 269.232L751.147 268.25L727.503 263.8L727.318 264.783ZM722.459 246.026C722.303 246.501 722.303 246.501 722.303 246.501C722.303 246.501 722.303 246.501 722.303 246.501C722.303 246.501 722.303 246.501 722.304 246.501C722.304 246.501 722.305 246.501 722.306 246.502C722.309 246.503 722.313 246.504 722.318 246.506C722.329 246.509 722.345 246.515 722.367 246.522C722.409 246.536 722.474 246.558 722.558 246.587C722.728 246.644 722.979 246.731 723.303 246.846C723.951 247.075 724.893 247.417 726.065 247.865C728.41 248.763 731.672 250.089 735.343 251.799L735.765 250.893C732.069 249.17 728.784 247.836 726.423 246.932C725.242 246.479 724.292 246.135 723.636 245.903C723.308 245.787 723.054 245.699 722.881 245.64C722.795 245.611 722.729 245.589 722.684 245.574C722.662 245.566 722.645 245.56 722.634 245.557C722.628 245.555 722.624 245.553 722.621 245.552C722.619 245.552 722.618 245.551 722.617 245.551C722.617 245.551 722.616 245.551 722.616 245.551C722.616 245.551 722.616 245.551 722.616 245.551C722.616 245.551 722.616 245.551 722.459 246.026ZM735.343 251.799C737.302 252.712 739.377 253.735 741.49 254.86L741.96 253.977C739.829 252.842 737.738 251.812 735.765 250.893L735.343 251.799ZM741.49 254.86C745.855 257.184 750.375 259.944 754.375 263.08L754.992 262.293C750.932 259.11 746.358 256.319 741.96 253.977L741.49 254.86ZM725.277 256.537L741.774 254.916L741.676 253.921L725.18 255.542L725.277 256.537ZM729.279 197.094L753.673 209.379L754.123 208.486L729.729 196.201L729.279 197.094ZM755.352 215.065L753.294 218.578L754.157 219.083L756.215 215.57L755.352 215.065ZM747.968 220.159L735.752 214.048L735.305 214.942L747.52 221.053L747.968 220.159ZM738.398 208.741L750.017 214.516L750.462 213.621L738.843 207.846L738.398 208.741ZM726.857 227.062L726.079 204.535L725.079 204.57L725.857 227.097L726.857 227.062ZM734.706 209.618C735.564 208.473 737.117 208.104 738.398 208.741L738.843 207.846C737.13 206.994 735.053 207.487 733.906 209.018L734.706 209.618ZM735.752 214.048C734.098 213.22 733.597 211.098 734.706 209.618L733.906 209.018C732.423 210.997 733.093 213.836 735.305 214.942L735.752 214.048ZM753.294 218.578C752.212 220.425 749.883 221.117 747.968 220.159L747.52 221.053C749.906 222.246 752.809 221.385 754.157 219.083L753.294 218.578ZM753.673 209.379C755.769 210.435 756.538 213.04 755.352 215.065L756.215 215.57C757.693 213.048 756.734 209.801 754.123 208.486L753.673 209.379ZM781.79 172.608L778.434 174.219L778.866 175.121L782.223 173.509L781.79 172.608ZM782.343 164.905L783.417 167.859L784.357 167.517L783.282 164.563L782.343 164.905ZM783.415 167.523L781.535 172.893L782.479 173.224L784.359 167.853L783.415 167.523ZM732.797 153.753L706.614 142.122L706.208 143.035L732.391 154.667L732.797 153.753ZM778.853 174.213L758.175 165.027L757.769 165.941L778.447 175.127L778.853 174.213ZM758.435 154.124L782.604 165.188L783.021 164.279L758.851 153.215L758.435 154.124ZM711.037 132.426L744.739 147.854L745.155 146.945L711.453 131.516L711.037 132.426ZM694.401 130.453L702.793 131.46L702.912 130.467L694.52 129.46L694.401 130.453ZM702.793 131.46L711.185 132.467L711.304 131.474L702.912 130.467L702.793 131.46ZM706.774 142.235L700.329 135.428L699.603 136.115L706.048 142.922L706.774 142.235ZM700.329 135.428L694.824 129.613L694.097 130.301L699.603 136.115L700.329 135.428ZM702.424 130.706L699.537 135.514L700.394 136.029L703.281 131.221L702.424 130.706ZM710.784 132.166L712.396 135.966L713.316 135.576L711.705 131.776L710.784 132.166ZM712.382 135.612L710.771 140.405L711.719 140.724L713.33 135.931L712.382 135.612ZM711.052 140.103L706.219 142.117L706.603 143.04L711.437 141.026L711.052 140.103ZM799.634 191.051V203.27H800.634V191.051H799.634ZM799.634 214.281V226.5H800.634V214.281H799.634ZM811.816 208.141H804.506V209.141H811.816V208.141ZM795.762 208.141H788.452V209.141H795.762V208.141ZM526.253 18.644V30.8629H527.253V18.644H526.253ZM526.253 41.8734V54.0923H527.253V41.8734H526.253ZM538.435 35.7339H531.125V36.7339H538.435V35.7339ZM522.38 35.7339H515.071V36.7339H522.38V35.7339ZM818.164 246.61V253.488H819.164V246.61H818.164ZM818.164 264.499V271.378H819.164V264.499H818.164ZM827.675 258.359H823.036V259.359H827.675V258.359ZM814.291 258.359H809.652V259.359H814.291V258.359ZM544.783 63.4914V81.0812H545.783V63.4914H544.783ZM544.783 92.0917V109.682H545.783V92.0917H544.783ZM559.65 85.9522H549.655V86.9522H559.65V85.9522ZM540.91 85.9522H530.915V86.9522H540.91V85.9522ZM886.328 476.084C886.824 476.022 886.824 476.022 886.824 476.021C886.824 476.021 886.824 476.021 886.824 476.02C886.824 476.019 886.824 476.017 886.823 476.014C886.823 476.009 886.822 476.002 886.821 475.992C886.818 475.972 886.814 475.942 886.809 475.903C886.799 475.824 886.784 475.706 886.765 475.551C886.725 475.242 886.667 474.782 886.59 474.184C886.437 472.987 886.212 471.234 885.922 469.01C885.344 464.563 884.509 458.231 883.485 450.694C881.438 435.622 878.635 415.727 875.612 396.445L874.624 396.6C877.646 415.873 880.448 435.76 882.494 450.829C883.518 458.363 884.352 464.693 884.931 469.139C885.22 471.362 885.445 473.114 885.599 474.31C885.675 474.909 885.733 475.368 885.773 475.677C885.792 475.832 885.807 475.95 885.817 476.028C885.822 476.068 885.826 476.097 885.828 476.117C885.83 476.127 885.831 476.134 885.831 476.139C885.832 476.142 885.832 476.144 885.832 476.145C885.832 476.146 885.832 476.146 885.832 476.146C885.832 476.147 885.832 476.147 886.328 476.084Z" fill="#141414"/>
<circle cx="498.555" cy="73.8305" r="2.0141" fill="#141414"/>
<circle cx="120.067" cy="106.918" r="2.0141" fill="white"/>
<circle cx="26.6192" cy="62.4814" r="2.0141" fill="white"/>
<circle cx="99.4832" cy="43.8569" r="2.0141" fill="white"/>
<circle cx="568.646" cy="49.9296" r="2.0141" fill="#141414"/>
<circle cx="520.306" cy="121.363" r="2.0141" fill="#141414"/>
<circle cx="770.325" cy="249.46" r="2.0141" fill="#141414"/>
<path d="M260.575 478.045L206.602 321.535H460.79L510.556 465.846H680.706V478.045H514.763H260.575Z" fill="white"/>
<path d="M514.763 478.045H260.575L206.602 321.535H460.79L510.556 465.846M514.763 478.045L510.556 465.846M514.763 478.045H680.706V465.846H510.556" stroke="#141414"/>
<path d="M368.386 393.16C372.866 404.566 368.921 416.591 359.846 420.155C350.772 423.72 339.697 417.594 335.217 406.189C330.737 394.783 334.682 382.758 343.757 379.194C352.831 375.629 363.906 381.755 368.386 393.16Z" fill="#DEDEDE" stroke="#141414"/>
<path d="M141.579 243.933C135.981 230.15 125.765 212.74 116.747 211.626C105.474 210.234 65.4778 226.795 62.7977 214.678C60.6536 204.985 80.5672 198.383 90.792 196.294C83.7461 195.188 71.5143 190.035 78.9545 178.269M78.9545 178.269C75.7797 176.51 69.7925 171.698 71.2421 166.525C73.0541 160.058 79.2175 146.824 90.456 146.675C99.4468 146.556 99.2981 158.552 98.0999 164.565M78.9545 178.269C84.2474 169.898 91.5948 165.813 98.0999 164.565M94.1652 186.847C95.2339 187.383 99.6332 187.674 108.681 184.546C119.991 180.637 116.44 169.874 110.169 165.979C107.467 164.3 103.025 163.62 98.0999 164.565M142.502 194.976C130.984 187.358 127.386 181.05 131.036 162.634C123.694 162.765 109.259 160.009 110.249 147.945C111.486 132.865 141.673 138.058 151.929 148.913C162.185 159.769 165.532 192.721 181.115 219.428M74.0381 159.47C70.8633 157.711 65.1423 153.119 66.5919 147.945C68.4039 141.478 74.5674 128.244 85.8058 128.095C94.7966 127.977 94.6479 139.972 93.4497 145.985" stroke="#141414" stroke-linecap="round" stroke-linejoin="round"/>
<path d="M89.9721 128.92L54.0121 8.67822L125.242 196.065L111.519 200.966L106.877 185.446M94.1251 142.806L95.5909 147.707M98.9622 158.98L100.246 163.391" stroke="#141414" stroke-linecap="round" stroke-linejoin="round"/>
<path d="M507.041 391.621L516.844 354.209M534.978 408.285L563.895 376.754M549.845 435.405L591.994 427.89" stroke="white" stroke-linecap="round" stroke-linejoin="round"/>
<path d="M17.1818 84.3193C17.1818 84.0432 16.9579 83.8193 16.6818 83.8193C16.4056 83.8193 16.1818 84.0432 16.1818 84.3193H17.1818ZM16.1818 96.5382C16.1818 96.8144 16.4056 97.0382 16.6818 97.0382C16.9579 97.0382 17.1818 96.8144 17.1818 96.5382H16.1818ZM17.1818 107.549C17.1818 107.273 16.9579 107.049 16.6818 107.049C16.4056 107.049 16.1818 107.273 16.1818 107.549H17.1818ZM16.1818 119.768C16.1818 120.044 16.4056 120.268 16.6818 120.268C16.9579 120.268 17.1818 120.044 17.1818 119.768H16.1818ZM28.3636 102.409C28.6397 102.409 28.8636 102.185 28.8636 101.909C28.8636 101.633 28.6397 101.409 28.3636 101.409V102.409ZM21.0541 101.409C20.7779 101.409 20.5541 101.633 20.5541 101.909C20.5541 102.185 20.7779 102.409 21.0541 102.409V101.409ZM12.3095 102.409C12.5857 102.409 12.8095 102.185 12.8095 101.909C12.8095 101.633 12.5857 101.409 12.3095 101.409V102.409ZM5 101.409C4.72386 101.409 4.5 101.633 4.5 101.909C4.5 102.185 4.72386 102.409 5 102.409V101.409ZM16.1818 84.3193V96.5382H17.1818V84.3193H16.1818ZM16.1818 107.549V119.768H17.1818V107.549H16.1818ZM28.3636 101.409H21.0541V102.409H28.3636V101.409ZM12.3095 101.409H5V102.409H12.3095V101.409Z" fill="white"/>
<path d="M123.047 1C123.047 0.723858 122.823 0.5 122.547 0.5C122.271 0.5 122.047 0.723858 122.047 1H123.047ZM122.047 13.2189C122.047 13.495 122.271 13.7189 122.547 13.7189C122.823 13.7189 123.047 13.495 123.047 13.2189H122.047ZM123.047 24.2293C123.047 23.9532 122.823 23.7293 122.547 23.7293C122.271 23.7293 122.047 23.9532 122.047 24.2293H123.047ZM122.047 36.4482C122.047 36.7244 122.271 36.9482 122.547 36.9482C122.823 36.9482 123.047 36.7244 123.047 36.4482H122.047ZM134.229 19.0898C134.505 19.0898 134.729 18.866 134.729 18.5898C134.729 18.3137 134.505 18.0898 134.229 18.0898V19.0898ZM126.919 18.0898C126.643 18.0898 126.419 18.3137 126.419 18.5898C126.419 18.866 126.643 19.0898 126.919 19.0898V18.0898ZM118.175 19.0898C118.451 19.0898 118.675 18.866 118.675 18.5898C118.675 18.3137 118.451 18.0898 118.175 18.0898V19.0898ZM110.865 18.0898C110.589 18.0898 110.365 18.3137 110.365 18.5898C110.365 18.866 110.589 19.0898 110.865 19.0898V18.0898ZM122.047 1V13.2189H123.047V1H122.047ZM122.047 24.2293V36.4482H123.047V24.2293H122.047ZM134.229 18.0898H126.919V19.0898H134.229V18.0898ZM118.175 18.0898H110.865V19.0898H118.175V18.0898Z" fill="white"/>
</g>
<defs>
<filter id="filter0_d" x="0.5" y="0.5" width="890.395" height="486.045" filterUnits="userSpaceOnUse" color-interpolation-filters="sRGB">
<feFlood flood-opacity="0" result="BackgroundImageFix"/>
<feColorMatrix in="SourceAlpha" type="matrix" values="0 0 0 0 0 0 0 0 0 0 0 0 0 0 0 0 0 0 127 0"/>
<feOffset dy="4"/>
<feGaussianBlur stdDeviation="2"/>
<feColorMatrix type="matrix" values="0 0 0 0 0 0 0 0 0 0 0 0 0 0 0 0 0 0 0.25 0"/>
<feBlend mode="normal" in2="BackgroundImageFix" result="effect1_dropShadow"/>
<feBlend mode="normal" in="SourceGraphic" in2="effect1_dropShadow" result="shape"/>
</filter>
</defs>
</svg>
